<svg xmlns="http://www.w3.org/2000/svg" xmlns:xlink="http://www.w3.org/1999/xlink" width="204" height="204" viewBox="0 0 204 204">
  <defs>
    <clipPath id="clip-path">
      <circle id="Elipse_812" data-name="Elipse 812" cx="88.591" cy="88.591" r="88.591" transform="translate(0 176.089) rotate(-83.63)" fill="none"/>
    </clipPath>
  </defs>
  <g id="Grupo_10831" data-name="Grupo 10831" transform="translate(-450 -4037)">
    <circle id="Elipse_816" data-name="Elipse 816" cx="102" cy="102" r="102" transform="translate(450 4037)" fill="#d6d6d6"/>
    <g id="Grupo_10582" data-name="Grupo 10582" transform="translate(219.14 3714.646)">
      <circle id="Elipse_811" data-name="Elipse 811" cx="88.591" cy="88.591" r="88.591" transform="translate(233.917 502.443) rotate(-83.63)" fill="#d65555"/>
      <path id="Trazado_27386" data-name="Trazado 27386" d="M513.746,433.082a88.591,88.591,0,0,0-88.59-88.591V521.674A88.591,88.591,0,0,0,513.746,433.082Z" transform="translate(-93.365 -8.855)" fill="#2bb3c2"/>
      <g id="Grupo_10581" data-name="Grupo 10581" transform="translate(233.917 326.354)">
        <g id="Grupo_10580" data-name="Grupo 10580" transform="translate(0 0)" clip-path="url(#clip-path)">
          <path id="Trazado_27387" data-name="Trazado 27387" d="M479,399.562l-9.61-4.763a8.466,8.466,0,0,0-3.637-.732l-5.538.349a12.465,12.465,0,0,1-3.751-.447l-10.518-3.261a12.058,12.058,0,0,0-3.749-.426l-6.553.485a28.881,28.881,0,0,1-3.828-.027L414.307,389.2c-1.058-.093-1.2-.65-.324-1.245l2.54-1.721c.879-.594.781-1.369-.216-1.726l-3.751-1.348a7.914,7.914,0,0,0-3.686-.246l-6.4,1.378a18.045,18.045,0,0,0-3.594,1.264l-11.74,5.88a1.859,1.859,0,0,1-2.485-.551,1.858,1.858,0,0,0-2.485-.546l-9.173,4.606a37.772,37.772,0,0,1-3.525,1.51l-12.63,4.522a2.477,2.477,0,0,1-2.609-.385c-.442-.57-.159-1.605.636-2.31l1.1-.98c.793-.705.589-1.423-.457-1.6L344.5,393.826a4.52,4.52,0,0,0-3.328.952l-11.219,9.976a3.16,3.16,0,0,0-.833,3.094,2.132,2.132,0,0,0,2.445,1.393,3.768,3.768,0,0,1,3.185.953l1.286,1.317a1.458,1.458,0,0,0,2.378-.24l.858-1.334a5.694,5.694,0,0,0,.711-3.508l-.006-.043a5.019,5.019,0,0,1,.837-3.42l1.011-1.33c.642-.843,1.513-1.293,1.948-1s.356,1.185-.175,2a3.9,3.9,0,0,0-.609,2.7,2.6,2.6,0,0,0,2.261,1.379l.352.03c1.058.089,1.3.761.538,1.5l-4.217,4.111a6.012,6.012,0,0,1-3.291,1.465l-1.566.1a3.037,3.037,0,0,1-2.7-1.357,3.307,3.307,0,0,0-1.742-1.654c-.528-.1-1.232.64-1.566,1.646l-.178.536a6.36,6.36,0,0,1-2.223,2.863l-4.609,2.971a15.638,15.638,0,0,0-2.862,2.5l-2.2,2.58a9.025,9.025,0,0,0-1.659,3.336l-.265,1.2a5.7,5.7,0,0,0,.556,3.535l.706,1.212c.535.916.345,1.814-.422,2.006a4.6,4.6,0,0,0-2.336,2.017l-4.139,7.282a9.115,9.115,0,0,0-1.006,3.59l-.036,1.258a6.621,6.621,0,0,0,1.069,3.478l3.633,5.057a4.869,4.869,0,0,0,3.033,1.751l12.155,1.222a3.211,3.211,0,0,1,2.515,2.015l2.282,6.911a8.367,8.367,0,0,1,.2,3.7l-.694,3.264a7.484,7.484,0,0,0,.306,3.664l4.321,10.975a3.044,3.044,0,0,0,2.625,1.788h2.851a3.993,3.993,0,0,0,2.983-1.6l9.984-15.026a5.32,5.32,0,0,0,.685-3.485l-.272-1.352a5.621,5.621,0,0,1,.626-3.517l3.145-5.121,4.476-6.74c.586-.883.206-1.663-.853-1.74l-2.481-.178a4.191,4.191,0,0,1-2.918-1.777l-5.976-9.763c-.554-.9-.648-1.587-.213-1.523s1.238.851,1.789,1.757l5.307,8.737a1.91,1.91,0,0,0,2.633.639l8.846-5.421a1.045,1.045,0,0,0-.025-1.962l-.417-.238a7.038,7.038,0,0,1-2.257-2.011c-.326-.582.255-.906,1.3-.725l8.373,1.45a3.834,3.834,0,0,1,2.611,2.11l3.793,9.461c.4.983,1.237,1.781,1.881,1.781s1.447-.812,1.8-1.813l.528-1.506a7.389,7.389,0,0,1,2.173-2.964l5.861-4.372a2.3,2.3,0,0,1,2.906.2l8.639,8.55a2.476,2.476,0,0,0,2.97.3l.913-.6a2.834,2.834,0,0,0,1.111-2.91l-1.033-3.89a2.3,2.3,0,0,1,1.268-2.619l4.6-1.986a13.119,13.119,0,0,0,3.166-2.074l.872-.816a3.4,3.4,0,0,0,.856-3.156L423,432.91a2.129,2.129,0,0,1,1.242-2.544l.74-.29a1.344,1.344,0,0,1,1.942,1.212l.042.524a3.334,3.334,0,0,0,1.4,2.533c.687.341,1.472-.212,1.751-1.234l.181-.671a14.017,14.017,0,0,1,1.583-3.445l8.407-12.467a1.22,1.22,0,0,0-.8-2.011l-.7-.155c-1.035-.232-1.26-1.022-.5-1.765l2.606-2.552a6.413,6.413,0,0,1,3.281-1.549l6.55-.7a13.688,13.688,0,0,0,3.648-1.022l4.282-2.01c.959-.452,1.247-.112.639.758-2.2,3.153-6.954,9.951-7.088,10.052a10.464,10.464,0,0,0,2.063.046,4.173,4.173,0,0,0,3-1.632l3.2-4.679a6.256,6.256,0,0,1,2.923-2.127l7.222-2.121a2.019,2.019,0,0,0,1.385-2.4c-.253-1.024.38-1.665,1.415-1.432l2.491.561a5.208,5.208,0,0,0,3.347-.476C480.065,400.816,479.954,400.033,479,399.562ZM349.992,436.995l-6.341-1.31a3.026,3.026,0,0,0-2.839.909,1.518,1.518,0,0,1-2.334-.039l-3.865-3.754a3.843,3.843,0,0,0-3.242-.873l-7.943,1.987c-1.029.256-1.943.059-2.043-.443s.473-1.469,1.278-2.16l2.655-2.279a20.964,20.964,0,0,1,3.154-2.155l1.413-.756a2.139,2.139,0,0,1,2.746.7l1.884,2.881c.58.888,1.459,1.537,1.96,1.45s.423-.864-.178-1.738l-1.1-1.6c-.6-.874-.8-1.816-.436-2.1s1.236.113,1.954.893l3.935,4.272a4.029,4.029,0,0,0,2.527,1.359c.678-.029,1.078-.808.894-1.736s.432-1.294,1.379-.816l5.582,2.823a2.617,2.617,0,0,1,1.308,2.743l-.056.254A1.944,1.944,0,0,1,349.992,436.995Zm21.277-44.018c-.443.324-1.491.075-2.343-.557l-.235-.177a2.241,2.241,0,0,1-.6-2.82l.762-1.359a6.943,6.943,0,0,1,2.68-2.485l8.128-3.777c.964-.446,2.026-.468,2.377-.047s-.113,1.183-1.036,1.7l-7.247,4.062a3.619,3.619,0,0,0-1.675,2.861v.09A3.608,3.608,0,0,1,371.268,392.977Zm38.841-12.358-.474.122a6.411,6.411,0,0,1-3.615-.3l-4.51-2c-.969-.43-1.451-1.269-1.073-1.874a2.982,2.982,0,0,1,2.327-1.094,7.424,7.424,0,0,1,3.278,1.009l4.295,2.654C411.239,379.688,411.138,380.354,410.109,380.619Zm-86.2,37.18-1.44.649a1.2,1.2,0,0,1-1.819-1.13l-.218-6.03c-.038-1.059.38-2.015.93-2.133a1.329,1.329,0,0,1,1.415.9l.413,1.114,1.724,4.071A1.973,1.973,0,0,1,323.914,417.8Zm-5.6-1.222c-.737.624-1.508.35-1.72-.615a2.6,2.6,0,0,1,.474-2.385c.471-.356,1.243-.081,1.72.614A1.854,1.854,0,0,1,318.312,416.577ZM362.48,475.8l1.088-1.131c.736-.766,1.721-.8,2.2-.072a3.974,3.974,0,0,1,.221,3.12c-.987,2.764-2.77,7.724-2.853,7.777a4.735,4.735,0,0,1-1.1-.243c-.6-.168-1.062-1.178-1.035-2.237l.1-3.911A5.7,5.7,0,0,1,362.48,475.8Zm80.931-.8,2.107,3.875s5.487,8.852,5.5,9.25c0,.279-1.433,4.451-2.293,6.93a3.2,3.2,0,0,1-2.547,1.97l-2.116.172a6.783,6.783,0,0,1-3.544-.863l-8.366-5.231a4.732,4.732,0,0,0-3.46-.441l-7.6,2.392a1.573,1.573,0,0,1-2.1-1.326l-.751-5.411a3.5,3.5,0,0,1,1.3-3.022l3.147-2.259a19.277,19.277,0,0,0,2.812-2.576l.665-.777a8.408,8.408,0,0,1,3.065-2.09l5.354-1.862a3.9,3.9,0,0,1,2.539-.184,1.207,1.207,0,0,1,.285,1.477c-.244.565.316,1.418,1.253,1.9a1.325,1.325,0,0,0,2.027-1.016l.224-1.262c.184-1.047.615-1.766.96-1.616A5.669,5.669,0,0,1,443.411,474.994Zm24.016,20.488c-.109-1.031.56-1.459,1.5-.957l1.363.733a1.461,1.461,0,0,1,.426,2.355l-5.829,6.651a2.484,2.484,0,0,1-2.365.988c-.607-.25-.549-1.114.131-1.93l3.745-4.5A5.167,5.167,0,0,0,467.427,495.483Zm-64.656-34.638c0-.922.711-1.185,1.586-.584l5.784,3.959a3,3,0,0,1,1.346,2.575c-.132.822-.95,1-1.827.408l-5.3-3.608A3.816,3.816,0,0,1,402.771,460.845Zm25.981,9.621c.191-.033-.616.56-1.441,1.143a4.356,4.356,0,0,1-3.391.488l-7.591-2.431c-1.011-.325-.975-.682.08-.8l3.322-.37a10.574,10.574,0,0,1,3.731.387C425.49,469.543,428.507,470.5,428.752,470.466Zm-10.706-3.249a2.924,2.924,0,0,1-2.384-1.769l-.426-1.012a2.459,2.459,0,0,1,.837-2.857l3.782-2.6a3.439,3.439,0,0,1,2.988-.446,1.586,1.586,0,0,1,.457,2.311l-2.667,4.7A3.4,3.4,0,0,1,418.046,467.217Zm18.614,2.352-3.353-1.546a2.243,2.243,0,0,1-1.388-2.306c.195-.829,1.075-1.13,1.96-.667a5.977,5.977,0,0,0,3.323.505,10.028,10.028,0,0,1,3.578.127l6.954,1.685c1.031.251,1.038.682.015.963l-.746.205c-1.024.281-1.173,1.038-.337,1.69l.869.679c.838.649,1.394,1.505,1.171,1.872-.167.278-.37.53-.551.5-.241-.033-2.192-1.073-3.67-1.875a5.754,5.754,0,0,0-3.33-.587,5.2,5.2,0,0,1-3.069-.459Zm3.244-37.656-1.719,1.965A9.057,9.057,0,0,1,435.124,436l-1.334.5c-.994.375-1.895.261-2.011-.251a2.213,2.213,0,0,1,.776-1.825,13.67,13.67,0,0,1,2.722-1.727l1-.479a5.872,5.872,0,0,0,2.481-2.6l1.73-4.087a1.722,1.722,0,1,1,2.989,1.669l-1.2,1.7C441.664,429.766,440.6,431.115,439.9,431.912ZM283.816,462.589c0,.605.8,1.4,1.793,1.782l8.383,3.194a1.718,1.718,0,0,1,.952,2.406l-5.283,10.8a22.94,22.94,0,0,1-2.014,3.248l-6.513,8.481a32.807,32.807,0,0,1-2.54,2.869l-5.389,5.286a12.22,12.22,0,0,0-2.162,3.1l-1.81,4.016a4.235,4.235,0,0,0,.164,3.418l.94,1.638c.527.921.354,1.773-.385,1.906a3.3,3.3,0,0,1-2.6-1.209l-3-3.44a4.926,4.926,0,0,1-1.029-3.356l2.965-24.412a5.629,5.629,0,0,0-.9-3.46l-6.1-8.372a6.77,6.77,0,0,1-1.132-3.4,11.5,11.5,0,0,1,.724-3.625l.945-2.324a2.341,2.341,0,0,0-.914-2.782l-7.416-4.533a24.615,24.615,0,0,0-3.434-1.684l-5.039-1.907a11.268,11.268,0,0,1-3.186-2l-12.9-12.3a10.147,10.147,0,0,1-2.078-3.119l-5.872-15.29a8.133,8.133,0,0,0-2.2-2.971l-5.7-4.432a7.08,7.08,0,0,0-3.435-1.266l-14.665-.662a5.089,5.089,0,0,1-3.167-1.546l-.48-.555a6.158,6.158,0,0,1-1.57-3.3c0-1.494.184-3.55.346-5.037a5.26,5.26,0,0,1,1.735-3.1l3.23-2.546a4.564,4.564,0,0,1,3.382-.768l19.506,4.382a2.368,2.368,0,0,0,2.582-1.029,3.048,3.048,0,0,1,2.629-1.419l14.469.253a25.094,25.094,0,0,0,3.814-.284l8.1-1.355a7.355,7.355,0,0,0,3.285-1.643l.48-.458a6.338,6.338,0,0,1,3.306-1.483l2.6-.213a7.226,7.226,0,0,1,3.578.805l6.416,3.7a19.028,19.028,0,0,1,3.048,2.293l1.556,1.5a3.218,3.218,0,0,1,.735,3.139l-1,2.787a2.64,2.64,0,0,1-2.564,1.646l-.7-.059a12.527,12.527,0,0,1-3.649-.985l-1.61-.765a3.181,3.181,0,0,1-1.672-2.745l.049-1.458a2.843,2.843,0,0,0-1.4-2.567,1.848,1.848,0,0,0-2.293,1.084l-.725,1.513a2.6,2.6,0,0,0,.646,2.963l.03.025c.814.68,1.213,1.627.894,2.116a2.691,2.691,0,0,1-2.472.537l-1.075-.2c-1.045-.194-2.012-.7-2.164-1.14s-.925-.228-1.729.465l-3.347,2.887a1.467,1.467,0,0,0,.091,2.4l6.664,4.918a25.765,25.765,0,0,1,2.843,2.512,1.865,1.865,0,0,0,2.669.029l.059-.058a3.738,3.738,0,0,0,.92-3.208l-.341-1.415a7.916,7.916,0,0,1,.151-3.69l.316-.952a2.252,2.252,0,0,1,2.488-1.466l.041.009a5.731,5.731,0,0,1,3.041,1.895l.6.8a1.91,1.91,0,0,0,2.52.612,1.9,1.9,0,0,1,2.511.618l7.315,9.841a1.337,1.337,0,0,1-.664,2.184l-1.059.376a2.513,2.513,0,0,1-2.755-.68,3,3,0,0,0-2.83-.942l-2.245.456c-1.041.212-1.125.788-.19,1.288l1.618.863a1.93,1.93,0,0,1,.921,2.544c-.373.647-.827,1.241-1.244,1.234a9.634,9.634,0,0,1-1.772-.333,3.028,3.028,0,0,0-2.913,1.028l-6.87,8.886a4.324,4.324,0,0,0-.662,3.371l.569,2.053c.283,1.023.082,2.076-.447,2.352s-1.584-.092-2.353-.822l-3.06-2.9a3.7,3.7,0,0,0-3.237-.784l-3.179.931a2.94,2.94,0,0,0-1.969,2.454l-.142,2.178a4.772,4.772,0,0,0,1.2,3.244,2.649,2.649,0,0,0,3,.387l2.076-1.163c.926-.518,1.816-.6,1.987-.184a3.721,3.721,0,0,1-.317,2.239c-.346.819.222,1.614,1.27,1.777l.5.078a2.28,2.28,0,0,1,1.876,2.214v.081a3.344,3.344,0,0,0,1.694,2.777l1.261.632a1.751,1.751,0,0,0,2.443-.92l.143-.354a2.218,2.218,0,0,1,2.576-1.273l8.325,2.264a18.286,18.286,0,0,1,3.523,1.454l5.409,3.077A3.118,3.118,0,0,1,283.816,462.589Zm24.72-84.7c-.588-.163.194,5.76.416,7.032.165.956-3.325,7.12-5.076,10.136a5.449,5.449,0,0,1-2.82,2.176l-3.419.963a6.445,6.445,0,0,0-2.975,2.075l-3.266,4.507a5.165,5.165,0,0,1-3.03,1.821l-.18.026a3.578,3.578,0,0,1-3.052-1.273l-3.359-4.5a10.553,10.553,0,0,1-1.561-3.414l-1.666-7.616a5,5,0,0,0-2.072-2.842l-8.642-5.025a1.212,1.212,0,0,1-.149-2.151l5.5-4.312a8.185,8.185,0,0,1,3.418-1.425l13.431-1.686a36.934,36.934,0,0,1,3.827-.239l10.613,0a13.123,13.123,0,0,1,3.727.65l4.657,1.674c1,.358,1.047,1.052.1,1.53C311.275,376.852,308.909,377.993,308.536,377.889Zm-34.381-5c.046.009.043.02,0,.009S274.109,372.878,274.155,372.887Zm-17.064,11.9-4.144-1.518a19.546,19.546,0,0,1-3.4-1.722l-3.9-2.584a1.124,1.124,0,0,1,.042-2.058l2.957-1.794a15.089,15.089,0,0,1,3.507-1.458l5.882-1.458a18.082,18.082,0,0,1,3.785-.44l6.116.068a20.12,20.12,0,0,1,3.786.476l.488.119c1.03.251,1.014.6.048,1.034-2.054.927-5.169,2.747-7.062,3.886a10.024,10.024,0,0,0-2.693,2.607l-2.551,3.9A2.534,2.534,0,0,1,257.091,384.792Zm-33.311,7.47a2.749,2.749,0,0,1-1.271-.9,2.967,2.967,0,0,1-.422-2.8,2.667,2.667,0,0,1,2.507-1.506l3.473.138c1.059.042,1.292.666.505,1.377C226.917,390.076,224.331,392.322,223.78,392.262Zm19.6-5.75a4.2,4.2,0,0,1-1.817-1.446c-.322-.534.276-.967,1.337-.967h.447c1.062,0,1.775.647,1.595,1.445A1.181,1.181,0,0,1,243.382,386.511Zm-7.326-.156-3.167.644a5.012,5.012,0,0,1-3.293-.558c-.779-.521-.6-1.221.405-1.566l2.468-.849a4.215,4.215,0,0,1,3.385.478l.513.362C237.234,385.477,237.1,386.144,236.056,386.355Zm-4.153,3.161,2.33-.135,3.78-.538a1.11,1.11,0,0,1,1.319,1.558l-.01.032a2.7,2.7,0,0,1-2.5,1.773l-6.321-.193c-1.061-.033-1.606-.58-1.218-1.224A3.6,3.6,0,0,1,231.9,389.516Zm17.383-3.5-.431-.686c-.565-.9-.186-1.428.846-1.183l4.023.955c1.031.245,1.069.76.083,1.151l-1.714.681A2.4,2.4,0,0,1,249.285,386.015Z" transform="translate(-211.383 -348.521)" fill="#c1d336"/>
        </g>
      </g>
    </g>
  </g>
</svg>
