<svg xmlns="http://www.w3.org/2000/svg" xmlns:xlink="http://www.w3.org/1999/xlink" width="204" height="204" viewBox="0 0 204 204">
  <defs>
    <clipPath id="clip-path">
      <circle id="Elipse_814" data-name="Elipse 814" cx="86.693" cy="86.693" r="86.693" transform="translate(0 172.316) rotate(-83.63)" fill="none"/>
    </clipPath>
  </defs>
  <g id="Grupo_10832" data-name="Grupo 10832" transform="translate(-453 -4295)">
    <circle id="Elipse_817" data-name="Elipse 817" cx="102" cy="102" r="102" transform="translate(453 4295)" fill="#a0e2ea"/>
    <g id="Grupo_10585" data-name="Grupo 10585" transform="translate(225.083 3974.646)">
      <circle id="Elipse_813" data-name="Elipse 813" cx="86.693" cy="86.693" r="86.693" transform="translate(233.917 498.67) rotate(-83.63)" fill="#47c2c0"/>
      <path id="Trazado_27388" data-name="Trazado 27388" d="M511.848,431.183a86.692,86.692,0,0,0-86.692-86.693V517.877A86.693,86.693,0,0,0,511.848,431.183Z" transform="translate(-95.463 -9.054)" fill="#2bb3c2"/>
      <g id="Grupo_10584" data-name="Grupo 10584" transform="translate(233.917 326.354)">
        <g id="Grupo_10583" data-name="Grupo 10583" clip-path="url(#clip-path)">
          <path id="Trazado_27389" data-name="Trazado 27389" d="M472.762,398.966l-9.4-4.661a8.284,8.284,0,0,0-3.559-.716l-5.419.342a12.2,12.2,0,0,1-3.671-.438L440.417,390.3a11.8,11.8,0,0,0-3.669-.417l-6.413.474a28.252,28.252,0,0,1-3.746-.027l-17.137-1.5c-1.035-.091-1.176-.636-.317-1.218l2.486-1.684c.86-.581.765-1.339-.212-1.689l-3.671-1.319a7.744,7.744,0,0,0-3.607-.241l-6.262,1.348a17.66,17.66,0,0,0-3.517,1.237l-11.489,5.754a1.82,1.82,0,0,1-2.431-.539,1.818,1.818,0,0,0-2.431-.534l-8.977,4.507a36.957,36.957,0,0,1-3.449,1.477l-12.36,4.425a2.424,2.424,0,0,1-2.553-.377c-.433-.558-.155-1.571.622-2.26l1.074-.959c.776-.69.576-1.392-.447-1.567l-10.77-1.841a4.423,4.423,0,0,0-3.256.932l-10.979,9.762a3.092,3.092,0,0,0-.815,3.028,2.086,2.086,0,0,0,2.392,1.363,3.687,3.687,0,0,1,3.117.933l1.259,1.289a1.427,1.427,0,0,0,2.327-.235l.84-1.306a5.572,5.572,0,0,0,.7-3.433l-.005-.043a4.911,4.911,0,0,1,.819-3.346l.99-1.3c.629-.825,1.48-1.266,1.906-.983s.348,1.159-.171,1.96a3.815,3.815,0,0,0-.6,2.641,2.546,2.546,0,0,0,2.213,1.35l.345.029c1.035.087,1.272.744.526,1.468l-4.127,4.023a5.884,5.884,0,0,1-3.22,1.434l-1.532.1a2.972,2.972,0,0,1-2.644-1.328,3.237,3.237,0,0,0-1.7-1.618c-.517-.1-1.206.627-1.533,1.611l-.174.525a6.224,6.224,0,0,1-2.176,2.8l-4.51,2.907a15.305,15.305,0,0,0-2.8,2.447l-2.158,2.525a8.832,8.832,0,0,0-1.623,3.264l-.259,1.174a5.577,5.577,0,0,0,.544,3.459l.691,1.186c.523.9.338,1.775-.413,1.963a4.5,4.5,0,0,0-2.286,1.974l-4.05,7.126a8.919,8.919,0,0,0-.984,3.513l-.035,1.231a6.479,6.479,0,0,0,1.046,3.4l3.555,4.949a4.765,4.765,0,0,0,2.968,1.714l11.894,1.2a3.143,3.143,0,0,1,2.461,1.972l2.233,6.763a8.187,8.187,0,0,1,.2,3.623l-.68,3.194a7.323,7.323,0,0,0,.3,3.586l4.228,10.74a2.979,2.979,0,0,0,2.569,1.75h2.79a3.908,3.908,0,0,0,2.919-1.565l9.77-14.7a5.206,5.206,0,0,0,.67-3.41l-.266-1.323a5.5,5.5,0,0,1,.613-3.442l3.078-5.012,4.38-6.6c.573-.864.2-1.628-.835-1.7l-2.427-.174A4.1,4.1,0,0,1,356.365,451l-5.848-9.554c-.542-.884-.635-1.553-.208-1.49s1.211.833,1.751,1.72l5.193,8.549a1.869,1.869,0,0,0,2.576.625l8.656-5.3a1.022,1.022,0,0,0-.025-1.92l-.408-.233a6.889,6.889,0,0,1-2.209-1.968c-.319-.569.25-.887,1.273-.71l8.193,1.419a3.752,3.752,0,0,1,2.555,2.065l3.712,9.259c.388.962,1.211,1.743,1.841,1.743s1.416-.794,1.759-1.774l.517-1.474a7.23,7.23,0,0,1,2.126-2.9l5.735-4.279a2.252,2.252,0,0,1,2.844.2l8.454,8.367a2.423,2.423,0,0,0,2.907.29l.893-.588a2.773,2.773,0,0,0,1.087-2.848l-1.011-3.807a2.245,2.245,0,0,1,1.241-2.563l4.5-1.944a12.839,12.839,0,0,0,3.1-2.029l.853-.8a3.33,3.33,0,0,0,.837-3.089l-1.3-4.365a2.084,2.084,0,0,1,1.216-2.489l.724-.284a1.315,1.315,0,0,1,1.9,1.186l.042.513A3.262,3.262,0,0,0,423.211,433c.672.334,1.44-.207,1.713-1.208l.177-.657a13.714,13.714,0,0,1,1.549-3.372l8.227-12.2a1.194,1.194,0,0,0-.782-1.968l-.684-.152c-1.013-.227-1.232-1-.492-1.727l2.55-2.5a6.275,6.275,0,0,1,3.211-1.516l6.409-.689a13.4,13.4,0,0,0,3.57-1l4.19-1.967c.939-.442,1.22-.11.625.742-2.153,3.085-6.8,9.737-6.936,9.837a10.242,10.242,0,0,0,2.019.045,4.083,4.083,0,0,0,2.939-1.6l3.13-4.579a6.122,6.122,0,0,1,2.86-2.081l7.067-2.076A1.976,1.976,0,0,0,465.909,402c-.248-1,.372-1.629,1.384-1.4l2.438.549a5.1,5.1,0,0,0,3.275-.466C473.8,400.194,473.692,399.427,472.762,398.966ZM346.516,435.6l-6.205-1.282a2.961,2.961,0,0,0-2.779.89,1.486,1.486,0,0,1-2.284-.039l-3.782-3.674a3.761,3.761,0,0,0-3.173-.854l-7.773,1.944c-1.007.251-1.9.058-2-.433s.463-1.438,1.251-2.113l2.6-2.23a20.511,20.511,0,0,1,3.087-2.109l1.383-.74a2.093,2.093,0,0,1,2.687.688l1.844,2.819c.568.869,1.427,1.5,1.918,1.419s.414-.846-.174-1.7l-1.078-1.564c-.589-.855-.779-1.777-.427-2.058s1.209.11,1.912.873l3.851,4.181a3.943,3.943,0,0,0,2.473,1.33c.664-.028,1.055-.79.874-1.7s.423-1.266,1.35-.8l5.462,2.763a2.561,2.561,0,0,1,1.28,2.684l-.055.249A1.9,1.9,0,0,1,346.516,435.6Zm20.821-43.075c-.433.318-1.459.074-2.293-.545l-.23-.173a2.193,2.193,0,0,1-.592-2.76l.745-1.33a6.794,6.794,0,0,1,2.623-2.432l7.954-3.7c.944-.437,1.982-.458,2.326-.046s-.11,1.158-1.014,1.665l-7.092,3.975a3.541,3.541,0,0,0-1.639,2.8v.088A3.531,3.531,0,0,1,367.336,392.522Zm38.009-12.093-.464.119a6.274,6.274,0,0,1-3.538-.294l-4.413-1.962c-.949-.421-1.42-1.242-1.05-1.834a2.918,2.918,0,0,1,2.277-1.071,7.265,7.265,0,0,1,3.208.988l4.2,2.6C406.451,379.518,406.351,380.17,405.345,380.429ZM321,416.813l-1.409.635a1.173,1.173,0,0,1-1.78-1.106l-.213-5.9c-.038-1.036.372-1.972.91-2.087a1.3,1.3,0,0,1,1.385.882l.4,1.09,1.687,3.984A1.93,1.93,0,0,1,321,416.813Zm-5.482-1.2c-.722.611-1.475.342-1.683-.6a2.544,2.544,0,0,1,.464-2.334c.461-.348,1.216-.079,1.683.6A1.815,1.815,0,0,1,315.515,415.617Zm43.221,57.949,1.065-1.106c.72-.749,1.684-.779,2.153-.07a3.888,3.888,0,0,1,.216,3.054c-.966,2.7-2.711,7.558-2.792,7.61a4.635,4.635,0,0,1-1.073-.238c-.587-.164-1.04-1.152-1.013-2.189l.094-3.827A5.575,5.575,0,0,1,358.736,473.566Zm79.2-.784,2.061,3.792s5.37,8.663,5.379,9.052c0,.273-1.4,4.355-2.244,6.782a3.132,3.132,0,0,1-2.492,1.928l-2.071.168a6.637,6.637,0,0,1-3.468-.845l-8.187-5.119a4.631,4.631,0,0,0-3.386-.432l-7.435,2.341a1.539,1.539,0,0,1-2.053-1.3l-.735-5.3a3.422,3.422,0,0,1,1.272-2.957l3.08-2.211a18.865,18.865,0,0,0,2.752-2.521l.651-.76a8.228,8.228,0,0,1,3-2.045l5.239-1.822a3.813,3.813,0,0,1,2.485-.18,1.181,1.181,0,0,1,.279,1.445c-.238.553.309,1.388,1.227,1.864a1.3,1.3,0,0,0,1.983-.994l.219-1.234c.18-1.024.6-1.728.94-1.582A5.546,5.546,0,0,1,437.933,472.782Zm23.5,20.049c-.107-1.009.548-1.428,1.463-.936l1.334.717a1.43,1.43,0,0,1,.417,2.3l-5.7,6.509a2.43,2.43,0,0,1-2.315.967c-.594-.244-.537-1.09.128-1.889l3.665-4.4A5.056,5.056,0,0,0,461.434,492.831Zm-63.27-33.9c0-.9.7-1.159,1.552-.571l5.66,3.874a2.937,2.937,0,0,1,1.317,2.52c-.129.8-.93.983-1.788.4l-5.185-3.53A3.734,3.734,0,0,1,398.164,458.936Zm25.424,9.415c.187-.032-.6.548-1.41,1.118a4.263,4.263,0,0,1-3.318.477l-7.429-2.379c-.99-.318-.954-.667.079-.782l3.251-.362a10.345,10.345,0,0,1,3.651.379C420.4,467.447,423.348,468.387,423.588,468.351Zm-10.476-3.18a2.861,2.861,0,0,1-2.333-1.731l-.417-.99a2.406,2.406,0,0,1,.819-2.8l3.7-2.544a3.365,3.365,0,0,1,2.924-.436,1.552,1.552,0,0,1,.447,2.262l-2.61,4.6A3.329,3.329,0,0,1,413.112,465.171Zm18.215,2.3-3.281-1.513a2.195,2.195,0,0,1-1.358-2.256c.191-.811,1.052-1.105,1.918-.653a5.849,5.849,0,0,0,3.251.494,9.812,9.812,0,0,1,3.5.124l6.8,1.649c1.009.245,1.016.667.015.943l-.73.2c-1,.275-1.148,1.016-.33,1.654l.85.664c.82.636,1.364,1.473,1.146,1.832-.164.272-.362.518-.539.493-.235-.032-2.145-1.05-3.591-1.835a5.63,5.63,0,0,0-3.258-.574,5.086,5.086,0,0,1-3-.449Zm3.174-36.849-1.682,1.923a8.862,8.862,0,0,1-3,2.077l-1.305.491c-.973.367-1.854.256-1.968-.246a2.165,2.165,0,0,1,.76-1.786,13.377,13.377,0,0,1,2.663-1.69l.983-.468a5.746,5.746,0,0,0,2.428-2.542l1.693-4A1.685,1.685,0,1,1,438,426.017l-1.177,1.659C436.223,428.522,435.183,429.843,434.5,430.623ZM281.757,460.643c0,.593.784,1.374,1.755,1.744l8.2,3.126a1.682,1.682,0,0,1,.932,2.355l-5.17,10.573a22.454,22.454,0,0,1-1.971,3.179l-6.374,8.3a32.1,32.1,0,0,1-2.486,2.807l-5.273,5.172a11.959,11.959,0,0,0-2.116,3.032l-1.771,3.929a4.144,4.144,0,0,0,.161,3.345l.92,1.6c.515.9.347,1.735-.377,1.865a3.233,3.233,0,0,1-2.545-1.183l-2.931-3.366a4.821,4.821,0,0,1-1.007-3.284l2.9-23.889a5.509,5.509,0,0,0-.882-3.386l-5.971-8.192a6.625,6.625,0,0,1-1.107-3.326,11.253,11.253,0,0,1,.709-3.547l.924-2.274a2.291,2.291,0,0,0-.894-2.722l-7.257-4.436a24.08,24.08,0,0,0-3.36-1.648l-4.931-1.867a11.028,11.028,0,0,1-3.118-1.961L226.1,434.558a9.929,9.929,0,0,1-2.034-3.052l-5.746-14.962a7.959,7.959,0,0,0-2.158-2.907l-5.583-4.337a6.928,6.928,0,0,0-3.361-1.239l-14.351-.648a4.98,4.98,0,0,1-3.1-1.512l-.469-.543a6.026,6.026,0,0,1-1.536-3.231c0-1.462.18-3.474.339-4.929a5.147,5.147,0,0,1,1.7-3.031l3.161-2.491a4.466,4.466,0,0,1,3.309-.751l19.088,4.289a2.318,2.318,0,0,0,2.527-1.007,2.983,2.983,0,0,1,2.573-1.389l14.159.248a24.563,24.563,0,0,0,3.732-.277l7.927-1.326a7.2,7.2,0,0,0,3.214-1.608l.469-.448a6.2,6.2,0,0,1,3.235-1.451l2.541-.209a7.072,7.072,0,0,1,3.5.788l6.279,3.623A18.622,18.622,0,0,1,268.5,394.4l1.523,1.464a3.149,3.149,0,0,1,.72,3.072l-.981,2.727a2.583,2.583,0,0,1-2.509,1.611l-.688-.058a12.258,12.258,0,0,1-3.571-.964l-1.575-.749a3.113,3.113,0,0,1-1.636-2.686l.048-1.426a2.782,2.782,0,0,0-1.373-2.512,1.809,1.809,0,0,0-2.244,1.061l-.709,1.481a2.54,2.54,0,0,0,.632,2.9l.03.024c.8.666,1.187,1.592.874,2.07a2.633,2.633,0,0,1-2.419.526l-1.052-.195c-1.022-.19-1.969-.689-2.118-1.116s-.905-.223-1.692.455l-3.275,2.825a1.436,1.436,0,0,0,.089,2.345l6.522,4.812a25.22,25.22,0,0,1,2.782,2.459,1.825,1.825,0,0,0,2.612.028l.058-.057a3.658,3.658,0,0,0,.9-3.14l-.334-1.384a7.745,7.745,0,0,1,.148-3.611l.309-.932A2.2,2.2,0,0,1,262.005,404l.041.009a5.608,5.608,0,0,1,2.975,1.854l.588.784a1.869,1.869,0,0,0,2.466.6,1.859,1.859,0,0,1,2.457.605l7.158,9.63a1.308,1.308,0,0,1-.65,2.137l-1.037.368a2.46,2.46,0,0,1-2.7-.665,2.933,2.933,0,0,0-2.769-.922l-2.2.446c-1.019.207-1.1.771-.186,1.26l1.584.844a1.888,1.888,0,0,1,.9,2.489c-.365.634-.809,1.214-1.217,1.208a9.431,9.431,0,0,1-1.734-.326,2.963,2.963,0,0,0-2.851,1.006l-6.723,8.7a4.232,4.232,0,0,0-.648,3.3l.556,2.009c.277,1,.081,2.031-.437,2.3s-1.55-.09-2.3-.8l-2.995-2.843a3.619,3.619,0,0,0-3.167-.767l-3.111.911a2.877,2.877,0,0,0-1.927,2.4l-.139,2.132a4.67,4.67,0,0,0,1.176,3.174,2.592,2.592,0,0,0,2.936.379l2.032-1.138c.906-.507,1.777-.589,1.945-.18a3.641,3.641,0,0,1-.311,2.191c-.339.8.217,1.58,1.243,1.739l.491.077a2.231,2.231,0,0,1,1.836,2.167v.079a3.272,3.272,0,0,0,1.658,2.717l1.234.618a1.714,1.714,0,0,0,2.391-.9l.14-.346a2.17,2.17,0,0,1,2.521-1.246l8.147,2.215a17.894,17.894,0,0,1,3.448,1.423l5.293,3.011A3.052,3.052,0,0,1,281.757,460.643Zm24.191-82.885c-.575-.16.19,5.637.407,6.881.162.936-3.254,6.967-4.968,9.919a5.332,5.332,0,0,1-2.76,2.129l-3.345.942a6.307,6.307,0,0,0-2.912,2.031l-3.2,4.41a5.054,5.054,0,0,1-2.965,1.782l-.176.025a3.5,3.5,0,0,1-2.987-1.246l-3.287-4.4a10.328,10.328,0,0,1-1.527-3.34l-1.631-7.453a4.9,4.9,0,0,0-2.027-2.782l-8.457-4.918a1.186,1.186,0,0,1-.146-2.1l5.379-4.22a8.009,8.009,0,0,1,3.344-1.394l13.144-1.65a36.135,36.135,0,0,1,3.745-.234l10.386,0a12.843,12.843,0,0,1,3.647.637l4.557,1.638c.975.351,1.025,1.029.1,1.5C308.628,376.743,306.313,377.859,305.948,377.758ZM272.3,372.863c.045.009.042.02,0,.009S272.258,372.854,272.3,372.863Zm-16.7,11.65-4.056-1.486a19.122,19.122,0,0,1-3.331-1.685l-3.817-2.529a1.1,1.1,0,0,1,.041-2.014l2.894-1.756a14.765,14.765,0,0,1,3.432-1.427l5.756-1.426a17.694,17.694,0,0,1,3.7-.431l5.985.067a19.691,19.691,0,0,1,3.7.466l.478.116c1.008.246.993.586.047,1.012-2.01.907-5.058,2.688-6.91,3.8a9.808,9.808,0,0,0-2.635,2.551l-2.5,3.813A2.48,2.48,0,0,1,255.605,384.512Zm-32.6,7.31a2.69,2.69,0,0,1-1.244-.877,2.9,2.9,0,0,1-.413-2.736,2.61,2.61,0,0,1,2.454-1.473l3.4.135c1.036.042,1.264.652.494,1.348C226.078,389.683,223.547,391.881,223.008,391.822ZM242.19,386.2a4.112,4.112,0,0,1-1.778-1.415c-.316-.522.27-.946,1.309-.946h.437c1.039,0,1.737.633,1.561,1.414A1.155,1.155,0,0,1,242.19,386.2Zm-7.169-.153-3.1.63a4.9,4.9,0,0,1-3.223-.546c-.763-.509-.586-1.194.4-1.533l2.415-.83a4.124,4.124,0,0,1,3.313.468l.5.355C236.174,385.183,236.038,385.836,235.021,386.042Zm-4.064,3.093,2.28-.132,3.7-.527A1.086,1.086,0,0,1,238.227,390l-.01.032a2.638,2.638,0,0,1-2.45,1.735l-6.185-.189c-1.038-.032-1.572-.567-1.191-1.2A3.518,3.518,0,0,1,230.957,389.135Zm17.01-3.426-.422-.671c-.553-.879-.182-1.4.828-1.158l3.936.935c1.009.239,1.046.744.082,1.126l-1.677.667A2.345,2.345,0,0,1,247.967,385.709Z" transform="translate(-210.877 -349.019)" fill="#c1d336"/>
        </g>
      </g>
    </g>
  </g>
</svg>
