<svg xmlns="http://www.w3.org/2000/svg" width="226.957" height="240.499" viewBox="0 0 226.957 240.499">
  <g id="Grupo_10700" data-name="Grupo 10700" transform="translate(-72.067 -79.681)">
    <g id="Grupo_10587" data-name="Grupo 10587" opacity="0.15">
      <path id="Trazado_27391" data-name="Trazado 27391" d="M141.784,138.193a12.668,12.668,0,0,0-7.153,2.6c-1.341,1.118-3.188,3.529-3.238,5.241a14.97,14.97,0,0,0-13.53-11.162,15.592,15.592,0,0,0-15.2,11.754,16.41,16.41,0,0,0,8.076,17.609c-6.565.826-11.113,8.115-10.1,14.655s6.535,11.786,12.841,13.792A19.608,19.608,0,0,0,129.5,191.1c4.717-2.9,7.846-8.473,7.237-13.976,1.942.546,3.815.973,5.707.275a8.462,8.462,0,0,0,2.385-1.339c1.806-1.528,3.4-3.83,3.053-6.259,7.732-1.427,12.7-10.535,10.569-18.105S149.642,137.916,141.784,138.193Z"/>
      <g id="Grupo_10586" data-name="Grupo 10586">
        <path id="Trazado_27392" data-name="Trazado 27392" d="M137.178,169.281a22.8,22.8,0,0,1-2.845-12.3,35.633,35.633,0,0,0,.67,17.581,47.065,47.065,0,0,0-17.591-4.779,43.246,43.246,0,0,1,28.154,23.191l6.528-6.366a54.026,54.026,0,0,1-7.576-6.552c-2.08-2.168-4.033-4.613-4.776-7.525a8.092,8.092,0,0,1,1.428-7.132A16.773,16.773,0,0,0,137.178,169.281Z"/>
      </g>
    </g>
    <g id="Grupo_10590" data-name="Grupo 10590" opacity="0.15">
      <path id="Trazado_27395" data-name="Trazado 27395" d="M193.467,167.938l21.1.352c-5.859-10.831-10.683-27.625-6.212-38.876,1.348-3.393,3.147-6.3,8.926-10.635-5.816,2.282-11.265,7.945-12.278,12.555-1.115-9.241-6.841-19.386-15.123-25.742,5.437,5.364,8.007,11.153,9.78,17.179,3.95,13.431,4.08,27.523-2.557,40.4A13.114,13.114,0,0,1,193.467,167.938Z"/>
      <path id="Trazado_27396" data-name="Trazado 27396" d="M220.278,108.237a8.316,8.316,0,1,1-8.176-8.453A8.317,8.317,0,0,1,220.278,108.237Z"/>
      <path id="Trazado_27397" data-name="Trazado 27397" d="M242.988,111.4a8.247,8.247,0,1,1-8.109-8.383A8.248,8.248,0,0,1,242.988,111.4Z"/>
      <circle id="Elipse_818" data-name="Elipse 818" cx="8.247" cy="8.247" r="8.247" transform="translate(188.877 82.467) rotate(-9.723)"/>
      <path id="Trazado_27398" data-name="Trazado 27398" d="M194.882,133.551a8.247,8.247,0,1,1-8.108-8.384A8.247,8.247,0,0,1,194.882,133.551Z"/>
      <circle id="Elipse_819" data-name="Elipse 819" cx="8.899" cy="8.899" r="8.899" transform="translate(166.027 111.557) rotate(-60.438)"/>
      <path id="Trazado_27399" data-name="Trazado 27399" d="M229.108,132.99a9.38,9.38,0,1,1-9.222-9.535A9.381,9.381,0,0,1,229.108,132.99Z"/>
      <path id="Trazado_27400" data-name="Trazado 27400" d="M222.518,88.388a4.732,4.732,0,1,1-4.653-4.81A4.734,4.734,0,0,1,222.518,88.388Z"/>
      <path id="Trazado_27401" data-name="Trazado 27401" d="M183.123,92.693a4.055,4.055,0,1,1-3.986-4.122A4.054,4.054,0,0,1,183.123,92.693Z"/>
      <path id="Trazado_27402" data-name="Trazado 27402" d="M231.73,96.653a3.148,3.148,0,1,1-3.1-3.2A3.147,3.147,0,0,1,231.73,96.653Z"/>
      <path id="Trazado_27403" data-name="Trazado 27403" d="M198.158,105.73a2.81,2.81,0,1,1-2.763-2.857A2.81,2.81,0,0,1,198.158,105.73Z"/>
      <path id="Trazado_27404" data-name="Trazado 27404" d="M196.757,121.688a2.81,2.81,0,1,1-2.763-2.857A2.81,2.81,0,0,1,196.757,121.688Z"/>
      <path id="Trazado_27405" data-name="Trazado 27405" d="M224.186,116.62a2.161,2.161,0,1,1-2.125-2.2A2.161,2.161,0,0,1,224.186,116.62Z"/>
      <path id="Trazado_27406" data-name="Trazado 27406" d="M178.566,122.765a4.055,4.055,0,1,1-3.987-4.121A4.055,4.055,0,0,1,178.566,122.765Z"/>
      <path id="Trazado_27407" data-name="Trazado 27407" d="M238.521,127.822a4.055,4.055,0,1,1-3.987-4.122A4.055,4.055,0,0,1,238.521,127.822Z"/>
    </g>
    <g id="Grupo_10591" data-name="Grupo 10591">
      <path id="Trazado_27408" data-name="Trazado 27408" d="M188.7,170.008l21.1.352c-5.859-10.83-10.683-27.625-6.212-38.875,1.348-3.393,3.147-6.3,8.926-10.635-5.817,2.282-11.265,7.945-12.278,12.555-1.116-9.241-6.841-19.386-15.123-25.742,5.437,5.364,8.007,11.153,9.78,17.179,3.95,13.431,4.08,27.523-2.557,40.4A13.1,13.1,0,0,1,188.7,170.008Z" fill="#56412e"/>
      <path id="Trazado_27409" data-name="Trazado 27409" d="M215.51,110.308a8.316,8.316,0,1,1-8.177-8.453A8.316,8.316,0,0,1,215.51,110.308Z" fill="#4f6f00"/>
      <circle id="Elipse_820" data-name="Elipse 820" cx="8.247" cy="8.247" r="8.247" transform="translate(218.478 115.304) rotate(-54.727)" fill="#4f6f00"/>
      <path id="Trazado_27410" data-name="Trazado 27410" d="M201.877,91.411a8.247,8.247,0,1,1-8.108-8.383A8.248,8.248,0,0,1,201.877,91.411Z" fill="#4f6f00"/>
      <path id="Trazado_27411" data-name="Trazado 27411" d="M190.114,135.622a8.247,8.247,0,1,1-8.108-8.384A8.247,8.247,0,0,1,190.114,135.622Z" fill="#4f6f00"/>
      <path id="Trazado_27412" data-name="Trazado 27412" d="M182.287,110.427a8.9,8.9,0,1,1-8.749-9.046A8.9,8.9,0,0,1,182.287,110.427Z" fill="#4f6f00"/>
      <circle id="Elipse_821" data-name="Elipse 821" cx="9.38" cy="9.38" r="9.38" transform="matrix(0.719, -0.695, 0.695, 0.719, 201.699, 134.683)" fill="#4f6f00"/>
      <path id="Trazado_27413" data-name="Trazado 27413" d="M217.75,90.459a4.732,4.732,0,1,1-4.653-4.81A4.732,4.732,0,0,1,217.75,90.459Z" fill="#4f6f00"/>
      <path id="Trazado_27414" data-name="Trazado 27414" d="M178.355,94.764a4.055,4.055,0,1,1-3.987-4.122A4.054,4.054,0,0,1,178.355,94.764Z" fill="#4f6f00"/>
      <path id="Trazado_27415" data-name="Trazado 27415" d="M226.962,98.724a3.148,3.148,0,1,1-3.1-3.2A3.149,3.149,0,0,1,226.962,98.724Z" fill="#4f6f00"/>
      <path id="Trazado_27416" data-name="Trazado 27416" d="M193.39,107.8a2.81,2.81,0,1,1-2.764-2.857A2.811,2.811,0,0,1,193.39,107.8Z" fill="#4f6f00"/>
      <circle id="Elipse_822" data-name="Elipse 822" cx="2.81" cy="2.81" r="2.81" transform="translate(186.369 120.902)" fill="#4f6f00"/>
      <path id="Trazado_27417" data-name="Trazado 27417" d="M219.418,118.691a2.162,2.162,0,1,1-2.125-2.2A2.161,2.161,0,0,1,219.418,118.691Z" fill="#4f6f00"/>
      <path id="Trazado_27418" data-name="Trazado 27418" d="M173.8,124.836a4.055,4.055,0,1,1-3.987-4.121A4.055,4.055,0,0,1,173.8,124.836Z" fill="#4f6f00"/>
      <path id="Trazado_27419" data-name="Trazado 27419" d="M233.753,129.892a4.055,4.055,0,1,1-3.987-4.121A4.055,4.055,0,0,1,233.753,129.892Z" fill="#4f6f00"/>
    </g>
    <g id="Grupo_10601" data-name="Grupo 10601" opacity="0.15">
      <g id="Grupo_10597" data-name="Grupo 10597">
        <g id="Grupo_10596" data-name="Grupo 10596">
          <path id="Trazado_27424" data-name="Trazado 27424" d="M160.687,165.794a62.358,62.358,0,0,1,2.953,17.025l11.022-3.616c-4.553-17.6-18.98-34.725-33.292-46.607A80.047,80.047,0,0,1,160.687,165.794Z"/>
          <path id="Trazado_27425" data-name="Trazado 27425" d="M159.815,161.465l1.971,3.179c-.134-.064-.208.214-.055.242s.3-.1.4-.214c5.964-6.459,6.942-14.995,7.489-22.9a16.276,16.276,0,0,0-.251-5.525C169.407,144.985,165.775,158.375,159.815,161.465Z"/>
          <path id="Trazado_27426" data-name="Trazado 27426" d="M156.231,152.837c-5.34.509-11.266-2.154-14.71-5.391,3.266,4.926,9.575,8.057,16.371,8.126Z"/>
        </g>
        <path id="Trazado_27427" data-name="Trazado 27427" d="M151.558,134.24a14.989,14.989,0,0,1,.6,6,4.627,4.627,0,0,1-1.087,2.727l-.1.078c.366.316.866.879,1.214,1.211a8.539,8.539,0,0,0,.913-5.26A14.418,14.418,0,0,0,151.558,134.24Z"/>
      </g>
      <g id="Grupo_10598" data-name="Grupo 10598">
        <path id="Trazado_27428" data-name="Trazado 27428" d="M166.668,124.866a15.043,15.043,0,0,0-.134-12.926l-12.726,21.617S163.522,132.193,166.668,124.866Z"/>
        <path id="Trazado_27429" data-name="Trazado 27429" d="M166.082,111.6l-12.747,21.521s-2.156-6.936,1.1-13.1C157.836,113.58,166.082,111.6,166.082,111.6Z"/>
        <path id="Trazado_27430" data-name="Trazado 27430" d="M166.386,111.628c.074.041.148.312.148.312l-12.726,21.617s-.328.087-.4.041-.077-.48-.077-.48L166.082,111.6A.8.8,0,0,1,166.386,111.628Z"/>
      </g>
      <g id="Grupo_10599" data-name="Grupo 10599">
        <path id="Trazado_27431" data-name="Trazado 27431" d="M127.41,157.51a15.042,15.042,0,0,0-.675,12.908l14.055-20.777S131.01,150.4,127.41,157.51Z"/>
        <path id="Trazado_27432" data-name="Trazado 27432" d="M127.164,170.789l14.07-20.68s1.718,7.058-1.921,13.011C135.518,169.327,127.164,170.789,127.164,170.789Z"/>
        <path id="Trazado_27433" data-name="Trazado 27433" d="M126.862,170.739c-.07-.045-.127-.321-.127-.321l14.055-20.777s.333-.066.4-.015.047.483.047.483l-14.07,20.68A.787.787,0,0,1,126.862,170.739Z"/>
      </g>
      <g id="Grupo_10600" data-name="Grupo 10600">
        <path id="Trazado_27434" data-name="Trazado 27434" d="M124.8,130.978c6.939,3.93,14.2.084,14.2.084l-20.094-15.016S117.862,127.048,124.8,130.978Z"/>
        <path id="Trazado_27435" data-name="Trazado 27435" d="M139.392,130.65,119.359,115.6s8.72-3.563,14.5.352C139.876,120.037,139.392,130.65,139.392,130.65Z"/>
        <path id="Trazado_27436" data-name="Trazado 27436" d="M139.328,130.949c-.048.069-.326.113-.326.113l-20.094-15.016a1.25,1.25,0,0,1,.1-.322,1.269,1.269,0,0,1,.349-.122l20.033,15.048A.8.8,0,0,1,139.328,130.949Z"/>
      </g>
    </g>
    <g id="Grupo_10607" data-name="Grupo 10607">
      <g id="Grupo_10603" data-name="Grupo 10603">
        <g id="Grupo_10602" data-name="Grupo 10602">
          <path id="Trazado_27437" data-name="Trazado 27437" d="M156.634,165.645a62.372,62.372,0,0,1,2.953,17.025l11.022-3.616c-4.553-17.6-18.98-34.725-33.292-46.606A80.054,80.054,0,0,1,156.634,165.645Z" fill="#56412e"/>
          <path id="Trazado_27438" data-name="Trazado 27438" d="M155.762,161.316l1.971,3.18c-.134-.065-.208.214-.055.241s.3-.1.4-.213c5.964-6.459,6.942-14.995,7.489-22.9a16.27,16.27,0,0,0-.251-5.524C165.354,144.837,161.722,158.227,155.762,161.316Z" fill="#56412e"/>
          <path id="Trazado_27439" data-name="Trazado 27439" d="M152.178,152.689c-5.34.509-11.266-2.155-14.71-5.391,3.266,4.926,9.575,8.057,16.371,8.125Z" fill="#56412e"/>
        </g>
        <path id="Trazado_27440" data-name="Trazado 27440" d="M147.505,134.092a14.987,14.987,0,0,1,.6,6,4.63,4.63,0,0,1-1.087,2.727l-.1.078c.367.316.867.878,1.215,1.21a8.537,8.537,0,0,0,.913-5.259A14.4,14.4,0,0,0,147.505,134.092Z" fill="#56412e"/>
      </g>
      <g id="Grupo_10604" data-name="Grupo 10604">
        <path id="Trazado_27441" data-name="Trazado 27441" d="M162.615,124.718a15.043,15.043,0,0,0-.134-12.926l-12.726,21.617S159.468,132.044,162.615,124.718Z" fill="#f4bf16"/>
        <path id="Trazado_27442" data-name="Trazado 27442" d="M162.029,111.449,149.282,132.97s-2.156-6.937,1.1-13.106C153.783,113.431,162.029,111.449,162.029,111.449Z" fill="#f4bf16"/>
        <path id="Trazado_27443" data-name="Trazado 27443" d="M162.333,111.48c.074.041.148.312.148.312l-12.726,21.617s-.328.087-.4.04-.077-.479-.077-.479l12.747-21.521A.8.8,0,0,1,162.333,111.48Z" fill="#d1d88b"/>
      </g>
      <g id="Grupo_10605" data-name="Grupo 10605">
        <path id="Trazado_27444" data-name="Trazado 27444" d="M123.357,157.361a15.044,15.044,0,0,0-.675,12.909l14.055-20.777S126.957,150.246,123.357,157.361Z" fill="#f4bf16"/>
        <path id="Trazado_27445" data-name="Trazado 27445" d="M123.111,170.641l14.07-20.68s1.718,7.058-1.921,13.01C131.465,169.179,123.111,170.641,123.111,170.641Z" fill="#f4bf16"/>
        <path id="Trazado_27446" data-name="Trazado 27446" d="M122.809,170.591c-.07-.045-.127-.321-.127-.321l14.055-20.777s.333-.066.4-.016.047.484.047.484l-14.07,20.68A.808.808,0,0,1,122.809,170.591Z" fill="#d1d88b"/>
      </g>
      <g id="Grupo_10606" data-name="Grupo 10606">
        <path id="Trazado_27447" data-name="Trazado 27447" d="M120.747,130.829c6.938,3.93,14.2.084,14.2.084L114.855,115.9S113.809,126.9,120.747,130.829Z" fill="#f4bf16"/>
        <path id="Trazado_27448" data-name="Trazado 27448" d="M135.339,130.5l-20.033-15.049s8.72-3.562,14.495.353C135.823,119.888,135.339,130.5,135.339,130.5Z" fill="#f4bf16"/>
        <path id="Trazado_27449" data-name="Trazado 27449" d="M135.275,130.8c-.048.068-.326.112-.326.112L114.855,115.9a1.238,1.238,0,0,1,.1-.322,1.278,1.278,0,0,1,.349-.123L135.339,130.5A.8.8,0,0,1,135.275,130.8Z" fill="#d1d88b"/>
      </g>
    </g>
    <g id="Grupo_10613" data-name="Grupo 10613" opacity="0.15">
      <g id="Grupo_10609" data-name="Grupo 10609">
        <g id="Grupo_10608" data-name="Grupo 10608">
          <path id="Trazado_27450" data-name="Trazado 27450" d="M252.017,178.259a55.594,55.594,0,0,1-13.309,7.725l6.424,8.089c13.292-9.237,23.144-26.579,28.649-42.2A71.3,71.3,0,0,1,252.017,178.259Z"/>
          <path id="Trazado_27451" data-name="Trazado 27451" d="M255.363,176.193l-2.046,2.629c.012-.133-.243-.109-.219.028s.175.219.3.272c7.237,2.986,14.669,1.167,21.442-.818a14.513,14.513,0,0,0,4.538-1.915C272.092,179.116,259.785,180.217,255.363,176.193Z"/>
          <path id="Trazado_27452" data-name="Trazado 27452" d="M261.463,170.534c-2.074-4.3-1.679-10.075-.04-13.952-3.106,4.25-3.773,10.487-1.731,16.184Z"/>
        </g>
        <path id="Trazado_27453" data-name="Trazado 27453" d="M275.554,160.887a13.331,13.331,0,0,1-4.829,2.354,4.122,4.122,0,0,1-2.613-.066l-.1-.062c-.151.4-.466,1-.636,1.389a7.6,7.6,0,0,0,4.675-.862A12.815,12.815,0,0,0,275.554,160.887Z"/>
      </g>
      <g id="Grupo_10610" data-name="Grupo 10610">
        <path id="Trazado_27454" data-name="Trazado 27454" d="M288.051,170.614a13.4,13.4,0,0,0,10.756-4.1l-21.988-3.954S280.959,170.248,288.051,170.614Z"/>
        <path id="Trazado_27455" data-name="Trazado 27455" d="M298.953,166.026l-21.913-4s5.128-3.944,11.288-3.127C294.751,159.751,298.953,166.026,298.953,166.026Z"/>
        <path id="Trazado_27456" data-name="Trazado 27456" d="M299.022,166.29c-.012.074-.215.22-.215.22l-21.988-3.954s-.173-.247-.156-.318.377-.212.377-.212l21.913,4A.713.713,0,0,1,299.022,166.29Z"/>
      </g>
      <g id="Grupo_10611" data-name="Grupo 10611">
        <path id="Trazado_27457" data-name="Trazado 27457" d="M248.659,147.9a13.4,13.4,0,0,0-10.991,3.422l21.7,5.323S255.714,148.713,248.659,147.9Z"/>
        <path id="Trazado_27458" data-name="Trazado 27458" d="M237.491,151.8l21.619,5.366s-5.365,3.615-11.461,2.414C241.292,158.326,237.491,151.8,237.491,151.8Z"/>
        <path id="Trazado_27459" data-name="Trazado 27459" d="M237.439,151.532c.016-.073.229-.206.229-.206l21.7,5.323s.158.258.136.328-.39.188-.39.188L237.491,151.8A.713.713,0,0,1,237.439,151.532Z"/>
      </g>
      <g id="Grupo_10612" data-name="Grupo 10612">
        <path id="Trazado_27460" data-name="Trazado 27460" d="M270.015,137.529c-1.14,7.01,4.316,11.889,4.316,11.889L280.668,128S271.155,130.52,270.015,137.529Z"/>
        <path id="Trazado_27461" data-name="Trazado 27461" d="M274.8,149.617l6.383-21.382s5.669,6.184,4.183,12.217C283.81,146.743,274.8,149.617,274.8,149.617Z"/>
        <path id="Trazado_27462" data-name="Trazado 27462" d="M274.526,149.656c-.072-.02-.2-.238-.2-.238L280.668,128a1.077,1.077,0,0,1,.3-.014,1.126,1.126,0,0,1,.21.253L274.8,149.617A.711.711,0,0,1,274.526,149.656Z"/>
      </g>
    </g>
    <g id="Grupo_10625" data-name="Grupo 10625" opacity="0.15">
      <g id="Grupo_10621" data-name="Grupo 10621">
        <g id="Grupo_10620" data-name="Grupo 10620">
          <path id="Trazado_27476" data-name="Trazado 27476" d="M126.227,193.271a55.569,55.569,0,0,1,9.695,11.95l7-7.6c-11.186-11.7-29.845-18.743-46.134-21.758A71.283,71.283,0,0,1,126.227,193.271Z"/>
          <path id="Trazado_27477" data-name="Trazado 27477" d="M123.667,190.285l2.915,1.614c-.133.009-.069.258.062.212s.189-.207.221-.341c1.828-7.613-1.121-14.673-4.132-21.057a14.489,14.489,0,0,0-2.6-4.185C123.961,173.306,126.957,185.293,123.667,190.285Z"/>
          <path id="Trazado_27478" data-name="Trazado 27478" d="M117.132,185.137c-3.929,2.716-9.694,3.221-13.778,2.2,4.68,2.41,10.945,2.1,16.257-.8Z"/>
        </g>
        <path id="Trazado_27479" data-name="Trazado 27479" d="M105.417,172.711a13.34,13.34,0,0,1,3.073,4.406,4.118,4.118,0,0,1,.341,2.592l-.046.106c.422.086,1.055.306,1.47.412a7.6,7.6,0,0,0-1.577-4.484A12.816,12.816,0,0,0,105.417,172.711Z"/>
      </g>
      <g id="Grupo_10622" data-name="Grupo 10622">
        <path id="Trazado_27480" data-name="Trazado 27480" d="M113.088,158.858a13.4,13.4,0,0,0-5.722-9.989l-.5,22.334S113.826,165.921,113.088,158.858Z"/>
        <path id="Trazado_27481" data-name="Trazado 27481" d="M106.865,148.8l-.554,22.269s-4.692-4.454-4.839-10.666C101.318,153.923,106.865,148.8,106.865,148.8Z"/>
        <path id="Trazado_27482" data-name="Trazado 27482" d="M107.115,148.69c.075,0,.251.179.251.179l-.5,22.334s-.218.21-.29.2c-.088-.008-.268-.339-.268-.339l.554-22.269A.715.715,0,0,1,107.115,148.69Z"/>
      </g>
      <g id="Grupo_10623" data-name="Grupo 10623">
        <path id="Trazado_27483" data-name="Trazado 27483" d="M96.76,201.295a13.393,13.393,0,0,0,5.085,10.327l1.895-22.259S96.466,194.2,96.76,201.295Z"/>
        <path id="Trazado_27484" data-name="Trazado 27484" d="M102.34,211.724l1.949-22.19s4.4,4.74,4.161,10.948C108.2,206.957,102.34,211.724,102.34,211.724Z"/>
        <path id="Trazado_27485" data-name="Trazado 27485" d="M102.084,211.816c-.075,0-.239-.194-.239-.194l1.895-22.259s.23-.2.3-.185c.088.014.247.356.247.356l-1.949,22.19A.7.7,0,0,1,102.084,211.816Z"/>
      </g>
      <g id="Grupo_10624" data-name="Grupo 10624">
        <path id="Trazado_27486" data-name="Trazado 27486" d="M83.2,181.8c7.1.04,11.075-6.107,11.075-6.107L72.13,172.76S76.1,181.766,83.2,181.8Z"/>
        <path id="Trazado_27487" data-name="Trazado 27487" d="M94.4,175.209l-22.113-2.991s5.23-6.559,11.42-6.026C90.163,166.748,94.4,175.209,94.4,175.209Z"/>
        <path id="Trazado_27488" data-name="Trazado 27488" d="M94.48,175.469c-.008.074-.205.229-.205.229L72.13,172.76a1.081,1.081,0,0,1-.061-.295c.019-.069.218-.247.218-.247L94.4,175.209A.714.714,0,0,1,94.48,175.469Z"/>
      </g>
    </g>
    <g id="Grupo_10646" data-name="Grupo 10646">
      <path id="Trazado_27510" data-name="Trazado 27510" d="M281.407,197.561a11.866,11.866,0,1,1,3.785-16.349A11.867,11.867,0,0,1,281.407,197.561Z" fill="#89bf11"/>
      <g id="Grupo_10644" data-name="Grupo 10644">
        <path id="Trazado_27511" data-name="Trazado 27511" d="M285.192,181.212l-20.134,12.564a11.866,11.866,0,1,0,20.134-12.564Z" fill="#89bf11"/>
        <path id="Trazado_27512" data-name="Trazado 27512" d="M268.843,177.427a11.867,11.867,0,0,0-3.785,16.349l20.134-12.564A11.867,11.867,0,0,0,268.843,177.427Z" fill="#4c9027"/>
      </g>
      <rect id="Rectángulo_3086" data-name="Rectángulo 3086" width="1.077" height="8.933" transform="matrix(-0.131, 0.991, -0.991, -0.131, 277.121, 193.044)" fill="#754c24"/>
      <rect id="Rectángulo_3087" data-name="Rectángulo 3087" width="1.077" height="8.289" transform="translate(272.095 180.795) rotate(7.536)" fill="#603813"/>
      <g id="Grupo_10645" data-name="Grupo 10645">
        <rect id="Rectángulo_3088" data-name="Rectángulo 3088" width="2.093" height="26.166" transform="matrix(0.529, 0.848, -0.848, 0.529, 278.139, 184.38)" fill="#754c24"/>
        <rect id="Rectángulo_3089" data-name="Rectángulo 3089" width="0.962" height="26.166" transform="translate(278.139 184.38) rotate(58.032)" fill="#603813"/>
      </g>
    </g>
    <g id="Grupo_10668" data-name="Grupo 10668">
      <circle id="Elipse_852" data-name="Elipse 852" cx="76.214" cy="76.214" r="76.214" transform="translate(121.966 167.752)" fill="#4c9027"/>
      <path id="Trazado_27593" data-name="Trazado 27593" d="M121.966,243.966A76.214,76.214,0,0,0,198.18,320.18V167.752A76.214,76.214,0,0,0,121.966,243.966Z" fill="#89bf11"/>
      <g id="Grupo_10666" data-name="Grupo 10666">
        <path id="Trazado_27594" data-name="Trazado 27594" d="M247.811,279.757c-.838-.395-1.6-.968-2.389-1.433a4.814,4.814,0,0,0-1.984-.41,17.614,17.614,0,0,1-4.285-.9c-1.169-.4-2.248-.91-3.4-1.209a3.511,3.511,0,0,0,.009-1.633c-.365-1.864-2.057-3.693-4-3.217-3.161-.771-6.456-1.641-8.086-4.685-1.352-2.525-4.458-.7-6.494-.438-1.837.237-2.781-1.642-4.491-1.656a26.852,26.852,0,0,0-4.795.2c-2.238.393-3.6,2.8-5.97,2.864a16.108,16.108,0,0,1-1.932-.258.679.679,0,0,0-1.049-.246c-.07.053-.139.088-.209.134a13.856,13.856,0,0,0-1.5-.026c-1.573.058-2.794.033-3.57-1.823-.219-.523.555-1.828.731-2.412a2.116,2.116,0,0,0-1.234-2.41c-1.631-.5-3.2-.121-4.794-.922-1.253-.628.441-3.516.632-4.577a.826.826,0,0,0-.57-1c-2.165-.361-3.29.058-5.165,1.3-1.13.747-2.339,1.772-3.734,1.913-2.309.233-3.869-1.35-4.479-3.4-.943-3.167-.258-7.248,3.062-8.583,2.454-.986,5.451-.658,8.025-.51a.83.83,0,0,0,.817-.817c.309-2.635,6.049-.065,7.506.266.6,1.914,1.837,4.746,3.585,4.746,1.091,0,1.415-1.229,1.579-2.073.4-2.078-1.787-3.706-1.1-5.384q.465-.5.929-1.007a14.259,14.259,0,0,0,4.9-2.561,2.824,2.824,0,0,0,2.466-2.837c.539-.771,1.059-1.557,1.646-2.284a15.621,15.621,0,0,1,7.173-4.535.822.822,0,0,0,.57-1c-.813-2.01,3.3-3.094,5.346-3.325.021.12.045.246.077.39a.8.8,0,0,0,.787.6c2.316-.3,4.318-1.424,6.566-1.973a.817.817,0,0,0-.434-1.574c-2.281.681-3.442-1.263-5.094-2.346a9.069,9.069,0,0,0-2.481-1.1c.512-.383.989-.765,1.5-1.083.754-.211,1.518-.383,2.289-.542.182.016.369.044.557.076l.075.018a.819.819,0,0,0,.108,1.631,3.029,3.029,0,0,1,1.006.421.817.817,0,0,0,.824-1.411,5.3,5.3,0,0,0-.668-.33l.075.018a.807.807,0,0,0,1.007-.781c.5-.017,1-.03,1.506-.029a10.068,10.068,0,0,1,2.507.284c.325.084.476.24.52.432a.957.957,0,0,0-.026.364,6.131,6.131,0,0,1-1.468,1.863.824.824,0,0,0,.577,1.394c2,.141,3.7,1.165,5.614,1.656a.824.824,0,0,0,.922-1.2,7.535,7.535,0,0,0-2.395-2.065.843.843,0,0,0-.555-.772,1.352,1.352,0,0,1-.917-.714c.536-1.66.886-3.6-.344-4.994-1.569-1.774-3.674-2.486-5.077-4.4a19.51,19.51,0,0,0-1.985-5.065.824.824,0,0,0-1.411,0c-1.084,1.968-2.715.756-4.034-.556a3.885,3.885,0,0,1,.085-1.018.834.834,0,0,0-.571-1.005c-.335-.1-.672-.188-1.01-.266-.383-.252-.775-.487-1.173-.717a.683.683,0,0,0-.343-.36,12.673,12.673,0,0,0-1.916-.843,4.482,4.482,0,0,0-.871-.276.866.866,0,0,0-.808.295,1.835,1.835,0,0,0-.231.123.8.8,0,0,0-1.29.629v.577a5.344,5.344,0,0,0-1.529,3.4,2.566,2.566,0,0,0,.575,1.292c1.1,1.6-1.345,3.384-2.406,4.261a7.583,7.583,0,0,0-1.976,2.251c-.221.415-.39.865-.58,1.294-.071.146-.141.292-.212.439q-.487,1.359-2.058-.31c.038-1.853.453-3.155-1.536-4.008-.89-.382-1.849-.731-2.808-1.108a4.71,4.71,0,0,0-.69-.322.634.634,0,0,0-.193-.037,10.56,10.56,0,0,1-4.974-3.6c-2.843-4.272,7.51-8.744,10.868-9.6a4.368,4.368,0,0,1-.274.654.825.825,0,0,0,.705,1.229,9.216,9.216,0,0,1,3.411.489c.874.289,1.467-1.092.629-1.493a4.39,4.39,0,0,1-1.386-.962.713.713,0,0,0-.052-.234c-.1-.238-.19-.472-.279-.707a.965.965,0,0,1,.067-.624c.908.634,2.226-.483,2.853-.985,1.134-.907.933-3.914,2.662-3.907a.8.8,0,0,0,.424-.113c.063.014.125.03.188.045a.837.837,0,0,0,.837.267c1.118.449,1.964,1.238,1.344,2.46a.823.823,0,0,0,1.117,1.117c1.321-.564,1.779-.247,1.185.944a3.676,3.676,0,0,1-3.152,1.81.82.82,0,0,0-.217,1.6c3.127.8,5.587,3.185,8.552,4.406a.75.75,0,0,0,1-.667c.034.024.069.042.1.066.753.536,1.4-.459,1.118-1.117-.625-1.479-1.729-2.816-2.228-4.331a7.781,7.781,0,0,1,1.984,2.175.825.825,0,0,0,1.41,0c1.126-1.925.168-3.1-1.512-4.208-1.805-1.187-.446-1.352-1.045-2.784a4.564,4.564,0,0,0-2.341-2.355c-2.487-1.362-4.986-4.322-7.918-4.644a6.152,6.152,0,0,0-3.331.475c.286-.433.221-1.194-.409-1.289-7.221-1.092.515,6.856-3.807,7.9-.054-.37-.111-.739-.158-1.109a.809.809,0,0,0-.788-.6,4.919,4.919,0,0,1-1.87-.709c.953-2.035,1.394-4.522,3.642-5.462a.817.817,0,0,0-.434-1.574c-1.024.215-2.035.44-3.075.576-.516.067-.675-.315-1.056-.849a.829.829,0,0,0-1.283-.165,19.616,19.616,0,0,0-2.071,2.5.815.815,0,0,0,.293,1.118,4.458,4.458,0,0,0,2.294.477,5.059,5.059,0,0,1-3.654,2.7.825.825,0,0,0-.57,1c.236,1.229-2.569,1.138-4.421,1.131-.168-.559-.329-1.12-.5-1.681a.882.882,0,0,0,.607.083c.949-.179,1.9-.339,2.851-.518.667-.126.705-.933.36-1.365a3.011,3.011,0,0,1-.268-1.513,4.823,4.823,0,0,1,.916-1.349.764.764,0,0,0,.209-.765c.06-.047.122-.1.18-.142a.821.821,0,0,0-.795-1.365,4.529,4.529,0,0,0-1.918,1.375,1.4,1.4,0,0,1-1.173.04c-.928-.409-.747-1.269-.943-2.021a2.087,2.087,0,0,0-1.574-1.386c-1.884-.526-4.063,1.06-5.827,1.737l-.156.055c-.067.024-.135.05-.2.071l0,.006c-.066.026-.129.046-.2.076-.856.372-.242,1.767.629,1.492.1-.031.2-.072.3-.107a4.453,4.453,0,0,1,1.584-.177,3.224,3.224,0,0,0,.154,2.343c-.2-.037-.407-.077-.609-.135a.821.821,0,0,0-1.033.788c.283,2.58,2.418,2.366,4.464,2.3-.11.233-.221.466-.335.695a5.943,5.943,0,0,0-.5.605.726.726,0,0,0-.379.086,13.472,13.472,0,0,0-4.491-.23h-.012v0c-.073.01-.144.015-.217.026a.792.792,0,0,0-.249.084l-.021-.005-.024-.035a7.48,7.48,0,0,1,.57-.752.828.828,0,0,0,.128-.99,4.1,4.1,0,0,0-3.782-2.034,2.817,2.817,0,0,1-.235-.428.679.679,0,0,0-.787-.4c-.013-.061-.023-.121-.038-.183a.824.824,0,0,0-1-.57,10.923,10.923,0,0,1-4.576.3.991.991,0,0,0-.519-.2c-.2-.017-.38-.026-.561-.032a14.837,14.837,0,0,1-2.365-.889c-.022-.2-.049-.4-.078-.6a.82.82,0,0,0-.712-1.433l-.582.163a4.3,4.3,0,0,0-.566.159c-3.345.945-6.84,2.047-9.32,4.553a.79.79,0,0,0-.217.582c-.341.319-.7.617-1.061.9a.777.777,0,0,0-1.018-.186c-.947.6-1.882,1.221-2.816,1.841a.715.715,0,0,0-.359.021,2.224,2.224,0,0,0-.878.6.756.756,0,0,0,.029,1.144c-3.671,2.041-7.084,4.824-8.808,8.691-.01.017-.021.033-.031.049l.007,0c-.028.065-.061.127-.089.192a.687.687,0,0,0,.443.934c-.336.444-.675.886-1.009,1.333-.631.845.788,1.658,1.411.825.735-.986,1.474-1.949,2.151-2.947a.7.7,0,0,0,.96-.128c.113-.123.229-.241.343-.363a.791.791,0,0,0,.983.045.923.923,0,0,0,.842.057q.456-.22.908-.445a.71.71,0,0,0,.494.168c.057,0,.114,0,.171,0-.434.8.657,1.5,1.313.93.12-.1.228-.213.341-.321.055.19.114.38.175.569-.042.878-.067,1.757-.08,2.636v0a.679.679,0,0,0-.422.4c-.029.065-.051.13-.08.2h0l0,.011a22.226,22.226,0,0,0-.9,2.451.764.764,0,0,0,.17.719.953.953,0,0,0-.559,1.011c.034.359.067.719.1,1.079a.842.842,0,0,0,.461.7c-.007.046-.018.091-.026.136l-.031.017a.807.807,0,0,0-.375.922c.059.159.125.353.19.569-.028.214-.065.425-.09.64a.662.662,0,0,0,.264.6,13.427,13.427,0,0,0-.009,1.9,1.3,1.3,0,0,1-1.123.822c-.557.065-1.092.662-.705,1.228,2.23,3.262.564,6.291-1.14,9.333a22.588,22.588,0,0,0-1.958,4.408.675.675,0,0,0-.512.749q.047.441.1.879c-.074.359-.14.723-.192,1.1a8.567,8.567,0,0,0,1.037,6.028,9.482,9.482,0,0,0,2.859,2.231,13.788,13.788,0,0,1,1.286,3.032c-.4,3.594,3.508,7.5,4.873,10.467.4.874,1.693.235,1.493-.629-.517-2.234-1.9-3.908-3.075-5.828a14.641,14.641,0,0,1-1.4-3.335.9.9,0,0,0,.434.053,5.207,5.207,0,0,1,1.348.885,11.017,11.017,0,0,0,2.461,3.806,10.8,10.8,0,0,0,4.064,4.615,16.048,16.048,0,0,1,1.223,2.253c0,.137.006.274.01.408.062,1.836.133,3.493,1.8,3.25a13.6,13.6,0,0,0,3.5,1.609,22.4,22.4,0,0,0,7.863,1.471c3.473.053,5.493,2.115,8.554,3.277,3.016,1.146,5.1,2.962,7.721,4.7a4.894,4.894,0,0,0,5.036.5.7.7,0,0,0,.325.025c.4.035.8.079,1.2.14a.625.625,0,0,0,.1.621,4.92,4.92,0,0,1,.761,3.443c-.861,1.112-2.228,2.128-2.9,3.02a6.024,6.024,0,0,0-1.028,2.11c-.4,1.353.492,1.981-.353,3.49a.835.835,0,0,0,.293,1.117c.046.034.093.065.139.1a.764.764,0,0,0,.741.5c.595.391,1.182.761,1.723,1.167,1.208,1.475,2.643,3.842,3.074,4.394a9.7,9.7,0,0,0,4.055,2.721,4.737,4.737,0,0,1,2.892,3.9,15.236,15.236,0,0,0-.521,2.824c-.238,1.7-.316,3.416-.494,5.121-.338,1.129-.679,2.258-.955,3.406a10.637,10.637,0,0,0-.175,1.3,10.071,10.071,0,0,0-1.314,4.236.744.744,0,0,0-.37.682.806.806,0,0,0-.15.418c-.032.639-.015,1.27,0,1.91a.838.838,0,0,0,.6.788,5.336,5.336,0,0,0,2.06.3.83.83,0,0,0,.787-1.034q.413-.664.824-1.331c.2-.2.4-.41.6-.6a.78.78,0,0,0,.047-1.066.817.817,0,0,0,.5-.518,11.723,11.723,0,0,0,2.354-2.11.681.681,0,0,0,.85-.2,8.234,8.234,0,0,1,2.885-2.013.7.7,0,0,0,1.074-.034c.837-.947,1.105-1.715,2.326-2.088a.732.732,0,0,0,.522-.155,5.668,5.668,0,0,0,1.611-.791.756.756,0,0,0,.358-.115c2.309-1.436,4.16-3.529,6.153-5.382a.786.786,0,0,0,.768-.205,16.393,16.393,0,0,0,1.674-1.8q.353-.244.72-.467a.913.913,0,0,0,.59.086,7.922,7.922,0,0,0,2.809-1.048.682.682,0,0,0,.526-.126c3.659-2.594,5.057-7.043,8.719-9.651a8.015,8.015,0,0,0,3.005-3.059C248.593,281.94,248.835,280.239,247.811,279.757Z" fill="#e6e7e8"/>
        <path id="Trazado_27595" data-name="Trazado 27595" d="M209.7,173.269c.383.18.491.645.785.928a2.826,2.826,0,0,0,1.056.666,4.456,4.456,0,0,0,.9.2.731.731,0,0,0,.014.092c.009.036.024.066.035.1a.619.619,0,0,0-.448.36l-.065.152a3.837,3.837,0,0,0-.674.229,1.79,1.79,0,0,1-1.4,0,1.7,1.7,0,0,0-1.177-.292.817.817,0,0,0,0,1.633h.006a1.429,1.429,0,0,0,.143.622,1.879,1.879,0,0,0,1.09.853,15.485,15.485,0,0,0,4.567.768c1.051.08,1.043-1.554,0-1.634-.228-.017-1.787-.148-2.932-.364a2.272,2.272,0,0,1,1.362-.176.824.824,0,0,0,.624-.1c.09.035.179.071.27.1a2.353,2.353,0,0,0,.305.055.926.926,0,0,0,.359.047c.491.063,1.068.147,1.187.32.593.856,2,.061,1.411-.825a.393.393,0,0,1-.067-.19.9.9,0,0,0,.1-.074,2.587,2.587,0,0,0,1.187-1.921.852.852,0,0,0,.281.049h.33a.74.74,0,0,0,.764-.6.837.837,0,0,0,.765-1.227c-.327-.593-1.225-.737-1.814-.913-.967-.288-1.912-.576-2.9-.769-.892-.175-2.37-.528-3.232.005a2.41,2.41,0,0,0-.64-.014.969.969,0,0,0-.8.772,1.65,1.65,0,0,0-.977-.376A.822.822,0,0,0,209.7,173.269Z" fill="#e6e7e8"/>
        <path id="Trazado_27596" data-name="Trazado 27596" d="M194.793,175.1a1.921,1.921,0,0,1,.256-.075c.029,0,.2-.03.187-.028a1.233,1.233,0,0,0,.253-.063,1.067,1.067,0,0,0,.067.125.888.888,0,0,0-.586.417.922.922,0,0,0,.544,1.306.837.837,0,0,0,.525-.035l.038.019a1.009,1.009,0,0,0,.179.071.771.771,0,0,0,.563.271,13.16,13.16,0,0,0,2.022.081,2.242,2.242,0,0,0,.973-.358,1.21,1.21,0,0,0,.178-.15.561.561,0,0,0,.258.031c.2-.025.387-.057.58-.1a.792.792,0,0,0,.161-1.473.707.707,0,0,0-.925-.464,6.074,6.074,0,0,0-1.246.851,1.1,1.1,0,0,1-.624.113c-.222-.375-.358-.753-.561-1.071a.875.875,0,0,0-.085-.174.816.816,0,0,0-.046-1.629h-.157a.742.742,0,0,0-.635.316,1.771,1.771,0,0,0-.338.081,1.456,1.456,0,0,0-1.044-.128,3.641,3.641,0,0,0-1.166.568.831.831,0,0,0-.375.922A.818.818,0,0,0,194.793,175.1Z" fill="#e6e7e8"/>
        <path id="Trazado_27597" data-name="Trazado 27597" d="M202.378,176.44l.033.033a.818.818,0,0,0,.827.189,1.916,1.916,0,0,0,.266.57.826.826,0,0,0,1.283.165c.013-.016.022-.032.035-.048a.627.627,0,0,1,.855.835,1.759,1.759,0,0,0,1.322.182.822.822,0,0,0,.571-1.005.831.831,0,0,0-1.005-.57c.147-.031-.161-.008.025.018-.02,0-.032,0-.043,0s-.023-.017-.045-.031a.79.79,0,0,0-.568-.09,1,1,0,0,0-.043-1.061,1.354,1.354,0,0,0-1.253-.577,1.637,1.637,0,0,1-.912.516.789.789,0,0,0-.16-.243l-.033-.034a.817.817,0,0,0-1.155,1.155Z" fill="#e6e7e8"/>
        <path id="Trazado_27598" data-name="Trazado 27598" d="M205.809,174.259a.832.832,0,0,0,1.118-.293.786.786,0,0,0,.072-.175.591.591,0,0,0-.011.093.774.774,0,0,0,.5.732.846.846,0,0,0,.6.814l.034.012a.8.8,0,0,0,1.024-.09.891.891,0,0,0,.235-.658.744.744,0,0,0,.091-.1.822.822,0,0,0-.293-1.117,3.766,3.766,0,0,0-1.369-.408.784.784,0,0,0-.778.594.793.793,0,0,0-.393-.812c-.153-.077-.3-.157-.451-.244-.073-.043-.142-.09-.212-.139.113.079-.073-.088-.1-.116a.817.817,0,0,0-1.155,0,.835.835,0,0,0,0,1.154A3.187,3.187,0,0,0,205.809,174.259Z" fill="#e6e7e8"/>
        <path id="Trazado_27599" data-name="Trazado 27599" d="M200.19,174.078c.122.029.249.032.371.065a.823.823,0,0,0,.961-.46.639.639,0,0,0,.232-.035c.066-.024.132-.042.2-.066a.831.831,0,0,0,.57-1,.819.819,0,0,0-1-.571c-.066.025-.133.042-.2.066a.937.937,0,0,0-.523.459c-.026,0-.053-.009-.079-.013a.607.607,0,0,0-.3-.046h-.008a.844.844,0,0,0-.788.6A.822.822,0,0,0,200.19,174.078Z" fill="#e6e7e8"/>
        <path id="Trazado_27600" data-name="Trazado 27600" d="M247.182,187.683a22.407,22.407,0,0,0-6.082-6.5c-1.313-.9-3.313-2.379-5.1-2.474-3.818-3.135-9.2-5.726-14.2-5.021-.661.094-.712.958-.36,1.365-.055.185-.109.369-.164.553-.878-.314-1.439,1.062-.63,1.493l.079.187a.716.716,0,0,0,.074.645.852.852,0,0,0,.187.352c2.185,2.487,6.3.751,8.509,3.74.877,1.186.92,2.8,2.06,3.835.235.214.531.409.785.6q.515.37,1,.778a.771.771,0,0,0,.207.262.783.783,0,0,0-.077.917,9.451,9.451,0,0,0,1.5,1.381.772.772,0,0,0,.06.132l.2.354a.8.8,0,0,0,.268.284,1.427,1.427,0,0,1,.066.265.919.919,0,0,0-.414.542l-.009.014a2.285,2.285,0,0,0,.03,2.123c.527,1.233.913,2.522,1.446,3.749.676,1.554,1.741,2.282,2.879,3.482.923.973,2.947,3.706,4.63,3.137,2.131-.722,1.368-3.573,1.613-5.332.092-.656,1.864-1.524,2.326-2.2.788-1.154,2.252-1.647,2.818-2.906C251.774,191.469,248.053,188.982,247.182,187.683Z" fill="#e6e7e8"/>
        <path id="Trazado_27601" data-name="Trazado 27601" d="M255.525,198.575a.787.787,0,0,0-.183-.3,1.742,1.742,0,0,0-1.157-.57.811.811,0,0,0-.114,1.615c.039.036.078.072.115.109a.824.824,0,0,0,.574.236.841.841,0,0,0,.623.7.558.558,0,0,0,.127.144,6.443,6.443,0,0,0,2.758,1.7c.61.1,1.406-.553.922-1.2C258.414,199.964,257.022,197.987,255.525,198.575Z" fill="#e6e7e8"/>
        <path id="Trazado_27602" data-name="Trazado 27602" d="M208.112,195.853a.817.817,0,0,0,0,1.633A.817.817,0,0,0,208.112,195.853Z" fill="#e6e7e8"/>
        <path id="Trazado_27603" data-name="Trazado 27603" d="M211.029,198.168a.817.817,0,0,0,0-1.634A.817.817,0,0,0,211.029,198.168Z" fill="#e6e7e8"/>
        <path id="Trazado_27604" data-name="Trazado 27604" d="M213.7,195.144a.817.817,0,0,0,0,1.633A.817.817,0,0,0,213.7,195.144Z" fill="#e6e7e8"/>
        <path id="Trazado_27605" data-name="Trazado 27605" d="M208.027,207.161a1.227,1.227,0,0,0,1.038.137.814.814,0,0,0-.3-1.6.819.819,0,0,0-.738,1.458Z" fill="#e6e7e8"/>
        <path id="Trazado_27606" data-name="Trazado 27606" d="M268.508,217.8a.729.729,0,0,0,.219.734,3.219,3.219,0,0,1,.948,2.187.816.816,0,0,0,1,.57.751.751,0,0,0,.243-.123.885.885,0,0,0,.327-.881,4.422,4.422,0,0,0-1.368-2.908,1.092,1.092,0,0,0-.328-.181.767.767,0,0,0-.826.181l-.007.008a.863.863,0,0,0,.011-.164A17.493,17.493,0,0,0,267,211.258c-.386-.966-1.966-.545-1.575.434.719,1.8,1.61,3.561,1.669,5.534A.845.845,0,0,0,268.508,217.8Z" fill="#e6e7e8"/>
        <path id="Trazado_27607" data-name="Trazado 27607" d="M271.1,228.824a.662.662,0,0,0-.408.537,11.5,11.5,0,0,0,1.539,7.857.823.823,0,0,0,1.522-.412c-.037-1.288-.043-2.573-.165-3.856-.126-1.329-.8-2.506-.9-3.82a.824.824,0,0,0-1.522-.412A.957.957,0,0,0,271.1,228.824Z" fill="#e6e7e8"/>
        <path id="Trazado_27608" data-name="Trazado 27608" d="M274.315,247.312c-.1-.9-.227-1.81-.278-2.717-.023-.411-.026-.822-.018-1.233q.048-.966.068-1.933c.022-.607.037-1.213.006-1.821a1.024,1.024,0,0,0-.019-.129c.014-.09.032-.179.046-.27.153-1.03-1.42-1.473-1.575-.435-.541,3.625-2.018,6.855-3.376,10.223a28.571,28.571,0,0,0-1.456,4.793c-.262,1.242-.213,2.58-.41,3.841a.857.857,0,0,0-.193.307,12.577,12.577,0,0,0-1.265,5.049,7.665,7.665,0,0,0,.76,2.411,11.687,11.687,0,0,1,.531,4.02c.016.65.92,1.163,1.394.577a21.052,21.052,0,0,0,2.381-3.192,8.6,8.6,0,0,0,.6-1.366,64.341,64.341,0,0,0,1.909-8.422,37.393,37.393,0,0,0,1.044-7.882C274.445,248.526,274.384,247.919,274.315,247.312Z" fill="#e6e7e8"/>
        <path id="Trazado_27609" data-name="Trazado 27609" d="M206.055,254.19a11.465,11.465,0,0,1-3.7-1.429.675.675,0,0,0-1.009.184,5.549,5.549,0,0,0-1.772-1.022c-2.341-.665-4.192-.186-6.5-.07-1.048.053-1.053,1.687,0,1.634,2.626-.133,4.73-.922,7.2.666a9.007,9.007,0,0,0,5.567,1.641A.82.82,0,0,0,206.055,254.19Z" fill="#e6e7e8"/>
        <path id="Trazado_27610" data-name="Trazado 27610" d="M207.965,258.112a3.45,3.45,0,0,0,.846-.277.878.878,0,0,0,.13.027c1.78.19,3.52-.314,5.29-.4a.823.823,0,0,0,.413-1.522c-1.6-1.063-3.948-1.019-5.783-.828a.83.83,0,0,0-.68,1.242,2.831,2.831,0,0,1-.65.18C206.495,256.726,206.935,258.3,207.965,258.112Z" fill="#e6e7e8"/>
        <path id="Trazado_27611" data-name="Trazado 27611" d="M218.032,256.616a1.142,1.142,0,0,1-.878,0,.817.817,0,0,0-.435,1.575,2.669,2.669,0,0,0,1.747,0,.832.832,0,0,0,.571-1A.82.82,0,0,0,218.032,256.616Z" fill="#e6e7e8"/>
        <path id="Trazado_27612" data-name="Trazado 27612" d="M223.818,258.815a.822.822,0,0,0-.816.816,4.079,4.079,0,0,0,.35,1.566.816.816,0,0,0,1.117.293.838.838,0,0,0,.293-1.117,2.076,2.076,0,0,1-.127-.742A.826.826,0,0,0,223.818,258.815Z" fill="#e6e7e8"/>
        <path id="Trazado_27613" data-name="Trazado 27613" d="M202.322,256.581a.844.844,0,0,0-.342-.073c-.012,0-.013,0-.023,0-.026-.005-.052-.011-.079-.015a.835.835,0,0,0-1,.57.824.824,0,0,0,.57,1.005,2.186,2.186,0,0,0,.3.052c.5.093,1,.211,1.511.255a.817.817,0,0,0,.816-.816.832.832,0,0,0-.816-.817A7.594,7.594,0,0,1,202.322,256.581Z" fill="#e6e7e8"/>
        <path id="Trazado_27614" data-name="Trazado 27614" d="M203.288,246.559l-.017-.007h0c-.306-.112-.608-.236-.911-.357a.819.819,0,0,0-1.005.571.834.834,0,0,0,.571,1c.313.125.626.254.942.37h0c.867.314,1.453-1.089.626-1.493-.063-.031-.13-.056-.2-.082h0Z" fill="#e6e7e8"/>
        <path id="Trazado_27615" data-name="Trazado 27615" d="M201.607,250.869a.834.834,0,0,0,1.118-.293.5.5,0,0,0,.054-.1.9.9,0,0,0,.108-.215,1.033,1.033,0,0,0,.025-.521.823.823,0,0,0-1.493-.195,1.6,1.6,0,0,1-.105.206A.819.819,0,0,0,201.607,250.869Z" fill="#e6e7e8"/>
        <path id="Trazado_27616" data-name="Trazado 27616" d="M207.39,252.89a.817.817,0,0,0,0-1.633A.817.817,0,0,0,207.39,252.89Z" fill="#e6e7e8"/>
      </g>
      <g id="Grupo_10667" data-name="Grupo 10667">
        <path id="Trazado_27617" data-name="Trazado 27617" d="M198.18,178.586a.712.712,0,0,0-.6-.047,4.467,4.467,0,0,0-1.918,1.375,1.4,1.4,0,0,1-1.172.04c-.929-.409-.748-1.269-.944-2.022a2.088,2.088,0,0,0-1.574-1.385c-1.884-.526-4.063,1.06-5.827,1.737-.051.016-.1.036-.156.055s-.135.05-.2.07l0,.007c-.066.026-.129.046-.2.076-.856.372-.242,1.767.629,1.492.1-.031.2-.072.3-.107a4.43,4.43,0,0,1,1.584-.177,3.221,3.221,0,0,0,.154,2.342,5.922,5.922,0,0,1-.609-.134.821.821,0,0,0-1.033.788c.283,2.58,2.419,2.366,4.464,2.3-.11.233-.221.466-.335.7a5.729,5.729,0,0,0-.5.6.726.726,0,0,0-.379.086,13.472,13.472,0,0,0-4.491-.23h-.012v0c-.073.009-.144.015-.217.026a.777.777,0,0,0-.249.084l-.021-.005-.024-.035a7.483,7.483,0,0,1,.57-.752.828.828,0,0,0,.128-.99,4.1,4.1,0,0,0-3.782-2.034,2.866,2.866,0,0,1-.235-.428.679.679,0,0,0-.787-.4c-.013-.061-.023-.122-.038-.183a.824.824,0,0,0-1.005-.57,10.941,10.941,0,0,1-4.576.3.991.991,0,0,0-.519-.2c-.195-.017-.38-.027-.56-.032a14.811,14.811,0,0,1-2.366-.889c-.022-.2-.049-.4-.078-.6a.82.82,0,0,0-.712-1.433l-.582.162a4.474,4.474,0,0,0-.566.16c-3.345.945-6.84,2.047-9.32,4.553a.788.788,0,0,0-.217.582c-.341.319-.695.617-1.061.9a.778.778,0,0,0-1.018-.185c-.947.6-1.882,1.221-2.816,1.841a.711.711,0,0,0-.358.021,2.221,2.221,0,0,0-.879.6.756.756,0,0,0,.029,1.144c-3.671,2.041-7.084,4.824-8.808,8.691-.01.017-.021.033-.031.049l.007,0c-.028.065-.062.127-.089.192a.687.687,0,0,0,.443.934c-.336.444-.675.886-1.009,1.333-.63.845.788,1.658,1.41.825.736-.986,1.475-1.949,2.152-2.947a.7.7,0,0,0,.96-.128c.113-.123.229-.242.343-.363a.793.793,0,0,0,.984.045.921.921,0,0,0,.841.057c.3-.147.606-.3.908-.445a.713.713,0,0,0,.494.168c.057,0,.114,0,.171,0-.434.8.657,1.5,1.313.931.12-.1.228-.214.341-.321.055.19.114.38.175.569q-.063,1.317-.08,2.636v0a.679.679,0,0,0-.422.4c-.029.065-.051.13-.08.2h0l0,.011a22.223,22.223,0,0,0-.9,2.451.764.764,0,0,0,.17.719.953.953,0,0,0-.559,1.011c.034.359.067.719.1,1.078a.841.841,0,0,0,.462.7c-.008.046-.019.091-.026.136l-.032.017a.807.807,0,0,0-.375.922c.059.159.125.353.19.569-.028.214-.065.425-.09.64a.663.663,0,0,0,.264.6,13.578,13.578,0,0,0-.009,1.9,1.3,1.3,0,0,1-1.123.822c-.557.065-1.092.662-.705,1.228,2.23,3.262.564,6.29-1.14,9.333a22.56,22.56,0,0,0-1.958,4.408.675.675,0,0,0-.512.749c.031.293.063.587.1.879-.074.359-.14.723-.192,1.1a8.569,8.569,0,0,0,1.037,6.029,9.482,9.482,0,0,0,2.859,2.231,13.84,13.84,0,0,1,1.287,3.032c-.4,3.594,3.507,7.5,4.873,10.467.4.874,1.692.234,1.492-.629-.517-2.234-1.9-3.909-3.075-5.828a14.659,14.659,0,0,1-1.4-3.335.916.916,0,0,0,.434.053,5.2,5.2,0,0,1,1.348.884,11.012,11.012,0,0,0,2.461,3.807,10.807,10.807,0,0,0,4.064,4.615,16.049,16.049,0,0,1,1.223,2.253c0,.137.006.274.01.409.062,1.835.133,3.492,1.8,3.249a13.6,13.6,0,0,0,3.5,1.609,22.4,22.4,0,0,0,7.863,1.471c3.473.053,5.493,2.115,8.554,3.277,3.017,1.145,5.1,2.962,7.721,4.7a4.994,4.994,0,0,0,4.349.771v-2.117c-.312-.01-.626-.013-.942,0-1.572.058-2.794.033-3.57-1.823-.219-.523.555-1.828.731-2.412a2.115,2.115,0,0,0-1.234-2.41c-1.631-.5-3.2-.121-4.794-.922-1.253-.628.441-3.516.632-4.577a.825.825,0,0,0-.57-1c-2.165-.361-3.29.058-5.165,1.3-1.13.747-2.339,1.772-3.734,1.913-2.309.233-3.869-1.35-4.479-3.4-.943-3.167-.258-7.248,3.061-8.583,2.455-.986,5.452-.659,8.026-.51a.83.83,0,0,0,.817-.817c.309-2.635,6.049-.065,7.506.266.6,1.914,1.837,4.746,3.585,4.746a1.312,1.312,0,0,0,.13-.019V205.426a8.994,8.994,0,0,1-3.511-2.927c-1.492-2.243.652-4.539,3.511-6.339v-9.5c-.72.547-2.723.494-4.158.489-.168-.559-.329-1.121-.495-1.681a.881.881,0,0,0,.607.083c.949-.179,1.9-.339,2.851-.518.667-.126.705-.933.36-1.365a3.011,3.011,0,0,1-.268-1.513,4.822,4.822,0,0,1,.916-1.349,1.475,1.475,0,0,0,.19-.3v-1.921Z" fill="#fff"/>
        <path id="Trazado_27618" data-name="Trazado 27618" d="M196.967,281.542a.835.835,0,0,0,.293,1.117c.046.034.093.065.139.1a.762.762,0,0,0,.741.5l.037.025v-7.094a6.173,6.173,0,0,0-.857,1.86C196.92,279.4,197.812,280.033,196.967,281.542Z" fill="#fff"/>
        <path id="Trazado_27619" data-name="Trazado 27619" d="M194.792,175.1a1.732,1.732,0,0,1,.256-.075c.029,0,.2-.03.187-.028a1.233,1.233,0,0,0,.253-.063.978.978,0,0,0,.067.124.887.887,0,0,0-.586.418.922.922,0,0,0,.544,1.306.836.836,0,0,0,.525-.036l.038.02a1.009,1.009,0,0,0,.179.071.774.774,0,0,0,.563.271c.455.014.907.079,1.359.1v-1.595c-.21-.364-.346-.729-.543-1.038a.856.856,0,0,0-.085-.175.732.732,0,0,0,.628-.375.912.912,0,0,0,0-.883.74.74,0,0,0-.674-.37h-.157a.743.743,0,0,0-.635.316,1.771,1.771,0,0,0-.338.081,1.456,1.456,0,0,0-1.044-.129,3.665,3.665,0,0,0-1.166.569.831.831,0,0,0-.375.922A.819.819,0,0,0,194.792,175.1Z" fill="#fff"/>
        <path id="Trazado_27620" data-name="Trazado 27620" d="M193.068,251.855c-1.048.053-1.053,1.687,0,1.633,1.859-.093,3.457-.513,5.109-.188v-1.645A30.021,30.021,0,0,0,193.068,251.855Z" fill="#fff"/>
      </g>
    </g>
  </g>
</svg>
