<svg xmlns="http://www.w3.org/2000/svg" xmlns:xlink="http://www.w3.org/1999/xlink" width="204" height="204" viewBox="0 0 204 204">
  <defs>
    <clipPath id="clip-path">
      <circle id="Elipse_810" data-name="Elipse 810" cx="88.503" cy="88.503" r="88.503" transform="translate(0 175.914) rotate(-83.63)" fill="none"/>
    </clipPath>
  </defs>
  <g id="Grupo_10830" data-name="Grupo 10830" transform="translate(-448 -3805)">
    <circle id="Elipse_815" data-name="Elipse 815" cx="102" cy="102" r="102" transform="translate(448 3805)" fill="#eba7a7"/>
    <g id="Grupo_10579" data-name="Grupo 10579" transform="translate(218.083 3482.646)">
      <circle id="Elipse_809" data-name="Elipse 809" cx="88.503" cy="88.503" r="88.503" transform="translate(233.917 502.268) rotate(-83.63)" fill="#d65555"/>
      <path id="Trazado_27384" data-name="Trazado 27384" d="M513.658,432.994a88.5,88.5,0,0,0-88.5-88.5V521.5A88.5,88.5,0,0,0,513.658,432.994Z" transform="translate(-93.463 -8.864)" fill="#d65555"/>
      <g id="Grupo_10578" data-name="Grupo 10578" transform="translate(233.917 326.354)">
        <g id="Grupo_10577" data-name="Grupo 10577" clip-path="url(#clip-path)">
          <path id="Trazado_27385" data-name="Trazado 27385" d="M478.714,399.534l-9.6-4.758a8.458,8.458,0,0,0-3.633-.731l-5.532.349a12.451,12.451,0,0,1-3.748-.447l-10.507-3.257a12.047,12.047,0,0,0-3.746-.426l-6.547.484a28.845,28.845,0,0,1-3.824-.027l-17.494-1.534c-1.057-.093-1.2-.649-.324-1.243l2.538-1.719c.878-.594.781-1.367-.216-1.724l-3.748-1.346a7.906,7.906,0,0,0-3.682-.246l-6.393,1.376a18.033,18.033,0,0,0-3.591,1.263l-11.729,5.875a1.857,1.857,0,0,1-2.482-.55,1.856,1.856,0,0,0-2.482-.546l-9.164,4.6a37.741,37.741,0,0,1-3.521,1.508l-12.618,4.518a2.474,2.474,0,0,1-2.606-.384c-.442-.57-.159-1.6.635-2.307l1.1-.979c.792-.7.588-1.421-.457-1.6l-10.995-1.88a4.515,4.515,0,0,0-3.324.951l-11.208,9.966a3.157,3.157,0,0,0-.832,3.091,2.13,2.13,0,0,0,2.442,1.391,3.764,3.764,0,0,1,3.182.953l1.285,1.316a1.457,1.457,0,0,0,2.376-.24l.857-1.333a5.688,5.688,0,0,0,.71-3.5l-.006-.043a5.014,5.014,0,0,1,.836-3.416l1.01-1.328c.642-.843,1.511-1.292,1.946-1s.355,1.184-.174,2a3.894,3.894,0,0,0-.608,2.7,2.6,2.6,0,0,0,2.259,1.378l.352.03c1.057.088,1.3.76.537,1.5l-4.213,4.107a6.006,6.006,0,0,1-3.288,1.464l-1.564.1a3.034,3.034,0,0,1-2.7-1.355,3.3,3.3,0,0,0-1.74-1.652c-.528-.1-1.231.64-1.565,1.645l-.177.536a6.354,6.354,0,0,1-2.221,2.86l-4.6,2.968a15.624,15.624,0,0,0-2.859,2.5l-2.2,2.578a9.017,9.017,0,0,0-1.657,3.333l-.264,1.2a5.692,5.692,0,0,0,.555,3.531l.705,1.211c.534.915.345,1.812-.421,2a4.591,4.591,0,0,0-2.333,2.015l-4.135,7.275a9.106,9.106,0,0,0-1,3.586l-.036,1.256a6.614,6.614,0,0,0,1.068,3.474l3.63,5.052a4.864,4.864,0,0,0,3.03,1.75l12.143,1.221a3.208,3.208,0,0,1,2.512,2.013l2.279,6.9a8.358,8.358,0,0,1,.2,3.7l-.694,3.26a7.476,7.476,0,0,0,.306,3.661l4.317,10.964a3.041,3.041,0,0,0,2.623,1.786h2.848a3.989,3.989,0,0,0,2.98-1.6l9.974-15.011a5.314,5.314,0,0,0,.684-3.481l-.272-1.35a5.616,5.616,0,0,1,.625-3.514l3.142-5.116,4.472-6.733c.585-.882.206-1.662-.852-1.738l-2.478-.178a4.187,4.187,0,0,1-2.915-1.775l-5.97-9.754c-.554-.9-.648-1.585-.213-1.521s1.237.85,1.787,1.756l5.3,8.728a1.908,1.908,0,0,0,2.63.638l8.837-5.415a1.044,1.044,0,0,0-.025-1.96l-.416-.238a7.031,7.031,0,0,1-2.255-2.009c-.326-.581.255-.905,1.3-.724l8.365,1.448a3.83,3.83,0,0,1,2.608,2.108l3.79,9.452c.4.982,1.236,1.779,1.879,1.779s1.446-.811,1.8-1.811l.528-1.5a7.381,7.381,0,0,1,2.17-2.961l5.855-4.368a2.3,2.3,0,0,1,2.9.2l8.631,8.542a2.473,2.473,0,0,0,2.967.3l.912-.6a2.831,2.831,0,0,0,1.109-2.907l-1.032-3.886a2.292,2.292,0,0,1,1.267-2.617l4.6-1.984a13.108,13.108,0,0,0,3.163-2.072l.871-.815a3.4,3.4,0,0,0,.855-3.153l-1.324-4.456a2.127,2.127,0,0,1,1.241-2.541l.739-.29a1.343,1.343,0,0,1,1.94,1.211l.042.524a3.33,3.33,0,0,0,1.4,2.53c.686.341,1.47-.212,1.749-1.233l.181-.671a14,14,0,0,1,1.581-3.442l8.4-12.454a1.219,1.219,0,0,0-.8-2.009l-.7-.155c-1.034-.232-1.258-1.021-.5-1.763l2.6-2.55a6.406,6.406,0,0,1,3.278-1.548l6.543-.7a13.676,13.676,0,0,0,3.644-1.021l4.277-2.008c.958-.451,1.246-.112.638.758-2.2,3.149-6.947,9.941-7.081,10.042a10.457,10.457,0,0,0,2.061.046,4.169,4.169,0,0,0,3-1.63l3.2-4.675a6.25,6.25,0,0,1,2.92-2.125l7.215-2.119a2.017,2.017,0,0,0,1.384-2.393c-.253-1.023.379-1.663,1.413-1.431l2.489.56a5.2,5.2,0,0,0,3.343-.476C479.775,400.787,479.663,400,478.714,399.534Zm-128.883,37.4-6.335-1.309a3.023,3.023,0,0,0-2.837.909,1.517,1.517,0,0,1-2.332-.039l-3.861-3.75a3.84,3.84,0,0,0-3.239-.872l-7.935,1.985c-1.028.256-1.941.059-2.041-.442s.473-1.468,1.277-2.158l2.652-2.277a20.939,20.939,0,0,1,3.151-2.153l1.412-.756a2.137,2.137,0,0,1,2.743.7l1.882,2.878c.58.888,1.457,1.536,1.958,1.449s.422-.864-.178-1.736l-1.1-1.6c-.6-.873-.8-1.814-.436-2.1s1.235.112,1.952.892l3.931,4.268a4.025,4.025,0,0,0,2.525,1.358c.677-.029,1.077-.807.893-1.734s.432-1.293,1.378-.815l5.576,2.82a2.614,2.614,0,0,1,1.307,2.74l-.056.254A1.942,1.942,0,0,1,349.831,436.93Zm21.255-43.975c-.442.324-1.49.075-2.341-.556l-.235-.176a2.239,2.239,0,0,1-.6-2.818l.761-1.357a6.936,6.936,0,0,1,2.678-2.483l8.12-3.773c.963-.446,2.024-.467,2.374-.047s-.112,1.182-1.035,1.7l-7.24,4.058a3.615,3.615,0,0,0-1.673,2.858v.089A3.6,3.6,0,0,1,371.086,392.956Zm38.8-12.345-.473.122a6.4,6.4,0,0,1-3.612-.3l-4.505-2c-.968-.43-1.45-1.268-1.072-1.872a2.979,2.979,0,0,1,2.325-1.093,7.417,7.417,0,0,1,3.275,1.008l4.291,2.651C411.017,379.68,410.916,380.346,409.888,380.61Zm-86.11,37.143-1.439.648a1.2,1.2,0,0,1-1.818-1.129l-.218-6.024c-.038-1.058.379-2.013.929-2.13a1.328,1.328,0,0,1,1.414.9l.413,1.113,1.722,4.067A1.971,1.971,0,0,1,323.778,417.754Zm-5.6-1.221c-.737.623-1.506.349-1.718-.615a2.6,2.6,0,0,1,.473-2.383c.47-.355,1.242-.081,1.718.613A1.853,1.853,0,0,1,318.182,416.533Zm44.124,59.159,1.087-1.129c.735-.765,1.719-.8,2.2-.072a3.969,3.969,0,0,1,.221,3.117c-.986,2.761-2.768,7.716-2.85,7.769a4.726,4.726,0,0,1-1.1-.243c-.6-.168-1.061-1.176-1.034-2.235l.1-3.907A5.692,5.692,0,0,1,362.306,475.692Zm80.85-.8,2.1,3.871s5.482,8.844,5.491,9.241c0,.279-1.432,4.446-2.291,6.923a3.2,3.2,0,0,1-2.544,1.968l-2.114.172a6.776,6.776,0,0,1-3.541-.863l-8.358-5.226a4.728,4.728,0,0,0-3.457-.441l-7.59,2.39a1.572,1.572,0,0,1-2.1-1.325l-.751-5.406a3.493,3.493,0,0,1,1.3-3.019l3.144-2.257a19.254,19.254,0,0,0,2.809-2.573l.665-.776a8.4,8.4,0,0,1,3.062-2.088l5.348-1.861a3.893,3.893,0,0,1,2.537-.184,1.206,1.206,0,0,1,.284,1.475c-.243.565.315,1.417,1.252,1.9a1.324,1.324,0,0,0,2.025-1.015l.223-1.26c.184-1.046.614-1.764.959-1.615A5.663,5.663,0,0,1,443.157,474.892Zm23.992,20.468c-.109-1.03.559-1.458,1.494-.956l1.362.732a1.46,1.46,0,0,1,.425,2.352l-5.823,6.645a2.481,2.481,0,0,1-2.363.987c-.606-.25-.549-1.113.131-1.928l3.742-4.5A5.161,5.161,0,0,0,467.149,495.36Zm-64.591-34.6c0-.921.711-1.184,1.584-.583l5.778,3.955a3,3,0,0,1,1.345,2.573c-.132.821-.949,1-1.825.407l-5.293-3.6A3.812,3.812,0,0,1,402.557,460.756Zm25.955,9.611c.191-.033-.616.559-1.439,1.142a4.352,4.352,0,0,1-3.387.487l-7.584-2.429c-1.01-.325-.974-.681.08-.8l3.319-.369a10.564,10.564,0,0,1,3.728.387C425.253,469.445,428.268,470.405,428.512,470.368Zm-10.695-3.246a2.921,2.921,0,0,1-2.382-1.767l-.425-1.011a2.456,2.456,0,0,1,.836-2.854l3.778-2.6a3.435,3.435,0,0,1,2.985-.445,1.584,1.584,0,0,1,.456,2.309l-2.665,4.7A3.4,3.4,0,0,1,417.817,467.122Zm18.6,2.349-3.349-1.545a2.241,2.241,0,0,1-1.387-2.3c.195-.828,1.074-1.128,1.958-.666a5.971,5.971,0,0,0,3.319.5,10.019,10.019,0,0,1,3.574.127l6.947,1.683c1.03.25,1.037.681.015.962l-.745.205c-1.023.281-1.172,1.037-.336,1.689l.868.678c.837.649,1.393,1.5,1.17,1.87-.167.278-.37.529-.551.5-.24-.033-2.19-1.072-3.666-1.873a5.748,5.748,0,0,0-3.326-.586,5.192,5.192,0,0,1-3.066-.459Zm3.241-37.618-1.717,1.963a9.048,9.048,0,0,1-3.058,2.121l-1.332.5c-.993.375-1.893.261-2.009-.251a2.211,2.211,0,0,1,.776-1.823,13.657,13.657,0,0,1,2.719-1.726l1-.478a5.866,5.866,0,0,0,2.479-2.595l1.729-4.083a1.72,1.72,0,1,1,2.986,1.667l-1.2,1.694C441.412,429.708,440.35,431.056,439.653,431.853ZM283.72,462.5c0,.6.8,1.4,1.792,1.78l8.375,3.191a1.717,1.717,0,0,1,.951,2.4l-5.278,10.794a22.92,22.92,0,0,1-2.012,3.245l-6.507,8.472a32.763,32.763,0,0,1-2.537,2.866l-5.383,5.281a12.207,12.207,0,0,0-2.16,3.1l-1.808,4.011a4.231,4.231,0,0,0,.164,3.415l.939,1.636c.526.92.354,1.772-.385,1.9a3.3,3.3,0,0,1-2.6-1.208l-2.993-3.436a4.922,4.922,0,0,1-1.028-3.353l2.962-24.388a5.623,5.623,0,0,0-.9-3.456l-6.1-8.364a6.764,6.764,0,0,1-1.13-3.395,11.488,11.488,0,0,1,.723-3.621l.944-2.322a2.339,2.339,0,0,0-.913-2.779l-7.408-4.528A24.588,24.588,0,0,0,248,452.06l-5.034-1.906a11.256,11.256,0,0,1-3.183-2L226.9,435.869a10.136,10.136,0,0,1-2.076-3.116l-5.866-15.274a8.125,8.125,0,0,0-2.2-2.968l-5.7-4.428a7.073,7.073,0,0,0-3.432-1.264l-14.651-.661a5.084,5.084,0,0,1-3.164-1.544l-.479-.554a6.152,6.152,0,0,1-1.568-3.3c0-1.493.184-3.547.346-5.032a5.255,5.255,0,0,1,1.733-3.095l3.227-2.543a4.559,4.559,0,0,1,3.379-.767l19.487,4.378a2.366,2.366,0,0,0,2.58-1.028,3.045,3.045,0,0,1,2.626-1.418l14.455.253a25.071,25.071,0,0,0,3.81-.283l8.092-1.354a7.347,7.347,0,0,0,3.281-1.641l.479-.458a6.332,6.332,0,0,1,3.3-1.481l2.594-.213a7.219,7.219,0,0,1,3.575.8l6.41,3.7a19.01,19.01,0,0,1,3.045,2.291l1.555,1.494a3.215,3.215,0,0,1,.735,3.136l-1,2.784a2.637,2.637,0,0,1-2.561,1.645l-.7-.059a12.514,12.514,0,0,1-3.645-.984l-1.608-.764a3.178,3.178,0,0,1-1.67-2.742l.049-1.456a2.84,2.84,0,0,0-1.4-2.564,1.847,1.847,0,0,0-2.291,1.083l-.724,1.512a2.593,2.593,0,0,0,.645,2.96l.03.025c.813.68,1.212,1.625.893,2.114a2.688,2.688,0,0,1-2.469.537l-1.074-.2c-1.044-.194-2.01-.7-2.162-1.139s-.924-.228-1.727.464L247.71,405.6A1.466,1.466,0,0,0,247.8,408l6.658,4.913a25.745,25.745,0,0,1,2.84,2.51,1.863,1.863,0,0,0,2.667.029l.059-.058a3.734,3.734,0,0,0,.919-3.205l-.341-1.413a7.907,7.907,0,0,1,.151-3.686l.315-.951a2.25,2.25,0,0,1,2.486-1.464l.041.009a5.725,5.725,0,0,1,3.038,1.893l.6.8a1.908,1.908,0,0,0,2.518.611,1.9,1.9,0,0,1,2.508.618l7.308,9.831a1.336,1.336,0,0,1-.663,2.182l-1.058.376a2.511,2.511,0,0,1-2.753-.679,2.994,2.994,0,0,0-2.827-.941l-2.243.455c-1.04.212-1.124.787-.19,1.286l1.617.862a1.928,1.928,0,0,1,.92,2.541c-.373.647-.826,1.239-1.242,1.233a9.623,9.623,0,0,1-1.771-.332,3.025,3.025,0,0,0-2.91,1.027l-6.863,8.877a4.32,4.32,0,0,0-.661,3.367l.568,2.051c.283,1.021.082,2.074-.446,2.35s-1.582-.092-2.351-.821l-3.057-2.9a3.694,3.694,0,0,0-3.233-.783l-3.176.93a2.937,2.937,0,0,0-1.967,2.452l-.142,2.176a4.767,4.767,0,0,0,1.2,3.241,2.647,2.647,0,0,0,3,.387l2.074-1.162c.925-.517,1.815-.6,1.985-.184a3.717,3.717,0,0,1-.317,2.236c-.346.819.221,1.613,1.268,1.775l.5.078a2.277,2.277,0,0,1,1.874,2.212v.081a3.34,3.34,0,0,0,1.692,2.774l1.26.631a1.749,1.749,0,0,0,2.441-.919l.143-.353a2.216,2.216,0,0,1,2.574-1.272l8.317,2.261a18.263,18.263,0,0,1,3.52,1.453l5.4,3.074A3.115,3.115,0,0,1,283.72,462.5Zm24.7-84.616c-.587-.163.194,5.754.415,7.025.165.955-3.322,7.113-5.071,10.126a5.444,5.444,0,0,1-2.817,2.174l-3.415.962a6.439,6.439,0,0,0-2.973,2.073l-3.262,4.5a5.16,5.16,0,0,1-3.027,1.819l-.18.026a3.575,3.575,0,0,1-3.049-1.272l-3.356-4.491a10.544,10.544,0,0,1-1.559-3.41l-1.665-7.609a5,5,0,0,0-2.07-2.84l-8.633-5.02a1.211,1.211,0,0,1-.149-2.148l5.492-4.308a8.177,8.177,0,0,1,3.414-1.423l13.418-1.684a36.9,36.9,0,0,1,3.823-.239l10.6,0a13.111,13.111,0,0,1,3.724.65l4.653,1.672c1,.358,1.046,1.051.1,1.528C311.152,376.847,308.789,377.986,308.416,377.883Zm-34.347-5c.046.009.043.02,0,.009S274.023,372.877,274.069,372.886Zm-17.047,11.893-4.14-1.517a19.521,19.521,0,0,1-3.4-1.72l-3.9-2.581a1.123,1.123,0,0,1,.042-2.056l2.954-1.793a15.076,15.076,0,0,1,3.5-1.457l5.876-1.456a18.067,18.067,0,0,1,3.781-.44l6.11.068a20.1,20.1,0,0,1,3.782.476l.488.119c1.029.251,1.013.6.048,1.033-2.052.926-5.164,2.744-7.055,3.882a10.013,10.013,0,0,0-2.69,2.6l-2.549,3.893A2.532,2.532,0,0,1,257.022,384.779Zm-33.278,7.463a2.746,2.746,0,0,1-1.27-.9,2.964,2.964,0,0,1-.422-2.793,2.664,2.664,0,0,1,2.5-1.5l3.47.138c1.058.042,1.29.665.5,1.376C226.878,390.058,224.294,392.3,223.744,392.241Zm19.582-5.745a4.2,4.2,0,0,1-1.816-1.444c-.322-.533.276-.966,1.336-.966h.446c1.061,0,1.774.646,1.593,1.443A1.179,1.179,0,0,1,243.327,386.5Zm-7.319-.156-3.164.643a5.006,5.006,0,0,1-3.29-.557c-.779-.52-.6-1.219.4-1.565l2.465-.848a4.21,4.21,0,0,1,3.382.478l.513.362C237.185,385.464,237.046,386.13,236.008,386.341Zm-4.149,3.158,2.328-.135,3.776-.538a1.109,1.109,0,0,1,1.318,1.556l-.01.032a2.693,2.693,0,0,1-2.5,1.772l-6.314-.193c-1.06-.033-1.6-.579-1.216-1.222A3.591,3.591,0,0,1,231.859,389.5Zm17.366-3.5-.431-.685c-.564-.9-.186-1.426.845-1.182l4.019.954c1.03.244,1.068.759.083,1.15l-1.712.681A2.394,2.394,0,0,1,249.224,386Z" transform="translate(-211.36 -348.544)" fill="#c1d336"/>
        </g>
      </g>
    </g>
  </g>
</svg>
