<svg xmlns="http://www.w3.org/2000/svg" width="284.571" height="240.079" viewBox="0 0 284.571 240.079">
  <g id="Grupo_10715" data-name="Grupo 10715" transform="translate(-138.122 -462.296)">
    <path id="Trazado_27621" data-name="Trazado 27621" d="M211.02,622.513V574.168l-40.564,57.314V701.6l2.585-.051v6.807H262.3V556.446Z" transform="translate(-2.84 -8.269)" fill="#c4ece7"/>
    <g id="Grupo_10702" data-name="Grupo 10702" transform="translate(330.643 462.296)">
      <path id="Trazado_27622" data-name="Trazado 27622" d="M349.179,700.163l5.19-228.088h.026a6.7,6.7,0,0,1,2.469-5.469c4.484-4.043,13.282-4.628,19.366-1.267,3.214,1.774,4.919,4.253,5.084,6.736h.026l5.19,228.088Z" transform="translate(-349.179 -462.371)" fill="#75b0b7"/>
      <path id="Trazado_27623" data-name="Trazado 27623" d="M368.313,483.634c-7.688,0-13.922,3.514-13.922,7.848l.2-10.79c0-4.2,6.125-7.6,13.682-7.6s13.723,3.4,13.723,7.6l.235,10.79C382.233,487.148,376,483.634,368.313,483.634Z" transform="translate(-349.637 -463.244)" fill="#f3f1eb"/>
      <path id="Trazado_27624" data-name="Trazado 27624" d="M368.34,472.839c-7.535,0-13.641,3.514-13.641,7.847l.2-10.789c0-4.2,6-7.6,13.405-7.6s13.446,3.4,13.446,7.6l.23,10.789C381.979,476.353,375.873,472.839,368.34,472.839Z" transform="translate(-349.664 -462.296)" fill="#3b7674"/>
      <g id="Grupo_10701" data-name="Grupo 10701" transform="translate(20.872 5.064)" opacity="0.3">
        <path id="Trazado_27625" data-name="Trazado 27625" d="M384.731,700.575h-12.67l.363-225.476c0-4.005-.068-7.252,3.675-7.252s3.655,3.246,3.655,7.252Z" transform="translate(-372.061 -467.848)" fill="#010101" opacity="0.2"/>
      </g>
      <path id="Trazado_27626" data-name="Trazado 27626" d="M353.353,700.7h6.519L362,476.444c0-3.984.035-7.213-1.891-7.213s-1.882,3.228-1.882,7.213Z" transform="translate(-349.546 -462.905)" fill="#fff" opacity="0.3"/>
    </g>
    <g id="Grupo_10704" data-name="Grupo 10704" transform="translate(290.353 486.944)">
      <path id="Trazado_27627" data-name="Trazado 27627" d="M305.01,702.528l4.652-204.446h.024a6,6,0,0,1,2.213-4.9c4.019-3.623,11.9-4.148,17.358-1.137,2.882,1.591,4.41,3.812,4.556,6.038h.024l4.652,204.446Z" transform="translate(-305.01 -489.385)" fill="#75b0b7"/>
      <path id="Trazado_27628" data-name="Trazado 27628" d="M322.161,508.444c-6.891,0-12.479,3.149-12.479,7.034l.182-9.672c0-3.763,5.49-6.814,12.263-6.814s12.3,3.051,12.3,6.814l.211,9.672C334.638,511.593,329.053,508.444,322.161,508.444Z" transform="translate(-305.42 -490.167)" fill="#f3f1eb"/>
      <path id="Trazado_27629" data-name="Trazado 27629" d="M322.185,498.768c-6.753,0-12.226,3.149-12.226,7.034l.176-9.672c0-3.763,5.382-6.813,12.017-6.813s12.053,3.05,12.053,6.813l.206,9.672C334.411,501.917,328.937,498.768,322.185,498.768Z" transform="translate(-305.445 -489.317)" fill="#3b7674"/>
      <g id="Grupo_10703" data-name="Grupo 10703" transform="translate(18.71 4.54)" opacity="0.3">
        <path id="Trazado_27630" data-name="Trazado 27630" d="M336.878,702.9H325.521l.325-202.1c0-3.59-.061-6.5,3.295-6.5s3.276,2.91,3.276,6.5Z" transform="translate(-325.521 -494.294)" fill="#010101" opacity="0.2"/>
      </g>
      <path id="Trazado_27631" data-name="Trazado 27631" d="M308.751,703.007h5.843L316.5,502c0-3.57.031-6.465-1.695-6.465s-1.687,2.894-1.687,6.465Z" transform="translate(-305.339 -489.863)" fill="#fff" opacity="0.3"/>
    </g>
    <path id="Trazado_27632" data-name="Trazado 27632" d="M383.849,708.356H271.141V556.446l115.295,39.844V702.8l-2.587-.045Z" transform="translate(-11.682 -8.269)" fill="#75b0b7"/>
    <g id="Grupo_10705" data-name="Grupo 10705" transform="translate(259.459 691.546)">
      <path id="Trazado_27633" data-name="Trazado 27633" d="M322.42,722.159H271.141v-8.541l51.279,1Z" transform="translate(-271.141 -713.618)" fill="#5b6771"/>
      <path id="Trazado_27634" data-name="Trazado 27634" d="M393.309,722.419H378.863v-5.845l14.446.292Z" transform="translate(-280.602 -713.878)" fill="#5b6771"/>
    </g>
    <path id="Trazado_27635" data-name="Trazado 27635" d="M271.141,713.618l112.707,2.988v2.631l-112.707-2.308Z" transform="translate(-11.682 -22.072)" fill="#010101" opacity="0.2"/>
    <path id="Trazado_27636" data-name="Trazado 27636" d="M214.925,569.423l30.87,8.728-30.87,45.5Z" transform="translate(-6.745 -9.408)" fill="#3b7674"/>
    <path id="Trazado_27637" data-name="Trazado 27637" d="M367.8,716.731H327.357V651.808L367.8,658.57Z" transform="translate(-16.619 -16.643)" fill="#333132"/>
    <rect id="Rectángulo_3104" data-name="Rectángulo 3104" width="284.571" height="2.288" transform="translate(138.122 700.087)" fill="#30393f"/>
    <g id="Grupo_10706" data-name="Grupo 10706" transform="translate(310.738 638.417)">
      <path id="Trazado_27638" data-name="Trazado 27638" d="M367.8,669.39l-40.446-5.541v-8.475L367.8,661.8Z" transform="translate(-327.357 -655.374)" fill="#3b7674"/>
      <path id="Trazado_27639" data-name="Trazado 27639" d="M367.8,682.584l-40.446-4.156v-8.474l40.446,5.038Z" transform="translate(-327.357 -656.654)" fill="#3b7674"/>
      <path id="Trazado_27640" data-name="Trazado 27640" d="M367.8,695.778l-40.445-2.77v-8.473l40.446,3.653Z" transform="translate(-327.357 -657.935)" fill="#3b7674"/>
      <path id="Trazado_27641" data-name="Trazado 27641" d="M367.8,708.973l-40.445-1.385v-8.474l40.445,2.268Z" transform="translate(-327.357 -659.215)" fill="#3b7674"/>
      <path id="Trazado_27642" data-name="Trazado 27642" d="M367.8,722.166H327.357v-8.473l40.445.882Z" transform="translate(-327.357 -660.496)" fill="#3b7674"/>
    </g>
    <path id="Trazado_27643" data-name="Trazado 27643" d="M371.827,623.124l6.418-1.1v16.651l-6.418-1.434Z" transform="translate(-20.525 -14.028)" fill="#4b7c85"/>
    <path id="Trazado_27644" data-name="Trazado 27644" d="M327.357,627.356l40.564,8.969V622.208l-40.564-10.615Z" transform="translate(-16.619 -13.112)" fill="#333132"/>
    <path id="Trazado_27645" data-name="Trazado 27645" d="M327.357,611.288v-3.161L374.34,620.8l-6.418,1.1Z" transform="translate(-16.619 -12.807)" fill="#3c666f"/>
    <path id="Trazado_27646" data-name="Trazado 27646" d="M371.7,717.313h6.538V658.437l-6.538.715Z" transform="translate(-20.513 -17.226)" fill="#4b7c85"/>
    <path id="Trazado_27647" data-name="Trazado 27647" d="M327.357,649.552v2.058l40.445,6.762,6.537-.715Z" transform="translate(-16.619 -16.445)" fill="#3c666f"/>
    <path id="Trazado_27648" data-name="Trazado 27648" d="M262.547,713.618l-89.258,1.734v6.807h89.258Z" transform="translate(-3.089 -22.072)" fill="#6c7984"/>
    <g id="Grupo_10707" data-name="Grupo 10707" transform="translate(310.738 601.116)">
      <path id="Trazado_27649" data-name="Trazado 27649" d="M367.922,627.01l-40.564-10.159v-2.37l40.564,10.407Z" transform="translate(-327.357 -614.481)" fill="#3b7674"/>
      <path id="Trazado_27650" data-name="Trazado 27650" d="M367.922,631.56l-40.564-9.679v-2.33l40.564,9.923Z" transform="translate(-327.357 -614.927)" fill="#3b7674"/>
      <path id="Trazado_27651" data-name="Trazado 27651" d="M367.922,636.071v-1.976l-40.564-9.512v2.207Z" transform="translate(-327.357 -615.369)" fill="#3b7674"/>
    </g>
    <g id="Grupo_10708" data-name="Grupo 10708" transform="translate(185.89 627.123)">
      <path id="Trazado_27652" data-name="Trazado 27652" d="M242.618,665.625l-18.973,2.288V646.844l18.973-3.279Z" transform="translate(-193.401 -643.043)" fill="#669aa0"/>
      <path id="Trazado_27653" data-name="Trazado 27653" d="M242.618,701.158l-18.973.834V680.744l18.973-1.833Z" transform="translate(-193.401 -646.147)" fill="#669aa0"/>
      <path id="Trazado_27654" data-name="Trazado 27654" d="M308.308,646.266l-18.975-3.274v21.927l18.975,2.289Z" transform="translate(-199.17 -642.992)" fill="#669aa0"/>
      <path id="Trazado_27655" data-name="Trazado 27655" d="M289.333,700.449l18.975.835V680.036L289.333,678.2Z" transform="translate(-199.17 -646.085)" fill="#669aa0"/>
      <path id="Trazado_27656" data-name="Trazado 27656" d="M206.961,670.239l-16.473,1.981v-19.6l16.473-2.847Z" transform="translate(-190.489 -643.587)" fill="#669aa0"/>
      <path id="Trazado_27657" data-name="Trazado 27657" d="M206.961,703.009l-16.473.72v-19.76l16.473-1.591Z" transform="translate(-190.489 -646.451)" fill="#669aa0"/>
    </g>
    <path id="Trazado_27658" data-name="Trazado 27658" d="M289.333,697.52l17.035.75V678.4l-17.035-1.584Zm0-52.669v20.231l17.035,2.056V647.721Z" transform="translate(-13.28 -16.033)" fill="#2a4e55" stroke="#fff" stroke-miterlimit="10" stroke-width="1"/>
    <path id="Trazado_27659" data-name="Trazado 27659" d="M192.614,682.017V700.4l14.535-.636V680.67Zm30.244-2.922v19.87l17.034-.748V677.512Zm-30.244-25.569v18.079l14.535-1.748v-18.78Zm47.278-8.1L222.858,648.3v19.542l17.034-2.054Z" transform="translate(-4.786 -16.083)" fill="#2a4e55" stroke="#fff" stroke-miterlimit="10" stroke-width="1"/>
    <g id="Grupo_10709" data-name="Grupo 10709" transform="translate(185.89 627.123)">
      <path id="Trazado_27660" data-name="Trazado 27660" d="M306.368,647.557l1.94-1.292-18.975-3.274v1.7Z" transform="translate(-199.17 -642.992)" fill="#3c666f"/>
      <path id="Trazado_27661" data-name="Trazado 27661" d="M306.368,681.328l1.94-1.293L289.333,678.2v1.542Z" transform="translate(-199.17 -646.085)" fill="#3c666f"/>
      <path id="Trazado_27662" data-name="Trazado 27662" d="M242.618,678.911v1.543l-17.035,1.582-1.939-1.292Z" transform="translate(-193.401 -646.147)" fill="#3c666f"/>
      <path id="Trazado_27663" data-name="Trazado 27663" d="M242.618,645.262v-1.7l-18.973,3.279,1.939,1.293Z" transform="translate(-193.401 -643.043)" fill="#3c666f"/>
      <path id="Trazado_27664" data-name="Trazado 27664" d="M206.961,651.459v-1.691l-16.473,2.847,1.939,1.292Z" transform="translate(-190.489 -643.587)" fill="#3c666f"/>
      <path id="Trazado_27665" data-name="Trazado 27665" d="M190.489,683.969l1.939,1.293,14.534-1.346v-1.538Z" transform="translate(-190.489 -646.451)" fill="#3c666f"/>
    </g>
    <path id="Trazado_27666" data-name="Trazado 27666" d="M262.547,716.928l-89.258,1.687v-3.263l89.258-1.734Z" transform="translate(-3.089 -22.072)" fill="#010101" opacity="0.2"/>
    <path id="Trazado_27667" data-name="Trazado 27667" d="M383.763,712.192v-5.6l2.587.045V600.127L271.141,712.192Z" transform="translate(-11.682 -12.105)" fill="#110d0d" opacity="0.1"/>
    <path id="Trazado_27668" data-name="Trazado 27668" d="M211.02,622.513V574.169l-40.563,57.313V701.6l2.585-.051v6.807H188.6L262.3,611.177V556.446Z" transform="translate(-2.84 -8.269)" fill="#f0e9e1" opacity="0.3"/>
    <g id="Grupo_10713" data-name="Grupo 10713" transform="translate(271.42 570.931)">
      <g id="Grupo_10710" data-name="Grupo 10710" transform="translate(0 7.227)">
        <path id="Trazado_27669" data-name="Trazado 27669" d="M285.673,595.808c.323.076,1.372.327,2.6.62l1.735-2.757,1.1.935-1.257-5.293-4.719.223,1.1.934-1.857,2.965a1.478,1.478,0,0,0,.057,1.347A2.061,2.061,0,0,0,285.673,595.808Z" transform="translate(-284.254 -589.313)" fill="#fff"/>
      </g>
      <g id="Grupo_10711" data-name="Grupo 10711" transform="translate(4.365 0)">
        <path id="Trazado_27670" data-name="Trazado 27670" d="M294.064,582.57a1.864,1.864,0,0,0-1.259-1.144,1.088,1.088,0,0,0-1.139.359l-2.627,4.2,3.779,3.205,2.512-3.987Z" transform="translate(-289.039 -581.391)" fill="#fff"/>
      </g>
      <g id="Grupo_10712" data-name="Grupo 10712" transform="translate(15.088 11.007)">
        <path id="Trazado_27671" data-name="Trazado 27671" d="M305.828,600.642a1.1,1.1,0,0,0,1.334-.411,1.561,1.561,0,0,0,.069-1.338l-2.614-5.437-3.822,1.414,2.482,5.161Z" transform="translate(-300.795 -593.457)" fill="#fff"/>
      </g>
      <path id="Trazado_27672" data-name="Trazado 27672" d="M294.763,582.5l3.079,6.4-1.111.416,4.748,2.467,1.3-4.723-1.117.416L299.8,583.6a1.844,1.844,0,0,0-1.14-.889l-4.467-1.044A2.98,2.98,0,0,1,294.763,582.5Z" transform="translate(-285.127 -581.415)" fill="#fff"/>
      <path id="Trazado_27673" data-name="Trazado 27673" d="M303.983,604.946l2.259-3.527a1.847,1.847,0,0,1-.863-.03c-.513-.122-4.311-1.03-6.061-1.449l-.141-.034.006-1.346-3.481,2.82,3.451,4.476.006-1.343,3.74.9A1.059,1.059,0,0,0,303.983,604.946Z" transform="translate(-285.26 -582.898)" fill="#fff"/>
      <path id="Trazado_27674" data-name="Trazado 27674" d="M285.738,596.72a2.008,2.008,0,0,1-.788-.392l2.223,4.606a1.868,1.868,0,0,0,1.069.98l5.218,1.257.014-4.6C292.48,598.333,286.58,596.919,285.738,596.72Z" transform="translate(-284.315 -582.703)" fill="#fff"/>
    </g>
    <g id="Grupo_10714" data-name="Grupo 10714" transform="translate(163.35 543.293)">
      <path id="Trazado_27675" data-name="Trazado 27675" d="M170.045,632.621h-4.266l44.83-63.2v5.885Z" transform="translate(-165.779 -552.701)" fill="#455059"/>
      <path id="Trazado_27676" data-name="Trazado 27676" d="M271.079,555.976,386.373,595.82l3.339-1.781-119.28-42.949Z" transform="translate(-174.97 -551.091)" fill="#455059"/>
      <path id="Trazado_27677" data-name="Trazado 27677" d="M214.532,622.043l-4.085-.488,54.718-70.464.646,4.885Z" transform="translate(-169.702 -551.091)" fill="#455059"/>
    </g>
  </g>
</svg>
