<svg xmlns="http://www.w3.org/2000/svg" width="91" height="88" viewBox="0 0 91 88">
  <g id="Grupo_972248" data-name="Grupo 972248" transform="translate(-534 -12229)">
    <circle id="Elipse_5931" data-name="Elipse 5931" cx="35" cy="35" r="35" transform="translate(534 12238)" fill="#adc46c"/>
    <g id="informe-medico" transform="translate(549.615 12254)">
      <g id="Grupo_971476" data-name="Grupo 971476" transform="translate(0.577 0.577)">
        <path id="Trazado_736253" data-name="Trazado 736253" d="M34.766,63.709a3.343,3.343,0,0,1,3.342,3.342V93.774a3.343,3.343,0,0,1-3.342,3.342H10.842A3.343,3.343,0,0,1,7.5,93.774V67.051a3.343,3.343,0,0,1,3.342-3.342H34.766Z" transform="translate(-7.499 -59.804)" fill="#a6e7f0"/>
        <path id="Trazado_736254" data-name="Trazado 736254" d="M104.3,63.71v1.247a3.16,3.16,0,0,0,3.156,3.156h9.4a3.16,3.16,0,0,0,3.156-3.156V63.71Z" transform="translate(-96.849 -59.805)" fill="#6bd9e7"/>
        <path id="Trazado_736255" data-name="Trazado 736255" d="M267.98,158.527c-.072.03-.143.062-.214.095l-.968.452-.968-.452a6.533,6.533,0,0,0-6.757,11.091L265.4,174.6a2.284,2.284,0,0,0,2.582.147V158.527Z" transform="translate(-237.37 -146.847)" fill="#6bd9e7"/>
        <path id="Trazado_736256" data-name="Trazado 736256" d="M62.458,93.71a1.035,1.035,0,0,1,1.034,1.034v26.723a1.035,1.035,0,0,1-1.034,1.034H38.534a1.035,1.035,0,0,1-1.034-1.034V94.744a1.035,1.035,0,0,1,1.034-1.034Z" transform="translate(-35.192 -87.497)" fill="#f9f7f8"/>
        <path id="Trazado_736257" data-name="Trazado 736257" d="M265.672,174.777V158.55a6.533,6.533,0,0,0-6.6,11.163L265.4,174.6A2.268,2.268,0,0,0,265.672,174.777Z" transform="translate(-237.371 -146.847)" fill="#efedef"/>
        <path id="Trazado_736258" data-name="Trazado 736258" d="M106.69,93.71a3.161,3.161,0,0,0,2.972,2.095h9.4a3.161,3.161,0,0,0,2.972-2.095Z" transform="translate(-99.058 -87.497)" fill="#efedef"/>
        <path id="Trazado_736259" data-name="Trazado 736259" d="M135.315,14.681h-.923a.193.193,0,0,1-.193-.193v-.569a.953.953,0,0,0-.953-.953h-5.26a.953.953,0,0,0-.953.953v.569a.193.193,0,0,1-.193.193h-.923A1.617,1.617,0,0,0,124.3,16.3v1.818a1.617,1.617,0,0,0,1.617,1.617h9.4a1.617,1.617,0,0,0,1.617-1.617V16.3A1.617,1.617,0,0,0,135.315,14.681Z" transform="translate(-115.31 -12.965)" fill="#f9f7f8"/>
        <path id="Trazado_736260" data-name="Trazado 736260" d="M293.2,180.3a5,5,0,0,0-6.315-1.828l-1.314.613a.721.721,0,0,1-.61,0l-1.314-.613a4.994,4.994,0,0,0-6.809,6.225l.471.208.321.765-.195.181a4.987,4.987,0,0,0,1.046,1.1l6.325,4.885a.752.752,0,0,0,.919,0l6.325-4.885a4.982,4.982,0,0,0,1.226-1.376l-.086-.215.266-.678.328-.261A4.987,4.987,0,0,0,293.2,180.3Z" transform="translate(-255.841 -165.308)" fill="#f37c7c"/>
      </g>
      <g id="Grupo_971477" data-name="Grupo 971477" transform="translate(0 0)">
        <path id="Trazado_736261" data-name="Trazado 736261" d="M31.186,81.064a.577.577,0,0,0-.577.577v5.212a2.768,2.768,0,0,1-2.765,2.765H3.92a2.768,2.768,0,0,1-2.765-2.765V60.129A2.768,2.768,0,0,1,3.92,57.364H7.256a.577.577,0,0,0,0-1.154H3.92A3.924,3.924,0,0,0,0,60.129V86.852a3.924,3.924,0,0,0,3.92,3.92H27.844a3.924,3.924,0,0,0,3.92-3.92V81.641A.577.577,0,0,0,31.186,81.064Z" transform="translate(0 -52.305)"/>
        <path id="Trazado_736262" data-name="Trazado 736262" d="M311.577,57.364h3.336a2.768,2.768,0,0,1,2.765,2.765v3.6a.577.577,0,0,0,1.154,0v-3.6a3.924,3.924,0,0,0-3.919-3.92h-3.336a.577.577,0,0,0,0,1.154Z" transform="translate(-287.07 -52.305)"/>
        <path id="Trazado_736263" data-name="Trazado 736263" d="M30.577,177.61a.577.577,0,0,0-.577.577v20.724a1.613,1.613,0,0,0,1.611,1.611H55.535a1.613,1.613,0,0,0,1.611-1.611v-5.189a.577.577,0,0,0-1.154,0v5.189a.457.457,0,0,1-.457.457H31.611a.457.457,0,0,1-.457-.457V178.187a.577.577,0,0,0-.577-.577Z" transform="translate(-27.692 -164.364)"/>
        <path id="Trazado_736264" data-name="Trazado 736264" d="M35.094,86.21H31.611A1.613,1.613,0,0,0,30,87.821v3.539a.577.577,0,1,0,1.154,0V87.821a.457.457,0,0,1,.457-.457h3.483a.577.577,0,0,0,0-1.154Z" transform="translate(-27.692 -79.997)"/>
        <path id="Trazado_736265" data-name="Trazado 736265" d="M309.667,87.364h3.483a.457.457,0,0,1,.457.457v3.625a.577.577,0,0,0,1.154,0V87.821a1.613,1.613,0,0,0-1.611-1.611h-3.483a.577.577,0,0,0,0,1.154Z" transform="translate(-285.307 -79.997)"/>
        <path id="Trazado_736266" data-name="Trazado 736266" d="M118.991,13.387h2.683a.577.577,0,1,0,0-1.154h-2.683a1.041,1.041,0,0,1-1.04-1.04V9.375a1.041,1.041,0,0,1,1.04-1.04h.923a.771.771,0,0,0,.77-.77V6.994a.377.377,0,0,1,.376-.376h5.26a.377.377,0,0,1,.376.376v.569a.771.771,0,0,0,.77.77h.923a1.041,1.041,0,0,1,1.04,1.04v1.818a1.041,1.041,0,0,1-1.04,1.04h-4.258a.577.577,0,1,0,0,1.154h4.258a2.2,2.2,0,0,0,2.194-2.194V9.375a2.2,2.2,0,0,0-2.194-2.194h-.54V6.994a1.532,1.532,0,0,0-1.53-1.53h-5.26a1.532,1.532,0,0,0-1.53,1.53V7.18h-.54A2.2,2.2,0,0,0,116.8,9.375v1.818A2.2,2.2,0,0,0,118.991,13.387Z" transform="translate(-107.81 -5.464)"/>
        <path id="Trazado_736267" data-name="Trazado 736267" d="M179.93,54.185a.577.577,0,0,0-.577-.577h-3.66a.577.577,0,1,0,0,1.154h3.66A.577.577,0,0,0,179.93,54.185Z" transform="translate(-161.641 -49.903)"/>
        <path id="Trazado_736268" data-name="Trazado 736268" d="M286.757,173.121a5.591,5.591,0,0,0-7.045-2.039l-1.314.613a.144.144,0,0,1-.122,0l-1.314-.613a5.572,5.572,0,0,0-5.762,9.459l6.325,4.885a1.329,1.329,0,0,0,1.624,0l2.412-1.863a.577.577,0,0,0-.706-.914l-2.412,1.863a.174.174,0,0,1-.213,0l-6.325-4.885a4.432,4.432,0,0,1-.671-.643h2.42a.577.577,0,0,0,.556-.423l.65-2.35,1.807,5.01a.577.577,0,0,0,.54.381h0a.577.577,0,0,0,.541-.376l1.715-4.622.518,1.695a.577.577,0,0,0,.552.408h5.12a4.423,4.423,0,0,1-.888.919l-1.95,1.506a.577.577,0,0,0,.706.914l1.95-1.506a5.572,5.572,0,0,0,1.283-7.42Zm-5.793,4.432-.893-2.919a.577.577,0,0,0-1.093-.032l-1.76,4.743-1.887-5.233a.577.577,0,0,0-1.1.042l-1.016,3.675h-2.687a4.417,4.417,0,0,1,5.945-5.7l1.314.613a1.3,1.3,0,0,0,1.1,0l1.314-.613a4.415,4.415,0,0,1,6.049,5.426h-5.286Z" transform="translate(-248.333 -157.859)"/>
        <path id="Trazado_736269" data-name="Trazado 736269" d="M76.373,148.432h2.712a1.2,1.2,0,0,0,1.194-1.194v-2.99a1.2,1.2,0,0,0-1.194-1.194H76.373a1.2,1.2,0,0,0-1.194,1.194v2.99a1.2,1.2,0,0,0,1.194,1.194Zm-.04-4.184a.04.04,0,0,1,.04-.04h2.712a.04.04,0,0,1,.04.04v2.99a.04.04,0,0,1-.04.04H76.373a.04.04,0,0,1-.04-.04Z" transform="translate(-69.394 -132.467)"/>
        <path id="Trazado_736270" data-name="Trazado 736270" d="M75.179,245.963a1.2,1.2,0,0,0,1.194,1.194h2.712a1.2,1.2,0,0,0,1.194-1.194v-2.99a1.2,1.2,0,0,0-1.194-1.194H76.373a1.2,1.2,0,0,0-1.194,1.194Zm1.154-2.99a.04.04,0,0,1,.04-.04h2.712a.04.04,0,0,1,.04.04v2.99a.04.04,0,0,1-.04.04H76.373a.04.04,0,0,1-.04-.04Z" transform="translate(-69.394 -223.595)"/>
        <path id="Trazado_736271" data-name="Trazado 736271" d="M75.179,344.687a1.2,1.2,0,0,0,1.194,1.194h2.712a1.2,1.2,0,0,0,1.194-1.194V341.7a1.2,1.2,0,0,0-1.194-1.194H76.373a1.2,1.2,0,0,0-1.194,1.194Zm1.154-2.99a.04.04,0,0,1,.04-.04h2.712a.04.04,0,0,1,.04.04v2.99a.04.04,0,0,1-.04.04H76.373a.04.04,0,0,1-.04-.04Z" transform="translate(-69.394 -314.723)"/>
        <path id="Trazado_736272" data-name="Trazado 736272" d="M156.793,147.913h6.714a.577.577,0,1,0,0-1.154h-6.714a.577.577,0,1,0,0,1.154Z" transform="translate(-144.196 -135.887)"/>
        <path id="Trazado_736273" data-name="Trazado 736273" d="M156.793,195.923h6.714a.577.577,0,1,0,0-1.154h-6.714a.577.577,0,1,0,0,1.154Z" transform="translate(-144.196 -180.203)"/>
        <path id="Trazado_736274" data-name="Trazado 736274" d="M156.793,246.374h6.714a.577.577,0,1,0,0-1.154h-6.714a.577.577,0,1,0,0,1.154Z" transform="translate(-144.196 -226.772)"/>
        <path id="Trazado_736275" data-name="Trazado 736275" d="M164.43,293.23h-7.637a.577.577,0,1,0,0,1.154h7.637a.577.577,0,1,0,0-1.154Z" transform="translate(-144.196 -271.087)"/>
        <path id="Trazado_736276" data-name="Trazado 736276" d="M167.418,343.682H156.793a.577.577,0,1,0,0,1.154h10.625a.577.577,0,1,0,0-1.154Z" transform="translate(-144.196 -317.657)"/>
        <path id="Trazado_736277" data-name="Trazado 736277" d="M169.851,391.692H156.793a.577.577,0,1,0,0,1.154h13.058a.577.577,0,1,0,0-1.154Z" transform="translate(-144.196 -361.973)"/>
      </g>
    </g>
    <rect id="Rectángulo_342431" data-name="Rectángulo 342431" width="7" height="88" transform="translate(618 12229)" fill="#adc46c"/>
  </g>
</svg>
