<svg xmlns="http://www.w3.org/2000/svg" width="89" height="88" viewBox="0 0 89 88">
  <g id="Grupo_972249" data-name="Grupo 972249" transform="translate(-536 -12332)">
    <circle id="Elipse_5933" data-name="Elipse 5933" cx="33" cy="33" r="33" transform="translate(536 12343)" fill="#adc46c"/>
    <g id="Grupo_971478" data-name="Grupo 971478" transform="translate(550.859 12357.859)">
      <rect id="Rect치ngulo_342429" data-name="Rect치ngulo 342429" width="15" height="35" transform="translate(0.141 1.141)" fill="#fff"/>
      <g id="archivo" transform="translate(0 0)">
        <path id="Trazado_736205" data-name="Trazado 736205" d="M145.972,43.145V17.5L138.479,10H127.767a2.306,2.306,0,0,0-2.306,2.306V43.145a2.306,2.306,0,0,0,2.306,2.306h15.9A2.306,2.306,0,0,0,145.972,43.145Zm0,0" transform="translate(-116.421 -9.28)" fill="#c9f3ff"/>
        <path id="Trazado_736206" data-name="Trazado 736206" d="M306,15.154a2.306,2.306,0,0,0,2.306,2.306h5.188L306,9.957Zm0,0" transform="translate(-283.952 -9.24)" fill="#ffc66c"/>
        <path id="Trazado_736207" data-name="Trazado 736207" d="M74,89.957h9.8v5.764H74Zm0,0" transform="translate(-68.668 -83.475)" fill="#fff"/>
        <path id="Trazado_736208" data-name="Trazado 736208" d="M259.829,219.761v-8.086l7.008-3.539-1.848-.933h-.006l-8.855,4.472v8.086c0,3.216,2.12,4.842,4.427,6.192,2.229,1.3,4.428,2.491,4.428,2.491h.006s.764-.412,1.848-1.017c-.755-.422-1.665-.937-2.58-1.473-2.307-1.35-4.428-2.976-4.428-6.192Zm0,0" transform="translate(-237.673 -192.273)" fill="#fff"/>
        <path id="Trazado_736209" data-name="Trazado 736209" d="M321.5,231.777v-8.086l-7.008-3.539-7.008,3.539v8.086c0,3.216,2.121,4.842,4.428,6.192.915.536,1.825,1.052,2.58,1.473.755-.422,1.665-.937,2.58-1.473C319.383,236.619,321.5,234.993,321.5,231.777Zm0,0" transform="translate(-285.333 -204.289)" fill="#5a54e0"/>
        <path id="Trazado_736210" data-name="Trazado 736210" d="M296.129,255.014v6.313c0,1.475.729,2.375,3,3.7,1.08.632,2.161,1.241,2.975,1.692.813-.451,1.894-1.06,2.974-1.692,2.272-1.33,3-2.23,3-3.7v-6.313L302.1,252Zm0,0" transform="translate(-274.792 -233.839)" fill="#fff"/>
        <path id="Trazado_736211" data-name="Trazado 736211" d="M64.721,87.162h9.8a.72.72,0,0,0,.721-.721V80.678a.72.72,0,0,0-.721-.721h-9.8a.72.72,0,0,0-.721.721v5.764A.72.72,0,0,0,64.721,87.162Zm.721-5.764H73.8v4.323H65.441Zm0,0" transform="translate(-59.389 -74.196)"/>
        <path id="Trazado_736212" data-name="Trazado 736212" d="M255.721,161.4h5.836a.721.721,0,1,0,0-1.441h-5.836a.721.721,0,1,0,0,1.441Zm0,0" transform="translate(-236.626 -148.432)"/>
        <path id="Trazado_736213" data-name="Trazado 736213" d="M200.85,239.957a.721.721,0,1,0,.509.211A.727.727,0,0,0,200.85,239.957Zm0,0" transform="translate(-185.709 -222.667)"/>
        <path id="Trazado_736214" data-name="Trazado 736214" d="M64.721,241.4h6.854a.721.721,0,1,0,0-1.441H64.721a.721.721,0,1,0,0,1.441Zm0,0" transform="translate(-59.389 -222.667)"/>
        <path id="Trazado_736215" data-name="Trazado 736215" d="M115.359,399.957h-6.638a.721.721,0,1,0,0,1.441h6.638a.721.721,0,1,0,0-1.441Zm0,0" transform="translate(-100.218 -371.139)"/>
        <path id="Trazado_736216" data-name="Trazado 736216" d="M65.892,399.957a.721.721,0,1,0,.509.211A.726.726,0,0,0,65.892,399.957Zm0,0" transform="translate(-60.476 -371.139)"/>
        <path id="Trazado_736217" data-name="Trazado 736217" d="M64.721,321.4h9.8a.721.721,0,1,0,0-1.441h-9.8a.721.721,0,1,0,0,1.441Zm0,0" transform="translate(-59.389 -296.903)"/>
        <path id="Trazado_736218" data-name="Trazado 736218" d="M36.5,18.76l-6.233-3.148V8.224a.72.72,0,0,0-.211-.509L22.558.212A.72.72,0,0,0,22.049,0H3.026A3.03,3.03,0,0,0,0,3.027V33.866a3.03,3.03,0,0,0,3.026,3.026h24.21l.043,0,.037,0a.718.718,0,0,0,.342-.086c.022-.012,2.235-1.207,4.45-2.5,2.485-1.454,4.784-3.287,4.784-6.814V19.4a.72.72,0,0,0-.4-.643ZM22.769,2.462,27.8,7.5H24.354a1.587,1.587,0,0,1-1.585-1.585ZM1.441,33.866V3.027A1.587,1.587,0,0,1,3.026,1.442h18.3v4.32H19.094a.721.721,0,0,0,0,1.441h2.522a3.03,3.03,0,0,0,2.738,1.739h4.467v5.942l-1.181-.6a.74.74,0,0,0-.269-.075l-.058,0h-.008a.713.713,0,0,0-.28.058l-.041.019L18.13,18.76a.72.72,0,0,0-.4.643v8.086c0,3.527,2.3,5.36,4.784,6.814.689.4,1.378.8,2,1.148H3.026a1.587,1.587,0,0,1-1.585-1.585Zm34.009-6.377c0,2.654-1.558,4.1-4.071,5.57-1.683.985-3.366,1.911-4.067,2.294-.7-.382-2.383-1.308-4.067-2.294-2.513-1.471-4.071-2.916-4.071-5.57V19.846l8.138-4.11,8.138,4.11Zm0,0" transform="translate(0 -0.001)"/>
        <path id="Trazado_736219" data-name="Trazado 736219" d="M292.5,242.071l-5.976,3.018a.72.72,0,0,0-.4.643v6.313c0,1.985,1.18,3.052,3.358,4.327,1.122.657,2.245,1.287,2.989,1.7a.719.719,0,0,0,.7,0c.744-.413,1.867-1.043,2.989-1.7,2.178-1.275,3.358-2.342,3.358-4.327v-6.313a.72.72,0,0,0-.4-.643l-5.976-3.018a.72.72,0,0,0-.65,0Zm5.58,4.1v5.87c0,1.04-.4,1.766-2.645,3.083-.947.554-1.895,1.09-2.611,1.489-.716-.4-1.663-.935-2.61-1.489-2.249-1.317-2.645-2.043-2.645-3.083v-5.87l5.255-2.654Zm0,0" transform="translate(-265.509 -224.558)"/>
        <path id="Trazado_736220" data-name="Trazado 736220" d="M338.585,318.781a.721.721,0,1,0-1.019,1.019l1.478,1.478a.721.721,0,0,0,1.019,0l3.091-3.091a.721.721,0,1,0-1.019-1.019l-2.582,2.582Zm0,0" transform="translate(-313.047 -294.119)"/>
      </g>
    </g>
    <rect id="Rect치ngulo_342432" data-name="Rect치ngulo 342432" width="7" height="88" transform="translate(618 12332)" fill="#adc46c"/>
  </g>
</svg>
