<svg xmlns="http://www.w3.org/2000/svg" width="314" height="256.436" viewBox="0 0 314 256.436">
  <g id="Grupo_971481" data-name="Grupo 971481" transform="translate(-1219.28 -821.269)">
    <path id="Trazado_736278" data-name="Trazado 736278" d="M1380.845,821.269c35.569,0,31.508,54.144,57.187,70.648,33.987,21.844,92.456,11.029,92.456,48.517,0,65.813-67,129.379-149.643,129.379s-137.4-76.05-137.4-141.863S1298.2,821.269,1380.845,821.269Z" transform="translate(-10.687)" fill="#80cab6" fill-rule="evenodd"/>
    <ellipse id="Elipse_5934" data-name="Elipse 5934" cx="146.786" cy="14.566" rx="146.786" ry="14.566" transform="translate(1239.708 1040.68)" fill="#7c9790"/>
    <path id="Trazado_736279" data-name="Trazado 736279" d="M1324.721,1239.982c-65.44,1.1-105.163,2.388-105.439,7.564s24.53,14.756,97.512,15.255,124.806-3.543,125.083-8.719S1390.163,1238.879,1324.721,1239.982Z" transform="translate(0 -185.139)" fill="#556e67" fill-rule="evenodd"/>
    <path id="Trazado_736280" data-name="Trazado 736280" d="M1599.446,1215.715c3.91-1.377,4.224-3.392,6.332-4.376,2.123-.991,2.366-2.756.292-4.674-1.533,1.225-3.435,2.73-4.443,1.933-.672-.533-2.953-.5-3.405.279-1.987,4.618-4.75,3.154-5.295,5.256C1592.865,1216.93,1597.651,1216.346,1599.446,1215.715Z" transform="translate(-165.246 -170.442)" fill="#0e2952" fill-rule="evenodd"/>
    <path id="Trazado_736281" data-name="Trazado 736281" d="M1541.714,1218.139c7.218-.115,12.614-.2,15.107-.99,2.689-.849,2.133-2.489.589-5.114-6.8,3.13-4.99-.643-8.174-.164q-3.353,2.7-9.932,3.62C1537.448,1216.86,1538.2,1218.078,1541.714,1218.139Z" transform="translate(-141.096 -172.725)" fill="#0e2952" fill-rule="evenodd"/>
    <path id="Trazado_736282" data-name="Trazado 736282" d="M1572.329,890.958c-1.152.083-2.971-.139-3.292-.548a14.561,14.561,0,0,1-2.391-4.206c.238-.682.49-1.542.75-2.582q6.664-4.525,1.822-6.7-.976.547-2.422,3.37a1.986,1.986,0,0,1-1.751-1.181,58.487,58.487,0,0,0,1.791-7.739c-2.189-3.253-7.309-3.717-14.086-2.84q-.471,2.707-.774,5.734c-1.2,1.1-1.043,5.2.061,9.913q-.828,4.023,4.969,4.392a10.324,10.324,0,0,1-.1,2.251,1.649,1.649,0,0,1-.915.573h0Q1555.8,898.041,1572.329,890.958Z" transform="translate(-146.766 -20.731)" fill="#f9af79" fill-rule="evenodd"/>
    <path id="Trazado_736283" data-name="Trazado 736283" d="M1551.624,861.053c6.778-.88,11.9-.413,14.086,2.839a58.613,58.613,0,0,1-1.79,7.739,1.983,1.983,0,0,0,1.749,1.181q1.449-2.824,2.423-3.37,4.841,2.172-1.822,6.7c-.26,1.041-.512,1.9-.75,2.582,4-.9,7.339-4.47,7.81-6.015,4.662-9.189-.537-13.069-3.319-14.484-2.3-4.249-8.765-3.188-13.622-3.283a7.293,7.293,0,0,1-6.155-3.714C1546.764,854.341,1549.573,860.972,1551.624,861.053Z" transform="translate(-145.64 -13.248)" fill="#20386f" fill-rule="evenodd"/>
    <path id="Trazado_736284" data-name="Trazado 736284" d="M1481.1,925.161q5.03,21.542,17.675,33.436a15.812,15.812,0,0,0,8.085-6.23q-.186,15.584.778,31.018,9.229,4.376,24.5-.566l4.131-5.086c1.06-.206,3.47.965,4.626,2.752,9.673-7.381,16.194-15.315,20.042-23.2q-1.559-25.4-6.9-40.08-2.7-4.152-12.687-8.165-16.531,7.084-16.334.441a100.064,100.064,0,0,0-12.9,5.648q-6.7,5.091-11.414,27.594-7.669-9.609-15.913-20.377a7.787,7.787,0,0,0-3.693,2.812Zm57.4,47.981q-4.809-15.814,5.31-39.024,2.548,11.452,5.506,22.541Q1545.877,958.292,1538.5,973.142Z" transform="translate(-115.789 -38.819)" fill="#6d96ce" fill-rule="evenodd"/>
    <path id="Trazado_736285" data-name="Trazado 736285" d="M1560.6,1043.533q-2.344-.182-7.556-4.066-15.277,4.942-24.5.565c-1.095,17.321,3.163,35.482,8.565,55.722,5.292,8.885,5.066,15.132,7.886,35.634q2.349,1.676,7.761-.486c1.145-17.481.354-29.054-4.181-35.578.71-5.862-1.146-20.269-1.234-29.314,3.3,7.355,5.566,17.295,9.865,27.329,5.236,12.221,8.882,25.3,11.642,37.23a12.787,12.787,0,0,0,8.216-1q-4.4-29.412-9.752-40.485.2-28.919-5.508-51.947A19.587,19.587,0,0,0,1560.6,1043.533Z" transform="translate(-136.695 -95.466)" fill="#20386f" fill-rule="evenodd"/>
    <path id="Trazado_736286" data-name="Trazado 736286" d="M1572.613,1037.266q5.211,3.882,7.556,4.066a19.592,19.592,0,0,1,1.2-6.4c-1.156-1.787-3.566-2.958-4.626-2.752Z" transform="translate(-156.262 -93.265)" fill="#f9af79" fill-rule="evenodd"/>
    <path id="Trazado_736287" data-name="Trazado 736287" d="M1515.856,967.045a158.537,158.537,0,0,1,2.427-24.812q-4.9,20.553-9.487,27.281-2.9-.092-7.353-3.44a51.328,51.328,0,0,0,6.327,7.2A15.812,15.812,0,0,0,1515.856,967.045Z" transform="translate(-124.787 -53.497)" fill="#466fb5" fill-rule="evenodd"/>
    <path id="Trazado_736288" data-name="Trazado 736288" d="M1577.851,997.615a40.346,40.346,0,0,1,2.226-4.591q-4.809-15.814,5.31-39.024-14.718,20.925-8.348,44.613Z" transform="translate(-157.368 -58.7)" fill="#466fb5" fill-rule="evenodd"/>
    <path id="Trazado_736289" data-name="Trazado 736289" d="M1566.084,903.1a11.441,11.441,0,0,1-4.454.934,13.8,13.8,0,0,1-.031,1.829A7.023,7.023,0,0,0,1566.084,903.1Z" transform="translate(-151.391 -36.189)" fill="#ed7d57" fill-rule="evenodd"/>
    <path id="Trazado_736290" data-name="Trazado 736290" d="M1565.722,1208.6a10.757,10.757,0,0,1-.411-3.859q-4.13,1.486-6.3.521a6.85,6.85,0,0,1-.349,2.83c2.507-.087,1.363,2.948,7.066.508Zm18.195-1.693a3.566,3.566,0,0,1,2.554.236c.9.713,2.517-.415,3.944-1.538a15.193,15.193,0,0,1-.61-2.224,12.5,12.5,0,0,1-5.4.965A5.238,5.238,0,0,1,1583.917,1206.912Z" transform="translate(-150.089 -168.992)" fill="#f9af79" fill-rule="evenodd"/>
    <path id="Trazado_736291" data-name="Trazado 736291" d="M1578.341,1047.844a14.036,14.036,0,0,1-.1-2.46q-2.344-.184-7.556-4.066-1.239.4-2.436.74A23.038,23.038,0,0,0,1578.341,1047.844Z" transform="translate(-154.33 -97.317)" fill="#3c3392" fill-rule="evenodd"/>
    <path id="Trazado_736292" data-name="Trazado 736292" d="M1475.812,925.833c-.205-.511-1.035-2.107-1.847-4.1q-3.019-1.553-4.823-6.782a6.063,6.063,0,0,1,4.559-4.384,12.618,12.618,0,0,0,3.508,6.372q-.578-4.523,1.49-2.836a2.016,2.016,0,0,0-.029,1.461q1.4,2.289-.251,5.208c.42.881.878,1.77,1.086,2.252A8.106,8.106,0,0,0,1475.812,925.833Z" transform="translate(-110.502 -39.491)" fill="#f9af79" fill-rule="evenodd"/>
    <path id="Trazado_736293" data-name="Trazado 736293" d="M1400.652,948.8c3.4,6.791.585,14.612-6.095,17.374-6.723,2.781-14.074,1.2-17.47-5.59s-.875-14.934,5.633-18.188S1397.254,942.014,1400.652,948.8Z" transform="translate(-69.122 -52.977)" fill="#20386f" fill-rule="evenodd"/>
    <path id="Trazado_736294" data-name="Trazado 736294" d="M1404.749,1002.326c3.865.866,8.744,11.607,11.134,18.488,2.41,6.94,6.5,15.55,9.172,18.223s20.252,8.877,20.252,8.877-43.431.085-42.542,0S1404.749,1002.326,1404.749,1002.326Z" transform="translate(-81.141 -80.073)" fill="#6d96ce" fill-rule="evenodd"/>
    <path id="Trazado_736295" data-name="Trazado 736295" d="M1429.184,1044.464c-2.377-.34-10.954.765-7.3-.765s3.142-3.481,3.142-3.481-5.181,4.33-6.114.543c-.805-3.264-1.115-14.793-4.172-26.349-2.526-5.73-5.831-11.462-8.61-12.086,0,0-.1,4.07-.259,9.774,1.066,12.625,2.877,31.173,3.335,35.848,5.758.009,15.391,0,23.451-.011l5.362-.256S1431.562,1044.8,1429.184,1044.464Z" transform="translate(-82.519 -80.073)" fill="#466fb5" fill-rule="evenodd"/>
    <path id="Trazado_736296" data-name="Trazado 736296" d="M1368.455,998.061s-12.3,6.868-15.161,8.33,8.029,44.343,10.453,46.181,23.756.316,26.185-2-1.865-9.422.238-23.65-6.411-26.511-7.5-26.484-8.231-2.379-8.231-2.379Z" transform="translate(-59.057 -78.186)" fill="#6d96ce" fill-rule="evenodd"/>
    <path id="Trazado_736297" data-name="Trazado 736297" d="M1363.778,1059.674c2.423,1.838,17.688,1.877,24.186-.142.734-.229,4.064-1.556,4.141-2.8-.783-.147-3.9.228-5.16-.064-4.4-1.009-6.816-6.452-6.816-6.452s-2.42-.872-7.833-3.165-3.185-9.235-3.312-12.292-5.35-13.057-15.159-20.636l-.9.4C1352.225,1021.492,1361.536,1057.974,1363.778,1059.674Z" transform="translate(-59.088 -85.289)" fill="#466fb5" fill-rule="evenodd"/>
    <path id="Trazado_736298" data-name="Trazado 736298" d="M1489.695,1035.474h-29.6l-13.484,28.692h32.61l12.205-25.972A1.908,1.908,0,0,0,1489.695,1035.474Z" transform="translate(-100.536 -94.732)" fill="#709cd2" fill-rule="evenodd"/>
    <path id="Trazado_736299" data-name="Trazado 736299" d="M1434.058,1064.476h-17.814a2,2,0,0,1,0-4h16.539l11.179-24.063a2,2,0,1,1,3.629,1.685l-11.719,25.222A2,2,0,0,1,1434.058,1064.476Z" transform="translate(-86.223 -94.634)" fill="#2e65a9" fill-rule="evenodd"/>
    <path id="Trazado_736300" data-name="Trazado 736300" d="M1392.673,1076.659c7.729,1.444,9.628,3.218,13.841,3.9,4.776.77,4.208,1.824.661,1.824s-12.46.139-15.518-.541S1392.673,1076.659,1392.673,1076.659Z" transform="translate(-75.73 -112.947)" fill="#f9af79" fill-rule="evenodd"/>
    <path id="Trazado_736301" data-name="Trazado 736301" d="M1341.534,1013.848c-5.922,18.937-14.319,40.424-12.981,40.424s35.346,1.376,36.683.23.955-5.538.766-6.113-19.336-3.969-19.336-3.969,2.521-4.914,3.478-14.515S1342.657,1010.257,1341.534,1013.848Z" transform="translate(-48.263 -84.839)" fill="#6d96ce" fill-rule="evenodd"/>
    <path id="Trazado_736302" data-name="Trazado 736302" d="M1385.145,968.557l-4.77,17.435s8.061,12.584,10.277,11.466-1.239-10.228-1.239-11.466,3.456-14.012,3.456-14.012Z" transform="translate(-71.244 -65.138)" fill="#f9af79" fill-rule="evenodd"/>
    <path id="Trazado_736303" data-name="Trazado 736303" d="M1392.111,986.881a4.651,4.651,0,0,1-.166-.889c0-1.238,3.456-14.012,3.456-14.012l-7.724-3.423-1.578,5.769A30.076,30.076,0,0,0,1392.111,986.881Z" transform="translate(-73.775 -65.138)" fill="#f1944e" fill-rule="evenodd"/>
    <path id="Trazado_736304" data-name="Trazado 736304" d="M1407.322,961.875c.91,5.055.31,11.771-4.179,13.478s-9.9-1.56-12.08-7.3-.31-11.77,4.18-13.479S1406.236,955.835,1407.322,961.875Z" transform="translate(-75.569 -58.745)" fill="#f9af79" fill-rule="evenodd"/>
    <path id="Trazado_736305" data-name="Trazado 736305" d="M1389.745,971.182c.629,1.767.083,3.576-1.221,4.04s-2.871-.593-3.5-2.361-.083-3.576,1.221-4.04S1389.115,969.415,1389.745,971.182Z" transform="translate(-73.185 -65.207)" fill="#f9af79" fill-rule="evenodd"/>
    <path id="Trazado_736306" data-name="Trazado 736306" d="M1404.738,953.482c-1.529,11.863-15.942,10.334-15.942,10.334s-2.973-3.907-4.311-1.857,1.856-12.028,10.126-12.471C1397.329,949.342,1404.738,953.482,1404.738,953.482Z" transform="translate(-72.932 -56.703)" fill="#20386f" fill-rule="evenodd"/>
    <ellipse id="Elipse_5935" data-name="Elipse 5935" cx="7.807" cy="7.324" rx="7.807" ry="7.324" transform="translate(1295.835 900.843)" fill="#20386f"/>
    <path id="Trazado_736307" data-name="Trazado 736307" d="M1352.885,1199.124h1.785l11.528-53.41h-3.928Z" transform="translate(-59.087 -143.486)" fill="#0b5396" fill-rule="evenodd"/>
    <path id="Trazado_736308" data-name="Trazado 736308" d="M1440.343,1197.627h-1.785l-13.416-55.3h3.928Z" transform="translate(-91.043 -141.989)" fill="#0b5396" fill-rule="evenodd"/>
    <path id="Trazado_736309" data-name="Trazado 736309" d="M1374.054,1122.082c-7.152,0-11.683-1.283-14.573-4.1-3.583-3.491-4.325-8.9-4.337-15.945-.008-5.545-.14-9.157-.44-12.077a2,2,0,1,1,3.981-.41c.314,3.061.452,6.793.461,12.48.012,7.141.917,10.933,3.127,13.085,2.268,2.21,6.368,3.121,13.289,2.948a78.682,78.682,0,0,0,14.982-1.852c4.864-.988,8.376-1.7,12.542.288a2,2,0,1,1-1.724,3.61c-2.957-1.412-5.467-.9-10.021.023a82.13,82.13,0,0,1-15.681,1.93C1375.112,1122.074,1374.575,1122.082,1374.054,1122.082Z" transform="translate(-59.887 -117.853)" fill="#0b5396" fill-rule="evenodd"/>
    <path id="Trazado_736310" data-name="Trazado 736310" d="M1360.273,1087.329l10.948.456-2.914,30.221s-8.16-5.208-8.034-10.813S1360.273,1087.329,1360.273,1087.329Z" transform="translate(-62.354 -117.665)" fill="#0b5396" fill-rule="evenodd"/>
    <path id="Trazado_736311" data-name="Trazado 736311" d="M1455.949,1091.919c9.255-1.405,12.4-.963,18.066,9.581s13.2,29.522,17.54,31.975c6.53,3.691,8.694,12.742,11.375,12.336s4.407.777,1.49,3.2-7.63,4.49-9.24,4.059-2.861-7.391-7.068-9.651-2.943-4.117-2.667-6.117-12.282-11.2-21.751-22.651c-5.784-7-8.763-11.612-9.206-15.8A10.977,10.977,0,0,1,1455.949,1091.919Z" transform="translate(-103.991 -119.439)" fill="#f9af79" fill-rule="evenodd"/>
    <path id="Trazado_736312" data-name="Trazado 736312" d="M1478.894,1130.147c-2.149-5.454-4.306-14.455-6.333-22.707-2.882-11.737-5.9-14.522-7.817-15.774-2.313-.58-5.055-.314-8.8.253a10.977,10.977,0,0,0-1.461,6.938c.443,4.185,3.422,8.8,9.206,15.8A166.61,166.61,0,0,0,1478.894,1130.147Z" transform="translate(-103.991 -119.44)" fill="#f1944e" fill-rule="evenodd"/>
    <path id="Trazado_736313" data-name="Trazado 736313" d="M1455.1,1101.2s-2.463,18.583-4.756,20.471c-1.64,1.351-2.8,1.441-3.948-4.1s1.782-26.227,1.782-26.227Z" transform="translate(-100.324 -119.439)" fill="#0b5396" fill-rule="evenodd"/>
    <path id="Trazado_736314" data-name="Trazado 736314" d="M1440.623,1113.867l-22.793,3.829,12.868-18.451,9.793-1.994,5.872,1.35Z" transform="translate(-87.809 -122.054)" fill="#f1944e" fill-rule="evenodd"/>
    <path id="Trazado_736315" data-name="Trazado 736315" d="M1509.673,1173.752c-.738,2.979-.65,5.179.634,6.282s6.134,9.3,6.134,9.3l1.513-.229-3.5-7.5Z" transform="translate(-128.221 -155.886)" fill="#0e2952" fill-rule="evenodd"/>
    <path id="Trazado_736316" data-name="Trazado 736316" d="M1519.467,1189.409c1.61.431,6.323-1.635,9.24-4.059s1.191-3.609-1.49-3.2a1.162,1.162,0,0,1-.448-.023c-1.34,2.992-5.744,5.235-7.165,2.075-1.409-3.132-7.443-9.363-9.875-10.7a.578.578,0,0,1,0,.139c-.276,2-1.541,3.856,2.667,6.117S1517.856,1188.979,1519.467,1189.409Z" transform="translate(-128.279 -155.776)" fill="#0e2952" fill-rule="evenodd"/>
    <path id="Trazado_736317" data-name="Trazado 736317" d="M1370.663,1093.083c-8.087,14.512-2.562,23.734,7.266,24.675s25.344-.854,34.388-8.371,16.469-15.461,15.432-16.646S1370.663,1093.083,1370.663,1093.083Z" transform="translate(-65.227 -119.859)" fill="#f1944e" fill-rule="evenodd"/>
    <path id="Trazado_736318" data-name="Trazado 736318" d="M1454.547,1106.106c1.656-4.968,3.565-8.78,7.26-8.85,3.887-.071,6.277,1.95,6.444,8.307.2,7.57.464,32.641.114,43.788-.264,8.439,2.195,11.141,1.987,19.937-.156,6.626,6.908,3.279,4.179,6.716-1.877,2.362-7.461,1.589-10.892,1.153-3.057-.388,1.582-9.549-2.648-12-3.63-2.1-3.7-5.513-1.409-8.1s.254-10.226-1.273-15.577-3.9-11.137-5.457-23.787C1452.406,1114.091,1453.535,1109.141,1454.547,1106.106Z" transform="translate(-103.253 -122.055)" fill="#f9af79" fill-rule="evenodd"/>
    <path id="Trazado_736319" data-name="Trazado 736319" d="M1476.3,1220.582a15.964,15.964,0,0,1-3.87.793c-2.549.085-3.314-2.717-3.482-6.525-.149-3.323-2.563-8.559-5.039-10.681-.047.06-.093.12-.142.176-2.292,2.583-2.221,6,1.409,8.1,4.23,2.45-.409,11.611,2.648,12,3.431.436,9.015,1.209,10.892-1.153C1480.488,1221.054,1478.287,1220.876,1476.3,1220.582Z" transform="translate(-107.438 -169.338)" fill="#0e2952" fill-rule="evenodd"/>
    <path id="Trazado_736320" data-name="Trazado 736320" d="M1463.33,1202.787s-3.715,3.879-3.375,5.493a61.618,61.618,0,0,1,1.676,8.832c.192,3.142.362,6.749.362,6.749s1.338,0,1.444-.38.85-12.77.85-12.77Z" transform="translate(-106.429 -168.727)" fill="#0e2952" fill-rule="evenodd"/>
    <path id="Trazado_736321" data-name="Trazado 736321" d="M1365.341,1091.34s-4.8,20.356,1.264,26,31.224.567,37.15.228c4.014-.228,7.9,4.669,7.9,4.669s-2.8-11.358-.891-20.529,4.995-9.788,4.995-9.788l-4.1-.579Z" transform="translate(-63.799 -119.439)" fill="#223f81" fill-rule="evenodd"/>
    <path id="Trazado_736322" data-name="Trazado 736322" d="M1364,1081.8c2.051,4.351-2.208,11.868-.715,14.032s10.038.3,15.638-4.2,16.2-5.5,16.2-5.5Z" transform="translate(-63.541 -115.219)" fill="#466fb5" fill-rule="evenodd"/>
    <path id="Trazado_736323" data-name="Trazado 736323" d="M1375.544,1143.722c16.942.636,34.775.336,34.775-2.189s-.765-4.308-13.885-3.29-22.037,2.422-25.986,1.529S1375.544,1143.722,1375.544,1143.722Z" transform="translate(-66.413 -140.053)" fill="#0b5396" fill-rule="evenodd"/>
    <path id="Trazado_736324" data-name="Trazado 736324" d="M1704.547,966.91a10.784,10.784,0,0,0-6.892-12.626,11.014,11.014,0,0,0-3.583-8.167c-4.518-4.1-12.9-6.346-16.227-1.113-4.392,2.248-7.843,7.121-6.533,11.562-4.257,3.989-2.64,11.213,3.562,14.623a11.68,11.68,0,0,0,6.84,10.844,29.949,29.949,0,0,1,2.865,1.3c-.268-.233,3.2,8.529,13.991,4.519C1709.579,983.763,1711.718,972.246,1704.547,966.91Z" transform="translate(-198.86 -53.371)" fill="#20386f" fill-rule="evenodd"/>
    <path id="Trazado_736325" data-name="Trazado 736325" d="M1294.358,956.867c-1.137-4.1-.978-8.217-5.172-10.757-3.393-2.057-10.773-3.147-14.349-1.3-10.132,5.243-5.363,13.429-17.639,24.254-1.968,5.248-.432,13.992-.316,14.26,5.035,11.714,18.257,13.653,24.868,10.222,12.308-6.378,12.757-11.109,13.142-15.788C1295.3,972.752,1295.1,959.512,1294.358,956.867Z" transform="translate(-16.329 -54.218)" fill="#20386f" fill-rule="evenodd"/>
    <path id="Trazado_736326" data-name="Trazado 736326" d="M1719.13,1074.5a222.553,222.553,0,0,1,2.565-27.234c1.84-10.634,3.494-16.752,3.515-16.816.241-.936,3.742-4.719,11.521-4.6s7.046,5.08,7.046,5.08h0a1.586,1.586,0,0,1-.058.438,238.3,238.3,0,0,0-6.907,59.594c0,.468.056,1.279.025,1.819,0,0-18.032.466-18.038,0C1718.171,1089.854,1718.479,1081.756,1719.13,1074.5Z" transform="translate(-220.761 -90.473)" fill="#d0a382" fill-rule="evenodd"/>
    <path id="Trazado_736327" data-name="Trazado 736327" d="M1715.31,1090.79c.007.465.251.841.55.841h.009c.3-.008.538-.381.54-.841h15.453c.006.465.253.841.552.841h.006c.306-.008.55-.393.547-.864a233.007,233.007,0,0,1,1.281-26.4,207.619,207.619,0,0,1,5.906-33,1.607,1.607,0,0,0,.057-.442s.736-4.963-7.043-5.08-11.282,3.667-11.523,4.6c-.015.05-.954,3.512-2.2,9.741-.413,2.064-.857,4.428-1.317,7.075a222.7,222.7,0,0,0-2.563,27.234C1714.911,1081.756,1714.682,1087.869,1715.31,1090.79Z" transform="translate(-219.206 -90.473)" fill="#e5bb9a" fill-rule="evenodd"/>
    <path id="Trazado_736328" data-name="Trazado 736328" d="M1715.31,1102.166c.007.465.251.841.55.841h.009c.3-.008.538-.381.54-.841h15.453c.006.465.253.841.552.841h.006c.306-.008.55-.393.547-.864a233.008,233.008,0,0,1,1.281-26.4c-2.554-12.483-12.428-22.033-14.8-24.179-.413,2.064-.857,4.428-1.317,7.075a222.7,222.7,0,0,0-2.563,27.234C1714.911,1093.132,1714.682,1099.245,1715.31,1102.166Z" transform="translate(-219.206 -101.849)" fill="#deb493" fill-rule="evenodd"/>
    <path id="Trazado_736329" data-name="Trazado 736329" d="M1728.351,1091.114c1.725,0,2.944.081,3.373.52,0,0,0,0,0,0,.005-.442.028-1.264.072-2.817.052-1.827.141-4.682.265-7.9.225-5.632.608-13.381,1.184-18.306.668-5.725,4.66-29,4.682-29.07a1.053,1.053,0,0,0,.037-.3,2.928,2.928,0,0,0-.689-2.151c-.838-.986-2.337-1.5-4.457-1.536h-.263c-5.5,0-8.032,2.631-8.217,3.357-.044.165-4.472,18.142-5.24,28.319l-.092-.006.092.006c-.073.948-.23,2.553-.431,4.585-.784,7.961-2.422,24.533-.784,24.818a48.472,48.472,0,0,0,8.981.495c.526-.006,1.024-.012,1.483-.012Zm3.451,1.079-.043-.029c-.015-.009-.022-.018-.029-.079h-.008a.434.434,0,0,0-.125-.327c-.491-.5-2.359-.48-4.726-.455a48.919,48.919,0,0,1-9.016-.494c-1.658-.293-.538-13.065.639-25.013.2-2.032.357-3.638.43-4.58.766-10.114,5.206-28.211,5.246-28.354.2-.763,2.864-3.58,8.653-3.486,2.175.031,3.72.569,4.594,1.6a3.075,3.075,0,0,1,.728,2.28,1.184,1.184,0,0,1-.044.341c-.023.1-4.024,23.433-4.676,29.036-1.078,9.225-1.509,28.349-1.528,29.411v.04l0,.052Z" transform="translate(-220.125 -92.035)" fill="#d0a382" fill-rule="evenodd"/>
    <path id="Trazado_736330" data-name="Trazado 736330" d="M1701.267,1139.875h-60.582s1.411-5.711,36.5-4.859C1702.011,1135.617,1701.267,1139.875,1701.267,1139.875Z" transform="translate(-186.367 -138.717)" fill="#e5bb9a" fill-rule="evenodd"/>
    <path id="Trazado_736331" data-name="Trazado 736331" d="M1750,1204.13c-7.025-35.559-5.217-57.38-5.208-57.656.018-.547-.991-1.043-1.535-1.061s-2.975-.162-3.254.306c-.369.613-1.783,27.5,8.685,58.411Z" transform="translate(-230.171 -143.339)" fill="#d0a382" fill-rule="evenodd"/>
    <path id="Trazado_736332" data-name="Trazado 736332" d="M1656.728,1204.13c7.026-35.559,5.22-57.38,5.21-57.656-.016-.547.993-1.043,1.534-1.061s2.974-.162,3.253.306c.37.613,1.782,27.5-8.686,58.411Z" transform="translate(-193.462 -143.339)" fill="#d0a382" fill-rule="evenodd"/>
    <path id="Trazado_736333" data-name="Trazado 736333" d="M1636.63,1204.13c7.025-35.559,5.219-57.38,5.208-57.656-.017-.547.992-1.043,1.536-1.061s2.975-.162,3.253.306c.37.613,1.784,27.5-8.684,58.411Z" transform="translate(-184.573 -143.339)" fill="#9c7357" fill-rule="evenodd"/>
    <path id="Trazado_736334" data-name="Trazado 736334" d="M1729.769,1204.13c-7.025-35.559-5.219-57.38-5.209-57.656.018-.547-.991-1.043-1.534-1.061s-2.975-.162-3.254.306c-.369.613-1.783,27.5,8.686,58.411Z" transform="translate(-221.222 -143.339)" fill="#9c7357" fill-rule="evenodd"/>
    <path id="Trazado_736335" data-name="Trazado 736335" d="M1639.636,1144.445h60.584a1.244,1.244,0,0,0,1.242-1.239v-.817a1.245,1.245,0,0,0-1.242-1.242h-60.584a1.244,1.244,0,0,0-1.239,1.242v.817A1.244,1.244,0,0,0,1639.636,1144.445Z" transform="translate(-185.355 -141.467)" fill="#d0a382" fill-rule="evenodd"/>
    <path id="Trazado_736336" data-name="Trazado 736336" d="M1664.466,1199.322a1.791,1.791,0,0,1,.317,1.912.009.009,0,0,1,0,.009c-.462,1.277-1.989,2.7-3.759,4.124-.226.183-.428.349-.6.5-.046.04-.094.081-.137.122s-.07.064-.1.093c-1.651,1.524-1.029,1.873-4,4.961-3.381,3.521-5.714,3.586-6.377,3.266-.558-.273.579-2.14,1.844-4.239.061-.1.118-.2.182-.305.17-.278.335-.564.5-.844,1.481-2.527,1.1-3.712.75-7.47-.284-3.056-4.754-17.068-4.754-17.068l6.488-1.117s1.95,11.157,4.1,12.876c1.152.917,2.439.927,3.545,1.608.078.046.156.093.23.145A8.53,8.53,0,0,1,1664.466,1199.322Z" transform="translate(-189.745 -160.094)" fill="#f9af79" fill-rule="evenodd"/>
    <path id="Trazado_736337" data-name="Trazado 736337" d="M1665.521,1210.807a1.791,1.791,0,0,1,.317,1.912.009.009,0,0,1,0,.009,13.778,13.778,0,0,1-3.765,4.112c-.224.186-.422.354-.6.515-.046.04-.094.081-.137.122s-.07.064-.1.093c-1.651,1.524-1.029,1.873-4,4.961-3.381,3.521-5.714,3.586-6.377,3.266-.558-.273.579-2.14,1.844-4.239a14.448,14.448,0,0,0,6.031-4.446c2.038-2.6,3.4-5.941,4.784-7.874.078.046.156.093.23.145A8.528,8.528,0,0,1,1665.521,1210.807Z" transform="translate(-190.801 -171.579)" fill="#0e2952" fill-rule="evenodd"/>
    <path id="Trazado_736338" data-name="Trazado 736338" d="M1568.072,1193.707c-.4,2-3.253,1.669-6.441.889s-2.43.145-6.967-.357-5.912-2.193-6.05-2.868c-.123-.6,2.119-.809,4.524-1.087.3-.032.6-.07.91-.108,2.713-.341,4.7-2.094,7.167-3.533,2.336-1.361,5.822-6.914,5.822-6.914l6.223.494s-3.265,4.957-4.528,7.115a7.5,7.5,0,0,0-.61,4.24A8.056,8.056,0,0,1,1568.072,1193.707Z" transform="translate(-145.646 -158.529)" fill="#f9af79" fill-rule="evenodd"/>
    <path id="Trazado_736339" data-name="Trazado 736339" d="M1561.632,1202.965c-3.187-.779-2.43.145-6.967-.357s-5.912-2.193-6.05-2.868c-.123-.6,2.119-.809,4.524-1.087l.02.046a12.78,12.78,0,0,0,6.5,2.021c3.079.073,6.338-.807,8.464-.772a8.056,8.056,0,0,1-.05,2.129C1567.675,1204.076,1564.819,1203.745,1561.632,1202.965Z" transform="translate(-145.646 -166.898)" fill="#0e2952" fill-rule="evenodd"/>
    <path id="Trazado_736340" data-name="Trazado 736340" d="M1600.05,1037.516s-1.483-3.632-3.113-3.78-6.82-.965-7.192-.224a5.129,5.129,0,0,0,1.114,4.373c1.111.965,8.005,2.521,8.005,2.521Z" transform="translate(-163.777 -93.73)" fill="#f9af79" fill-rule="evenodd"/>
    <path id="Trazado_736341" data-name="Trazado 736341" d="M1626.261,1125.545l13.411,36.089a12.254,12.254,0,0,0,4.032-.369,17.427,17.427,0,0,0,3.9-1.9s-3.326-34.653-9.428-41.859S1626.261,1125.545,1626.261,1125.545Z" transform="translate(-179.988 -130.156)" fill="#20386f" fill-rule="evenodd"/>
    <path id="Trazado_736342" data-name="Trazado 736342" d="M1656.716,1098.837s-38.533-13.029-47.125-10.255-34.4,54.108-34.4,54.108a4.986,4.986,0,0,0,2.171,1.37,20.46,20.46,0,0,0,5.057.52s23.286-19.962,26.057-25.783,3.882-11.364,6.653-10.812,35.761,13.585,43.248,5.821,5.524-17.845,5.524-17.845Z" transform="translate(-157.404 -118.048)" fill="#223f81" fill-rule="evenodd"/>
    <path id="Trazado_736343" data-name="Trazado 736343" d="M1681.884,991.093c-.041.017,3.867,2.047,6.81,1.24,2.766-.752,4.571-4.338,4.533-4.346-1.171-.233-1.508-1.844-1.483-8.758l-.528.1-8.9,1.765s.2,2.8.206,5.44C1682.526,988.755,1682.39,990.855,1681.884,991.093Z" transform="translate(-204.587 -69.858)" fill="#f9af79" fill-rule="evenodd"/>
    <path id="Trazado_736344" data-name="Trazado 736344" d="M1682.65,981.175s.2,2.8.206,5.44c4.984-.139,7.619-4.683,8.7-7.206Z" transform="translate(-204.926 -69.938)" fill="#ec9355" fill-rule="evenodd"/>
    <path id="Trazado_736345" data-name="Trazado 736345" d="M1688.025,963.168a26.2,26.2,0,0,0,3.24-7.654c.446-2.518-.837-11.854-10.218-10.51a12.753,12.753,0,0,0-5.287,2c-2.036,1.376-4.975,4.346-1.689,12.492l.854,2.752Z" transform="translate(-200.479 -54.664)" fill="#20386f" fill-rule="evenodd"/>
    <path id="Trazado_736346" data-name="Trazado 736346" d="M1676.551,971.282s11.792.195,11.8-7.148,1.536-12.263-5.989-12.7-8.991,2.366-9.59,4.817S1673.486,971.044,1676.551,971.282Z" transform="translate(-200.493 -57.546)" fill="#f9af79" fill-rule="evenodd"/>
    <path id="Trazado_736347" data-name="Trazado 736347" d="M1680.45,949.966s3.227,8.614,8.179,9.888,7.1-.052,7.1-.052a14.031,14.031,0,0,1-4.586-8.288S1682.884,945.865,1680.45,949.966Z" transform="translate(-203.953 -56.256)" fill="#20386f" fill-rule="evenodd"/>
    <path id="Trazado_736348" data-name="Trazado 736348" d="M1677.149,951.29s-2.411,1.924-3,3.793-.852,5.719-1.975,5.588c0,0-2.434-5.855.3-9.168C1675.374,947.991,1677.149,951.29,1677.149,951.29Z" transform="translate(-199.852 -56.88)" fill="#20386f" fill-rule="evenodd"/>
    <path id="Trazado_736349" data-name="Trazado 736349" d="M1706.357,1057.791c-.637,1.765-2.586,2.218-5.2,1.914-4.984-.582-12.385-3.929-17.718-6.24-8.133-3.527-11.829-.215-14.416-2.458s2.957-7.231-1.85-30.394c-1.629-7.854,8.7-24.7,8.7-24.7s.892,4.876,10.772-.988c.349-.208,4.24,5.55,7.986,12.651,4.129,7.831,8.083,17.293,6.92,22.17C1699.334,1039.042,1708.205,1052.661,1706.357,1057.791Z" transform="translate(-198.004 -76.798)" fill="#6d96ce" fill-rule="evenodd"/>
    <path id="Trazado_736350" data-name="Trazado 736350" d="M1647.915,996.7l-6.09,24.987s-.759,1.349-1.948,3.271c-2.789,4.51-7.951,12.169-11.257,12.948-1.629.384-5.1-.974-8.932-2.91a181.72,181.72,0,0,1-15.833-9.41c-.553-3.326,2.341-6.04,2.341-6.04s17.374,6.531,19.1,6.654c3.762.269,7.589-17.883,11.1-23.935C1638.941,997.9,1647.915,996.7,1647.915,996.7Z" transform="translate(-170.048 -77.586)" fill="#6d96ce" fill-rule="evenodd"/>
    <path id="Trazado_736351" data-name="Trazado 736351" d="M1719.025,1075.034c-.637,1.765-2.586,2.218-5.2,1.914-3.448-1.5-18.349-7.275-18.18-11.187.247-5.789,2.864-5.976,1.015-13.12-1.484-5.74,12.282-16.409,14.478-18.729,4.129,7.834,4.242,8.2,3.079,13.08C1712,1056.285,1720.873,1069.9,1719.025,1075.034Z" transform="translate(-210.673 -94.042)" fill="#466fb5" fill-rule="evenodd"/>
    <path id="Trazado_736352" data-name="Trazado 736352" d="M1652.487,1046.577c-2.789,4.51-7.951,12.169-11.257,12.948-1.629.384-5.1-.974-8.932-2.91a23.227,23.227,0,0,0,8.162.445c2.867-.276,3.7-3.789,8.226-9.055C1651.624,1044.589,1652.344,1045.45,1652.487,1046.577Z" transform="translate(-182.658 -99.202)" fill="#466fb5" fill-rule="evenodd"/>
    <path id="Trazado_736353" data-name="Trazado 736353" d="M1686.682,1066.012s-2.494-1.939-4.853-1.48-3.51,2.082-3.417,2.821a4.2,4.2,0,0,0,3.141,3c1.8.183,6.932-1.11,6.932-1.11Z" transform="translate(-203.049 -107.552)" fill="#f9af79" fill-rule="evenodd"/>
    <path id="Trazado_736354" data-name="Trazado 736354" d="M1697.505,994.932s9.611.593,12.934,5.231c4.685,6.531,12.815,33.19,10.6,39.29l-29.232-.124s-.71-3.309.275-4.911,17-4.19,17.744-4.929-9.241-14.416-9.241-16.635S1697.505,994.932,1697.505,994.932Z" transform="translate(-208.866 -76.803)" fill="#6d96ce" fill-rule="evenodd"/>
    <path id="Trazado_736355" data-name="Trazado 736355" d="M1655.624,1069.177h-35.387l-6.38-22.248h35.337Z" transform="translate(-174.502 -99.799)" fill="#1d417f" fill-rule="evenodd"/>
    <rect id="Rect치ngulo_342433" data-name="Rect치ngulo 342433" width="46.265" height="0.867" transform="translate(1445.855 968.512)" fill="#0e2952"/>
    <path id="Trazado_736356" data-name="Trazado 736356" d="M1645.4,1065.1a1.032,1.032,0,0,1,1.012-1.417,2.028,2.028,0,0,1,1.82,1.417,1.029,1.029,0,0,1-1.009,1.416A2.032,2.032,0,0,1,1645.4,1065.1Z" transform="translate(-188.425 -107.209)" fill="#0e2952" fill-rule="evenodd"/>
    <path id="Rect치ngulo_342434" data-name="Rect치ngulo 342434" d="M1.594,0H242.723a1.594,1.594,0,0,1,1.594,1.594v0a1.593,1.593,0,0,1-1.593,1.593H1.593A1.593,1.593,0,0,1,0,1.594v0A1.594,1.594,0,0,1,1.594,0Z" transform="translate(1274.295 969.379)" fill="#9c7357"/>
    <path id="Trazado_736357" data-name="Trazado 736357" d="M1256.619,1075.714a229.018,229.018,0,0,0-2.729-28.56c-1.955-11.152-3.708-17.57-3.736-17.638-.256-.98-3.978-4.951-12.246-4.826s-7.493,5.327-7.493,5.327h0a1.763,1.763,0,0,0,.061.461,246.476,246.476,0,0,1,7.344,62.495c0,.494-.06,1.344-.021,1.911,0,0,19.17.488,19.173,0C1257.642,1091.819,1257.316,1083.326,1256.619,1075.714Z" transform="translate(-4.916 -89.962)" fill="#d0a382" fill-rule="evenodd"/>
    <path id="Trazado_736358" data-name="Trazado 736358" d="M1260.73,1092.8c-.006.489-.265.878-.588.878h-.005c-.319-.006-.572-.4-.578-.878h-16.431c-.007.489-.263.878-.58.878h-.013c-.324-.006-.58-.412-.58-.906a238.769,238.769,0,0,0-1.363-27.683,213.775,213.775,0,0,0-6.278-34.612,1.831,1.831,0,0,1-.055-.463s-.788-5.2,7.487-5.327,12,3.846,12.254,4.826c.013.052,1.011,3.685,2.333,10.219.438,2.164.911,4.643,1.4,7.417a229.982,229.982,0,0,1,2.723,28.561C1261.154,1083.326,1261.4,1089.739,1260.73,1092.8Z" transform="translate(-6.616 -89.962)" fill="#e5bb9a" fill-rule="evenodd"/>
    <path id="Trazado_736359" data-name="Trazado 736359" d="M1265.768,1104.734c-.006.489-.265.878-.588.878h-.005c-.319-.006-.572-.4-.578-.878h-16.431c-.007.489-.263.878-.58.878h-.013c-.324-.006-.58-.412-.58-.906a238.768,238.768,0,0,0-1.363-27.683c2.718-13.093,13.218-23.107,15.741-25.357.438,2.164.911,4.643,1.4,7.416a229.984,229.984,0,0,1,2.723,28.561C1266.191,1095.257,1266.436,1101.67,1265.768,1104.734Z" transform="translate(-11.653 -101.893)" fill="#deb493" fill-rule="evenodd"/>
    <path id="Trazado_736360" data-name="Trazado 736360" d="M1250.358,1093.142c-1.842,0-3.136.083-3.588.544,0,0,0,0-.007,0-.006-.464-.026-1.326-.074-2.956-.054-1.917-.148-4.909-.283-8.286-.236-5.907-.647-14.032-1.254-19.2-.715-6.02-4.957-30.41-4.984-30.486a1.432,1.432,0,0,1-.04-.316,3.068,3.068,0,0,1,.722-2.238c.884-1.048,2.488-1.6,4.754-1.63,6.05-.077,8.815,2.749,9.017,3.518.047.177,4.754,19.017,5.572,29.7.077.99.244,2.672.457,4.8.835,8.353,2.576,25.732.835,26.035a52.591,52.591,0,0,1-9.548.519c-.559-.009-1.093-.012-1.578-.012Zm-3.669,1.131.048-.034c.007-.008.02-.016.026-.08h.013a.437.437,0,0,1,.122-.34c.52-.528,2.508-.507,5.031-.479a52.775,52.775,0,0,0,9.587-.519c1.766-.307.575-13.7-.681-26.24-.21-2.127-.381-3.809-.455-4.8-.816-10.663-5.53-29.587-5.578-29.735-.209-.8-3.048-3.754-9.2-3.656-2.327.035-3.979.607-4.9,1.7a3.164,3.164,0,0,0-.756,2.368,1.069,1.069,0,0,0,.048.358c.02.1,4.276,24.58,4.971,30.454,1.146,9.688,1.6,29.723,1.625,30.841v.1Z" transform="translate(-9.132 -91.599)" fill="#d0a382" fill-rule="evenodd"/>
    <path id="Trazado_736361" data-name="Trazado 736361" d="M1245.894,1144.275h64.417s-1.5-5.985-38.8-5.094C1245.1,1139.811,1245.894,1144.275,1245.894,1144.275Z" transform="translate(-11.769 -140.557)" fill="#e5bb9a" fill-rule="evenodd"/>
    <path id="Trazado_736362" data-name="Trazado 736362" d="M1236.5,1211.665c7.465-37.292,5.551-60.177,5.537-60.468-.013-.571,1.059-1.094,1.631-1.112.588-.01,3.163-.17,3.46.321.392.643,1.9,28.839-9.232,61.259Z" transform="translate(-7.616 -145.405)" fill="#d0a382" fill-rule="evenodd"/>
    <path id="Trazado_736363" data-name="Trazado 736363" d="M1335.674,1211.665c-7.469-37.292-5.549-60.177-5.54-60.468.019-.571-1.055-1.094-1.63-1.112s-3.163-.17-3.463.321c-.391.643-1.9,28.839,9.238,61.259Z" transform="translate(-46.646 -145.405)" fill="#d0a382" fill-rule="evenodd"/>
    <path id="Trazado_736364" data-name="Trazado 736364" d="M1357.043,1211.665c-7.469-37.292-5.55-60.177-5.54-60.468.018-.571-1.055-1.094-1.63-1.112s-3.163-.17-3.463.321c-.39.643-1.9,28.839,9.238,61.259Z" transform="translate(-56.096 -145.405)" fill="#9c7357" fill-rule="evenodd"/>
    <path id="Trazado_736365" data-name="Trazado 736365" d="M1258.011,1211.665c7.473-37.292,5.55-60.177,5.543-60.468-.02-.571,1.052-1.094,1.632-1.112s3.157-.17,3.457.321c.389.643,1.9,28.839-9.237,61.259Z" transform="translate(-17.129 -145.405)" fill="#9c7357" fill-rule="evenodd"/>
    <path id="Trazado_736366" data-name="Trazado 736366" d="M1309.348,1149.076h-64.43a1.313,1.313,0,0,1-1.307-1.312v-.838a1.312,1.312,0,0,1,1.307-1.31h64.43a1.315,1.315,0,0,1,1.311,1.31v.838A1.317,1.317,0,0,1,1309.348,1149.076Z" transform="translate(-10.76 -143.443)" fill="#d0a382" fill-rule="evenodd"/>
    <path id="Trazado_736367" data-name="Trazado 736367" d="M1335.049,1075.373s11.776,13.449,14.184,13.229c2.465-.223,3.967-1,6.109,0,1.54.72,6.407,4.634,5.1,4.374s-3.67-.562-4.295-.621c-.859-.084-2.238-.1-3.175-.263-.594-.1-2.733-.164-3.444-.189-3.1-.1-17.759-8.667-17.759-8.667Z" transform="translate(-49.748 -112.378)" fill="#f9af79" fill-rule="evenodd"/>
    <path id="Trazado_736368" data-name="Trazado 736368" d="M1417.773,1238.171c-.207,2.261,2.938,2.81,6.582,2.99s2.542.928,7.535,1.833,6.993-.463,7.355-1.137c.322-.6-2-1.533-4.474-2.591-.308-.132-.621-.269-.934-.4-2.785-1.225-4.346-3.722-6.517-6.038-2.056-2.192-4.01-9.214-4.01-9.214l-6.784-1.45s1.9,6.319,2.567,9.018a8.351,8.351,0,0,1-.7,4.712A8.941,8.941,0,0,0,1417.773,1238.171Z" transform="translate(-87.233 -177.294)" fill="#f9af79" fill-rule="evenodd"/>
    <path id="Trazado_736369" data-name="Trazado 736369" d="M1425.335,1252.048c3.643.183,2.542.928,7.535,1.833s6.993-.463,7.355-1.137c.322-.6-2-1.533-4.474-2.591l-.037.041a14.2,14.2,0,0,1-7.562.09c-3.305-.9-6.5-2.87-8.774-3.506a8.943,8.943,0,0,0-.625,2.281C1418.546,1251.319,1421.691,1251.868,1425.335,1252.048Z" transform="translate(-88.213 -188.181)" fill="#0e2952" fill-rule="evenodd"/>
    <path id="Trazado_736370" data-name="Trazado 736370" d="M1299.517,1097.5s37.606,1.691,46.091,7.048,22.1,67.755,22.1,67.755a5.525,5.525,0,0,1-2.717.875c-1.747.191-5.589-.835-5.589-.835s-19.565-27.921-20.942-34.954-1.04-13.31-4.177-13.477-42.257,4.755-48.174-5.667S1299.517,1097.5,1299.517,1097.5Z" transform="translate(-29.058 -122.162)" fill="#20386f" fill-rule="evenodd"/>
    <path id="Trazado_736371" data-name="Trazado 736371" d="M1389.96,1238.627c-.21,2.259,2.938,2.809,6.58,2.988s2.545.928,7.534,1.834,7-.464,7.354-1.138c.325-.6-2-1.534-4.469-2.591-.312-.133-.625-.27-.937-.406-2.783-1.224-4.347-3.722-6.518-6.038-2.055-2.191-4.006-9.212-4.006-9.212l-6.787-1.45s1.905,6.319,2.567,9.017a8.354,8.354,0,0,1-.7,4.713A8.936,8.936,0,0,0,1389.96,1238.627Z" transform="translate(-74.931 -177.496)" fill="#f9af79" fill-rule="evenodd"/>
    <path id="Trazado_736372" data-name="Trazado 736372" d="M1397.523,1252.5c3.645.183,2.544.928,7.534,1.834s7-.464,7.354-1.138c.325-.6-2-1.534-4.469-2.591l-.041.04a14.2,14.2,0,0,1-7.561.092c-3.3-.9-6.5-2.872-8.774-3.508a8.941,8.941,0,0,0-.622,2.282C1390.733,1251.773,1393.881,1252.323,1397.523,1252.5Z" transform="translate(-75.914 -188.383)" fill="#0e2952" fill-rule="evenodd"/>
    <path id="Trazado_736373" data-name="Trazado 736373" d="M1274.8,1099.092s40.052,1.9,48.325,7.578,19.45,68.564,19.45,68.564a5.518,5.518,0,0,1-2.751.773c-1.75.12-5.549-1.054-5.549-1.054s-18.464-28.661-19.568-35.743-.523-13.34-3.652-13.627-42.408,3.1-47.912-7.541S1274.8,1099.092,1274.8,1099.092Z" transform="translate(-18.917 -122.868)" fill="#223f81" fill-rule="evenodd"/>
    <path id="Trazado_736374" data-name="Trazado 736374" d="M1261.885,996.909c.013-.022.033-.041.046-.062a6.639,6.639,0,0,1,1.12-.979l.013-.01h.007c3.271-2.287,9.117-2.776,9.117-2.776v0s.64-.059,1.651-.1a30.327,30.327,0,0,0,1.911-9.226l.578.159,9.745,2.611s-.43,3.092-.634,6.02c-.043.643-.077,1.273-.091,1.867.284.1,6.346.955,7.663,2.371s3.955,10.859,4.619,12.532l-37.519.612S1259.166,1000.118,1261.885,996.909Z" transform="translate(-17.987 -71.857)" fill="#f9af79" fill-rule="evenodd"/>
    <path id="Trazado_736375" data-name="Trazado 736375" d="M1259.955,1073.613c4.438.423,19.41-8.616,24.4-11.558.09-.048.174-.1.254-.148,2.078-1.221,5-1.8,7.778-2.256,3.539-.579,6.842-.972,7.9-2.236,1.258-1.506-2.446-3.175-5.423-4.909-1.5-.872-2.814-1.766-3.225-2.656a10.156,10.156,0,0,1-.08-4.2v0c.034-.366.084-.747.136-1.143a12.441,12.441,0,0,0,.894,1.543,22.45,22.45,0,0,0,3.179,3.72,10.53,10.53,0,0,0,3.694,2.546,2.912,2.912,0,0,0,1.763-.157c1.557-.609,3.063-2.325,4.257-3.976.28-.389.547-.779.788-1.15.815-1.233,1.393-2.26,1.613-2.5.665-.735-2.673-2.195-4.043-3.285s-6.752-22.337-6.752-22.337c-.666-1.673-3.3-11.109-4.62-12.532,0,0-5.142,6.279-11.807,5.921-6.622-.355-17.96-6.743-18.135-6.842a4.144,4.144,0,0,0-1.187,1.052c-2.712,3.209-1.774,13.013-1.774,13.013s5.192,22.871,5.192,25.177c0,4.234-3.5,13.962-5.166,20.969C1258.525,1070.107,1258.2,1073.45,1259.955,1073.613Z" transform="translate(-17.44 -81.457)" fill="#6d96ce" fill-rule="evenodd"/>
    <path id="Trazado_736376" data-name="Trazado 736376" d="M1299.058,986.646s-.433,3.092-.634,6.02c-5.515-.524-8.1-5.76-9.11-8.632Z" transform="translate(-30.973 -71.983)" fill="#f29e63" fill-rule="evenodd"/>
    <path id="Trazado_736377" data-name="Trazado 736377" d="M1299.795,976.112s-13.088-.656-12.555-8.8-.794-13.715,7.584-13.641,9.8,3.289,10.283,6.051S1303.213,976.075,1299.795,976.112Z" transform="translate(-30.048 -58.555)" fill="#f9af79" fill-rule="evenodd"/>
    <path id="Trazado_736378" data-name="Trazado 736378" d="M1299.2,954.576s-3.129-.73-4.152.791-.291,2.374-2.575,3.013-3.058.593-2.829,2.192-2.293,2.783-2.4,4.06a2.236,2.236,0,0,1-2.162,2.009c-1,.094-.547-16.476,3.334-17.207s7.62.137,8.762,1.05S1299.2,954.576,1299.2,954.576Z" transform="translate(-28.896 -56.561)" fill="#20386f" fill-rule="evenodd"/>
    <path id="Trazado_736379" data-name="Trazado 736379" d="M1309.783,955.4s3.041-.213,3.589,1.522-.183,2.145.592,3.195a4.158,4.158,0,0,1,.329,2.912s6.016-11.081-.329-11.812S1307.788,951.778,1309.783,955.4Z" transform="translate(-39.483 -57.382)" fill="#20386f" fill-rule="evenodd"/>
    <path id="Trazado_736380" data-name="Trazado 736380" d="M1317.88,1054.919a33.628,33.628,0,0,0,4.05,7.872,10.527,10.527,0,0,0,3.694,2.546,2.912,2.912,0,0,0,1.763-.157c1.557-.609,3.063-2.325,4.257-3.976.28-.389.547-.779.788-1.15-4.158-3.336-12.04-10.97-12.859-21.416C1318.455,1024.371,1317.817,1055.575,1317.88,1054.919Z" transform="translate(-43.604 -94.478)" fill="#466fb5" fill-rule="evenodd"/>
    <path id="Trazado_736381" data-name="Trazado 736381" d="M1328.082,1084.348c-1.451-2.214-4.4-4.4-8.636-6.109,1.948,2.919,5.283,5.884,6.873,6.266A2.912,2.912,0,0,0,1328.082,1084.348Z" transform="translate(-44.299 -113.645)" fill="#529aaa" fill-rule="evenodd"/>
    <path id="Trazado_736382" data-name="Trazado 736382" d="M1272.883,1039.965s3.271,32.842,17.734,37.352c.09-.048.174-.1.254-.148,2.078-1.221,5-1.8,7.778-2.256,3.539-.579,6.842-.972,7.9-2.236,1.258-1.506-2.446-3.175-5.423-4.909-1.5-.872-2.814-1.766-3.225-2.656a10.157,10.157,0,0,1-.08-4.2v0C1283.788,1055.722,1272.883,1039.965,1272.883,1039.965Z" transform="translate(-23.706 -96.719)" fill="#466fb5" fill-rule="evenodd"/>
    <path id="Trazado_736383" data-name="Trazado 736383" d="M1266.241,1019.33c1.517-6.83,8.386-2.913,8.386-2.913,2.384-.542,19.873,27.807,21.274,28.449,1.187.545,17.3-4.137,22.2-5.58,1.264-.989,5.7-4.436,6.48-4.495.91-.068,6.976,1.489,6.938,2.455s-1.458,2.375-3.7,2.733c-1.7.268-4.576,1.388-6.412,1.667h0s-17.79,12.119-25.364,13.6C1289.226,1056.571,1264.724,1026.156,1266.241,1019.33Z" transform="translate(-20.739 -85.81)" fill="#f9af79" fill-rule="evenodd"/>
    <path id="Trazado_736384" data-name="Trazado 736384" d="M1306.017,1042.164s4.1,10.536-.814,14.542-15.575,2.656-27.252-13.63-16.43-25.155-10.367-27.742,11.068,1.471,14.179,7.806c3.234,6.586,9.192,15.7,12.765,16.049S1306.017,1042.164,1306.017,1042.164Z" transform="translate(-20.194 -85.476)" fill="#6d96ce" fill-rule="evenodd"/>
  </g>
</svg>
