<svg xmlns="http://www.w3.org/2000/svg" xmlns:xlink="http://www.w3.org/1999/xlink" width="190" height="190" viewBox="0 0 190 190">
  <defs>
    <clipPath id="clip-path">
      <circle id="Elipse_5891" data-name="Elipse 5891" cx="95" cy="95" r="95" transform="translate(180 791)" fill="none" stroke="#adc46c" stroke-width="9"/>
    </clipPath>
    <clipPath id="clip-path-2">
      <rect id="Rectángulo_341025" data-name="Rectángulo 341025" width="101.742" height="166.667" fill="none"/>
    </clipPath>
    <clipPath id="clip-path-4">
      <rect id="Rectángulo_341022" data-name="Rectángulo 341022" width="5.71" height="8.628" fill="none"/>
    </clipPath>
    <clipPath id="clip-path-5">
      <rect id="Rectángulo_341023" data-name="Rectángulo 341023" width="5.709" height="8.63" fill="none"/>
    </clipPath>
  </defs>
  <g id="Grupo_971281" data-name="Grupo 971281" transform="translate(7188 10896)">
    <g id="Enmascarar_grupo_927259" data-name="Enmascarar grupo 927259" transform="translate(-7368 -11687)" clip-path="url(#clip-path)">
      <g id="Grupo_965621" data-name="Grupo 965621" transform="translate(224.129 814.333)">
        <g id="Grupo_965398" data-name="Grupo 965398" clip-path="url(#clip-path-2)">
          <g id="Grupo_965397" data-name="Grupo 965397" transform="translate(0 0)">
            <g id="Grupo_965396" data-name="Grupo 965396" clip-path="url(#clip-path-2)">
              <path id="Trazado_730015" data-name="Trazado 730015" d="M144.827,450.748s11.872,10.516,1.852,14.94c0,0,14.612,8.958,5.333,14.319,0,0,11.636,6.758,3.434,11.917s-30.271-5.288-30.271-5.288V452.8Z" transform="translate(-71.309 -397.894)" fill="#140a0a"/>
              <path id="Trazado_730016" data-name="Trazado 730016" d="M127.005,592.07s9.948,8.52,2.632,12.169c-1.06.528-1.611,1.06-1.785,1.585a11.613,11.613,0,0,0,6.09-1.43c8.2-5.16-3.434-11.917-3.434-11.917,9.279-5.361-5.333-14.319-5.333-14.319s9.69,11.06,1.83,13.913" transform="translate(-49.806 -510.363)" fill="#230d0d"/>
              <path id="Trazado_730017" data-name="Trazado 730017" d="M455.893,432.692s-4.3,13.115,2.155,16.1c0,0-16.238,7.666-5.608,12.162,0,0-5.488,2.514-1.916,4.367,0,0-13.816,13.429.207,16.472s32.593,1.245,32.593,1.245l1.546-28.3-5.69-17.656Z" transform="translate(-435.242 -381.955)" fill="#140a0a"/>
              <path id="Trazado_730018" data-name="Trazado 730018" d="M9.176,1102.528c-.2-1.3-.363-2.553-.492-3.739,0,0-5.127-19.05-8.683-28.755l13.07-9.86c2.494,22.121,3.552,32.792,4.7,37.645,0,0,.316,1.6.877,4.708Z" transform="translate(83.096 -935.86)" fill="#f19367"/>
              <path id="Trazado_730019" data-name="Trazado 730019" d="M718.141,1102.528h-9.47c.56-3.108.876-4.708.876-4.708,1.146-4.852,2.206-15.524,4.7-37.645l13.07,9.86c-3.554,9.7-8.683,28.755-8.683,28.755-.129,1.186-.3,2.439-.491,3.739" transform="translate(-708.671 -935.86)" fill="#f19367"/>
              <path id="Trazado_730020" data-name="Trazado 730020" d="M203.264,631.018a5.231,5.231,0,0,0-1.8-2.684c-1.942-1.058-22.893-7.019-22.893-7.019C174.8,616.04,175.6,608.26,175.6,608.26l-7.651-3.481v-.051l-.069.025-.067-.025v.051l-7.647,3.481s-.012,9.612-2.978,13.055c0,0-21.876,6.347-23.815,7.406-.277.15-.563.966-.823,2.3l37.219,19.644Z" transform="translate(-117.066 -533.819)" fill="#e57a4e"/>
              <path id="Trazado_730021" data-name="Trazado 730021" d="M743.416,1178.612c-.409-.6-.7-.965-.7-.965l-11.417-2.761c-.667,5.976-1.2,10.72-1.671,14.472a27.751,27.751,0,0,0,10.307.862c1.041-3.615,2.265-7.763,3.479-11.607" transform="translate(-727.229 -1037.12)" fill="#df7549"/>
              <path id="Trazado_730022" data-name="Trazado 730022" d="M671.614,910.257l8.223-21.3-.084-25.632c-.217-1.1-.374-1.523-.454-1.041-.634,3.888-4.922,5.387-10.907,19.654-5.466,13.036-2.8,26.056-2.294,28.21a14.869,14.869,0,0,0,5.516.11" transform="translate(-656.073 -760.999)" fill="#cc740f"/>
              <path id="Trazado_730023" data-name="Trazado 730023" d="M35.049,1162.544l-11.98,5.093c1.086,3.431,2.178,7.106,3.144,10.436a17.352,17.352,0,0,0,10.365-2.1c-.434-3.633-.929-8.059-1.529-13.425" transform="translate(62.459 -1026.226)" fill="#df7549"/>
              <path id="Trazado_730024" data-name="Trazado 730024" d="M98.217,912.53c.172-7.938-10.625-27.784-10.625-27.784L84.4,891.524l-.056,17.435,8.223,21.3a14.826,14.826,0,0,0,5.645-.137c-.028-1.806-.146-10.516.006-17.593" transform="translate(-6.367 -781.002)" fill="#cc740f"/>
              <path id="Trazado_730025" data-name="Trazado 730025" d="M358.671,614.323c3.542,2.392,9.52,6,12.6,5.4a12.168,12.168,0,0,0,4.48-1.987,24.555,24.555,0,0,1-1.146-9.475l-7.651-3.481v-.051l-.069.025-.067-.025v.051l-7.647,3.481a45.054,45.054,0,0,1-.5,6.063" transform="translate(-316.063 -533.819)" fill="#bd502a"/>
              <path id="Trazado_730026" data-name="Trazado 730026" d="M92.806,821.6l-3.2-8.279c-1.168,4.951-2.3,8.485-2.3,8.485a75.308,75.308,0,0,0-2.434,17.2H30.4a113.882,113.882,0,0,0-4.4-19.15c-.549-1.511-1.016-3.03-1.423-4.55L22.149,821.6a14.474,14.474,0,0,1-14.665-6.616s2.677-35.126,6-40.616c4.5-7.44,16.775-9.615,16.775-9.615v.014l10.06-3.046c3.434,6.956,13.835,21.848,17.96,21.775,7.39-.133,17.263-21.844,17.263-21.844l9.161,3.1s12.277,2.174,16.775,9.615c3.32,5.49,6,40.616,6,40.616A14.474,14.474,0,0,1,92.806,821.6" transform="translate(-6.608 -672.345)" fill="#f1951e"/>
              <path id="Trazado_730027" data-name="Trazado 730027" d="M180.362,373.995s2.372-4.165,6.071-4.223c2.2-.034,1.546,8.98-.716,11.309s-5.554,1.552-6.287-.508Z" transform="translate(-107.083 -326.412)" fill="#f19367"/>
              <g id="Grupo_965392" data-name="Grupo 965392" transform="translate(73.785 45.439)" opacity="0.4">
                <g id="Grupo_965391" data-name="Grupo 965391" transform="translate(0)">
                  <g id="Grupo_965390" data-name="Grupo 965390" clip-path="url(#clip-path-4)">
                    <path id="Trazado_730028" data-name="Trazado 730028" d="M189.728,395.931s2.761.97,3.952-1.331,2.346-5.064,1.423-7.094c0,0-2.546.593-4.9,5.345,0,0,1.724,2.14-.478,3.081" transform="translate(-189.728 -387.506)" fill="#c6442b"/>
                  </g>
                </g>
              </g>
              <path id="Trazado_730029" data-name="Trazado 730029" d="M194.7,388.713a11.756,11.756,0,0,0,.081-1.308,4.6,4.6,0,0,0-.138-1.332.883.883,0,0,0-.185-.348.394.394,0,0,0-.244-.121.441.441,0,0,0-.239.049l-.3.131-.3.176a4.355,4.355,0,0,0-.561.383c-.174.136-.361.26-.522.411a10.326,10.326,0,0,0-.964.912c-.149.163-.316.311-.451.488l-.414.521a4.074,4.074,0,0,0-.384.543l-.357.564a5,5,0,0,0-.3.6l-.279.608-.051.112.086.1a3.594,3.594,0,0,1,.533.819,2.3,2.3,0,0,1,.163.458,1.359,1.359,0,0,1,.04.236,1.4,1.4,0,0,1,.005.237,1.606,1.606,0,0,1-.109.459l-.125.207a1.255,1.255,0,0,1-.162.185,2.151,2.151,0,0,1-.395.313c-.147.086-.3.16-.457.241.163-.056.333-.1.5-.168a2.272,2.272,0,0,0,.454-.278,1.415,1.415,0,0,0,.2-.182l.171-.219.12-.255a1.883,1.883,0,0,0,.065-.275,1.641,1.641,0,0,0,.015-.281,1.612,1.612,0,0,0-.026-.278,2.593,2.593,0,0,0-.145-.531,3.916,3.916,0,0,0-.529-.956l.035.211.287-.567a4.615,4.615,0,0,1,.3-.558,12.072,12.072,0,0,1,.725-1.048l.4-.5c.127-.171.287-.315.428-.475s.286-.318.444-.462l.468-.437c.151-.153.324-.276.487-.414a6.108,6.108,0,0,1,.5-.38l.25-.18.289-.153c.094-.048.058-.039.114-.015a.592.592,0,0,1,.129.217,5.887,5.887,0,0,1,.244,1.241c.048.43.072.864.1,1.3" transform="translate(-115.16 -340.385)" fill="#874237"/>
              <path id="Trazado_730030" data-name="Trazado 730030" d="M199.235,407.383a.509.509,0,0,0-.033-.152,1.3,1.3,0,0,0-.2-.375,1.761,1.761,0,0,0-.8-.507l-.352-.054a.965.965,0,0,0-.349,0c-.113.012-.223.038-.329.057a1.036,1.036,0,0,0-.3.081c-.089.039-.171.081-.246.121a2.972,2.972,0,0,0-.474.3,3.613,3.613,0,0,0,.551-.025c.079-.009.163-.018.25-.035a1.712,1.712,0,0,1,.275-.01c.094,0,.191,0,.288-.011a.712.712,0,0,1,.288.012l.285.026a1.978,1.978,0,0,1,.262.069.918.918,0,0,1,.243.084c.072.039.148.069.216.1a3.72,3.72,0,0,1,.3.216.914.914,0,0,1,.117.1" transform="translate(-120.494 -358.64)" fill="#874237"/>
              <path id="Trazado_730031" data-name="Trazado 730031" d="M253.057,193.17s10.558-5.367,14.225-11.4c3.017-4.231,6.569-25.8,6.933-29.154.011-.112.026-.222.037-.334s.017-.164.017-.164l0,0c.061-.694.1-1.392.1-2.1a23.389,23.389,0,0,0-46.777,0,23.642,23.642,0,0,0,.133,2.486h0s3.645,24.628,6.948,29.263c3.884,6.913,14.224,11.4,14.224,11.4a6.942,6.942,0,0,0,4.17,0" transform="translate(-199.306 -111.786)" fill="#f19367"/>
              <path id="Trazado_730032" data-name="Trazado 730032" d="M609.361,382.389s-2.374-4.168-6.071-4.225c-2.2-.034-1.546,8.982.714,11.31s5.557,1.552,6.288-.51Z" transform="translate(-579.132 -333.821)" fill="#f19367"/>
              <g id="Grupo_965395" data-name="Grupo 965395" transform="translate(24.013 46.423)" opacity="0.4">
                <g id="Grupo_965394" data-name="Grupo 965394" transform="translate(0)">
                  <g id="Grupo_965393" data-name="Grupo 965393" clip-path="url(#clip-path-5)">
                    <path id="Trazado_730033" data-name="Trazado 730033" d="M619.914,404.323s-2.759.97-3.95-1.332-2.348-5.064-1.423-7.1c0,0,2.546.594,4.9,5.345,0,0-1.724,2.142.475,3.083" transform="translate(-614.206 -395.896)" fill="#c6442b"/>
                  </g>
                </g>
              </g>
              <path id="Trazado_730034" data-name="Trazado 730034" d="M611.991,397.11c.024-.436.049-.87.1-1.3a5.883,5.883,0,0,1,.244-1.241.607.607,0,0,1,.129-.217c.055-.024.023-.032.114.015l.289.153.249.18a6.217,6.217,0,0,1,.5.38c.163.138.336.261.487.414l.468.438c.158.144.3.308.444.462s.3.3.429.475l.4.5a11.989,11.989,0,0,1,.725,1.047,4.577,4.577,0,0,1,.3.558l.288.567.035-.211a3.923,3.923,0,0,0-.528.957,2.6,2.6,0,0,0-.145.531,1.587,1.587,0,0,0-.026.278,1.669,1.669,0,0,0,.015.281,1.9,1.9,0,0,0,.065.275l.12.255.171.22a1.429,1.429,0,0,0,.2.182,2.283,2.283,0,0,0,.454.278c.163.066.333.112.5.168-.154-.082-.31-.156-.457-.241a2.166,2.166,0,0,1-.4-.313,1.272,1.272,0,0,1-.162-.185l-.125-.207a1.613,1.613,0,0,1-.108-.459,1.4,1.4,0,0,1,.005-.237,1.313,1.313,0,0,1,.04-.236,2.258,2.258,0,0,1,.163-.458,3.607,3.607,0,0,1,.533-.819l.086-.1-.051-.112-.279-.608a5.065,5.065,0,0,0-.3-.6l-.357-.564a4.046,4.046,0,0,0-.385-.543l-.414-.521c-.135-.177-.3-.324-.451-.487a10.32,10.32,0,0,0-.964-.912c-.161-.151-.348-.275-.522-.411a4.281,4.281,0,0,0-.561-.383l-.3-.177-.3-.131a.437.437,0,0,0-.24-.049.4.4,0,0,0-.243.121.888.888,0,0,0-.185.348,4.565,4.565,0,0,0-.138,1.332,11.608,11.608,0,0,0,.08,1.309" transform="translate(-588.022 -347.797)" fill="#874237"/>
              <path id="Trazado_730035" data-name="Trazado 730035" d="M630.2,415.786a.894.894,0,0,1,.117-.1,3.625,3.625,0,0,1,.3-.216c.069-.032.145-.062.216-.1a.925.925,0,0,1,.243-.083,1.926,1.926,0,0,1,.262-.069l.284-.026a.711.711,0,0,1,.288-.011c.1.011.194.007.288.011a1.64,1.64,0,0,1,.275.01c.087.017.171.026.25.035a3.634,3.634,0,0,0,.551.025,2.99,2.99,0,0,0-.473-.3c-.075-.04-.157-.082-.246-.121a1.034,1.034,0,0,0-.3-.081c-.106-.018-.216-.045-.329-.056a.956.956,0,0,0-.348,0l-.351.054a1.425,1.425,0,0,0-.322.132,1.44,1.44,0,0,0-.48.374,1.313,1.313,0,0,0-.2.375.508.508,0,0,0-.033.152" transform="translate(-605.429 -366.06)" fill="#874237"/>
              <path id="Trazado_730036" data-name="Trazado 730036" d="M399,499.537s.03,3.061-.813,3.505-.346-1.718.813-3.505" transform="translate(-343.903 -440.962)" fill="#521b14"/>
              <path id="Trazado_730037" data-name="Trazado 730037" d="M277.639,379.072a12.39,12.39,0,0,1,3.367-5.233c3.32-2.693,9.346-1.644,9.027,3.4,0,0-.23,4.651-4.438,5.262-3.406.492-6.694-1.019-7.956-3.432" transform="translate(-220.859 -328.731)" fill="#fff"/>
              <path id="Trazado_730038" data-name="Trazado 730038" d="M277.07,375.879s.122-.268.362-.714c.116-.226.267-.494.446-.8s.4-.631.626-.993c.112-.182.26-.351.4-.536a6.1,6.1,0,0,1,.437-.555l.5-.551c.175-.18.376-.338.565-.514l.291-.26.327-.217c.116-.075.235-.163.351-.228l.343-.173a6.086,6.086,0,0,1,1.512-.533,7.913,7.913,0,0,1,.8-.137c.269-.026.539-.022.806-.034.264.031.531.034.788.073a5.393,5.393,0,0,1,.75.17,4.219,4.219,0,0,1,.69.268,2.87,2.87,0,0,1,.613.351l.279.2c.084.074.155.157.235.231l.232.224c.069.079.122.169.182.251a4.932,4.932,0,0,1,.543.987c.078.33.189.618.225.865l.1.792s.034-.286.077-.805a7.763,7.763,0,0,0-.073-.942,4.42,4.42,0,0,0-.439-1.169c-.057-.1-.107-.211-.174-.312l-.231-.291c-.079-.1-.159-.2-.249-.3l-.3-.259a3.535,3.535,0,0,0-.677-.475,4.082,4.082,0,0,0-.782-.362,6.277,6.277,0,0,0-1.754-.359c-.3.005-.612,0-.919.021a8.465,8.465,0,0,0-.915.14,6.941,6.941,0,0,0-1.734.649l-.411.227c-.125.081-.23.168-.344.251l-.355.267-.309.3c-.2.206-.415.39-.583.6l-.479.637a10.735,10.735,0,0,0-.746,1.235,11.8,11.8,0,0,0-.8,1.982,7.32,7.32,0,0,0-.2.781" transform="translate(-220.29 -325.538)" fill="#0e1115"/>
              <path id="Trazado_730039" data-name="Trazado 730039" d="M278.633,387.851c.69-3.092,2.843-5.245,4.806-4.806,1.479.329,2.43,2.034,2.516,4.177a5.294,5.294,0,0,1-4.359,4.631,9.052,9.052,0,0,1-2.882-.054,7.821,7.821,0,0,1-.082-3.948" transform="translate(-216.86 -338.079)" fill="#34110f"/>
              <path id="Trazado_730040" data-name="Trazado 730040" d="M313.826,390.533c-.183.435.322,1.067,1.131,1.41s1.61.27,1.8-.166-.323-1.064-1.131-1.407-1.611-.271-1.8.163" transform="translate(-251.845 -344.404)" fill="#fff"/>
              <path id="Trazado_730041" data-name="Trazado 730041" d="M474.362,370.446a12.414,12.414,0,0,1,3.37-5.234c3.32-2.693,9.343-1.644,9.029,3.4,0,0-.23,4.654-4.443,5.261-3.4.492-6.691-1.017-7.956-3.43" transform="translate(-440.654 -321.115)" fill="#fff"/>
              <path id="Trazado_730042" data-name="Trazado 730042" d="M473.8,367.253s.122-.268.363-.714c.116-.226.267-.494.446-.8s.4-.63.626-.993c.112-.182.26-.35.4-.536a6.137,6.137,0,0,1,.437-.555l.5-.551c.175-.18.376-.338.565-.514l.291-.26.327-.216c.116-.075.235-.163.351-.229l.343-.174a6.091,6.091,0,0,1,1.512-.532,7.9,7.9,0,0,1,.8-.137c.269-.026.539-.022.806-.034.264.031.531.034.788.073a5.357,5.357,0,0,1,.75.17,4.216,4.216,0,0,1,.69.268,2.866,2.866,0,0,1,.613.352l.28.2c.083.074.156.157.235.231l.232.225c.069.08.122.169.182.251a4.925,4.925,0,0,1,.544.987c.078.33.189.618.225.865l.1.792s.033-.286.077-.806a7.914,7.914,0,0,0-.073-.942,4.433,4.433,0,0,0-.44-1.169c-.057-.1-.107-.211-.174-.312l-.231-.29c-.08-.1-.16-.2-.249-.3l-.3-.258a3.505,3.505,0,0,0-.677-.475,4.1,4.1,0,0,0-.782-.362,6.283,6.283,0,0,0-1.754-.359c-.3.005-.612,0-.919.022a8.337,8.337,0,0,0-.915.14,6.9,6.9,0,0,0-1.734.65l-.412.227c-.125.081-.23.168-.345.251l-.355.267-.309.3c-.2.206-.414.39-.583.6l-.479.637a10.723,10.723,0,0,0-.746,1.235,11.852,11.852,0,0,0-.8,1.982,7.39,7.39,0,0,0-.2.781" transform="translate(-440.088 -317.922)" fill="#0e1115"/>
              <path id="Trazado_730043" data-name="Trazado 730043" d="M475.39,379.232c.69-3.094,2.841-5.244,4.8-4.806,1.477.328,2.43,2.034,2.514,4.176a5.283,5.283,0,0,1-4.359,4.63,9.032,9.032,0,0,1-2.879-.053,7.8,7.8,0,0,1-.08-3.947" transform="translate(-436.685 -330.471)" fill="#34110f"/>
              <path id="Trazado_730044" data-name="Trazado 730044" d="M510.573,381.913c-.187.434.32,1.064,1.127,1.408s1.615.271,1.8-.163-.321-1.067-1.127-1.409-1.615-.27-1.8.164" transform="translate(-471.659 -336.794)" fill="#fff"/>
              <path id="Trazado_730045" data-name="Trazado 730045" d="M539.42,462.766a3.217,3.217,0,0,0,.324-.21c.089-.071.2-.145.307-.24l.331-.3.307-.322c.1-.1.176-.212.25-.3a.2.2,0,1,0-.1-.108c-.089.071-.2.145-.307.24l-.331.3-.307.322c-.1.1-.177.212-.25.3a3.189,3.189,0,0,0-.22.316" transform="translate(-502.669 -407.016)" fill="#79332d"/>
              <path id="Trazado_730046" data-name="Trazado 730046" d="M537.869,464.088s-.145.172-.336.447c-.091.14-.207.3-.313.476l-.334.559-.3.576c-.1.183-.171.365-.242.515-.135.306-.206.52-.206.52s.146-.172.336-.447c.091-.14.208-.3.313-.476l.334-.56.3-.576c.1-.184.171-.365.242-.515.134-.306.206-.52.206-.52" transform="translate(-498.994 -409.67)" fill="#79332d"/>
              <path id="Trazado_730047" data-name="Trazado 730047" d="M528.318,468.271a2.367,2.367,0,0,0-.227.239c-.058.078-.136.162-.2.263l-.206.316-.176.334c-.057.106-.092.216-.131.3a2.321,2.321,0,0,0-.1.315,2.345,2.345,0,0,0,.227-.239c.058-.078.137-.162.2-.263l.206-.317.175-.334c.056-.107.092-.216.131-.3a2.353,2.353,0,0,0,.1-.315" transform="translate(-488.404 -413.362)" fill="#79332d"/>
              <path id="Trazado_730048" data-name="Trazado 730048" d="M302.078,471.852a3.247,3.247,0,0,0-.22-.317c-.074-.087-.153-.2-.251-.3l-.307-.322-.332-.3c-.105-.1-.218-.17-.307-.24a3.128,3.128,0,0,0-.324-.209,3.164,3.164,0,0,0,.22.317c.074.086.152.2.251.3l.307.322.333.3c.105.1.218.169.307.24a3.177,3.177,0,0,0,.324.209" transform="translate(-235.553 -415.037)" fill="#79332d"/>
              <path id="Trazado_730049" data-name="Trazado 730049" d="M303.691,473.177s.071.214.205.52c.072.15.145.331.242.515l.3.576.333.559c.105.179.222.335.312.475.19.274.336.446.336.446s-.071-.214-.2-.52c-.072-.15-.145-.332-.242-.515l-.3-.576-.334-.559c-.106-.179-.222-.336-.312-.475-.19-.274-.336-.447-.336-.447" transform="translate(-239.291 -417.693)" fill="#79332d"/>
              <path id="Trazado_730050" data-name="Trazado 730050" d="M318.455,477.349a2.348,2.348,0,0,0,.1.315c.039.089.075.2.131.3l.175.334.206.316c.065.1.144.186.2.263a2.345,2.345,0,0,0,.227.239,2.329,2.329,0,0,0-.1-.315c-.039-.089-.074-.2-.131-.3l-.176-.334-.206-.316c-.065-.1-.143-.186-.2-.263a2.351,2.351,0,0,0-.227-.239" transform="translate(-255.093 -421.375)" fill="#79332d"/>
              <path id="Trazado_730051" data-name="Trazado 730051" d="M474.758,320.5s5.475-3.146,9.644-2.071c0,0,3,.65,3.109,1.626,0,0-4.86-1.064-12.754.445" transform="translate(-441.439 -280.889)" fill="#230d0d"/>
              <path id="Trazado_730052" data-name="Trazado 730052" d="M263.656,327.3s5.541-3.143,9.711-2.07c0,0,2.935.651,3.043,1.627,0,0-4.86-1.063-12.754.443" transform="translate(-205.584 -286.901)" fill="#230d0d"/>
              <path id="Trazado_730053" data-name="Trazado 730053" d="M560.4,367.51s-2.15-1.544-1.654-5.458a5.678,5.678,0,0,0,3.736,2.446Z" transform="translate(-526.252 -319.598)" fill="#0e1115"/>
              <path id="Trazado_730054" data-name="Trazado 730054" d="M256.413,369.062a4.477,4.477,0,0,0,3.671-1.656s.385,3.507-2.471,4.8a23.724,23.724,0,0,0-1.2-3.141" transform="translate(-188.426 -324.324)" fill="#0e1115"/>
              <path id="Trazado_730055" data-name="Trazado 730055" d="M375.277,547.98s-.464,5.643,5.253,6.654c5.112.905,6.071-4.748,6.071-4.748a14.9,14.9,0,0,1-4.565.868,25.233,25.233,0,0,1-6.758-2.774" transform="translate(-328.862 -483.725)" fill="#e23c43"/>
              <path id="Trazado_730056" data-name="Trazado 730056" d="M392.82,546.391s5.86-1.8,7.6,1.464c0,0-2.716.305-7.6-1.464" transform="translate(-344.739 -481.885)" fill="#e23c43"/>
              <path id="Trazado_730057" data-name="Trazado 730057" d="M386.376,546.574a28.463,28.463,0,0,1-10.737-2.006.267.267,0,0,0-.35.116c-.153.219.439,3.8,5.486,4.691,0,0,3.95.613,5.8-2.523,0,0,0-.355-.2-.277" transform="translate(-328.835 -480.689)" fill="#fff"/>
              <path id="Trazado_730058" data-name="Trazado 730058" d="M348.336,1195.314a79.275,79.275,0,0,1,7.456,11.323h-7.424a113.867,113.867,0,0,0-4.4-19.15,56.382,56.382,0,0,1-2.5-9.374,19.378,19.378,0,0,0,17.927,6.881c12.588-1.854,21.588-6.124,26.878-3.989,0,0-15.876,2.4-20.375,6.369s-12.9,7.939-17.562,7.939" transform="translate(-324.572 -1039.969)" fill="#cc740f"/>
              <path id="Trazado_730059" data-name="Trazado 730059" d="M87.489,45.476s2.1,2.82,2.841,3.088,3.186-13.491,3.09-18.254c0,0,15.743,2.646,21.781-6.219,0,0,9.625,13.028,18.418,15.512l.267,7.4s3.269-3.569,5.565-3.646c0,0,8.778-4.1,6.107-10.531,0,0,7.6-1.058,7.567-6.607-.015-2.561-2.116-7.152-9.13-7.948,0,0,8.466-10.892-8.281-7.8,0,0-17.59-13.319-25.725-9.91l-1.854,1.882a11.47,11.47,0,0,0-4.275-.527c-1.854.264-15.913.749-19.745,20.992,0,0-16.723,13.835-6.406,19.752,0,0-7.407,10.256,5.877,10.2,0,0-2.834-9.77,3.9-7.371" transform="translate(-60.101 0.005)" fill="#230d0d"/>
              <path id="Trazado_730060" data-name="Trazado 730060" d="M242.727.554l-1.854,1.882a11.471,11.471,0,0,0-4.275-.527,19.7,19.7,0,0,0-13.762,7.118c5.757-3.811,13.145-6.834,18.7-2.665,0,0,.968-2.778,3.18-2.778,3.8,0,13.872,1.576,23.732,6.88,0,0-17.59-13.319-25.725-9.91" transform="translate(-192.84 0.004)" fill="#341313"/>
              <path id="Trazado_730061" data-name="Trazado 730061" d="M217.555,88.453c.385.206.581.151.619-.108-.2.034-.408.068-.619.108" transform="translate(-141.943 -77.985)" fill="#341313"/>
              <path id="Trazado_730062" data-name="Trazado 730062" d="M670.75,279s-7.407,10.256,5.877,10.2a15.78,15.78,0,0,1-.57-4.626c-5.757-2.622-2.131-8.619-2.131-8.619-5.075-.06-5.187-4.5-4.393-8.212-2.519,4-3.6,8.5,1.217,11.262" transform="translate(-653.142 -236.34)" fill="#140a0a"/>
              <path id="Trazado_730063" data-name="Trazado 730063" d="M183.313,149.718s3.269-3.568,5.565-3.646c0,0,5.5-2.572,6.464-6.834-15.8,10.567-30.133-22.881-30.133-22.881C162,134.086,135.835,128,135.835,128c1.914,4.114,7.954,5.148,8.016,5.16,3.561.406,15.657,1.164,20.777-6.352,0,0,9.625,13.028,18.418,15.512Z" transform="translate(-109.528 -102.713)" fill="#140a0a"/>
              <path id="Trazado_730064" data-name="Trazado 730064" d="M89.4,163.78c-.015-2.561-2.116-7.152-9.13-7.948,0,0-6.148.8-5.918,2.647s19.676,2.994,10.217,11.155c2.176-.846,4.851-2.558,4.832-5.854" transform="translate(3.623 -137.559)" fill="#341313"/>
            </g>
          </g>
        </g>
      </g>
    </g>
    <g id="Elipse_5892" data-name="Elipse 5892" transform="translate(-7188 -10896)" fill="none" stroke="#f1cc4b" stroke-width="9">
      <circle cx="95" cy="95" r="95" stroke="none"/>
      <circle cx="95" cy="95" r="90.5" fill="none"/>
    </g>
  </g>
</svg>
