<svg xmlns="http://www.w3.org/2000/svg" xmlns:xlink="http://www.w3.org/1999/xlink" width="190" height="376" viewBox="0 0 190 376">
  <defs>
    <clipPath id="clip-path">
      <rect id="Rectángulo_342517" data-name="Rectángulo 342517" width="190" height="376" transform="translate(285 8752)" fill="#fff" stroke="#707070" stroke-width="1"/>
    </clipPath>
    <clipPath id="clip-path-2">
      <rect id="Rectángulo_341021" data-name="Rectángulo 341021" width="253" height="370.524" fill="none"/>
    </clipPath>
    <clipPath id="clip-path-3">
      <rect id="Rectángulo_341020" data-name="Rectángulo 341020" width="253" height="370.525" fill="none"/>
    </clipPath>
    <clipPath id="clip-path-4">
      <rect id="Rectángulo_341017" data-name="Rectángulo 341017" width="12.714" height="19.21" fill="none"/>
    </clipPath>
    <clipPath id="clip-path-5">
      <rect id="Rectángulo_341018" data-name="Rectángulo 341018" width="12.711" height="19.215" fill="none"/>
    </clipPath>
    <clipPath id="clip-path-6">
      <rect id="Rectángulo_341019" data-name="Rectángulo 341019" width="125.479" height="59.223" fill="none"/>
    </clipPath>
  </defs>
  <g id="Enmascarar_grupo_927273" data-name="Enmascarar grupo 927273" transform="translate(-285 -8752)" clip-path="url(#clip-path)">
    <g id="Grupo_971718" data-name="Grupo 971718" transform="translate(201 8757.896)">
      <g id="Grupo_965388" data-name="Grupo 965388" clip-path="url(#clip-path-2)">
        <g id="Grupo_965387" data-name="Grupo 965387" transform="translate(0 -0.001)">
          <g id="Grupo_965386" data-name="Grupo 965386" clip-path="url(#clip-path-3)">
            <path id="Trazado_729972" data-name="Trazado 729972" d="M779.7,937.653c.288,5.367.977,11.319,1.947,17.61h24.807c-2.01-11.788-3.384-19.075-3.384-19.075,0-8.73-10.018-106.747-15.908-125.6s-40.064-22.428-40.064-22.428-4.125,51.891,3.536,70.643S779.7,937.653,779.7,937.653" transform="translate(-553.449 -584.737)" fill="#f19367"/>
            <path id="Trazado_729973" data-name="Trazado 729973" d="M42.819,955.262c5.694-45.8,11.545-89.784,14.576-103.43,7.069-31.821,3.571-63.675,3.571-63.675s-32.439,1.808-38.923,38.925c-3.107,17.811-4.726,73.469-5.567,128.18Z" transform="translate(-12.224 -584.737)" fill="#f19367"/>
            <path id="Trazado_729974" data-name="Trazado 729974" d="M18.753,1236.614c9.876,1.974,22.747,3,29.343,3.42.608-4.721,1.209-9.346,1.8-13.842L19.423,1210.3c-.251,8.461-.476,17.295-.669,26.317" transform="translate(-13.913 -897.924)" fill="#bd502a"/>
            <path id="Trazado_729975" data-name="Trazado 729975" d="M35.486,989.435c-5.185.646-22.117-3.244-27.892-4.631,10.3,11.942,39.12,11,39.12,11,4.158-16.013,6.832-49.183,6.832-49.183V889.184c-10.295,24.982-28.9,69.131-25.914,67.471,3.142-1.751,14.53-4.535,14.53-4.535S34.7,969.4,32.107,972.94s9.665,15.712,3.379,16.495" transform="translate(-5.634 -659.689)" fill="#7a94a1"/>
            <path id="Trazado_729976" data-name="Trazado 729976" d="M836.726,1199.125c7.273.4,17.949.313,26.374-2.565-.9-10.138-2.428-25.36-4.255-41.5l-30.809,20.012c3.3,9.069,6.4,17.671,8.69,24.051" transform="translate(-614.324 -856.945)" fill="#bd502a"/>
            <path id="Trazado_729977" data-name="Trazado 729977" d="M773.277,988.522c-.92-2.357,16.635-34.561,18.6-47.523s-2.358-8.645-2.358-8.645c-6.285,19.246-21.21,34.956-21.21,34.956s5.5-27.1,5.5-31.809-19.638-45.959-19.638-45.959l-4.8,12.488-3.381,47.734,21.532,45.765a43.846,43.846,0,0,0,20.525-1.685c-5.968-1.51-14.185-3.834-14.769-5.323" transform="translate(-553.454 -659.954)" fill="#7a94a1"/>
            <path id="Trazado_729978" data-name="Trazado 729978" d="M329.574,643.659c-.643-2.965-1.325-4.778-1.941-5.112-4.32-2.353-53.026-16.5-53.026-16.5-2.75-4.709-2.93-29.064-2.93-29.064l-20.727-7.748v-.114l-.154.057-.149-.057v.114l-20.729,7.748s-.18,24.354-2.927,29.064c0,0-48.707,14.143-53.028,16.5-.616.333-1.254,2.146-1.834,5.112Z" transform="translate(-127.704 -434.107)" fill="#e57a4e"/>
            <path id="Trazado_729979" data-name="Trazado 729979" d="M425.647,618.514a29.294,29.294,0,0,0,12.079-5.957c-.883-8.635-.963-19.569-.963-19.569l-20.727-7.749v-.114l-.154.057-.149-.057v.114L395,592.989s-.038,5.315-.359,11.456c6.993,4.941,23.2,15.584,31,14.069" transform="translate(-292.789 -434.108)" fill="#bd502a"/>
            <path id="Trazado_729980" data-name="Trazado 729980" d="M41.08,871.533c2.487-9.573,4.439-25.27,5.611-36.353a187.125,187.125,0,0,0,6.435,21.834s1.709,30.166,3.753,48.934h132.79c-.3-12.751-.313-24.17.147-32.434,0,0,4.92-16.271,9.218-34.472L214.068,871c22.269,3.564,38.492-11.829,38.492-11.829s-6.743-86.39-14.138-98.615c-9.994-16.528-39.664-21.378-39.78-21.4l-52.408-17.47s-21.836,24.624-46.279,0L45.172,738.843s-.045.207-.114.544C-.975,743.773,3.34,814.5,3.34,814.5L0,857.7c7.857,14.927,41.08,13.833,41.08,13.833" transform="translate(0 -535.423)" fill="#95b1c1"/>
            <path id="Trazado_729981" data-name="Trazado 729981" d="M189.3,1224.163h30.756c.968-2.163,1.529-3.465,1.529-3.465-10.214-14.145-30.659-42.814-30.659-42.814,5.377,2.65,87.221,31.031,91.932,30.638s4.714-2.36,4.714-2.36c-21.342-4-89.1-43.664-109.083-55.558a188.744,188.744,0,0,0,7.057,24.625s1.709,30.166,3.753,48.934" transform="translate(-132.425 -853.638)" fill="#7a94a1"/>
            <path id="Trazado_729982" data-name="Trazado 729982" d="M664.732,356.849s5.287-9.282,13.518-9.414c4.889-.075,3.443,20-1.593,25.186s-12.368,3.46-14-1.134Z" transform="translate(-491.63 -257.762)" fill="#f19367"/>
            <g id="Grupo_965379" data-name="Grupo 965379" transform="translate(174.23 94.309)" opacity="0.4">
              <g id="Grupo_965378" data-name="Grupo 965378">
                <g id="Grupo_965377" data-name="Grupo 965377" clip-path="url(#clip-path-4)">
                  <path id="Trazado_729983" data-name="Trazado 729983" d="M675.063,384.156s6.147,2.163,8.8-2.96,5.227-11.279,3.173-15.8c0,0-5.668,1.318-10.908,11.894,0,0,3.841,4.776-1.063,6.863" transform="translate(-675.063 -365.399)" fill="#c6442b"/>
                </g>
              </g>
            </g>
            <path id="Trazado_729984" data-name="Trazado 729984" d="M686.156,370.4c-.054-.969-.108-1.936-.215-2.893a13.117,13.117,0,0,0-.542-2.763,1.339,1.339,0,0,0-.288-.484c-.124-.053-.048-.072-.253.033l-.642.339-.556.4c-.367.253-.739.531-1.108.842s-.753.576-1.092.914l-1.045.972c-.348.323-.652.691-.982,1.035-.313.357-.666.68-.948,1.063s-.6.736-.9,1.105a25.146,25.146,0,0,0-1.628,2.325,10.329,10.329,0,0,0-.667,1.246l-.632,1.267-.077-.47a8.746,8.746,0,0,1,1.178,2.13,5.68,5.68,0,0,1,.322,1.182,3.542,3.542,0,0,1,.059.618,3.71,3.71,0,0,1-.034.625,4.217,4.217,0,0,1-.144.612l-.267.569-.38.489a3.117,3.117,0,0,1-.451.4,5.01,5.01,0,0,1-1.011.618c-.362.148-.741.25-1.1.374.343-.182.69-.346,1.018-.537a4.8,4.8,0,0,0,.88-.7,2.745,2.745,0,0,0,.36-.411l.278-.461a3.589,3.589,0,0,0,.241-1.022,3.228,3.228,0,0,0-.011-.527,2.925,2.925,0,0,0-.09-.526,5.1,5.1,0,0,0-.362-1.018,8.042,8.042,0,0,0-1.188-1.823l-.192-.222.115-.249.63-1.349a11.19,11.19,0,0,1,.669-1.327,26.079,26.079,0,0,1,1.64-2.471c.306-.386.6-.783.918-1.162s.675-.718,1.01-1.08c.349-.348.674-.72,1.043-1.046l1.106-.979c.357-.338.77-.616,1.156-.922a9.013,9.013,0,0,1,1.245-.858l.66-.394.665-.29a.97.97,0,0,1,.534-.108.882.882,0,0,1,.541.27,1.964,1.964,0,0,1,.411.776,10.178,10.178,0,0,1,.306,2.965,25.963,25.963,0,0,1-.179,2.914" transform="translate(-499.12 -269.656)" fill="#874237"/>
            <path id="Trazado_729985" data-name="Trazado 729985" d="M698.1,386.838a2,2,0,0,0-.26-.227,8.3,8.3,0,0,0-.678-.481c-.153-.073-.322-.138-.481-.225a2.064,2.064,0,0,0-.542-.187,4.273,4.273,0,0,0-.585-.153l-.633-.058a1.6,1.6,0,0,0-.642-.025c-.216.024-.432.015-.642.023a3.857,3.857,0,0,0-.613.023c-.194.037-.382.058-.557.077a8,8,0,0,1-1.227.057,6.649,6.649,0,0,1,1.055-.662c.166-.089.349-.183.548-.27a2.351,2.351,0,0,1,.659-.181c.236-.04.48-.1.733-.125a2.125,2.125,0,0,1,.776-.009l.784.12a3.145,3.145,0,0,1,.718.3,3.217,3.217,0,0,1,1.069.832,2.924,2.924,0,0,1,.445.836,1.139,1.139,0,0,1,.074.338" transform="translate(-512.833 -285.176)" fill="#874237"/>
            <path id="Trazado_729986" data-name="Trazado 729986" d="M339.2,249.639s24.885-11.951,33.455-25.377c7.043-9.422,12.846-57.461,13.655-64.916.026-.251.055-.495.081-.739s.038-.369.038-.369l-.012.007c.134-1.541.22-3.1.22-4.676a52.078,52.078,0,0,0-104.156,0,52.776,52.776,0,0,0,.3,5.536h0s5.973,54.838,13.691,65.157c9.069,15.39,33.454,25.377,33.454,25.377a15.447,15.447,0,0,0,9.284,0" transform="translate(-209.575 -75.297)" fill="#f19367"/>
            <path id="Trazado_729987" data-name="Trazado 729987" d="M248.369,365.345s-5.287-9.28-13.517-9.41c-4.888-.073-3.442,20,1.592,25.183s12.37,3.455,14-1.134Z" transform="translate(-172.004 -264.069)" fill="#f19367"/>
            <g id="Grupo_965382" data-name="Grupo 965382" transform="translate(62.525 96.498)" opacity="0.4">
              <g id="Grupo_965381" data-name="Grupo 965381">
                <g id="Grupo_965380" data-name="Grupo 965380" clip-path="url(#clip-path-5)">
                  <path id="Trazado_729988" data-name="Trazado 729988" d="M254.966,392.644s-6.146,2.16-8.794-2.963-5.228-11.279-3.173-15.8c0,0,5.668,1.32,10.907,11.9,0,0-3.841,4.766,1.06,6.863" transform="translate(-242.255 -373.881)" fill="#c6442b"/>
                </g>
              </g>
            </g>
            <path id="Trazado_729989" data-name="Trazado 729989" d="M241.374,378.875a26.051,26.051,0,0,1-.179-2.915,10.231,10.231,0,0,1,.307-2.966,1.989,1.989,0,0,1,.412-.777.886.886,0,0,1,.542-.27.965.965,0,0,1,.534.109l.665.291.66.394a9.013,9.013,0,0,1,1.245.858c.386.306.8.584,1.156.923l1.106.979c.37.327.694.7,1.044,1.046.335.362.707.689,1.01,1.08l.918,1.165a26.314,26.314,0,0,1,1.638,2.472,11.189,11.189,0,0,1,.669,1.329l.629,1.35.116.248-.192.221a8,8,0,0,0-1.188,1.822,5.032,5.032,0,0,0-.362,1.019,2.919,2.919,0,0,0-.09.526,2.974,2.974,0,0,0-.011.527,3.558,3.558,0,0,0,.242,1.022l.278.461a2.784,2.784,0,0,0,.361.411,4.833,4.833,0,0,0,.879.7c.328.19.675.355,1.018.537-.363-.124-.741-.226-1.1-.375a5.063,5.063,0,0,1-1.011-.617,3.16,3.16,0,0,1-.45-.4l-.381-.489-.267-.568a4.1,4.1,0,0,1-.145-.612,3.552,3.552,0,0,1-.034-.624,3.589,3.589,0,0,1,.058-.618,5.684,5.684,0,0,1,.323-1.182,8.752,8.752,0,0,1,1.178-2.129l-.077.469-.632-1.268a10.321,10.321,0,0,0-.666-1.247,24.985,24.985,0,0,0-1.627-2.328c-.3-.369-.607-.729-.9-1.105s-.634-.707-.948-1.064-.633-.712-.982-1.036l-1.045-.972c-.338-.338-.727-.611-1.091-.915s-.742-.588-1.108-.843l-.556-.4-.643-.341c-.2-.106-.13-.086-.253-.033a1.323,1.323,0,0,0-.288.484,13.062,13.062,0,0,0-.544,2.764c-.107.958-.16,1.924-.215,2.895" transform="translate(-178.943 -275.942)" fill="#874237"/>
            <path id="Trazado_729990" data-name="Trazado 729990" d="M248.758,395.329a1.14,1.14,0,0,1,.074-.338,2.921,2.921,0,0,1,.445-.835,3.2,3.2,0,0,1,1.069-.832,3.16,3.16,0,0,1,.717-.3l.783-.119a2.131,2.131,0,0,1,.776.009c.252.026.5.086.733.126a2.336,2.336,0,0,1,.659.181c.2.087.381.181.548.27a6.611,6.611,0,0,1,1.054.661,8.007,8.007,0,0,1-1.226-.057c-.176-.019-.364-.04-.558-.078a3.839,3.839,0,0,0-.612-.023c-.21-.008-.426,0-.641-.024a1.6,1.6,0,0,0-.641.025l-.634.058a4.246,4.246,0,0,0-.583.152,2.08,2.08,0,0,0-.542.187c-.16.088-.329.153-.482.226a8.219,8.219,0,0,0-.677.48,1.974,1.974,0,0,0-.26.226" transform="translate(-184.555 -291.477)" fill="#874237"/>
            <path id="Trazado_729991" data-name="Trazado 729991" d="M501.455,482.271s0,9.185-1.877,10.17.1-5.328,1.877-10.17" transform="translate(-370.076 -357.798)" fill="#521b14"/>
            <path id="Trazado_729992" data-name="Trazado 729992" d="M452.876,527.047s-11.478.677-25.924-4.835a.639.639,0,0,0-.843.272c-.362.534-.341,7.886,13.241,11.324,0,0,9.533,1.479,14-6.089,0,0-.007-.856-.472-.672" transform="translate(-316.064 -387.383)" fill="#6f0b17"/>
            <path id="Trazado_729993" data-name="Trazado 729993" d="M427.755,533.619c.968,2.473,3.848,6.077,11.691,8.33-.663-2.877-3.11-9.135-11.691-8.33" transform="translate(-317.354 -395.841)" fill="#e24464"/>
            <path id="Trazado_729994" data-name="Trazado 729994" d="M528.353,364.972s2.324-7.462,7.5-11.653c7.393-6,20.807-3.664,20.1,7.572,0,0-.512,10.359-9.885,11.717-7.583,1.1-14.9-2.267-17.716-7.637" transform="translate(-391.988 -259.746)" fill="#fff"/>
            <path id="Trazado_729995" data-name="Trazado 729995" d="M528.353,362.257a16.4,16.4,0,0,1,.443-1.739,26.471,26.471,0,0,1,1.776-4.411,23.873,23.873,0,0,1,1.66-2.751l1.066-1.417c.375-.478.858-.888,1.3-1.345l.687-.678.791-.594c.256-.186.489-.38.767-.56l.917-.506a15.407,15.407,0,0,1,3.86-1.446,18.5,18.5,0,0,1,2.037-.312c.683-.055,1.37-.036,2.046-.048a14.013,14.013,0,0,1,3.906.8,9.087,9.087,0,0,1,1.74.806,7.785,7.785,0,0,1,1.508,1.056l.671.576c.2.211.377.44.555.658l.514.646c.149.225.261.469.387.694a9.84,9.84,0,0,1,.979,2.6,17.447,17.447,0,0,1,.162,2.1c-.1,1.158-.171,1.794-.171,1.794l-.221-1.763c-.081-.551-.327-1.192-.5-1.925a10.946,10.946,0,0,0-1.21-2.2c-.136-.183-.254-.382-.406-.559l-.517-.5c-.178-.165-.337-.351-.524-.515l-.623-.438a6.4,6.4,0,0,0-1.364-.783,9.415,9.415,0,0,0-1.535-.6,12.048,12.048,0,0,0-1.67-.378c-.572-.087-1.167-.092-1.754-.162-.595.027-1.2.018-1.795.076a17.692,17.692,0,0,0-1.785.305,13.57,13.57,0,0,0-3.367,1.186l-.763.386c-.26.147-.523.342-.782.509l-.727.482-.647.58c-.422.391-.87.743-1.259,1.145l-1.1,1.226a13.669,13.669,0,0,0-.974,1.236c-.3.412-.629.787-.88,1.193-.5.807-1.021,1.524-1.394,2.211-.4.673-.735,1.27-.993,1.772-.535.995-.807,1.591-.807,1.591" transform="translate(-391.988 -257.031)" fill="#0e1115"/>
            <path id="Trazado_729996" data-name="Trazado 729996" d="M570.087,371.645c1.534-6.888,6.326-11.674,10.7-10.7,3.292.738,5.407,4.535,5.6,9.3-.518,2.878-2.479,9.267-9.7,10.311a20,20,0,0,1-6.411-.121,17.334,17.334,0,0,1-.182-8.787" transform="translate(-422.599 -267.691)" fill="#1d4b78"/>
            <path id="Trazado_729997" data-name="Trazado 729997" d="M573,368.918c-.412.968.712,2.371,2.514,3.133s3.59.606,4-.36-.714-2.375-2.513-3.137-3.59-.6-4,.364" transform="translate(-425.05 -273.074)" fill="#fff"/>
            <path id="Trazado_729998" data-name="Trazado 729998" d="M329.332,356.244s2.326-7.459,7.5-11.653c7.393-6,20.807-3.657,20.1,7.577,0,0-.511,10.359-9.885,11.717-7.583,1.091-14.9-2.269-17.716-7.642" transform="translate(-244.333 -253.272)" fill="#fff"/>
            <path id="Trazado_729999" data-name="Trazado 729999" d="M329.332,353.531a16.51,16.51,0,0,1,.444-1.739,26.475,26.475,0,0,1,1.776-4.412,23.994,23.994,0,0,1,1.66-2.751l1.065-1.418c.376-.478.857-.888,1.3-1.345l.687-.679.791-.594c.255-.185.488-.379.767-.56l.916-.505a15.378,15.378,0,0,1,3.862-1.446,18.744,18.744,0,0,1,2.037-.312c.683-.054,1.37-.035,2.046-.046a13.964,13.964,0,0,1,3.906.8,9.067,9.067,0,0,1,1.74.806,7.8,7.8,0,0,1,1.508,1.056q.339.292.672.576c.2.211.377.44.554.658l.514.647c.15.224.261.469.387.694a9.85,9.85,0,0,1,.98,2.6,17.456,17.456,0,0,1,.162,2.1c-.1,1.158-.171,1.794-.171,1.794l-.221-1.763c-.081-.551-.327-1.192-.5-1.926a10.968,10.968,0,0,0-1.209-2.2c-.135-.182-.253-.382-.406-.56l-.517-.5c-.177-.165-.337-.352-.524-.515l-.623-.439a6.421,6.421,0,0,0-1.364-.783,9.414,9.414,0,0,0-1.535-.6,12.052,12.052,0,0,0-1.669-.38c-.572-.087-1.167-.092-1.754-.162-.595.026-1.2.016-1.8.075a17.768,17.768,0,0,0-1.785.3,13.553,13.553,0,0,0-3.367,1.186l-.763.387c-.26.146-.523.341-.782.508l-.727.482-.647.58c-.422.391-.869.743-1.259,1.145l-1.1,1.226a13.77,13.77,0,0,0-.973,1.237c-.3.412-.63.788-.88,1.193-.5.807-1.021,1.524-1.393,2.211-.4.673-.736,1.27-.993,1.772-.536.995-.807,1.591-.807,1.591" transform="translate(-244.333 -250.559)" fill="#0e1115"/>
            <path id="Trazado_730000" data-name="Trazado 730000" d="M371.069,362.93c1.537-6.882,6.326-11.672,10.7-10.695,3.292.731,5.41,4.524,5.6,9.3-.521,2.871-2.478,9.26-9.705,10.309a20.2,20.2,0,0,1-6.412-.121,17.422,17.422,0,0,1-.182-8.793" transform="translate(-274.948 -261.23)" fill="#1d4b78"/>
            <path id="Trazado_730001" data-name="Trazado 730001" d="M373.987,360.188c-.414.968.712,2.371,2.514,3.133s3.59.606,4-.357-.712-2.373-2.513-3.135-3.59-.606-4,.36" transform="translate(-277.399 -266.597)" fill="#fff"/>
            <path id="Trazado_730002" data-name="Trazado 730002" d="M355.573,443.574a7.2,7.2,0,0,1,.49-.7c.165-.193.338-.437.558-.665l.684-.716.739-.66c.234-.212.485-.377.683-.534a6.891,6.891,0,0,1,.722-.466,7.049,7.049,0,0,1-.49.705c-.165.193-.338.438-.558.665l-.685.716-.739.66c-.235.211-.485.377-.683.535a7.12,7.12,0,0,1-.721.466" transform="translate(-263.801 -326.309)" fill="#79332d"/>
            <path id="Trazado_730003" data-name="Trazado 730003" d="M362.813,442.871s-.158.477-.458,1.158c-.16.334-.323.738-.539,1.146l-.674,1.284c-.252.424-.5.848-.742,1.245s-.495.748-.7,1.059c-.424.611-.748.995-.748.995s.158-.477.457-1.158c.16-.335.322-.739.539-1.148l.674-1.282.742-1.246c.236-.4.5-.748.7-1.058.424-.611.748-1,.748-1" transform="translate(-266.311 -328.567)" fill="#79332d"/>
            <path id="Trazado_730004" data-name="Trazado 730004" d="M376.214,447.088a5.234,5.234,0,0,1-.218.7c-.087.2-.167.441-.292.678l-.391.745-.458.7c-.143.226-.319.414-.448.586a5.178,5.178,0,0,1-.506.533,5.15,5.15,0,0,1,.218-.7c.087-.2.165-.441.292-.678l.391-.744.458-.706c.145-.225.319-.414.449-.586a5.179,5.179,0,0,1,.5-.533" transform="translate(-277.399 -331.696)" fill="#79332d"/>
            <path id="Trazado_730005" data-name="Trazado 730005" d="M601.277,452.759a7.225,7.225,0,0,1-.722-.465c-.2-.159-.449-.323-.684-.535l-.74-.659-.685-.715c-.22-.227-.394-.472-.558-.665a7.022,7.022,0,0,1-.49-.7,6.991,6.991,0,0,1,.722.464c.2.159.45.323.684.535l.74.659c.232.244.466.487.685.716s.394.471.559.665a7.143,7.143,0,0,1,.49.7" transform="translate(-443.213 -333.126)" fill="#79332d"/>
            <path id="Trazado_730006" data-name="Trazado 730006" d="M594.1,452.058s.323.384.748.995c.2.31.461.66.7,1.058l.743,1.245.674,1.283c.218.408.38.812.539,1.147.3.68.457,1.157.457,1.157s-.324-.384-.748-.995c-.2-.311-.462-.66-.7-1.058l-.742-1.245-.674-1.283c-.216-.409-.379-.812-.539-1.147-.3-.68-.458-1.157-.458-1.157" transform="translate(-440.765 -335.383)" fill="#79332d"/>
            <path id="Trazado_730007" data-name="Trazado 730007" d="M585.14,456.277a5.284,5.284,0,0,1,.5.532c.13.172.3.361.449.586l.458.7c.132.253.266.506.391.743s.2.48.292.677a5.09,5.09,0,0,1,.217.7,5.231,5.231,0,0,1-.505-.531c-.129-.173-.3-.36-.448-.586l-.458-.7c-.132-.254-.265-.507-.39-.744s-.2-.48-.292-.676a5.243,5.243,0,0,1-.218-.7" transform="translate(-434.118 -338.513)" fill="#79332d"/>
            <path id="Trazado_730008" data-name="Trazado 730008" d="M325.544,285.133s14.614-11.28,23.9-8.88c0,0,4.263,5.725,4.5,7.895,0,0-10.825-2.372-28.4.985" transform="translate(-241.523 -204.705)" fill="#2a1816"/>
            <path id="Trazado_730009" data-name="Trazado 730009" d="M534.606,292.021s14.614-11.279,23.9-8.886c0,0,4.262,5.723,4.5,7.9,0,0-10.82-2.373-28.4.99" transform="translate(-396.627 -209.811)" fill="#2a1816"/>
            <path id="Trazado_730010" data-name="Trazado 730010" d="M345.49,517.386a15.56,15.56,0,0,0,7.6.438c-34.88-11.641-49.618-55.439-49.618-55.439h0c2.324,12.834,5.288,25.241,8.565,29.625,9.068,15.39,33.454,25.377,33.454,25.377" transform="translate(-225.147 -343.044)" fill="#df7549"/>
            <path id="Trazado_730011" data-name="Trazado 730011" d="M245.151,99.873s5.342-15.238,7.316-25.5,4.283-22.639,9.22-24.418,31.118,9.492,39.607,11.18c24.021,4.795,35-7.843,35-7.843s8.671,13.97,7.258,21.082-.9,19.181,1.607,21.735l4.674-4.238s9.63-29.5,7.028-37.788c0,0-3.334-14.47-8.539-19.6,0,0,6.861-13.579-7.329-18.961A144.289,144.289,0,0,0,298.655.356C274.79-3.99,245.75,32.768,245.75,32.768s-11.632,5.508-16,15.776c-3.025,7.11,4.366,43.321,4.366,43.321s9.547,4.07,11.033,8.008" transform="translate(-169.915 0.002)" fill="#2a1816"/>
            <path id="Trazado_730012" data-name="Trazado 730012" d="M427.5,522.224a.625.625,0,0,0-.745.161c5.4,6.953,21.78,7.173,22.951,7.069.656-.049,1.131-1.292,1.425-2.38a72.537,72.537,0,0,1-23.631-4.849" transform="translate(-316.612 -387.395)" fill="#fff"/>
            <path id="Trazado_730013" data-name="Trazado 730013" d="M402.96,20.188a14.686,14.686,0,0,0-6.723-4.678A144.293,144.293,0,0,0,353.9.354C334.206-3.234,311,21.161,303.49,29.8,324.163,14.03,332.285,10.031,338.8,7.073S384.721,31.068,398.8,26.192c4.068-1.408,4.951-3.6,4.165-6" transform="translate(-225.161 0.003)" fill="#3d2322"/>
            <g id="Grupo_965385" data-name="Grupo 965385" transform="translate(59.11 40.651)" opacity="0.6">
              <g id="Grupo_965384" data-name="Grupo 965384">
                <g id="Grupo_965383" data-name="Grupo 965383" clip-path="url(#clip-path-6)">
                  <path id="Trazado_730014" data-name="Trazado 730014" d="M345.47,195.35c3.853-29.6-6.517-45.945-28.54-33.8s-41.373-3.557-53.305-3.557-8.067,19.217-20.8,34.683c-9.778,11.873-9.672-18.758-9.1-33.634a25.535,25.535,0,0,0-3.973,6.359c-3.025,7.11,4.366,43.321,4.366,43.321s9.546,4.07,11.033,8.008c0,0,5.342-15.238,7.316-25.5s4.283-22.639,9.22-24.419,31.118,9.493,39.607,11.18c24.021,4.795,35-7.843,35-7.843s8.671,13.97,7.258,21.082-.9,19.181,1.607,21.734l4.674-4.238s2.551-7.824,4.674-16.543c-7.159,13.258-9.034,3.174-9.034,3.174" transform="translate(-229.025 -157.503)" fill="#170e0d"/>
                </g>
              </g>
            </g>
          </g>
        </g>
      </g>
    </g>
  </g>
</svg>
