<svg xmlns="http://www.w3.org/2000/svg" width="154" height="154" viewBox="0 0 154 154">
  <g id="Grupo_972250" data-name="Grupo 972250" transform="translate(-461 -1476)">
    <circle id="Elipse_5949" data-name="Elipse 5949" cx="77" cy="77" r="77" transform="translate(461 1476)" fill="#adc46c"/>
    <g id="save_the_world-earth_day-ecology-protect-hand" data-name="save the world-earth day-ecology-protect-hand" transform="translate(494 1507)">
      <path id="Trazado_736468" data-name="Trazado 736468" d="M57.773,42a2.926,2.926,0,1,1,0,5.852h-5.6A31.7,31.7,0,0,0,54.028,42Z" transform="translate(21.838 18.519)" fill="#ffc477"/>
      <path id="Trazado_736469" data-name="Trazado 736469" d="M14.529,47.852h-5.6a2.926,2.926,0,1,1,0-5.852h3.745a31.7,31.7,0,0,0,1.858,5.852Z" transform="translate(0.463 18.519)" fill="#ffc477"/>
      <path id="Trazado_736470" data-name="Trazado 736470" d="M66.48,64.165,69.815,67.5A33.648,33.648,0,0,1,9,47.648a33.129,33.129,0,0,1,1.2-8.895l4.447,5.706a1.5,1.5,0,0,0,.5.41l.234.117,6.13,3.072a1.463,1.463,0,0,0,2.121-1.317V44.049a1.219,1.219,0,0,0-.044-.322v-.015a1.413,1.413,0,0,0-.614-.892l-2.224-1.492-.849-.556a1.482,1.482,0,0,1-.658-1.229v-2.4a1.463,1.463,0,0,1,1.171-1.434l5.954-1.185a1.556,1.556,0,0,0,.366-.132L32.1,31.717a1.349,1.349,0,0,0,.512-.439l3.877-5.164a1.472,1.472,0,0,1,.8-.541l4.8-1.2a1.366,1.366,0,0,0,.863-.6l1.361-2.034a1.5,1.5,0,0,0,.249-.834,1.478,1.478,0,0,0-1.229-1.419l-5.823-.98h-.029a1.4,1.4,0,0,1-1.024-.731l-.7-1.244-.907-1.609a33.557,33.557,0,0,1,26.041,4.462l-.322.219a1.45,1.45,0,0,1-.8.249H53.679a1.482,1.482,0,0,0-1.229.658l-1.682,2.516a1.463,1.463,0,0,0,.41,2.019l.863.571,1.77,1.185a1.451,1.451,0,0,0,1.17.2l4.7-1.17a1.422,1.422,0,0,1,1.009.117l4.608,2.3a1.463,1.463,0,0,0,1.463-.088L68.952,26.7q.636.79,1.229,1.624a31.436,31.436,0,0,1,3.233,5.72L68,37.129a1.555,1.555,0,0,1-1.024.176l-6.5-1.3a1.6,1.6,0,0,1-.512-.219l-3.789-2.516a1.45,1.45,0,0,0-.8-.249H50.753a1.482,1.482,0,0,0-1.229.658l-2.136,3.189a1.5,1.5,0,0,0-.19,1.17l1.083,4.4a1.485,1.485,0,0,0,1.083,1.068l.307.073,4.272,1.039a1.374,1.374,0,0,0,.8-.029l3.145-1.024a1.463,1.463,0,0,1,1.478.366l1.916,1.916a1.491,1.491,0,0,1,.38.98v4.725a1.505,1.505,0,0,0,.293.878l3.8,5.062a1.505,1.505,0,0,1,.293.878v4.769a1.476,1.476,0,0,0,.424,1.024Z" transform="translate(1.852 5.556)" fill="#5aaae7"/>
      <path id="Trazado_736471" data-name="Trazado 736471" d="M23.074,36.1V38.8a1.463,1.463,0,0,1-2.121,1.317l-6.364-3.189a1.5,1.5,0,0,1-.5-.41l-.731-.936,6.13,3.072a1.463,1.463,0,0,0,2.121-1.317V34.642a1.219,1.219,0,0,0-.044-.322l.849.556A1.482,1.482,0,0,1,23.074,36.1Z" transform="translate(3.87 14.963)" fill="#3d9ae2"/>
      <path id="Trazado_736472" data-name="Trazado 736472" d="M27.992,17.02l-.7-1.244c.176-.059.366-.1.556-.146l1.2,2.121h-.029a1.4,1.4,0,0,1-1.024-.731Z" transform="translate(10.319 6.31)" fill="#3d9ae2"/>
      <path id="Trazado_736473" data-name="Trazado 736473" d="M42.538,21.017,41.178,23.05a1.366,1.366,0,0,1-.863.6l-4.8,1.2a1.472,1.472,0,0,0-.8.541l-3.877,5.164a1.349,1.349,0,0,1-.512.439l-5.369,2.677a1.556,1.556,0,0,1-.366.132l-5.954,1.185a1.463,1.463,0,0,0-1.17,1.434v2.4a1.219,1.219,0,0,0,.044.322l-.849-.556A1.482,1.482,0,0,1,16,37.358v-2.4a1.463,1.463,0,0,1,1.171-1.434l5.954-1.185a1.557,1.557,0,0,0,.366-.132l5.369-2.677a1.349,1.349,0,0,0,.512-.439l3.877-5.164a1.472,1.472,0,0,1,.8-.541l4.8-1.2a1.366,1.366,0,0,0,.863-.6l1.361-2.034a1.5,1.5,0,0,0,.249-.834l.234.044a1.463,1.463,0,0,1,.98,2.253Z" transform="translate(5.093 7.741)" fill="#3d9ae2"/>
      <path id="Trazado_736474" data-name="Trazado 736474" d="M42.939,44.67a1.463,1.463,0,0,1,1.419,1.814l-.819,3.292a1.463,1.463,0,0,1-.966,1.039l-2.531.834a1.476,1.476,0,0,0-1.009,1.39l-.015,2.443a1.45,1.45,0,0,1-.8,1.287L33.971,58.89a1.463,1.463,0,0,0-.8,1.317v4.36a1.453,1.453,0,0,1-1.916,1.39l-1.785-.585a1.447,1.447,0,0,1-.922-.922l-2.619-7.827a1.734,1.734,0,0,1-.073-.468V51.428a1.463,1.463,0,0,0-.8-1.317l-1.9-.951a1.463,1.463,0,0,1-.38-.263l-2.341-2.341A1.476,1.476,0,0,1,20,45.533v-4.4a1.485,1.485,0,0,1,.7-1.258l5.618-3.423a1.482,1.482,0,0,1,1.814.219l3.145,3.175a1.437,1.437,0,0,0,1.039.439h4.447a1.482,1.482,0,0,1,1.229.658l2.019,3.072a1.463,1.463,0,0,0,1.214.658Z" transform="translate(6.944 15.849)" fill="#3d9ae2"/>
      <path id="Trazado_736475" data-name="Trazado 736475" d="M47.962,36.06a1.463,1.463,0,0,0-1.478-.366l-3.145,1.024a1.374,1.374,0,0,1-.8.029l-4.579-1.112a1.485,1.485,0,0,1-1.083-1.068l-.073-.322,4.272,1.039a1.374,1.374,0,0,0,.8-.029l3.145-1.024A1.463,1.463,0,0,1,46.5,34.6Z" transform="translate(14.722 14.891)" fill="#3d9ae2"/>
      <path id="Trazado_736476" data-name="Trazado 736476" d="M56.561,24.646l-1.96,1.3a1.463,1.463,0,0,1-1.463.088l-4.608-2.3a1.422,1.422,0,0,0-1.009-.117l-4.7,1.17a1.451,1.451,0,0,1-1.17-.2L39.02,22.832a1.391,1.391,0,0,1-.6-.892l1.77,1.185a1.451,1.451,0,0,0,1.17.2l4.7-1.17a1.422,1.422,0,0,1,1.009.117l4.608,2.3a1.463,1.463,0,0,0,1.463-.088l2.194-1.463q.636.79,1.229,1.624Z" transform="translate(15.472 9.231)" fill="#3d9ae2"/>
      <path id="Trazado_736477" data-name="Trazado 736477" d="M43.936,21.447l-1.361,2.034a1.366,1.366,0,0,1-.863.6l-4.8,1.2a1.472,1.472,0,0,0-.8.541l-3.877,5.164a1.349,1.349,0,0,1-.512.439L26.351,34.1a1.557,1.557,0,0,1-.366.132l-5.954,1.185a1.463,1.463,0,0,0-1.17,1.434v2.4a1.482,1.482,0,0,0,.658,1.229l3.072,2.048a1.482,1.482,0,0,1,.658,1.229v2.692a1.463,1.463,0,0,1-2.121,1.317l-6.364-3.189a1.5,1.5,0,0,1-.5-.41L9.82,38.462A33.006,33.006,0,0,1,15.7,26.743,33.517,33.517,0,0,1,34.471,14.63l1.609,2.853a1.4,1.4,0,0,0,1.024.731l5.852.98a1.463,1.463,0,0,1,.98,2.253Z" transform="translate(2.231 5.847)" fill="#00b39d"/>
      <path id="Trazado_736478" data-name="Trazado 736478" d="M41.939,43.67a1.463,1.463,0,0,1,1.419,1.814l-.819,3.292a1.463,1.463,0,0,1-.966,1.039l-2.531.834a1.476,1.476,0,0,0-1.009,1.39l-.015,2.443a1.45,1.45,0,0,1-.8,1.287L32.971,57.89a1.463,1.463,0,0,0-.8,1.317v4.36a1.453,1.453,0,0,1-1.916,1.39l-1.785-.585a1.447,1.447,0,0,1-.922-.922l-2.619-7.827a1.734,1.734,0,0,1-.073-.468V50.428a1.463,1.463,0,0,0-.8-1.317l-1.9-.951a1.463,1.463,0,0,1-.38-.263l-2.341-2.341A1.476,1.476,0,0,1,19,44.533v-4.4a1.485,1.485,0,0,1,.7-1.258l5.618-3.423a1.482,1.482,0,0,1,1.814.219l3.145,3.175a1.437,1.437,0,0,0,1.039.439h4.447a1.482,1.482,0,0,1,1.229.658l2.019,3.072a1.463,1.463,0,0,0,1.214.658Z" transform="translate(6.481 15.386)" fill="#00b39d"/>
      <path id="Trazado_736479" data-name="Trazado 736479" d="M64.222,41.63a33.511,33.511,0,0,1-6.481,19.852l-3.336-3.336a1.476,1.476,0,0,1-.424-1.024V52.353a1.505,1.505,0,0,0-.293-.878l-3.8-5.062a1.505,1.505,0,0,1-.293-.878V40.81a1.511,1.511,0,0,0-.424-1.039L47.3,37.914a1.463,1.463,0,0,0-1.478-.366l-3.145,1.024a1.374,1.374,0,0,1-.8.029l-4.579-1.112a1.485,1.485,0,0,1-1.083-1.068l-1.083-4.4a1.5,1.5,0,0,1,.19-1.17l2.136-3.189A1.482,1.482,0,0,1,38.679,27H43.3a1.45,1.45,0,0,1,.8.249L47.9,29.765a1.6,1.6,0,0,0,.512.219l4.4.878,1.434.293.658.132a1.5,1.5,0,0,0,.878-.117.439.439,0,0,0,.146-.059l4.55-2.6.863-.483a5.422,5.422,0,0,1,.278.673l.088.219a32.542,32.542,0,0,1,2.4,10.007c.044.454.073.922.088,1.375s.029.892.029,1.331Z" transform="translate(13.926 11.574)" fill="#00b39d"/>
      <path id="Trazado_736480" data-name="Trazado 736480" d="M55.811,24.995l-2.194,1.463a1.463,1.463,0,0,1-1.463.088l-4.608-2.3a1.422,1.422,0,0,0-1.009-.117l-4.7,1.17a1.451,1.451,0,0,1-1.17-.2l-2.633-1.756a1.463,1.463,0,0,1-.41-2.019l1.682-2.516a1.482,1.482,0,0,1,1.229-.658h6.086a1.45,1.45,0,0,0,.8-.249l.322-.219a32.857,32.857,0,0,1,8.061,7.315Z" transform="translate(14.993 7.259)" fill="#00b39d"/>
      <g id="Grupo_971657" data-name="Grupo 971657" transform="translate(8.479 64.758)">
        <path id="Trazado_736481" data-name="Trazado 736481" d="M59.552,51.934,54.958,47.34l-1.609-1.609a2.926,2.926,0,0,0-4.14,4.126l2.736,2.736,3.467,3.482a.388.388,0,0,0,.088.073,2.926,2.926,0,0,0,4.052-4.213Z" transform="translate(11.638 -44.864)" fill="#ffc477"/>
        <path id="Trazado_736482" data-name="Trazado 736482" d="M51.147,60.5l-3.555-3.555-2.736-2.736a2.926,2.926,0,0,0-4.126,4.14l1.609,1.609,4.594,4.594a2.926,2.926,0,0,0,4.989-2.077,2.835,2.835,0,0,0-.775-1.975Z" transform="translate(7.71 -40.936)" fill="#ffc477"/>
        <path id="Trazado_736483" data-name="Trazado 736483" d="M56.655,60.344l-5.179-5.179L46.312,50a2.928,2.928,0,1,0-4.14,4.14L44.234,56.2,46.97,58.94l3.482,3.467a.388.388,0,0,1,.073.088l1.99,1.99a2.928,2.928,0,1,0,4.14-4.14Z" transform="translate(8.333 -42.932)" fill="#ffc477"/>
        <path id="Trazado_736484" data-name="Trazado 736484" d="M59.485,57.514l-1.99-1.99a.388.388,0,0,1-.088-.073L53.94,51.97,51.2,49.234l-1.419-1.419-.644-.644A2.928,2.928,0,0,0,45,51.312l5.164,5.164,5.179,5.179a2.928,2.928,0,0,0,4.14-4.14Z" transform="translate(9.643 -44.242)" fill="#ffc477"/>
        <path id="Trazado_736485" data-name="Trazado 736485" d="M24.125,47.172a2.926,2.926,0,0,0-4.14,0l-2.063,2.063L15.186,51.97l-3.467,3.482a.388.388,0,0,1-.088.073l-1.99,1.99a2.928,2.928,0,0,0,4.14,4.14l5.179-5.179,5.164-5.164a2.926,2.926,0,0,0,0-4.14Z" transform="translate(-6.728 -44.242)" fill="#ffc477"/>
        <path id="Trazado_736486" data-name="Trazado 736486" d="M27.68,55.206a2.6,2.6,0,0,0-.644-.966,2.914,2.914,0,0,0-4.126,0l-2.736,2.736L16.62,60.532a2.926,2.926,0,0,0,4.213,4.052l4.594-4.594,1.609-1.609A2.9,2.9,0,0,0,27.68,55.206Z" transform="translate(-3.437 -40.968)" fill="#ffc477"/>
        <path id="Trazado_736487" data-name="Trazado 736487" d="M18.572,45.764a2.905,2.905,0,0,0-4.14,0l-1.609,1.609L8.229,51.967a2.926,2.926,0,0,0,2.077,4.989,2.835,2.835,0,0,0,1.975-.775.388.388,0,0,0,.088-.073l3.467-3.482,2.736-2.736a2.914,2.914,0,0,0,0-4.126Z" transform="translate(-7.378 -44.898)" fill="#ffc477"/>
        <path id="Trazado_736488" data-name="Trazado 736488" d="M26.955,50a2.926,2.926,0,0,0-4.14,0L17.65,55.166l-5.179,5.179a2.928,2.928,0,1,0,4.14,4.14L18.6,62.5a.388.388,0,0,1,.073-.088l3.482-3.467L24.892,56.2l2.063-2.063a2.926,2.926,0,0,0,0-4.14Z" transform="translate(-5.417 -42.932)" fill="#ffc477"/>
      </g>
      <path id="Trazado_736489" data-name="Trazado 736489" d="M58.133,39.761l-.4.4a1.475,1.475,0,0,1-2.077,0l-6.2-6.2a4.327,4.327,0,0,1-1.287-3.1l.015-.234.658.132a1.5,1.5,0,0,0,.878-.117l.585.117a1.555,1.555,0,0,0,1.024-.176l4.228-2.414.088.219a32.542,32.542,0,0,1,2.4,10.007C58.089,38.84,58.118,39.308,58.133,39.761Z" transform="translate(19.986 12.111)" fill="#009986"/>
      <path id="Trazado_736490" data-name="Trazado 736490" d="M61.941,28.287A4.414,4.414,0,0,0,58.839,27a4.338,4.338,0,0,0-2.677.922.133.133,0,0,1,.044.1l-.468.263-.015.015L54.7,29.326l-.278-.278-.761-.761a4.389,4.389,0,0,0-6.2,0,4.3,4.3,0,0,0-1.214,2.3l-.073.8a4.327,4.327,0,0,0,1.287,3.1l6.2,6.2a1.475,1.475,0,0,0,2.077,0l3.1-3.1,3.1-3.1a4.389,4.389,0,0,0,0-6.2Z" transform="translate(19.06 11.574)" fill="#ff5023"/>
      <path id="Trazado_736491" data-name="Trazado 736491" d="M25.7,23.245l-6.2,6.2a1.475,1.475,0,0,1-2.077,0l-1.9-1.9L13.84,25.864A33.392,33.392,0,0,1,25.076,16.53a5.075,5.075,0,0,1,.629.512,3.683,3.683,0,0,1,.439.512A4.389,4.389,0,0,1,25.7,23.245Z" transform="translate(4.093 6.727)" fill="#009986"/>
      <path id="Trazado_736492" data-name="Trazado 736492" d="M25.38,17.8a3.682,3.682,0,0,0-.439-.512,4.38,4.38,0,0,0-6.2,0L17.7,18.326,16.66,17.287a4.386,4.386,0,1,0-6.2,6.2l4.3,4.3,1.9,1.9a1.475,1.475,0,0,0,2.077,0l6.2-6.2A4.389,4.389,0,0,0,25.38,17.8Z" transform="translate(1.931 6.482)" fill="#ff5023"/>
      <path id="Trazado_736493" data-name="Trazado 736493" d="M26.926,3A8.778,8.778,0,0,1,35.7,11.778H32.778A8.778,8.778,0,0,1,24,3Z" transform="translate(8.796 0.463)" fill="#009986"/>
      <path id="Trazado_736494" data-name="Trazado 736494" d="M40.778,5H43.7a8.778,8.778,0,0,1-8.778,8.778H32A8.778,8.778,0,0,1,40.778,5Z" transform="translate(12.5 1.389)" fill="#009986"/>
      <path id="Trazado_736495" data-name="Trazado 736495" d="M82.04,38.823a5.84,5.84,0,0,0-6.159-1.331A35.12,35.12,0,0,0,63.533,23.71a34.7,34.7,0,0,0-17.57-5.559V16.63h1.463A10.252,10.252,0,0,0,57.667,6.389,1.463,1.463,0,0,0,56.2,4.926H53.278a10.172,10.172,0,0,0-7.944,3.8A10.271,10.271,0,0,0,35.722,2H32.8a1.463,1.463,0,0,0-1.463,1.463A10.252,10.252,0,0,0,41.574,13.7h1.463v4.433A34.779,34.779,0,0,0,30.163,21.15l1.2,2.663A29.405,29.405,0,0,1,35.986,22.2L37.01,24a2.907,2.907,0,0,0,2.077,1.507l3.95.658v2.472l-4.272,1.083a2.857,2.857,0,0,0-1.595,1.068l-3.877,5.164-5.369,2.692-5.94,1.185A2.926,2.926,0,0,0,19.63,42.7v2.4a2.926,2.926,0,0,0,1.316,2.443L24.019,49.6v2.706l-6.364-3.189L13.661,44A32.531,32.531,0,0,1,15.5,39.2l-2.633-1.258a32.391,32.391,0,0,0-2.224,5.969A34.388,34.388,0,0,0,9.389,53.2a35.231,35.231,0,0,0,.5,5.852h-.5a4.389,4.389,0,0,0,0,8.778h1.858L8.292,70.788a4.389,4.389,0,0,0,1.39,7.139,4.3,4.3,0,0,0-.6,2.165,4.354,4.354,0,0,0,4.155,4.374,4.354,4.354,0,0,0,4.374,4.155,4.279,4.279,0,0,0,2.165-.6,4.389,4.389,0,0,0,7.139,1.39l6.2-6.2a4.335,4.335,0,0,0,1.17-2.151c.073.029.132.059.2.088l1.77.585a2.932,2.932,0,0,0,3.848-2.78v-4.36l4.228-2.121a2.9,2.9,0,0,0,1.624-2.6l.015-2.443,2.546-.834a2.946,2.946,0,0,0,1.916-2.077l.819-3.292a2.918,2.918,0,0,0-2.838-3.628H46.709L44.69,54.52A2.917,2.917,0,0,0,42.247,53.2H37.8l-3.145-3.175a2.9,2.9,0,0,0-3.614-.439l-4.1,2.5V49.6a2.926,2.926,0,0,0-1.316-2.443L22.556,45.1V42.7l5.984-1.185a3.431,3.431,0,0,0,.7-.263l5.369-2.677a2.717,2.717,0,0,0,1.024-.863L39.5,32.547l3.54-.878v3.979h2.926V30.221c.015-.029.044-.044.059-.073L47.4,28.1a2.908,2.908,0,0,0-1.434-4.345V21.077a31.707,31.707,0,0,1,11.952,2.867H55.531a2.942,2.942,0,0,0-2.443,1.3l-1.7,2.53a2.926,2.926,0,0,0,.834,4.038l2.633,1.756a2.86,2.86,0,0,0,2.326.41l4.7-1.17,4.608,2.3a2.824,2.824,0,0,0,1.317.322,2.983,2.983,0,0,0,1.624-.5l1.039-.688a29.46,29.46,0,0,1,2.472,3.921A5.845,5.845,0,0,0,65.479,47.1l6.218,6.2a2.9,2.9,0,0,0,4.126,0l6.218-6.2a5.864,5.864,0,0,0,0-8.28ZM53.278,7.852h1.317A7.328,7.328,0,0,1,47.426,13.7H46.109A7.328,7.328,0,0,1,53.278,7.852Zm-11.7,2.926a7.328,7.328,0,0,1-7.169-5.852h1.317a7.328,7.328,0,0,1,7.169,5.852ZM9.389,64.907a1.388,1.388,0,0,1-1.039-.454,1.358,1.358,0,0,1-.424-1.009,1.463,1.463,0,0,1,1.463-1.463h1.126a28.983,28.983,0,0,0,.892,2.926Zm.98,10.021a1.463,1.463,0,0,1,0-2.063l6.2-6.218a1.464,1.464,0,1,1,2.063,2.077l-6.2,6.2a1.463,1.463,0,0,1-2.063,0Zm2.063,6.2a1.463,1.463,0,0,1,0-2.063L22.775,68.726a1.451,1.451,0,0,1,1.039-.439,1.47,1.47,0,0,1,1.039,2.5L14.495,81.132a1.483,1.483,0,0,1-2.063,0Zm6.2,4.14a1.463,1.463,0,1,1-2.063-2.063L26.915,72.851a1.511,1.511,0,0,1,1.039-.424,1.454,1.454,0,0,1,1.024.439,1.428,1.428,0,0,1,.439,1.024,1.463,1.463,0,0,1-.439,1.039Zm12.421-4.14-6.2,6.2a1.464,1.464,0,0,1-2.077-2.063l6.2-6.2a1.464,1.464,0,0,1,2.077,2.063ZM26.944,55.515l5.632-3.438,3.145,3.189a2.971,2.971,0,0,0,2.077.863h4.447L44.266,59.2a2.957,2.957,0,0,0,2.443,1.317h1.712L47.6,63.81l-2.546.849a2.913,2.913,0,0,0-2,2.75l-.015,2.443-4.228,2.121a2.9,2.9,0,0,0-1.624,2.619v4.36l-1.77-.585L32.8,70.54V65.814A2.9,2.9,0,0,0,31.172,63.2l-1.9-.951-2.326-2.326Zm-2.063,6.466,2.326,2.326a2.914,2.914,0,0,0,.761.556l1.9.951v4.169a4.517,4.517,0,0,0-1.7-.41,4.3,4.3,0,0,0-4.345-4.184,4.465,4.465,0,0,0-2.194.571,4.376,4.376,0,0,0-7.139-1.375l-.073.073a32.267,32.267,0,0,1-1.609-17l2.516,3.233a3.055,3.055,0,0,0,1.009.834l6.379,3.2a2.933,2.933,0,0,0,1.3.307c.015,0,.029-.015.044-.015a2.018,2.018,0,0,0-.044.293v4.4a2.9,2.9,0,0,0,.863,2.063ZM43.037,23.2l-3.453-.585L38.955,21.5a31.1,31.1,0,0,1,4.082-.439ZM67.8,32.5l-4.594-2.3a2.891,2.891,0,0,0-2.034-.234l-4.711,1.17L53.834,29.4l1.7-2.531h6.086a2.736,2.736,0,0,0,1.024-.219,31.631,31.631,0,0,1,5.984,5.3ZM79.962,45.026l-6.2,6.218-6.2-6.218A2.926,2.926,0,1,1,71.7,40.9l1.024,1.024a1.475,1.475,0,0,0,2.077,0L75.822,40.9a2.926,2.926,0,1,1,4.14,4.126Z"/>
      <path id="Trazado_736496" data-name="Trazado 736496" d="M49.178,47.756l2.581,3.434L54.1,49.434,51.519,46V41.273a2.993,2.993,0,0,0-.857-2.077l-1.849-1.833a2.935,2.935,0,0,0-2.984-.743l-3.151,1.024-4.588-1.11-1.1-4.409,2.149-3.2h4.623L46.3,30.61l1.619-2.437L45.4,26.5a2.914,2.914,0,0,0-1.637-.5H39.142A2.949,2.949,0,0,0,36.7,27.308l-2.159,3.227a2.958,2.958,0,0,0-.37,2.3l1.083,4.412a2.945,2.945,0,0,0,2.156,2.132l4.535,1.1a2.832,2.832,0,0,0,1.646-.048l3.141-1.011,1.864,1.857V46a2.986,2.986,0,0,0,.585,1.757Z" transform="translate(13.463 11.111)"/>
      <path id="Trazado_736497" data-name="Trazado 736497" d="M73.591,49.477a4.346,4.346,0,0,0,1.3-3.116A4.4,4.4,0,0,0,70.5,41.972h-.512c.161-.936.293-1.873.38-2.824L67.462,38.9a32.386,32.386,0,0,1-.673,4.243,29.259,29.259,0,0,1-1.346,4.418L65.4,47.5a4.376,4.376,0,0,0-7.139,1.375,4.415,4.415,0,0,0-5.281.688,4.361,4.361,0,0,0-1.258,2.926,4.286,4.286,0,0,0-2.882,1.214,4.411,4.411,0,0,0-1.287,3.1,4.358,4.358,0,0,0,.6,2.18,4.455,4.455,0,0,0-1.375.922,4.4,4.4,0,0,0,0,6.218l.073.059a32.055,32.055,0,0,1-21.271.585l-.907,2.78a34.978,34.978,0,0,0,24.417-1.112l3.891,3.891a4.389,4.389,0,0,0,7.139-1.39,4.279,4.279,0,0,0,2.165.6,4.354,4.354,0,0,0,4.374-4.155,4.354,4.354,0,0,0,4.155-4.374,4.3,4.3,0,0,0-.6-2.165,4.389,4.389,0,0,0,1.39-7.139L68.647,50.75H70.5a4.322,4.322,0,0,0,3.087-1.273ZM57.119,70.251a1.475,1.475,0,0,1-2.077,0l-6.2-6.2a1.464,1.464,0,1,1,2.077-2.063l6.2,6.2A1.463,1.463,0,0,1,57.119,70.251Zm6.2-2.063a1.463,1.463,0,0,1-2.063,0L50.916,57.845a1.463,1.463,0,0,1-.439-1.039,1.459,1.459,0,0,1,2.5-1.024L63.321,66.126A1.463,1.463,0,0,1,63.321,68.189Zm4.14-4.14a1.483,1.483,0,0,1-2.063,0L55.056,53.705a1.459,1.459,0,1,1,2.063-2.063L67.462,61.986A1.463,1.463,0,0,1,67.462,64.048Zm2.063-8.266a1.463,1.463,0,0,1-2.063,2.063l-6.2-6.2a1.464,1.464,0,0,1,2.063-2.077ZM68.5,47.824c.336-.98.644-1.96.878-2.926H70.5a1.463,1.463,0,0,1,1.463,1.463,1.388,1.388,0,0,1-.454,1.039,1.358,1.358,0,0,1-1.009.424Z" transform="translate(9.106 17.083)"/>
      <path id="Trazado_736498" data-name="Trazado 736498" d="M16.093,31.2a2.926,2.926,0,0,0,4.137,0l6.207-6.207a5.852,5.852,0,1,0-8.276-8.275,5.852,5.852,0,1,0-8.276,8.275ZM11.954,18.783a2.926,2.926,0,0,1,4.139,0l1.034,1.034a1.463,1.463,0,0,0,2.069,0l1.034-1.034a2.926,2.926,0,1,1,4.139,4.137l-6.207,6.207-6.207-6.207a2.926,2.926,0,0,1,0-4.137Z" transform="translate(1.468 6.018)"/>
    </g>
  </g>
</svg>
