<svg xmlns="http://www.w3.org/2000/svg" xmlns:xlink="http://www.w3.org/1999/xlink" width="890.597" height="860.4" viewBox="0 0 890.597 860.4">
  <defs>
    <linearGradient id="linear-gradient" x1="9.894" y1="-27.222" x2="10.209" y2="-28.951" gradientUnits="objectBoundingBox">
      <stop offset="0" stop-color="#fff"/>
      <stop offset="0.373" stop-color="#fdfdfd"/>
      <stop offset="0.507" stop-color="#f6f6f6"/>
      <stop offset="0.603" stop-color="#eaeaea"/>
      <stop offset="0.68" stop-color="#d9d9d9"/>
      <stop offset="0.746" stop-color="#c3c3c3"/>
      <stop offset="0.805" stop-color="#a8a8a8"/>
      <stop offset="0.858" stop-color="#878787"/>
      <stop offset="0.907" stop-color="#626262"/>
      <stop offset="0.952" stop-color="#373737"/>
      <stop offset="0.993" stop-color="#090909"/>
      <stop offset="1"/>
    </linearGradient>
    <linearGradient id="linear-gradient-2" x1="18.933" y1="-2.99" x2="19.413" y2="-3.788" xlink:href="#linear-gradient"/>
    <linearGradient id="linear-gradient-3" x1="9.272" y1="5.388" x2="9.716" y2="4.547" xlink:href="#linear-gradient"/>
    <linearGradient id="linear-gradient-4" x1="0.284" y1="1.232" x2="0.61" y2="-0.013" xlink:href="#linear-gradient"/>
    <linearGradient id="linear-gradient-5" x1="5.115" y1="-8.675" x2="5.903" y2="-9.389" xlink:href="#linear-gradient"/>
    <linearGradient id="linear-gradient-6" x1="1.76" y1="2.054" x2="2.465" y2="2.76" gradientUnits="objectBoundingBox">
      <stop offset="0" stop-color="#fff"/>
      <stop offset="1" stop-color="#b9b9b9"/>
    </linearGradient>
    <linearGradient id="linear-gradient-7" x1="1.666" y1="2.469" x2="2.666" y2="2.469" gradientUnits="objectBoundingBox">
      <stop offset="0" stop-color="#eef1f2"/>
      <stop offset="1" stop-color="#f3f7f7"/>
    </linearGradient>
  </defs>
  <g id="Grupo_972244" data-name="Grupo 972244" transform="translate(-355 -948.3)">
    <g id="Grupo_971176" data-name="Grupo 971176" transform="translate(315.56 900.094)">
      <g id="Color_rings" transform="translate(39.44 48.206)">
        <g id="_05" data-name="05" transform="translate(119.776 593.05)">
          <path id="Trazado_735342" data-name="Trazado 735342" d="M308.123,352.977c59.651,43.34,72.925,127.133,29.582,186.786s-127.131,72.923-186.784,29.582S78,442.215,121.337,382.561,248.47,309.639,308.123,352.977ZM170.466,542.447A100.473,100.473,0,1,0,148.237,402.1,100.586,100.586,0,0,0,170.466,542.447Z" transform="translate(-95.846 -327.487)" fill="#af9164"/>
          <path id="Trazado_735343" data-name="Trazado 735343" d="M196,339.628a132.885,132.885,0,0,1,45.923,59.653A227.632,227.632,0,0,0,349.1,405.894a157.9,157.9,0,0,1,15.5-37.715,193.666,193.666,0,0,1-168.949-28.809l-.006.008C195.761,339.462,195.884,339.543,196,339.628Z" transform="translate(16.274 -314.138)" fill="#af9164"/>
        </g>
        <g id="_04" data-name="04" transform="translate(504.891 466.273)">
          <path id="Trazado_735344" data-name="Trazado 735344" d="M332.279,352.625c59.653-43.338,143.446-30.069,186.786,29.584s30.069,143.446-29.584,186.784S346.037,599.064,302.7,539.411,272.629,395.965,332.279,352.625ZM469.939,542.1A100.474,100.474,0,1,0,329.6,519.867,100.587,100.587,0,0,0,469.939,542.1Z" transform="translate(-277.205 -201.106)" fill="#1b998b"/>
          <path id="Trazado_735345" data-name="Trazado 735345" d="M303.33,419.3a132.881,132.881,0,0,1,70.924-25.242,227.641,227.641,0,0,0,39.408-99.885,157.771,157.771,0,0,1-31.081-26.393,193.661,193.661,0,0,1-79.607,151.776l.006.008C303.1,419.483,303.211,419.391,303.33,419.3Z" transform="translate(-248.256 -267.785)" fill="#1b998b"/>
        </g>
        <g id="_03" data-name="03" transform="translate(510.069 225.747)">
          <path id="Trazado_735346" data-name="Trazado 735346" d="M339.442,329.573c-22.785-70.124,15.729-145.716,85.857-168.5S571.014,176.8,593.8,246.927s-15.731,145.716-85.857,168.5S362.227,399.7,339.442,329.573ZM562.177,257.2a100.474,100.474,0,1,0-64.507,126.6A100.588,100.588,0,0,0,562.177,257.2Z" transform="translate(-219.828 -154.515)" fill="#99c927"/>
          <path id="Trazado_735347" data-name="Trazado 735347" d="M399.258,312.927a132.892,132.892,0,0,1-2.089-75.252,227.616,227.616,0,0,0-82.818-68.344,157.843,157.843,0,0,1-34.706,21.4A193.659,193.659,0,0,1,399.392,313.346l.011,0C399.356,313.2,399.3,313.068,399.258,312.927Z" transform="translate(-279.644 -137.87)" fill="#99c927"/>
        </g>
        <g id="_02" data-name="02" transform="translate(282.051)">
          <path id="Trazado_735348" data-name="Trazado 735348" d="M319.684,315.651c-73.734,0-133.722-59.986-133.722-133.722S245.951,48.206,319.684,48.206s133.722,59.986,133.722,133.722S393.418,315.651,319.684,315.651Zm0-234.2A100.474,100.474,0,1,0,420.159,181.928,100.589,100.589,0,0,0,319.684,81.453Z" transform="translate(-156.877 -48.206)" fill="#2d3047"/>
          <path id="Trazado_735349" data-name="Trazado 735349" d="M335.073,185.4a132.888,132.888,0,0,1-72.215-21.265,227.6,227.6,0,0,0-90.592,57.644A157.761,157.761,0,0,1,181.9,261.4a193.653,193.653,0,0,1,153.617-76v-.013C335.366,185.4,335.219,185.4,335.073,185.4Z" transform="translate(-172.265 82.042)" fill="#2d3047"/>
        </g>
        <g id="_01" data-name="01" transform="translate(0 226.956)">
          <path id="Trazado_735350" data-name="Trazado 735350" d="M300.352,330.143c-22.785,70.124-98.373,108.64-168.5,85.855S23.212,317.623,46,247.5s98.375-108.642,168.5-85.855S323.137,260.017,300.352,330.143ZM77.618,257.773a100.474,100.474,0,1,0,126.606-64.509A100.589,100.589,0,0,0,77.618,257.773Z" transform="translate(-39.44 -155.085)" fill="#ff5346"/>
          <path id="Trazado_735351" data-name="Trazado 735351" d="M184.817,237.746a132.879,132.879,0,0,1-42.54,62.108,227.6,227.6,0,0,0,26.828,103.972,157.751,157.751,0,0,1,40.658,3.085,193.661,193.661,0,0,1-24.807-169.584l-.011,0C184.9,237.466,184.864,237.606,184.817,237.746Z" transform="translate(76.095 -62.688)" fill="#ff5346"/>
        </g>
      </g>
      <g id="Shadows_2" transform="translate(257.813 294.386)">
        <path id="_05-2" data-name="05" d="M196,339.628a132.885,132.885,0,0,1,45.923,59.653A227.632,227.632,0,0,0,349.1,405.894a157.9,157.9,0,0,1,15.5-37.715,193.666,193.666,0,0,1-168.949-28.809l-.006.008C195.761,339.462,195.884,339.543,196,339.628Z" transform="translate(-82.322 32.732)" fill="url(#linear-gradient)" style="mix-blend-mode: multiply;isolation: isolate"/>
        <path id="_04-2" data-name="04" d="M303.33,419.3a132.881,132.881,0,0,1,70.924-25.242,227.641,227.641,0,0,0,39.408-99.885,157.771,157.771,0,0,1-31.081-26.393,193.661,193.661,0,0,1-79.607,151.776l.006.008C303.1,419.483,303.211,419.391,303.33,419.3Z" transform="translate(38.263 -47.692)" fill="url(#linear-gradient-2)" style="mix-blend-mode: multiply;isolation: isolate"/>
        <path id="_03-2" data-name="03" d="M399.258,312.927a132.892,132.892,0,0,1-2.089-75.252,227.616,227.616,0,0,0-82.818-68.344,157.843,157.843,0,0,1-34.706,21.4A193.659,193.659,0,0,1,399.392,313.346l.011,0C399.356,313.2,399.3,313.068,399.258,312.927Z" transform="translate(12.053 -158.304)" fill="url(#linear-gradient-3)" style="mix-blend-mode: multiply;isolation: isolate"/>
        <path id="_02-2" data-name="02" d="M335.073,185.4a132.888,132.888,0,0,1-72.215-21.265,227.6,227.6,0,0,0-90.592,57.644A157.761,157.761,0,0,1,181.9,261.4a193.653,193.653,0,0,1,153.617-76v-.013C335.366,185.4,335.219,185.4,335.073,185.4Z" transform="translate(-108.586 -164.138)" fill="url(#linear-gradient-4)" style="mix-blend-mode: multiply;isolation: isolate"/>
        <path id="_01-2" data-name="01" d="M184.817,237.746a132.879,132.879,0,0,1-42.54,62.108,227.6,227.6,0,0,0,26.828,103.972,157.751,157.751,0,0,1,40.658,3.085,193.661,193.661,0,0,1-24.807-169.584l-.011,0C184.9,237.466,184.864,237.606,184.817,237.746Z" transform="translate(-142.277 -81.912)" fill="url(#linear-gradient-5)" style="mix-blend-mode: multiply;isolation: isolate"/>
      </g>
      <g id="Circles" transform="translate(62.441 71.195)">
        <g id="_05-3" data-name="05" transform="translate(119.716 593.003)">
          <path id="Trazado_735352" data-name="Trazado 735352" d="M328.118,449.027A110.735,110.735,0,1,1,217.385,338.291,110.737,110.737,0,0,1,328.118,449.027Z" transform="translate(-106.649 -338.291)" fill="url(#linear-gradient-6)"/>
          <path id="Trazado_735353" data-name="Trazado 735353" d="M215.6,339.881A107.357,107.357,0,1,0,322.951,447.24,107.357,107.357,0,0,0,215.6,339.881Z" transform="translate(-104.86 -336.505)" fill="url(#linear-gradient-7)"/>
        </g>
        <g id="_04-3" data-name="04" transform="translate(504.831 592.255)">
          <path id="Trazado_735354" data-name="Trazado 735354" d="M509.478,448.675A110.734,110.734,0,1,1,398.742,337.939,110.737,110.737,0,0,1,509.478,448.675Z" transform="translate(-288.009 -337.939)" fill="url(#linear-gradient-6)"/>
          <path id="Trazado_735355" data-name="Trazado 735355" d="M396.955,339.529A107.357,107.357,0,1,0,504.31,446.888,107.357,107.357,0,0,0,396.955,339.529Z" transform="translate(-286.222 -336.153)" fill="url(#linear-gradient-7)"/>
        </g>
        <g id="_03-3" data-name="03" transform="translate(623.126 225.761)">
          <path id="Trazado_735356" data-name="Trazado 735356" d="M565.186,276.081A110.734,110.734,0,1,1,454.45,165.348,110.736,110.736,0,0,1,565.186,276.081Z" transform="translate(-343.717 -165.348)" fill="url(#linear-gradient-6)"/>
          <path id="Trazado_735357" data-name="Trazado 735357" d="M452.663,166.937A107.357,107.357,0,1,0,560.02,274.3,107.359,107.359,0,0,0,452.663,166.937Z" transform="translate(-341.93 -163.563)" fill="url(#linear-gradient-7)"/>
        </g>
        <g id="_02-3" data-name="02" transform="translate(311.123)">
          <path id="Trazado_735358" data-name="Trazado 735358" d="M418.256,169.768A110.734,110.734,0,1,1,307.523,59.032,110.736,110.736,0,0,1,418.256,169.768Z" transform="translate(-196.787 -59.032)" fill="url(#linear-gradient-6)"/>
          <path id="Trazado_735359" data-name="Trazado 735359" d="M305.734,60.622A107.357,107.357,0,1,0,413.089,167.981,107.357,107.357,0,0,0,305.734,60.622Z" transform="translate(-194.998 -57.246)" fill="url(#linear-gradient-7)"/>
        </g>
        <g id="_01-3" data-name="01" transform="translate(0 226.969)">
          <path id="Trazado_735360" data-name="Trazado 735360" d="M271.741,276.653A110.735,110.735,0,1,1,161.005,165.917,110.736,110.736,0,0,1,271.741,276.653Z" transform="translate(-50.272 -165.917)" fill="url(#linear-gradient-6)"/>
          <path id="Trazado_735361" data-name="Trazado 735361" d="M159.218,167.507A107.357,107.357,0,1,0,266.573,274.866,107.358,107.358,0,0,0,159.218,167.507Z" transform="translate(-48.485 -164.131)" fill="url(#linear-gradient-7)"/>
        </g>
      </g>
    </g>
    <path id="Trazado_736976" data-name="Trazado 736976" d="M11.54-8.446a4.1,4.1,0,0,1-.655,2.294A4.267,4.267,0,0,1,9.018-4.6,6.78,6.78,0,0,1,6.2-4.052H5.036V0h-3.8V-12.6H6.407a6.119,6.119,0,0,1,3.9,1.011A3.83,3.83,0,0,1,11.54-8.446Zm-4.017.132a1.477,1.477,0,0,0-.448-1.169,1.937,1.937,0,0,0-1.318-.4H5.036v3.111h.853Q7.523-6.768,7.523-8.314ZM19.468-5.792a2.91,2.91,0,0,0-.571-.176,2.891,2.891,0,0,0-.6-.079q-1.854,0-1.854,2.145V0H12.7V-9h3.744v1.582h.035a2.81,2.81,0,0,1,.976-1.3,2.506,2.506,0,0,1,1.477-.444,1.269,1.269,0,0,1,.536.105Zm4.307,2.355a1.265,1.265,0,0,0,.668.91,3.012,3.012,0,0,0,1.512.33,6.226,6.226,0,0,0,2.479-.5V-.325a8.908,8.908,0,0,1-3.3.545,5.214,5.214,0,0,1-3.665-1.2A4.277,4.277,0,0,1,20.153-4.3a5.467,5.467,0,0,1,.576-2.558,4.142,4.142,0,0,1,1.705-1.736,5.038,5.038,0,0,1,2.492-.628,4.9,4.9,0,0,1,2.391.545,3.63,3.63,0,0,1,1.507,1.529,4.906,4.906,0,0,1,.514,2.3v1.406Zm2.25-1.96q0-1.556-1.116-1.556a.944.944,0,0,0-.782.426A2.127,2.127,0,0,0,23.757-5.4ZM37.942-2.988A2.749,2.749,0,0,1,36.778-.62,5.474,5.474,0,0,1,33.53.22,11.291,11.291,0,0,1,32.032.1a9.257,9.257,0,0,1-1.455-.3V-2.83a7.162,7.162,0,0,0,2.777.738q1.1,0,1.1-.571a.451.451,0,0,0-.255-.391,9.009,9.009,0,0,0-1.336-.514,3.773,3.773,0,0,1-1.74-1A2.382,2.382,0,0,1,30.577-6.2a2.594,2.594,0,0,1,1.112-2.21,5.216,5.216,0,0,1,3.125-.813,9.931,9.931,0,0,1,2.5.343v2.522a7.549,7.549,0,0,0-1.213-.4,4.9,4.9,0,0,0-1.107-.158,1.205,1.205,0,0,0-.589.123.379.379,0,0,0-.22.343.478.478,0,0,0,.237.413,4.2,4.2,0,0,0,.949.378,4.4,4.4,0,0,1,1.978,1.037A2.272,2.272,0,0,1,37.942-2.988Zm4.605-.448a1.265,1.265,0,0,0,.668.91,3.012,3.012,0,0,0,1.512.33,6.226,6.226,0,0,0,2.479-.5V-.325A8.908,8.908,0,0,1,43.9.22a5.214,5.214,0,0,1-3.665-1.2A4.277,4.277,0,0,1,38.927-4.3,5.467,5.467,0,0,1,39.5-6.855a4.142,4.142,0,0,1,1.705-1.736A5.038,5.038,0,0,1,43.7-9.22a4.9,4.9,0,0,1,2.391.545A3.63,3.63,0,0,1,47.6-7.146a4.906,4.906,0,0,1,.514,2.3v1.406ZM44.8-5.4q0-1.556-1.116-1.556a.944.944,0,0,0-.782.426A2.127,2.127,0,0,0,42.53-5.4ZM55.239,0V-4.913a2.184,2.184,0,0,0-.25-1.2.915.915,0,0,0-.813-.365.88.88,0,0,0-.756.378,1.613,1.613,0,0,0-.272.967V0H49.4V-9h3.744v1.406h.035a3.177,3.177,0,0,1,1.2-1.2A3.29,3.29,0,0,1,56.03-9.22q2.953,0,2.953,3.727V0ZM67.008-.123a3.648,3.648,0,0,1-.835.233,7.634,7.634,0,0,1-1.4.11,3.357,3.357,0,0,1-2.448-.861,3.269,3.269,0,0,1-.883-2.452V-6.407H60.029V-9h1.415v-1.767l3.691-1.02V-9h1.872v2.593H65.136v2.7q0,1.187.94,1.187a2.551,2.551,0,0,0,.932-.193ZM73.169,0V-1.371h-.035A2.944,2.944,0,0,1,70.392.22a2.625,2.625,0,0,1-2-.756,2.808,2.808,0,0,1-.721-2.021q0-2.654,3.261-3.076l2.232-.29a.851.851,0,0,0-.4-.721,1.8,1.8,0,0,0-1.063-.281,7,7,0,0,0-3.19.861V-8.5a8.535,8.535,0,0,1,1.828-.519,10.639,10.639,0,0,1,1.881-.2,4.722,4.722,0,0,1,3.327.98,4.368,4.368,0,0,1,1.033,3.274V0ZM70.954-3.059a.83.83,0,0,0,.233.606.888.888,0,0,0,.664.237,1.18,1.18,0,0,0,.954-.439,1.7,1.7,0,0,0,.365-1.125v-.343L71.9-3.946Q70.954-3.788,70.954-3.059Zm14.739,2.8A3.529,3.529,0,0,1,84.56.088,10.719,10.719,0,0,1,82.775.22a5.488,5.488,0,0,1-2.544-.576A4.2,4.2,0,0,1,78.5-1.969,4.478,4.478,0,0,1,77.88-4.3a5.1,5.1,0,0,1,.655-2.65A4.268,4.268,0,0,1,80.4-8.635a6.407,6.407,0,0,1,2.813-.584,9.839,9.839,0,0,1,1.578.114,2.411,2.411,0,0,1,.9.264v2.918a2.6,2.6,0,0,0-.809-.387,3.248,3.248,0,0,0-.976-.167,2.375,2.375,0,0,0-1.666.523,1.9,1.9,0,0,0-.567,1.472,1.868,1.868,0,0,0,.558,1.446,2.177,2.177,0,0,0,1.534.514,3.82,3.82,0,0,0,1.925-.5Zm5.458-11.171a1.608,1.608,0,0,1-.576,1.283,2.252,2.252,0,0,1-1.516.492,2.2,2.2,0,0,1-1.5-.51,1.612,1.612,0,0,1-.584-1.266,1.561,1.561,0,0,1,.567-1.252,2.272,2.272,0,0,1,1.516-.479,2.293,2.293,0,0,1,1.516.479A1.551,1.551,0,0,1,91.151-11.426ZM87.188,0V-9h3.744V0Zm15.557-4.658a4.687,4.687,0,0,1-1.375,3.577A5.375,5.375,0,0,1,97.523.22,5.4,5.4,0,0,1,93.7-1.05a4.546,4.546,0,0,1-1.367-3.5,4.692,4.692,0,0,1,.642-2.487,4.172,4.172,0,0,1,1.828-1.617,6.311,6.311,0,0,1,2.733-.562,6.113,6.113,0,0,1,2.773.589A4.286,4.286,0,0,1,102.116-7,4.452,4.452,0,0,1,102.744-4.658Zm-3.8.018q0-1.837-1.406-1.837T96.135-4.553q0,2.03,1.424,2.03Q98.947-2.522,98.947-4.641Zm-.94-5.783H95.361l2.628-2.821h3.146ZM109.978,0V-4.913a2.184,2.184,0,0,0-.25-1.2.915.915,0,0,0-.813-.365.88.88,0,0,0-.756.378,1.613,1.613,0,0,0-.272.967V0h-3.744V-9h3.744v1.406h.035a3.177,3.177,0,0,1,1.2-1.2,3.29,3.29,0,0,1,1.644-.426q2.953,0,2.953,3.727V0Z" transform="translate(746 1091)" fill="#12263f"/>
    <path id="Trazado_736975" data-name="Trazado 736975" d="M5.651,19V6.4h3.8V19Zm11.769,0V14.087a2.184,2.184,0,0,0-.25-1.2.915.915,0,0,0-.813-.365.88.88,0,0,0-.756.378,1.613,1.613,0,0,0-.272.967V19H11.583V10h3.744v1.406h.035a3.177,3.177,0,0,1,1.2-1.2A3.29,3.29,0,0,1,18.21,9.78q2.953,0,2.953,3.727V19Zm11.769-.123a3.648,3.648,0,0,1-.835.233,7.634,7.634,0,0,1-1.4.11,3.357,3.357,0,0,1-2.448-.861,3.269,3.269,0,0,1-.883-2.452V12.593H22.209V10h1.415V8.233l3.691-1.02V10h1.872v2.593H27.316v2.7q0,1.187.94,1.187a2.551,2.551,0,0,0,.932-.193Zm7.937-5.669a3.6,3.6,0,0,0-1.169-.255q-1.854,0-1.854,2.145V19H30.357V10H34.1v1.582h.035a2.81,2.81,0,0,1,.976-1.3,2.506,2.506,0,0,1,1.477-.444,1.269,1.269,0,0,1,.536.105Zm11.092,1.134a4.687,4.687,0,0,1-1.375,3.577A5.375,5.375,0,0,1,43,19.22a5.4,5.4,0,0,1-3.819-1.27,4.546,4.546,0,0,1-1.367-3.5,4.692,4.692,0,0,1,.642-2.487,4.172,4.172,0,0,1,1.828-1.617,6.311,6.311,0,0,1,2.733-.562,6.113,6.113,0,0,1,2.773.589A4.286,4.286,0,0,1,47.588,12,4.452,4.452,0,0,1,48.216,14.342Zm-3.8.018q0-1.837-1.406-1.837t-1.406,1.925q0,2.03,1.424,2.03Q44.419,16.478,44.419,14.359ZM55.625,19V17.954H55.59a3.089,3.089,0,0,1-1.169.927A3.331,3.331,0,0,1,53,19.22a3.663,3.663,0,0,1-2.03-.567,3.443,3.443,0,0,1-1.314-1.586,6.106,6.106,0,0,1-.435-2.408,5.925,5.925,0,0,1,.519-2.54A4.059,4.059,0,0,1,51.2,10.4a3.769,3.769,0,0,1,2.109-.615,3.193,3.193,0,0,1,1.024.158,2.77,2.77,0,0,1,.817.426,1.273,1.273,0,0,1,.444.532h.035V5.676H59.37V19Zm.079-4.772a1.974,1.974,0,0,0-.356-1.257,1.2,1.2,0,0,0-1.951.11,2.593,2.593,0,0,0-.382,1.49q0,1.907,1.318,1.907a1.173,1.173,0,0,0,1-.514,2.531,2.531,0,0,0,.374-1.5ZM66.9,19V17.611h-.035a4.926,4.926,0,0,1-.839.94,3.23,3.23,0,0,1-.844.483,2.983,2.983,0,0,1-1.094.185,2.722,2.722,0,0,1-2.25-.958,4.429,4.429,0,0,1-.773-2.83V10H64.81v5.15q0,1.327.993,1.327a.972.972,0,0,0,.822-.36A1.642,1.642,0,0,0,66.9,15.1V10h3.744v9Zm12.955-.255a3.529,3.529,0,0,1-1.134.343,10.719,10.719,0,0,1-1.784.132,5.488,5.488,0,0,1-2.544-.576,4.2,4.2,0,0,1-1.736-1.613,4.478,4.478,0,0,1-.615-2.329,5.1,5.1,0,0,1,.655-2.65,4.268,4.268,0,0,1,1.868-1.687,6.407,6.407,0,0,1,2.813-.584,9.839,9.839,0,0,1,1.578.114,2.411,2.411,0,0,1,.9.264v2.918a2.6,2.6,0,0,0-.809-.387,3.248,3.248,0,0,0-.976-.167,2.375,2.375,0,0,0-1.666.523,1.9,1.9,0,0,0-.567,1.472,1.868,1.868,0,0,0,.558,1.446,2.177,2.177,0,0,0,1.534.514,3.82,3.82,0,0,0,1.925-.5Zm8.912,0a3.529,3.529,0,0,1-1.134.343,10.719,10.719,0,0,1-1.784.132,5.488,5.488,0,0,1-2.544-.576,4.2,4.2,0,0,1-1.736-1.613,4.478,4.478,0,0,1-.615-2.329,5.1,5.1,0,0,1,.655-2.65,4.268,4.268,0,0,1,1.868-1.687,6.407,6.407,0,0,1,2.813-.584,9.839,9.839,0,0,1,1.578.114,2.411,2.411,0,0,1,.9.264v2.918a2.6,2.6,0,0,0-.809-.387,3.248,3.248,0,0,0-.976-.167,2.375,2.375,0,0,0-1.666.523,1.9,1.9,0,0,0-.567,1.472,1.868,1.868,0,0,0,.558,1.446,2.177,2.177,0,0,0,1.534.514,3.82,3.82,0,0,0,1.925-.5ZM94.227,7.574a1.608,1.608,0,0,1-.576,1.283,2.252,2.252,0,0,1-1.516.492,2.2,2.2,0,0,1-1.5-.51,1.612,1.612,0,0,1-.584-1.266,1.561,1.561,0,0,1,.567-1.252,2.639,2.639,0,0,1,3.032,0A1.551,1.551,0,0,1,94.227,7.574ZM90.263,19V10h3.744v9Zm15.557-4.658a4.687,4.687,0,0,1-1.375,3.577,6.355,6.355,0,0,1-7.664.031,4.546,4.546,0,0,1-1.367-3.5,4.692,4.692,0,0,1,.642-2.487,4.172,4.172,0,0,1,1.828-1.617,6.311,6.311,0,0,1,2.733-.562,6.113,6.113,0,0,1,2.773.589,4.286,4.286,0,0,1,1.8,1.635A4.452,4.452,0,0,1,105.82,14.342Zm-3.8.018q0-1.837-1.406-1.837T99.21,14.447q0,2.03,1.424,2.03Q102.023,16.478,102.023,14.359Zm-.94-5.783H98.437l2.628-2.821h3.146ZM113.053,19V14.087a2.184,2.184,0,0,0-.25-1.2.915.915,0,0,0-.813-.365.88.88,0,0,0-.756.378,1.613,1.613,0,0,0-.272.967V19h-3.744V10h3.744v1.406H111a3.177,3.177,0,0,1,1.2-1.2,3.29,3.29,0,0,1,1.644-.426q2.953,0,2.953,3.727V19ZM1.59,44V31.4H9.439v2.971H5.387V36.2H9.193v2.971H5.387v1.854H9.729V44Zm16.146,0H13.289l-3.006-9h3.9l1.1,4.913a11.366,11.366,0,0,1,.29,1.784h.053q.018-.176.048-.36T16.98,35h3.885Zm9.018,0V42.629h-.035a2.944,2.944,0,0,1-2.742,1.591,2.625,2.625,0,0,1-2-.756,2.808,2.808,0,0,1-.721-2.021q0-2.654,3.261-3.076l2.232-.29a.851.851,0,0,0-.4-.721,1.8,1.8,0,0,0-1.063-.281,7,7,0,0,0-3.19.861V35.5a8.535,8.535,0,0,1,1.828-.519,10.639,10.639,0,0,1,1.881-.2,4.722,4.722,0,0,1,3.327.98,4.368,4.368,0,0,1,1.033,3.274V44Zm-2.215-3.059a.83.83,0,0,0,.233.606.888.888,0,0,0,.664.237,1.18,1.18,0,0,0,.954-.439,1.7,1.7,0,0,0,.365-1.125v-.343l-1.266.176Q24.539,40.212,24.539,40.941ZM31.86,44V30.676H35.6V44Zm11.276,0V42.611H43.1a4.926,4.926,0,0,1-.839.94,3.23,3.23,0,0,1-.844.483,2.983,2.983,0,0,1-1.094.185,2.722,2.722,0,0,1-2.25-.958,4.429,4.429,0,0,1-.773-2.83V35h3.744v5.15q0,1.327.993,1.327a.972.972,0,0,0,.822-.36,1.642,1.642,0,0,0,.277-1.02V35H46.88v9Zm10.529,0V42.629H53.63a2.944,2.944,0,0,1-2.742,1.591,2.625,2.625,0,0,1-2-.756,2.808,2.808,0,0,1-.721-2.021q0-2.654,3.261-3.076l2.232-.29a.851.851,0,0,0-.4-.721,1.8,1.8,0,0,0-1.063-.281,7,7,0,0,0-3.19.861V35.5a8.535,8.535,0,0,1,1.828-.519,10.639,10.639,0,0,1,1.881-.2,4.722,4.722,0,0,1,3.327.98,4.368,4.368,0,0,1,1.033,3.274V44Zm-2.215-3.059a.83.83,0,0,0,.233.606.888.888,0,0,0,.664.237,1.18,1.18,0,0,0,.954-.439,1.7,1.7,0,0,0,.365-1.125v-.343l-1.266.176Q51.451,40.212,51.451,40.941Zm14.739,2.8a3.529,3.529,0,0,1-1.134.343,10.719,10.719,0,0,1-1.784.132,5.488,5.488,0,0,1-2.544-.576,4.2,4.2,0,0,1-1.736-1.613,4.478,4.478,0,0,1-.615-2.329,5.1,5.1,0,0,1,.655-2.65A4.268,4.268,0,0,1,60.9,35.365a6.407,6.407,0,0,1,2.813-.584,9.839,9.839,0,0,1,1.578.114,2.41,2.41,0,0,1,.9.264v2.918a2.6,2.6,0,0,0-.809-.387,3.248,3.248,0,0,0-.976-.167,2.375,2.375,0,0,0-1.666.523,1.9,1.9,0,0,0-.567,1.472,1.868,1.868,0,0,0,.558,1.446,2.177,2.177,0,0,0,1.534.514,3.82,3.82,0,0,0,1.925-.5Zm5.458-11.171a1.608,1.608,0,0,1-.576,1.283,2.252,2.252,0,0,1-1.516.492,2.2,2.2,0,0,1-1.5-.51,1.612,1.612,0,0,1-.584-1.266,1.561,1.561,0,0,1,.567-1.252,2.639,2.639,0,0,1,3.032,0A1.551,1.551,0,0,1,71.648,32.574ZM67.684,44V35h3.744v9Zm15.557-4.658a4.687,4.687,0,0,1-1.375,3.577,6.355,6.355,0,0,1-7.664.031,4.546,4.546,0,0,1-1.367-3.5,4.692,4.692,0,0,1,.642-2.487A4.172,4.172,0,0,1,75.3,35.343a6.311,6.311,0,0,1,2.733-.562,6.113,6.113,0,0,1,2.773.589A4.286,4.286,0,0,1,82.612,37,4.452,4.452,0,0,1,83.241,39.342Zm-3.8.018q0-1.837-1.406-1.837t-1.406,1.925q0,2.03,1.424,2.03Q79.444,41.478,79.444,39.359Zm-.94-5.783H75.858l2.628-2.821h3.146ZM90.474,44V39.087a2.184,2.184,0,0,0-.25-1.2.915.915,0,0,0-.813-.365.88.88,0,0,0-.756.378,1.613,1.613,0,0,0-.272.967V44H84.638V35h3.744v1.406h.035a3.177,3.177,0,0,1,1.2-1.2,3.29,3.29,0,0,1,1.644-.426q2.953,0,2.953,3.727V44Zm16.444,0V42.954h-.035a3.089,3.089,0,0,1-1.169.927,3.331,3.331,0,0,1-1.424.338,3.663,3.663,0,0,1-2.03-.567,3.443,3.443,0,0,1-1.314-1.586,6.106,6.106,0,0,1-.435-2.408,5.925,5.925,0,0,1,.519-2.54,4.059,4.059,0,0,1,1.459-1.723,3.769,3.769,0,0,1,2.109-.615,3.193,3.193,0,0,1,1.024.158,2.77,2.77,0,0,1,.817.426,1.273,1.273,0,0,1,.444.532h.035V30.676h3.744V44ZM107,39.228a1.974,1.974,0,0,0-.356-1.257,1.2,1.2,0,0,0-1.951.11,2.593,2.593,0,0,0-.382,1.49q0,1.907,1.318,1.907a1.173,1.173,0,0,0,1-.514,2.531,2.531,0,0,0,.374-1.5Zm8.692,1.336a1.265,1.265,0,0,0,.668.91,3.012,3.012,0,0,0,1.512.33,6.226,6.226,0,0,0,2.479-.5v2.373a8.908,8.908,0,0,1-3.3.545,5.214,5.214,0,0,1-3.665-1.2,4.277,4.277,0,0,1-1.31-3.313,5.467,5.467,0,0,1,.576-2.558,4.142,4.142,0,0,1,1.705-1.736,5.038,5.038,0,0,1,2.492-.628,4.9,4.9,0,0,1,2.391.545,3.63,3.63,0,0,1,1.507,1.529,4.906,4.906,0,0,1,.514,2.3v1.406Zm2.25-1.96q0-1.556-1.116-1.556a.944.944,0,0,0-.782.426,2.127,2.127,0,0,0-.369,1.129ZM25.809,69V56.4h3.8V69Zm17.6,0V63.814a1.654,1.654,0,0,0-.233-.971.876.876,0,0,0-.76-.321.949.949,0,0,0-.809.391A1.79,1.79,0,0,0,41.321,64v5H37.577V63.9q0-1.38-.94-1.38a1,1,0,0,0-.861.4,1.933,1.933,0,0,0-.29,1.147V69H31.741V60h3.744v1.424h.035a2.9,2.9,0,0,1,.672-.769,3.946,3.946,0,0,1,1.042-.633,3.235,3.235,0,0,1,1.257-.242,3.181,3.181,0,0,1,1.613.378,2.931,2.931,0,0,1,1.094,1.2,3.207,3.207,0,0,1,1.266-1.165,3.772,3.772,0,0,1,1.758-.409,2.645,2.645,0,0,1,2.171.923,4.109,4.109,0,0,1,.756,2.663V69ZM59,64.228a6.4,6.4,0,0,1-.5,2.61A4.046,4.046,0,0,1,57.08,68.6a3.564,3.564,0,0,1-2.057.624,2.755,2.755,0,0,1-2.4-1.151h-.035V73.14H48.845V60h3.744v1.222h.035a3.171,3.171,0,0,1,1.16-1.059A3.364,3.364,0,0,1,55.4,59.78a3.215,3.215,0,0,1,2.667,1.16A5.147,5.147,0,0,1,59,64.228Zm-3.8.114a2.346,2.346,0,0,0-.33-1.336,1.237,1.237,0,0,0-1.982.026,2.341,2.341,0,0,0-.369,1.4v.176a2.562,2.562,0,0,0,.316,1.362,1.044,1.044,0,0,0,.949.51,1.182,1.182,0,0,0,1.046-.558A2.849,2.849,0,0,0,55.2,64.342ZM65.395,69V67.629h-.035a2.944,2.944,0,0,1-2.742,1.591,2.625,2.625,0,0,1-2-.756,2.808,2.808,0,0,1-.721-2.021q0-2.654,3.261-3.076l2.232-.29a.851.851,0,0,0-.4-.721,1.8,1.8,0,0,0-1.063-.281,7,7,0,0,0-3.19.861V60.5a8.535,8.535,0,0,1,1.828-.519,10.639,10.639,0,0,1,1.881-.2,4.722,4.722,0,0,1,3.327.98,4.368,4.368,0,0,1,1.033,3.274V69ZM63.18,65.941a.83.83,0,0,0,.233.606.888.888,0,0,0,.664.237,1.18,1.18,0,0,0,.954-.439,1.7,1.7,0,0,0,.365-1.125v-.343l-1.266.176Q63.18,65.212,63.18,65.941Zm14.739,2.8a3.529,3.529,0,0,1-1.134.343A10.719,10.719,0,0,1,75,69.22a5.488,5.488,0,0,1-2.544-.576,4.2,4.2,0,0,1-1.736-1.613,4.478,4.478,0,0,1-.615-2.329,5.1,5.1,0,0,1,.655-2.65,4.268,4.268,0,0,1,1.868-1.687,6.407,6.407,0,0,1,2.813-.584,9.839,9.839,0,0,1,1.578.114,2.41,2.41,0,0,1,.9.264v2.918a2.6,2.6,0,0,0-.809-.387,3.248,3.248,0,0,0-.976-.167,2.375,2.375,0,0,0-1.666.523,1.9,1.9,0,0,0-.567,1.472,1.868,1.868,0,0,0,.558,1.446,2.177,2.177,0,0,0,1.534.514,3.82,3.82,0,0,0,1.925-.5Zm7.831.132a3.648,3.648,0,0,1-.835.233,7.634,7.634,0,0,1-1.4.11,3.357,3.357,0,0,1-2.448-.861,3.269,3.269,0,0,1-.883-2.452V62.593H78.771V60h1.415V58.233l3.691-1.02V60H85.75v2.593H83.878v2.7q0,1.187.94,1.187a2.551,2.551,0,0,0,.932-.193Zm11.18-4.535a4.687,4.687,0,0,1-1.375,3.577,6.355,6.355,0,0,1-7.664.031,4.546,4.546,0,0,1-1.367-3.5,4.692,4.692,0,0,1,.642-2.487,4.172,4.172,0,0,1,1.828-1.617,6.311,6.311,0,0,1,2.733-.562,6.113,6.113,0,0,1,2.773.589A4.286,4.286,0,0,1,96.3,62,4.452,4.452,0,0,1,96.93,64.342Zm-3.8.018q0-1.837-1.406-1.837T90.32,64.447q0,2.03,1.424,2.03Q93.133,66.478,93.133,64.359ZM24.038,94l-.554-2.32H19.722l-.6,2.32h-4.1l4.342-12.6h4.711L28.16,94Zm-2.391-9.861h-.088a6.123,6.123,0,0,1-.123.694q-.105.483-1.063,4.148h2.408L21.9,85.554A10.84,10.84,0,0,1,21.647,84.139ZM40.965,94V88.814a1.654,1.654,0,0,0-.233-.971.876.876,0,0,0-.76-.321.949.949,0,0,0-.809.391A1.79,1.79,0,0,0,38.874,89v5H35.129V88.9q0-1.38-.94-1.38a1,1,0,0,0-.861.4,1.933,1.933,0,0,0-.29,1.147V94H29.293V85h3.744v1.424h.035a2.9,2.9,0,0,1,.672-.769,3.946,3.946,0,0,1,1.042-.633,3.235,3.235,0,0,1,1.257-.242,3.181,3.181,0,0,1,1.613.378,2.931,2.931,0,0,1,1.094,1.2,3.207,3.207,0,0,1,1.266-1.165,3.772,3.772,0,0,1,1.758-.409,2.645,2.645,0,0,1,2.171.923,4.109,4.109,0,0,1,.756,2.663V94Zm15.583-4.772a6.586,6.586,0,0,1-.488,2.615A3.975,3.975,0,0,1,54.676,93.6a3.486,3.486,0,0,1-2.03.62,3.2,3.2,0,0,1-1.49-.321,2.683,2.683,0,0,1-.98-.831h-.035V94H46.4V80.676h3.744v5.546h.035a3.083,3.083,0,0,1,1.191-1.055,3.567,3.567,0,0,1,1.657-.387,3.157,3.157,0,0,1,2.615,1.134A5.2,5.2,0,0,1,56.548,89.228Zm-3.8.114a2.234,2.234,0,0,0-.347-1.362A1.25,1.25,0,0,0,50.453,88a1.933,1.933,0,0,0-.382,1.244v.545a2,2,0,0,0,.343,1.23,1.094,1.094,0,0,0,.923.457,1.182,1.182,0,0,0,1.046-.558A2.849,2.849,0,0,0,52.751,89.342Zm9.167-6.768a1.608,1.608,0,0,1-.576,1.283,2.252,2.252,0,0,1-1.516.492,2.2,2.2,0,0,1-1.5-.51,1.612,1.612,0,0,1-.584-1.266,1.561,1.561,0,0,1,.567-1.252,2.639,2.639,0,0,1,3.032,0A1.551,1.551,0,0,1,61.918,82.574ZM57.955,94V85H61.7v9Zm8.771-3.437a1.265,1.265,0,0,0,.668.91,3.012,3.012,0,0,0,1.512.33,6.226,6.226,0,0,0,2.479-.5v2.373a8.908,8.908,0,0,1-3.3.545,5.214,5.214,0,0,1-3.665-1.2A4.277,4.277,0,0,1,63.1,89.7a5.467,5.467,0,0,1,.576-2.558,4.142,4.142,0,0,1,1.705-1.736,5.038,5.038,0,0,1,2.492-.628,4.9,4.9,0,0,1,2.391.545,3.63,3.63,0,0,1,1.507,1.529,4.906,4.906,0,0,1,.514,2.3v1.406Zm2.25-1.96q0-1.556-1.116-1.556a.944.944,0,0,0-.782.426,2.127,2.127,0,0,0-.369,1.129ZM79.417,94V89.087a2.184,2.184,0,0,0-.25-1.2.915.915,0,0,0-.813-.365.88.88,0,0,0-.756.378,1.613,1.613,0,0,0-.272.967V94H73.582V85h3.744v1.406h.035a3.177,3.177,0,0,1,1.2-1.2,3.29,3.29,0,0,1,1.644-.426q2.953,0,2.953,3.727V94Zm11.769-.123a3.648,3.648,0,0,1-.835.233,7.634,7.634,0,0,1-1.4.11,3.357,3.357,0,0,1-2.448-.861,3.269,3.269,0,0,1-.883-2.452V87.593H84.208V85h1.415V83.233l3.691-1.02V85h1.872v2.593H89.314v2.7q0,1.187.94,1.187a2.551,2.551,0,0,0,.932-.193ZM97.347,94V92.629h-.035A2.944,2.944,0,0,1,94.57,94.22a2.625,2.625,0,0,1-2-.756,2.808,2.808,0,0,1-.721-2.021q0-2.654,3.261-3.076l2.232-.29a.851.851,0,0,0-.4-.721,1.8,1.8,0,0,0-1.063-.281,7,7,0,0,0-3.19.861V85.5a8.535,8.535,0,0,1,1.828-.519,10.639,10.639,0,0,1,1.881-.2,4.722,4.722,0,0,1,3.327.98,4.368,4.368,0,0,1,1.033,3.274V94Zm-2.215-3.059a.83.83,0,0,0,.233.606.888.888,0,0,0,.664.237,1.18,1.18,0,0,0,.954-.439,1.7,1.7,0,0,0,.365-1.125v-.343l-1.266.176Q95.132,90.212,95.132,90.941ZM102.454,94V80.676H106.2V94Z" transform="translate(1054 1263)" fill="#12263f"/>
    <path id="Trazado_736979" data-name="Trazado 736979" d="M18.34,15.133a3.4,3.4,0,0,1-1.3,2.861A5.968,5.968,0,0,1,13.321,19H7.573V6.4h5.353q5.019,0,5.019,3.05a2.378,2.378,0,0,1-.316,1.208,2.846,2.846,0,0,1-.962.962,4.027,4.027,0,0,1-1.419.563v.035a4,4,0,0,1,1.608.532,3.139,3.139,0,0,1,1.1,1.063A2.515,2.515,0,0,1,18.34,15.133Zm-4.43-5.027q0-1.169-1.837-1.169h-.7v2.382h1.1a1.561,1.561,0,0,0,1.037-.338A1.088,1.088,0,0,0,13.91,10.105Zm.4,5.01a1.146,1.146,0,0,0-.4-.9,1.516,1.516,0,0,0-1.046-.352H11.37v2.575h1.266a1.913,1.913,0,0,0,1.222-.356A1.173,1.173,0,0,0,14.306,15.115ZM24.659,19V17.629h-.035a2.944,2.944,0,0,1-2.742,1.591,2.625,2.625,0,0,1-2-.756,2.808,2.808,0,0,1-.721-2.021q0-2.654,3.261-3.076l2.232-.29a.851.851,0,0,0-.4-.721,1.8,1.8,0,0,0-1.063-.281,7,7,0,0,0-3.19.861V10.5a8.535,8.535,0,0,1,1.828-.519,10.639,10.639,0,0,1,1.881-.2,4.722,4.722,0,0,1,3.327.98,4.368,4.368,0,0,1,1.033,3.274V19Zm-2.215-3.059a.83.83,0,0,0,.233.606.888.888,0,0,0,.664.237,1.18,1.18,0,0,0,.954-.439,1.7,1.7,0,0,0,.365-1.125v-.343l-1.266.176Q22.444,15.212,22.444,15.941Zm14.634.07a2.749,2.749,0,0,1-1.165,2.369,5.474,5.474,0,0,1-3.248.839,11.291,11.291,0,0,1-1.5-.123,9.257,9.257,0,0,1-1.455-.3V16.17a7.162,7.162,0,0,0,2.777.738q1.1,0,1.1-.571a.451.451,0,0,0-.255-.391A9.009,9.009,0,0,0,32,15.432a3.773,3.773,0,0,1-1.74-1,2.382,2.382,0,0,1-.545-1.626,2.594,2.594,0,0,1,1.112-2.21,5.216,5.216,0,0,1,3.125-.813,9.931,9.931,0,0,1,2.5.343v2.522a7.549,7.549,0,0,0-1.213-.4,4.9,4.9,0,0,0-1.107-.158,1.205,1.205,0,0,0-.589.123.379.379,0,0,0-.22.343.478.478,0,0,0,.237.413,4.2,4.2,0,0,0,.949.378,4.4,4.4,0,0,1,1.978,1.037A2.272,2.272,0,0,1,37.078,16.012Zm4.605-.448a1.265,1.265,0,0,0,.668.91,3.012,3.012,0,0,0,1.512.33,6.226,6.226,0,0,0,2.479-.5v2.373a8.908,8.908,0,0,1-3.3.545,5.214,5.214,0,0,1-3.665-1.2,4.277,4.277,0,0,1-1.31-3.313,5.467,5.467,0,0,1,.576-2.558,4.142,4.142,0,0,1,1.705-1.736,5.038,5.038,0,0,1,2.492-.628,4.9,4.9,0,0,1,2.391.545,3.63,3.63,0,0,1,1.507,1.529,4.906,4.906,0,0,1,.514,2.3v1.406Zm2.25-1.96q0-1.556-1.116-1.556a.944.944,0,0,0-.782.426,2.127,2.127,0,0,0-.369,1.129Zm11.918,2.408a2.749,2.749,0,0,1-1.165,2.369,5.474,5.474,0,0,1-3.248.839,11.291,11.291,0,0,1-1.5-.123,9.257,9.257,0,0,1-1.455-.3V16.17a7.162,7.162,0,0,0,2.777.738q1.1,0,1.1-.571a.451.451,0,0,0-.255-.391,9.009,9.009,0,0,0-1.336-.514,3.773,3.773,0,0,1-1.74-1,2.382,2.382,0,0,1-.545-1.626,2.594,2.594,0,0,1,1.112-2.21,5.216,5.216,0,0,1,3.125-.813,9.931,9.931,0,0,1,2.5.343v2.522a7.549,7.549,0,0,0-1.213-.4,4.9,4.9,0,0,0-1.107-.158,1.205,1.205,0,0,0-.589.123.379.379,0,0,0-.22.343.478.478,0,0,0,.237.413,4.2,4.2,0,0,0,.949.378,4.4,4.4,0,0,1,1.978,1.037A2.272,2.272,0,0,1,55.852,16.012Zm13.8,2.733a3.529,3.529,0,0,1-1.134.343,10.719,10.719,0,0,1-1.784.132,5.488,5.488,0,0,1-2.544-.576,4.2,4.2,0,0,1-1.736-1.613,4.478,4.478,0,0,1-.615-2.329,5.1,5.1,0,0,1,.655-2.65,4.268,4.268,0,0,1,1.868-1.687,6.407,6.407,0,0,1,2.813-.584,9.839,9.839,0,0,1,1.578.114,2.411,2.411,0,0,1,.9.264v2.918a2.6,2.6,0,0,0-.809-.387,3.248,3.248,0,0,0-.976-.167,2.375,2.375,0,0,0-1.666.523,1.9,1.9,0,0,0-.567,1.472,1.868,1.868,0,0,0,.558,1.446,2.177,2.177,0,0,0,1.534.514,3.82,3.82,0,0,0,1.925-.5Zm11.5-4.4a4.687,4.687,0,0,1-1.375,3.577,6.355,6.355,0,0,1-7.664.031,4.546,4.546,0,0,1-1.367-3.5,4.692,4.692,0,0,1,.642-2.487,4.172,4.172,0,0,1,1.828-1.617,6.311,6.311,0,0,1,2.733-.562,6.113,6.113,0,0,1,2.773.589A4.286,4.286,0,0,1,80.527,12,4.452,4.452,0,0,1,81.155,14.342Zm-3.8.018q0-1.837-1.406-1.837t-1.406,1.925q0,2.03,1.424,2.03Q77.358,16.478,77.358,14.359ZM88.389,19V14.087a2.184,2.184,0,0,0-.25-1.2.915.915,0,0,0-.813-.365.88.88,0,0,0-.756.378,1.613,1.613,0,0,0-.272.967V19H82.553V10H86.3v1.406h.035a3.177,3.177,0,0,1,1.2-1.2A3.29,3.29,0,0,1,89.18,9.78q2.953,0,2.953,3.727V19Zm12.85-.255a3.529,3.529,0,0,1-1.134.343,10.719,10.719,0,0,1-1.784.132,5.488,5.488,0,0,1-2.544-.576,4.2,4.2,0,0,1-1.736-1.613,4.478,4.478,0,0,1-.615-2.329,5.1,5.1,0,0,1,.655-2.65,4.268,4.268,0,0,1,1.868-1.687A6.407,6.407,0,0,1,98.76,9.78a9.839,9.839,0,0,1,1.578.114,2.411,2.411,0,0,1,.9.264v2.918a2.6,2.6,0,0,0-.809-.387,3.248,3.248,0,0,0-.976-.167,2.375,2.375,0,0,0-1.666.523,1.9,1.9,0,0,0-.567,1.472,1.868,1.868,0,0,0,.558,1.446,2.177,2.177,0,0,0,1.534.514,3.82,3.82,0,0,0,1.925-.5Zm4.72-3.182a1.265,1.265,0,0,0,.668.91,3.012,3.012,0,0,0,1.512.33,6.226,6.226,0,0,0,2.479-.5v2.373a8.908,8.908,0,0,1-3.3.545,5.214,5.214,0,0,1-3.665-1.2,4.277,4.277,0,0,1-1.31-3.313,5.467,5.467,0,0,1,.576-2.558,4.142,4.142,0,0,1,1.705-1.736,5.038,5.038,0,0,1,2.492-.628,4.9,4.9,0,0,1,2.391.545,3.63,3.63,0,0,1,1.507,1.529,4.906,4.906,0,0,1,.514,2.3v1.406Zm2.25-1.96q0-1.556-1.116-1.556a.944.944,0,0,0-.782.426,2.127,2.127,0,0,0-.369,1.129Zm14.757.624a6.4,6.4,0,0,1-.5,2.61,4.046,4.046,0,0,1-1.415,1.758,3.564,3.564,0,0,1-2.057.624,2.755,2.755,0,0,1-2.4-1.151h-.035V23.14h-3.744V10h3.744v1.222h.035a3.171,3.171,0,0,1,1.16-1.059,3.364,3.364,0,0,1,1.617-.382,3.215,3.215,0,0,1,2.667,1.16A5.147,5.147,0,0,1,122.965,14.228Zm-3.8.114a2.346,2.346,0,0,0-.33-1.336,1.237,1.237,0,0,0-1.982.026,2.341,2.341,0,0,0-.369,1.4v.176a2.562,2.562,0,0,0,.316,1.362,1.044,1.044,0,0,0,.949.51,1.182,1.182,0,0,0,1.046-.558A2.849,2.849,0,0,0,119.168,14.342Zm11.54,4.535a3.648,3.648,0,0,1-.835.233,7.634,7.634,0,0,1-1.4.11,3.357,3.357,0,0,1-2.448-.861,3.269,3.269,0,0,1-.883-2.452V12.593h-1.415V10h1.415V8.233l3.691-1.02V10h1.872v2.593h-1.872v2.7q0,1.187.94,1.187a2.551,2.551,0,0,0,.932-.193Zm6.9.123V17.611h-.035a4.926,4.926,0,0,1-.839.94,3.23,3.23,0,0,1-.844.483,2.983,2.983,0,0,1-1.094.185,2.722,2.722,0,0,1-2.25-.958,4.429,4.429,0,0,1-.773-2.83V10h3.744v5.15q0,1.327.993,1.327a.972.972,0,0,0,.822-.36,1.642,1.642,0,0,0,.277-1.02V10h3.744v9Zm10.529,0V17.629H148.1a2.944,2.944,0,0,1-2.742,1.591,2.625,2.625,0,0,1-2-.756,2.808,2.808,0,0,1-.721-2.021q0-2.654,3.261-3.076l2.232-.29a.851.851,0,0,0-.4-.721,1.8,1.8,0,0,0-1.063-.281,7,7,0,0,0-3.19.861V10.5a8.535,8.535,0,0,1,1.828-.519,10.639,10.639,0,0,1,1.881-.2,4.722,4.722,0,0,1,3.327.98,4.368,4.368,0,0,1,1.033,3.274V19Zm-2.215-3.059a.83.83,0,0,0,.233.606.888.888,0,0,0,.664.237,1.18,1.18,0,0,0,.954-.439,1.7,1.7,0,0,0,.365-1.125v-.343l-1.266.176Q145.922,15.212,145.922,15.941ZM153.243,19V5.676h3.744V19Zm8.771-3.437a1.265,1.265,0,0,0,.668.91,3.012,3.012,0,0,0,1.512.33,6.226,6.226,0,0,0,2.479-.5v2.373a8.908,8.908,0,0,1-3.3.545,5.214,5.214,0,0,1-3.665-1.2,4.277,4.277,0,0,1-1.31-3.313,5.467,5.467,0,0,1,.576-2.558,4.142,4.142,0,0,1,1.705-1.736,5.038,5.038,0,0,1,2.492-.628,4.9,4.9,0,0,1,2.391.545,3.63,3.63,0,0,1,1.507,1.529,4.906,4.906,0,0,1,.514,2.3v1.406Zm2.25-1.96q0-1.556-1.116-1.556a.944.944,0,0,0-.782.426A2.127,2.127,0,0,0,162,13.6Zm11.918,2.408a2.749,2.749,0,0,1-1.165,2.369,5.474,5.474,0,0,1-3.248.839,11.291,11.291,0,0,1-1.5-.123,9.257,9.257,0,0,1-1.455-.3V16.17a7.162,7.162,0,0,0,2.777.738q1.1,0,1.1-.571a.451.451,0,0,0-.255-.391,9.009,9.009,0,0,0-1.336-.514,3.773,3.773,0,0,1-1.74-1,2.382,2.382,0,0,1-.545-1.626,2.594,2.594,0,0,1,1.112-2.21,5.216,5.216,0,0,1,3.125-.813,9.931,9.931,0,0,1,2.5.343v2.522a7.549,7.549,0,0,0-1.213-.4,4.9,4.9,0,0,0-1.107-.158,1.205,1.205,0,0,0-.589.123.379.379,0,0,0-.22.343.478.478,0,0,0,.237.413,4.2,4.2,0,0,0,.949.378,4.4,4.4,0,0,1,1.978,1.037A2.272,2.272,0,0,1,176.183,16.012ZM23.565,39.228a6.4,6.4,0,0,1-.5,2.61A4.046,4.046,0,0,1,21.649,43.6a3.564,3.564,0,0,1-2.057.624,2.755,2.755,0,0,1-2.4-1.151h-.035V48.14H13.414V35h3.744v1.222h.035a3.171,3.171,0,0,1,1.16-1.059,3.364,3.364,0,0,1,1.617-.382,3.215,3.215,0,0,1,2.667,1.16A5.147,5.147,0,0,1,23.565,39.228Zm-3.8.114a2.346,2.346,0,0,0-.33-1.336,1.237,1.237,0,0,0-1.982.026,2.341,2.341,0,0,0-.369,1.4v.176a2.562,2.562,0,0,0,.316,1.362,1.044,1.044,0,0,0,.949.51,1.182,1.182,0,0,0,1.046-.558A2.849,2.849,0,0,0,19.768,39.342ZM29.963,44V42.629h-.035a2.944,2.944,0,0,1-2.742,1.591,2.625,2.625,0,0,1-2-.756,2.808,2.808,0,0,1-.721-2.021q0-2.654,3.261-3.076l2.232-.29a.851.851,0,0,0-.4-.721,1.8,1.8,0,0,0-1.063-.281,7,7,0,0,0-3.19.861V35.5a8.535,8.535,0,0,1,1.828-.519,10.639,10.639,0,0,1,1.881-.2,4.722,4.722,0,0,1,3.327.98,4.368,4.368,0,0,1,1.033,3.274V44Zm-2.215-3.059a.83.83,0,0,0,.233.606.888.888,0,0,0,.664.237,1.18,1.18,0,0,0,.954-.439,1.7,1.7,0,0,0,.365-1.125v-.343l-1.266.176Q27.749,40.212,27.749,40.941Zm14.089-2.733a3.6,3.6,0,0,0-1.169-.255q-1.854,0-1.854,2.145V44H35.07V35h3.744v1.582h.035a2.81,2.81,0,0,1,.976-1.3,2.506,2.506,0,0,1,1.477-.444,1.269,1.269,0,0,1,.536.105ZM47.911,44V42.629h-.035a2.944,2.944,0,0,1-2.742,1.591,2.625,2.625,0,0,1-2-.756,2.808,2.808,0,0,1-.721-2.021q0-2.654,3.261-3.076l2.232-.29a.851.851,0,0,0-.4-.721,1.8,1.8,0,0,0-1.063-.281,7,7,0,0,0-3.19.861V35.5a8.535,8.535,0,0,1,1.828-.519,10.639,10.639,0,0,1,1.881-.2,4.722,4.722,0,0,1,3.327.98,4.368,4.368,0,0,1,1.033,3.274V44ZM45.7,40.941a.83.83,0,0,0,.233.606.888.888,0,0,0,.664.237,1.18,1.18,0,0,0,.954-.439,1.7,1.7,0,0,0,.365-1.125v-.343l-1.266.176Q45.7,40.212,45.7,40.941ZM58.018,44V30.676h3.744V44Zm10.538,0V42.629h-.035a2.944,2.944,0,0,1-2.742,1.591,2.625,2.625,0,0,1-2-.756,2.808,2.808,0,0,1-.721-2.021q0-2.654,3.261-3.076l2.232-.29a.851.851,0,0,0-.4-.721,1.8,1.8,0,0,0-1.063-.281,7,7,0,0,0-3.19.861V35.5a8.535,8.535,0,0,1,1.828-.519,10.639,10.639,0,0,1,1.881-.2,4.722,4.722,0,0,1,3.327.98,4.368,4.368,0,0,1,1.033,3.274V44Zm-2.215-3.059a.83.83,0,0,0,.233.606.888.888,0,0,0,.664.237,1.18,1.18,0,0,0,.954-.439,1.7,1.7,0,0,0,.365-1.125v-.343l-1.266.176Q66.341,40.212,66.341,40.941ZM85.22,44H80.773l-3.006-9h3.9l1.1,4.913a11.366,11.366,0,0,1,.29,1.784h.053q.018-.176.048-.36T84.464,35h3.885Zm9.018,0V42.629H94.2A2.944,2.944,0,0,1,91.46,44.22a2.625,2.625,0,0,1-2-.756,2.808,2.808,0,0,1-.721-2.021q0-2.654,3.261-3.076l2.232-.29a.851.851,0,0,0-.4-.721,1.8,1.8,0,0,0-1.063-.281,7,7,0,0,0-3.19.861V35.5a8.535,8.535,0,0,1,1.828-.519,10.639,10.639,0,0,1,1.881-.2,4.722,4.722,0,0,1,3.327.98,4.368,4.368,0,0,1,1.033,3.274V44Zm-2.215-3.059a.83.83,0,0,0,.233.606.888.888,0,0,0,.664.237,1.18,1.18,0,0,0,.954-.439,1.7,1.7,0,0,0,.365-1.125v-.343l-1.266.176Q92.023,40.212,92.023,40.941ZM99.344,44V30.676h3.744V44ZM114.9,39.342a4.687,4.687,0,0,1-1.375,3.577,6.355,6.355,0,0,1-7.664.031,4.546,4.546,0,0,1-1.367-3.5,4.692,4.692,0,0,1,.642-2.487,4.172,4.172,0,0,1,1.828-1.617,6.311,6.311,0,0,1,2.733-.562,6.113,6.113,0,0,1,2.773.589,4.286,4.286,0,0,1,1.8,1.635A4.452,4.452,0,0,1,114.9,39.342Zm-3.8.018q0-1.837-1.406-1.837t-1.406,1.925q0,2.03,1.424,2.03Q111.1,41.478,111.1,39.359Zm11.962-1.151a3.6,3.6,0,0,0-1.169-.255q-1.854,0-1.854,2.145V44H116.3V35h3.744v1.582h.035a2.81,2.81,0,0,1,.976-1.3,2.506,2.506,0,0,1,1.477-.444,1.269,1.269,0,0,1,.536.105ZM129.139,44V42.629H129.1a2.944,2.944,0,0,1-2.742,1.591,2.625,2.625,0,0,1-2-.756,2.808,2.808,0,0,1-.721-2.021q0-2.654,3.261-3.076l2.232-.29a.851.851,0,0,0-.4-.721,1.8,1.8,0,0,0-1.063-.281,7,7,0,0,0-3.19.861V35.5a8.535,8.535,0,0,1,1.828-.519,10.639,10.639,0,0,1,1.881-.2,4.722,4.722,0,0,1,3.327.98,4.368,4.368,0,0,1,1.033,3.274V44Zm-2.215-3.059a.83.83,0,0,0,.233.606.888.888,0,0,0,.664.237,1.18,1.18,0,0,0,.954-.439,1.7,1.7,0,0,0,.365-1.125v-.343l-1.266.176Q126.924,40.212,126.924,40.941Zm14.739,2.8a3.529,3.529,0,0,1-1.134.343,10.719,10.719,0,0,1-1.784.132,5.488,5.488,0,0,1-2.544-.576,4.2,4.2,0,0,1-1.736-1.613,4.478,4.478,0,0,1-.615-2.329,5.1,5.1,0,0,1,.655-2.65,4.268,4.268,0,0,1,1.868-1.687,6.407,6.407,0,0,1,2.813-.584,9.839,9.839,0,0,1,1.578.114,2.41,2.41,0,0,1,.9.264v2.918a2.6,2.6,0,0,0-.809-.387,3.248,3.248,0,0,0-.976-.167,2.375,2.375,0,0,0-1.666.523,1.9,1.9,0,0,0-.567,1.472,1.868,1.868,0,0,0,.558,1.446,2.177,2.177,0,0,0,1.534.514,3.82,3.82,0,0,0,1.925-.5Zm5.458-11.171a1.608,1.608,0,0,1-.576,1.283,2.252,2.252,0,0,1-1.516.492,2.2,2.2,0,0,1-1.5-.51,1.612,1.612,0,0,1-.584-1.266,1.561,1.561,0,0,1,.567-1.252,2.639,2.639,0,0,1,3.032,0A1.551,1.551,0,0,1,147.122,32.574ZM143.158,44V35H146.9v9Zm15.557-4.658a4.687,4.687,0,0,1-1.375,3.577,6.355,6.355,0,0,1-7.664.031,4.546,4.546,0,0,1-1.367-3.5,4.692,4.692,0,0,1,.642-2.487,4.172,4.172,0,0,1,1.828-1.617,6.311,6.311,0,0,1,2.733-.562,6.113,6.113,0,0,1,2.773.589,4.286,4.286,0,0,1,1.8,1.635A4.452,4.452,0,0,1,158.714,39.342Zm-3.8.018q0-1.837-1.406-1.837T152.1,39.447q0,2.03,1.424,2.03Q154.917,41.478,154.917,39.359Zm-.94-5.783h-2.646l2.628-2.821h3.146ZM165.948,44V39.087a2.184,2.184,0,0,0-.25-1.2.915.915,0,0,0-.813-.365.88.88,0,0,0-.756.378,1.613,1.613,0,0,0-.272.967V44h-3.744V35h3.744v1.406h.035a3.177,3.177,0,0,1,1.2-1.2,3.29,3.29,0,0,1,1.644-.426q2.953,0,2.953,3.727V44ZM28.412,69V67.954h-.035a3.089,3.089,0,0,1-1.169.927,3.331,3.331,0,0,1-1.424.338,3.663,3.663,0,0,1-2.03-.567,3.443,3.443,0,0,1-1.314-1.586A6.106,6.106,0,0,1,22,64.658a5.925,5.925,0,0,1,.519-2.54A4.059,4.059,0,0,1,23.982,60.4a3.769,3.769,0,0,1,2.109-.615,3.193,3.193,0,0,1,1.024.158,2.77,2.77,0,0,1,.817.426,1.273,1.273,0,0,1,.444.532h.035V55.676h3.744V69Zm.079-4.772a1.974,1.974,0,0,0-.356-1.257,1.2,1.2,0,0,0-1.951.11,2.593,2.593,0,0,0-.382,1.49q0,1.907,1.318,1.907a1.173,1.173,0,0,0,1-.514,2.531,2.531,0,0,0,.374-1.5Zm8.692,1.336a1.265,1.265,0,0,0,.668.91,3.012,3.012,0,0,0,1.512.33,6.226,6.226,0,0,0,2.479-.5v2.373a8.908,8.908,0,0,1-3.3.545,5.214,5.214,0,0,1-3.665-1.2,4.277,4.277,0,0,1-1.31-3.313,5.467,5.467,0,0,1,.576-2.558,4.142,4.142,0,0,1,1.705-1.736,5.038,5.038,0,0,1,2.492-.628,4.9,4.9,0,0,1,2.391.545,3.63,3.63,0,0,1,1.507,1.529,4.906,4.906,0,0,1,.514,2.3v1.406Zm2.25-1.96q0-1.556-1.116-1.556a.944.944,0,0,0-.782.426,2.127,2.127,0,0,0-.369,1.129ZM49.04,69V55.676h3.744V69ZM64.6,64.342a4.687,4.687,0,0,1-1.375,3.577,5.375,5.375,0,0,1-3.845,1.3,5.4,5.4,0,0,1-3.819-1.27,4.546,4.546,0,0,1-1.367-3.5,4.692,4.692,0,0,1,.642-2.487,4.172,4.172,0,0,1,1.828-1.617,6.311,6.311,0,0,1,2.733-.562,6.113,6.113,0,0,1,2.773.589A4.286,4.286,0,0,1,63.968,62,4.452,4.452,0,0,1,64.6,64.342Zm-3.8.018q0-1.837-1.406-1.837t-1.406,1.925q0,2.03,1.424,2.03Q60.8,66.478,60.8,64.359Zm12.507,1.652a2.749,2.749,0,0,1-1.165,2.369,5.474,5.474,0,0,1-3.248.839,11.291,11.291,0,0,1-1.5-.123,9.257,9.257,0,0,1-1.455-.3V66.17a7.162,7.162,0,0,0,2.777.738q1.1,0,1.1-.571a.451.451,0,0,0-.255-.391,9.009,9.009,0,0,0-1.336-.514,3.773,3.773,0,0,1-1.74-1,2.382,2.382,0,0,1-.545-1.626,2.594,2.594,0,0,1,1.112-2.21,5.216,5.216,0,0,1,3.125-.813,9.931,9.931,0,0,1,2.5.343v2.522a7.549,7.549,0,0,0-1.213-.4,4.9,4.9,0,0,0-1.107-.158,1.205,1.205,0,0,0-.589.123.379.379,0,0,0-.22.343.478.478,0,0,0,.237.413,4.2,4.2,0,0,0,.949.378,4.4,4.4,0,0,1,1.978,1.037A2.272,2.272,0,0,1,73.307,66.012ZM84.68,69V67.629h-.035A2.944,2.944,0,0,1,81.9,69.22a2.625,2.625,0,0,1-2-.756,2.808,2.808,0,0,1-.721-2.021q0-2.654,3.261-3.076l2.232-.29a.851.851,0,0,0-.4-.721,1.8,1.8,0,0,0-1.063-.281,7,7,0,0,0-3.19.861V60.5a8.535,8.535,0,0,1,1.828-.519,10.639,10.639,0,0,1,1.881-.2,4.722,4.722,0,0,1,3.327.98A4.368,4.368,0,0,1,88.1,64.034V69Zm-2.215-3.059a.83.83,0,0,0,.233.606.888.888,0,0,0,.664.237,1.18,1.18,0,0,0,.954-.439,1.7,1.7,0,0,0,.365-1.125v-.343l-1.266.176Q82.465,65.212,82.465,65.941Zm14.634.07a2.749,2.749,0,0,1-1.165,2.369,5.474,5.474,0,0,1-3.248.839,11.291,11.291,0,0,1-1.5-.123,9.257,9.257,0,0,1-1.455-.3V66.17a7.162,7.162,0,0,0,2.777.738q1.1,0,1.1-.571a.451.451,0,0,0-.255-.391,9.009,9.009,0,0,0-1.336-.514,3.773,3.773,0,0,1-1.74-1,2.382,2.382,0,0,1-.545-1.626,2.594,2.594,0,0,1,1.112-2.21,5.216,5.216,0,0,1,3.125-.813,9.931,9.931,0,0,1,2.5.343v2.522a7.549,7.549,0,0,0-1.213-.4,4.9,4.9,0,0,0-1.107-.158,1.205,1.205,0,0,0-.589.123.379.379,0,0,0-.22.343.478.478,0,0,0,.237.413,4.2,4.2,0,0,0,.949.378A4.4,4.4,0,0,1,96.5,64.386,2.272,2.272,0,0,1,97.1,66.012Zm11.531-1.784a6.4,6.4,0,0,1-.5,2.61,4.046,4.046,0,0,1-1.415,1.758,3.564,3.564,0,0,1-2.057.624,2.755,2.755,0,0,1-2.4-1.151h-.035V73.14H98.479V60h3.744v1.222h.035a3.171,3.171,0,0,1,1.16-1.059,3.364,3.364,0,0,1,1.617-.382,3.215,3.215,0,0,1,2.667,1.16A5.147,5.147,0,0,1,108.63,64.228Zm-3.8.114a2.346,2.346,0,0,0-.33-1.336,1.237,1.237,0,0,0-1.982.026,2.341,2.341,0,0,0-.369,1.4v.176a2.562,2.562,0,0,0,.316,1.362,1.044,1.044,0,0,0,.949.51,1.182,1.182,0,0,0,1.046-.558A2.849,2.849,0,0,0,104.833,64.342Zm8.429,1.222a1.265,1.265,0,0,0,.668.91,3.012,3.012,0,0,0,1.512.33,6.226,6.226,0,0,0,2.479-.5v2.373a8.908,8.908,0,0,1-3.3.545,5.214,5.214,0,0,1-3.665-1.2,4.277,4.277,0,0,1-1.31-3.313,5.467,5.467,0,0,1,.576-2.558,4.142,4.142,0,0,1,1.705-1.736,5.038,5.038,0,0,1,2.492-.628,4.9,4.9,0,0,1,2.391.545,3.63,3.63,0,0,1,1.507,1.529,4.906,4.906,0,0,1,.514,2.3v1.406Zm2.25-1.96q0-1.556-1.116-1.556a.944.944,0,0,0-.782.426,2.127,2.127,0,0,0-.369,1.129Zm12.023,5.142a3.529,3.529,0,0,1-1.134.343,10.719,10.719,0,0,1-1.784.132,5.488,5.488,0,0,1-2.544-.576,4.2,4.2,0,0,1-1.736-1.613,4.478,4.478,0,0,1-.615-2.329,5.1,5.1,0,0,1,.655-2.65,4.268,4.268,0,0,1,1.868-1.687,6.407,6.407,0,0,1,2.813-.584,9.839,9.839,0,0,1,1.578.114,2.41,2.41,0,0,1,.9.264v2.918a2.6,2.6,0,0,0-.809-.387,3.248,3.248,0,0,0-.976-.167,2.375,2.375,0,0,0-1.666.523,1.9,1.9,0,0,0-.567,1.472,1.868,1.868,0,0,0,.558,1.446,2.177,2.177,0,0,0,1.534.514,3.82,3.82,0,0,0,1.925-.5Zm7.831.132a3.648,3.648,0,0,1-.835.233,7.634,7.634,0,0,1-1.4.11,3.357,3.357,0,0,1-2.448-.861,3.269,3.269,0,0,1-.883-2.452V62.593h-1.415V60H129.8V58.233l3.691-1.02V60h1.872v2.593h-1.872v2.7q0,1.187.94,1.187a2.551,2.551,0,0,0,.932-.193Zm11.18-4.535a4.687,4.687,0,0,1-1.375,3.577,6.355,6.355,0,0,1-7.664.031,4.546,4.546,0,0,1-1.367-3.5,4.692,4.692,0,0,1,.642-2.487,4.172,4.172,0,0,1,1.828-1.617,6.311,6.311,0,0,1,2.733-.562,6.113,6.113,0,0,1,2.773.589,4.286,4.286,0,0,1,1.8,1.635A4.452,4.452,0,0,1,146.546,64.342Zm-3.8.018q0-1.837-1.406-1.837t-1.406,1.925q0,2.03,1.424,2.03Q142.749,66.478,142.749,64.359Zm12.507,1.652a2.749,2.749,0,0,1-1.165,2.369,5.474,5.474,0,0,1-3.248.839,11.291,11.291,0,0,1-1.5-.123,9.257,9.257,0,0,1-1.455-.3V66.17a7.162,7.162,0,0,0,2.777.738q1.1,0,1.1-.571a.451.451,0,0,0-.255-.391,9.009,9.009,0,0,0-1.336-.514,3.773,3.773,0,0,1-1.74-1,2.382,2.382,0,0,1-.545-1.626A2.594,2.594,0,0,1,149,60.593a5.216,5.216,0,0,1,3.125-.813,9.931,9.931,0,0,1,2.5.343v2.522a7.549,7.549,0,0,0-1.213-.4,4.9,4.9,0,0,0-1.107-.158,1.205,1.205,0,0,0-.589.123.379.379,0,0,0-.22.343.478.478,0,0,0,.237.413,4.2,4.2,0,0,0,.949.378,4.4,4.4,0,0,1,1.978,1.037A2.272,2.272,0,0,1,155.256,66.012Zm3.885,5.08h-3.023l.9-4.482H160.4ZM13.866,82.574a1.608,1.608,0,0,1-.576,1.283,2.252,2.252,0,0,1-1.516.492,2.2,2.2,0,0,1-1.5-.51,1.612,1.612,0,0,1-.584-1.266,1.561,1.561,0,0,1,.567-1.252,2.272,2.272,0,0,1,1.516-.479,2.293,2.293,0,0,1,1.516.479A1.551,1.551,0,0,1,13.866,82.574ZM9.9,94V85h3.744v9ZM27.12,94V88.814a1.654,1.654,0,0,0-.233-.971.876.876,0,0,0-.76-.321.949.949,0,0,0-.809.391A1.79,1.79,0,0,0,25.028,89v5H21.284V88.9q0-1.38-.94-1.38a1,1,0,0,0-.861.4,1.933,1.933,0,0,0-.29,1.147V94H15.448V85h3.744v1.424h.035a2.9,2.9,0,0,1,.672-.769,3.946,3.946,0,0,1,1.042-.633A3.235,3.235,0,0,1,22.2,84.78a3.181,3.181,0,0,1,1.613.378,2.931,2.931,0,0,1,1.094,1.2,3.207,3.207,0,0,1,1.266-1.165,3.772,3.772,0,0,1,1.758-.409A2.645,2.645,0,0,1,30.1,85.7a4.109,4.109,0,0,1,.756,2.663V94ZM42.7,89.228a6.4,6.4,0,0,1-.5,2.61A4.046,4.046,0,0,1,40.787,93.6a3.564,3.564,0,0,1-2.057.624,2.755,2.755,0,0,1-2.4-1.151H36.3V98.14H32.552V85H36.3v1.222h.035a3.171,3.171,0,0,1,1.16-1.059,3.364,3.364,0,0,1,1.617-.382,3.215,3.215,0,0,1,2.667,1.16A5.147,5.147,0,0,1,42.7,89.228Zm-3.8.114a2.346,2.346,0,0,0-.33-1.336,1.237,1.237,0,0,0-1.982.026,2.341,2.341,0,0,0-.369,1.4v.176a2.562,2.562,0,0,0,.316,1.362,1.044,1.044,0,0,0,.949.51,1.182,1.182,0,0,0,1.046-.558A2.849,2.849,0,0,0,38.906,89.342ZM49.1,94V92.629h-.035a2.944,2.944,0,0,1-2.742,1.591,2.625,2.625,0,0,1-2-.756,2.808,2.808,0,0,1-.721-2.021q0-2.654,3.261-3.076l2.232-.29a.851.851,0,0,0-.4-.721,1.8,1.8,0,0,0-1.063-.281,7,7,0,0,0-3.19.861V85.5a8.535,8.535,0,0,1,1.828-.519,10.639,10.639,0,0,1,1.881-.2,4.722,4.722,0,0,1,3.327.98,4.368,4.368,0,0,1,1.033,3.274V94Zm-2.215-3.059a.83.83,0,0,0,.233.606.888.888,0,0,0,.664.237,1.18,1.18,0,0,0,.954-.439,1.7,1.7,0,0,0,.365-1.125v-.343l-1.266.176Q46.887,90.212,46.887,90.941Zm14.739,2.8a3.529,3.529,0,0,1-1.134.343,10.719,10.719,0,0,1-1.784.132,5.488,5.488,0,0,1-2.544-.576,4.2,4.2,0,0,1-1.736-1.613,4.478,4.478,0,0,1-.615-2.329,5.1,5.1,0,0,1,.655-2.65,4.268,4.268,0,0,1,1.868-1.687,6.407,6.407,0,0,1,2.813-.584,9.839,9.839,0,0,1,1.578.114,2.41,2.41,0,0,1,.9.264v2.918a2.6,2.6,0,0,0-.809-.387,3.248,3.248,0,0,0-.976-.167,2.375,2.375,0,0,0-1.666.523,1.9,1.9,0,0,0-.567,1.472,1.868,1.868,0,0,0,.558,1.446,2.177,2.177,0,0,0,1.534.514,3.82,3.82,0,0,0,1.925-.5Zm7.831.132a3.648,3.648,0,0,1-.835.233,7.634,7.634,0,0,1-1.4.11,3.357,3.357,0,0,1-2.448-.861,3.269,3.269,0,0,1-.883-2.452V87.593H62.479V85h1.415V83.233l3.691-1.02V85h1.872v2.593H67.585v2.7q0,1.187.94,1.187a2.551,2.551,0,0,0,.932-.193Zm11.18-4.535a4.687,4.687,0,0,1-1.375,3.577,6.355,6.355,0,0,1-7.664.031,4.546,4.546,0,0,1-1.367-3.5,4.692,4.692,0,0,1,.642-2.487A4.172,4.172,0,0,1,72.7,85.343a6.311,6.311,0,0,1,2.733-.562,6.113,6.113,0,0,1,2.773.589A4.286,4.286,0,0,1,80.008,87,4.452,4.452,0,0,1,80.637,89.342Zm-3.8.018q0-1.837-1.406-1.837t-1.406,1.925q0,2.03,1.424,2.03Q76.84,91.478,76.84,89.359Zm12.507,1.652a2.749,2.749,0,0,1-1.165,2.369,5.474,5.474,0,0,1-3.248.839,11.291,11.291,0,0,1-1.5-.123,9.257,9.257,0,0,1-1.455-.3V91.17a7.162,7.162,0,0,0,2.777.738q1.1,0,1.1-.571a.451.451,0,0,0-.255-.391,9.009,9.009,0,0,0-1.336-.514,3.773,3.773,0,0,1-1.74-1,2.382,2.382,0,0,1-.545-1.626,2.594,2.594,0,0,1,1.112-2.21,5.216,5.216,0,0,1,3.125-.813,9.931,9.931,0,0,1,2.5.343v2.522a7.549,7.549,0,0,0-1.213-.4,4.9,4.9,0,0,0-1.107-.158,1.205,1.205,0,0,0-.589.123.379.379,0,0,0-.22.343.478.478,0,0,0,.237.413,4.2,4.2,0,0,0,.949.378,4.4,4.4,0,0,1,1.978,1.037A2.272,2.272,0,0,1,89.347,91.012Zm8.13,7.216a7.561,7.561,0,0,1-1.134-.092,5.5,5.5,0,0,1-1.081-.268V95.046a2.245,2.245,0,0,0,.655.308,2.676,2.676,0,0,0,.822.141,1.351,1.351,0,0,0,1.389-.826l.29-.7L94.655,85h4.14l1.09,4.342a10.78,10.78,0,0,1,.343,1.635h.035q.026-.193.075-.431T101.7,85h3.639l-3.313,9.255a6.873,6.873,0,0,1-1.85,3.05A4.07,4.07,0,0,1,97.477,98.228Zm20.355-10.02a3.6,3.6,0,0,0-1.169-.255q-1.854,0-1.854,2.145V94h-3.744V85h3.744v1.582h.035a2.81,2.81,0,0,1,.976-1.3,2.506,2.506,0,0,1,1.477-.444,1.269,1.269,0,0,1,.536.105Zm5.045-5.634a1.608,1.608,0,0,1-.576,1.283,2.252,2.252,0,0,1-1.516.492,2.2,2.2,0,0,1-1.5-.51,1.612,1.612,0,0,1-.584-1.266,1.561,1.561,0,0,1,.567-1.252,2.639,2.639,0,0,1,3.032,0A1.551,1.551,0,0,1,122.877,82.574ZM118.913,94V85h3.744v9Zm8.771-3.437a1.265,1.265,0,0,0,.668.91,3.012,3.012,0,0,0,1.512.33,6.226,6.226,0,0,0,2.479-.5v2.373a8.908,8.908,0,0,1-3.3.545,5.214,5.214,0,0,1-3.665-1.2,4.277,4.277,0,0,1-1.31-3.313,5.467,5.467,0,0,1,.576-2.558,4.142,4.142,0,0,1,1.705-1.736,5.038,5.038,0,0,1,2.492-.628,4.9,4.9,0,0,1,2.391.545,3.63,3.63,0,0,1,1.507,1.529,4.906,4.906,0,0,1,.514,2.3v1.406Zm2.25-1.96q0-1.556-1.116-1.556a.944.944,0,0,0-.782.426,2.127,2.127,0,0,0-.369,1.129Zm11.918,2.408a2.749,2.749,0,0,1-1.165,2.369,5.474,5.474,0,0,1-3.248.839,11.291,11.291,0,0,1-1.5-.123,9.257,9.257,0,0,1-1.455-.3V91.17a7.162,7.162,0,0,0,2.777.738q1.1,0,1.1-.571a.451.451,0,0,0-.255-.391,9.009,9.009,0,0,0-1.336-.514,3.773,3.773,0,0,1-1.74-1,2.382,2.382,0,0,1-.545-1.626,2.594,2.594,0,0,1,1.112-2.21,5.216,5.216,0,0,1,3.125-.813,9.931,9.931,0,0,1,2.5.343v2.522a7.549,7.549,0,0,0-1.213-.4,4.9,4.9,0,0,0-1.107-.158,1.205,1.205,0,0,0-.589.123.379.379,0,0,0-.22.343.478.478,0,0,0,.237.413,4.2,4.2,0,0,0,.949.378,4.4,4.4,0,0,1,1.978,1.037A2.272,2.272,0,0,1,141.853,91.012Zm11.136,1.731a5.116,5.116,0,0,1-1.63,4.039,6.962,6.962,0,0,1-4.759,1.446,9.93,9.93,0,0,1-1.635-.132,4.5,4.5,0,0,1-1.134-.3V94.861a5.656,5.656,0,0,0,2.663.773,3.122,3.122,0,0,0,2.013-.606,1.959,1.959,0,0,0,.756-1.608v-.554h-.035a2.909,2.909,0,0,1-1.112.984,3.23,3.23,0,0,1-1.516.369,3.4,3.4,0,0,1-2.751-1.208,5.045,5.045,0,0,1-1.011-3.335,5.964,5.964,0,0,1,.527-2.575,4.018,4.018,0,0,1,1.468-1.718,3.769,3.769,0,0,1,2.074-.6,2.6,2.6,0,0,1,2.32,1.151h.035V85h3.727Zm-3.665-3.5a2.02,2.02,0,0,0-.356-1.257,1.13,1.13,0,0,0-.945-.466,1.163,1.163,0,0,0-1.011.563,2.656,2.656,0,0,0-.378,1.5,2.6,2.6,0,0,0,.316,1.38,1.092,1.092,0,0,0,1,.51,1.161,1.161,0,0,0,1.006-.523,2.408,2.408,0,0,0,.365-1.4Zm15.478.1a4.687,4.687,0,0,1-1.375,3.577,6.355,6.355,0,0,1-7.664.031,4.546,4.546,0,0,1-1.367-3.5,4.692,4.692,0,0,1,.642-2.487,4.172,4.172,0,0,1,1.828-1.617,6.311,6.311,0,0,1,2.733-.562,6.113,6.113,0,0,1,2.773.589,4.286,4.286,0,0,1,1.8,1.635A4.452,4.452,0,0,1,164.8,89.342Zm-3.8.018q0-1.837-1.406-1.837t-1.406,1.925q0,2.03,1.424,2.03Q161,91.478,161,89.359Zm12.507,1.652a2.749,2.749,0,0,1-1.165,2.369,5.474,5.474,0,0,1-3.248.839,11.291,11.291,0,0,1-1.5-.123,9.257,9.257,0,0,1-1.455-.3V91.17a7.162,7.162,0,0,0,2.777.738q1.1,0,1.1-.571a.451.451,0,0,0-.255-.391,9.009,9.009,0,0,0-1.336-.514,3.773,3.773,0,0,1-1.74-1,2.382,2.382,0,0,1-.545-1.626,2.594,2.594,0,0,1,1.112-2.21,5.216,5.216,0,0,1,3.125-.813,9.931,9.931,0,0,1,2.5.343v2.522a7.549,7.549,0,0,0-1.213-.4,4.9,4.9,0,0,0-1.107-.158,1.205,1.205,0,0,0-.589.123.379.379,0,0,0-.22.343.478.478,0,0,0,.237.413,4.2,4.2,0,0,0,.949.378,4.4,4.4,0,0,1,1.978,1.037A2.272,2.272,0,0,1,173.511,91.012ZM40.721,119v-1.371h-.035a2.944,2.944,0,0,1-2.742,1.591,2.625,2.625,0,0,1-2-.756,2.808,2.808,0,0,1-.721-2.021q0-2.654,3.261-3.076l2.232-.29a.851.851,0,0,0-.4-.721,1.8,1.8,0,0,0-1.063-.281,7,7,0,0,0-3.19.861V110.5a8.535,8.535,0,0,1,1.828-.519,10.639,10.639,0,0,1,1.881-.2,4.722,4.722,0,0,1,3.327.98,4.368,4.368,0,0,1,1.033,3.274V119Zm-2.215-3.059a.83.83,0,0,0,.233.606.888.888,0,0,0,.664.237,1.18,1.18,0,0,0,.954-.439,1.7,1.7,0,0,0,.365-1.125v-.343l-1.266.176Q38.506,115.212,38.506,115.941ZM57.5,119v-5.186a1.654,1.654,0,0,0-.233-.971.876.876,0,0,0-.76-.321.949.949,0,0,0-.809.391,1.79,1.79,0,0,0-.29,1.085v5H51.664v-5.1q0-1.38-.94-1.38a1,1,0,0,0-.861.4,1.933,1.933,0,0,0-.29,1.147V119H45.828v-9h3.744v1.424h.035a2.9,2.9,0,0,1,.672-.769,3.946,3.946,0,0,1,1.042-.633,3.235,3.235,0,0,1,1.257-.242,3.181,3.181,0,0,1,1.613.378,2.931,2.931,0,0,1,1.094,1.2,3.207,3.207,0,0,1,1.266-1.165,3.772,3.772,0,0,1,1.758-.409,2.645,2.645,0,0,1,2.171.923,4.109,4.109,0,0,1,.756,2.663V119Zm15.583-4.772a6.586,6.586,0,0,1-.488,2.615A3.975,3.975,0,0,1,71.21,118.6a3.486,3.486,0,0,1-2.03.62,3.2,3.2,0,0,1-1.49-.321,2.683,2.683,0,0,1-.98-.831h-.035V119H62.931V105.676h3.744v5.546h.035a3.083,3.083,0,0,1,1.191-1.055,3.567,3.567,0,0,1,1.657-.387,3.157,3.157,0,0,1,2.615,1.134A5.2,5.2,0,0,1,73.083,114.228Zm-3.8.114a2.234,2.234,0,0,0-.347-1.362,1.25,1.25,0,0,0-1.951.022,1.933,1.933,0,0,0-.382,1.244v.545a2,2,0,0,0,.343,1.23,1.094,1.094,0,0,0,.923.457,1.182,1.182,0,0,0,1.046-.558A2.849,2.849,0,0,0,69.286,114.342Zm9.167-6.768a1.608,1.608,0,0,1-.576,1.283,2.252,2.252,0,0,1-1.516.492,2.2,2.2,0,0,1-1.5-.51,1.612,1.612,0,0,1-.584-1.266,1.561,1.561,0,0,1,.567-1.252,2.639,2.639,0,0,1,3.032,0A1.551,1.551,0,0,1,78.453,107.574ZM74.489,119v-9h3.744v9Zm8.771-3.437a1.265,1.265,0,0,0,.668.91,3.012,3.012,0,0,0,1.512.33,6.226,6.226,0,0,0,2.479-.5v2.373a8.908,8.908,0,0,1-3.3.545,5.214,5.214,0,0,1-3.665-1.2,4.277,4.277,0,0,1-1.31-3.313,5.467,5.467,0,0,1,.576-2.558,4.142,4.142,0,0,1,1.705-1.736,5.038,5.038,0,0,1,2.492-.628,4.9,4.9,0,0,1,2.391.545,3.63,3.63,0,0,1,1.507,1.529,4.906,4.906,0,0,1,.514,2.3v1.406Zm2.25-1.96q0-1.556-1.116-1.556a.944.944,0,0,0-.782.426,2.127,2.127,0,0,0-.369,1.129ZM95.952,119v-4.913a2.184,2.184,0,0,0-.25-1.2.915.915,0,0,0-.813-.365.88.88,0,0,0-.756.378,1.613,1.613,0,0,0-.272.967V119H90.116v-9H93.86v1.406H93.9a3.177,3.177,0,0,1,1.2-1.2,3.29,3.29,0,0,1,1.644-.426q2.953,0,2.953,3.727V119Zm11.769-.123a3.648,3.648,0,0,1-.835.233,7.634,7.634,0,0,1-1.4.11,3.357,3.357,0,0,1-2.448-.861,3.269,3.269,0,0,1-.883-2.452v-3.313h-1.415V110h1.415v-1.767l3.691-1.02V110h1.872v2.593h-1.872v2.7q0,1.187.94,1.187a2.551,2.551,0,0,0,.932-.193Zm6.161.123v-1.371h-.035a2.944,2.944,0,0,1-2.742,1.591,2.625,2.625,0,0,1-2-.756,2.808,2.808,0,0,1-.721-2.021q0-2.654,3.261-3.076l2.232-.29a.851.851,0,0,0-.4-.721,1.8,1.8,0,0,0-1.063-.281,7,7,0,0,0-3.19.861V110.5a8.535,8.535,0,0,1,1.828-.519,10.639,10.639,0,0,1,1.881-.2,4.722,4.722,0,0,1,3.327.98,4.368,4.368,0,0,1,1.033,3.274V119Zm-2.215-3.059a.83.83,0,0,0,.233.606.888.888,0,0,0,.664.237,1.18,1.18,0,0,0,.954-.439,1.7,1.7,0,0,0,.365-1.125v-.343l-1.266.176Q111.667,115.212,111.667,115.941ZM118.988,119V105.676h3.744V119Zm8.771-3.437a1.265,1.265,0,0,0,.668.91,3.012,3.012,0,0,0,1.512.33,6.226,6.226,0,0,0,2.479-.5v2.373a8.908,8.908,0,0,1-3.3.545,5.214,5.214,0,0,1-3.665-1.2,4.277,4.277,0,0,1-1.31-3.313,5.467,5.467,0,0,1,.576-2.558,4.142,4.142,0,0,1,1.705-1.736,5.038,5.038,0,0,1,2.492-.628,4.9,4.9,0,0,1,2.391.545,3.63,3.63,0,0,1,1.507,1.529,4.906,4.906,0,0,1,.514,2.3v1.406Zm2.25-1.96q0-1.556-1.116-1.556a.944.944,0,0,0-.782.426,2.127,2.127,0,0,0-.369,1.129Zm11.918,2.408a2.749,2.749,0,0,1-1.165,2.369,5.474,5.474,0,0,1-3.248.839,11.291,11.291,0,0,1-1.5-.123,9.257,9.257,0,0,1-1.455-.3V116.17a7.162,7.162,0,0,0,2.777.738q1.1,0,1.1-.571a.451.451,0,0,0-.255-.391,9.009,9.009,0,0,0-1.336-.514,3.773,3.773,0,0,1-1.74-1,2.382,2.382,0,0,1-.545-1.626,2.594,2.594,0,0,1,1.112-2.21,5.216,5.216,0,0,1,3.125-.813,9.931,9.931,0,0,1,2.5.343v2.522a7.549,7.549,0,0,0-1.213-.4,4.9,4.9,0,0,0-1.107-.158,1.205,1.205,0,0,0-.589.123.379.379,0,0,0-.22.343.478.478,0,0,0,.237.413,4.2,4.2,0,0,0,.949.378,4.4,4.4,0,0,1,1.978,1.037A2.272,2.272,0,0,1,141.927,116.012Zm5.449,1.424a1.634,1.634,0,0,1-.562,1.292,2.283,2.283,0,0,1-1.556.492,2.14,2.14,0,0,1-1.481-.514,1.636,1.636,0,0,1-.576-1.27,1.561,1.561,0,0,1,.567-1.252,2.639,2.639,0,0,1,3.032,0A1.551,1.551,0,0,1,147.376,117.436Z" transform="translate(902 1621)" fill="#12263f"/>
    <path id="Trazado_736978" data-name="Trazado 736978" d="M16.173,19V12.092q0-.976.062-2.145l.026-.58h-.105q-.281,1.485-.431,2.057L13.871,19H10.3L8.36,11.512q-.079-.281-.413-2.145H7.841q.123,2.953.123,3.691V19H4.633V6.4H10.32l1.731,6.847a8.451,8.451,0,0,1,.163.857q.1.646.127,1h.053q.1-.8.308-1.89L14.319,6.4h5.6V19Zm9.105-3.437a1.265,1.265,0,0,0,.668.91,3.012,3.012,0,0,0,1.512.33,6.226,6.226,0,0,0,2.479-.5v2.373a8.908,8.908,0,0,1-3.3.545,5.214,5.214,0,0,1-3.665-1.2,4.277,4.277,0,0,1-1.31-3.313,5.467,5.467,0,0,1,.576-2.558,4.142,4.142,0,0,1,1.705-1.736A5.038,5.038,0,0,1,26.43,9.78a4.9,4.9,0,0,1,2.391.545,3.63,3.63,0,0,1,1.507,1.529,4.906,4.906,0,0,1,.514,2.3v1.406Zm2.25-1.96q0-1.556-1.116-1.556a.944.944,0,0,0-.782.426,2.127,2.127,0,0,0-.369,1.129Zm10.942,5.273a3.648,3.648,0,0,1-.835.233,7.634,7.634,0,0,1-1.4.11,3.357,3.357,0,0,1-2.448-.861,3.269,3.269,0,0,1-.883-2.452V12.593H31.493V10h1.415V8.233L36.6,7.214V10h1.872v2.593H36.6v2.7q0,1.187.94,1.187a2.551,2.551,0,0,0,.932-.193Zm11.18-4.535a4.687,4.687,0,0,1-1.375,3.577,5.375,5.375,0,0,1-3.845,1.3,5.4,5.4,0,0,1-3.819-1.27,4.546,4.546,0,0,1-1.367-3.5,4.692,4.692,0,0,1,.642-2.487,4.172,4.172,0,0,1,1.828-1.617,6.311,6.311,0,0,1,2.733-.562,6.113,6.113,0,0,1,2.773.589A4.286,4.286,0,0,1,49.022,12,4.452,4.452,0,0,1,49.651,14.342Zm-3.8.018q0-1.837-1.406-1.837t-1.406,1.925q0,2.03,1.424,2.03Q45.854,16.478,45.854,14.359ZM57.06,19V17.954h-.035a3.089,3.089,0,0,1-1.169.927,3.331,3.331,0,0,1-1.424.338,3.663,3.663,0,0,1-2.03-.567,3.443,3.443,0,0,1-1.314-1.586,6.106,6.106,0,0,1-.435-2.408,5.925,5.925,0,0,1,.519-2.54A4.059,4.059,0,0,1,52.63,10.4,3.769,3.769,0,0,1,54.74,9.78a3.193,3.193,0,0,1,1.024.158,2.77,2.77,0,0,1,.817.426,1.273,1.273,0,0,1,.444.532h.035V5.676H60.8V19Zm.079-4.772a1.974,1.974,0,0,0-.356-1.257,1.2,1.2,0,0,0-1.951.11,2.593,2.593,0,0,0-.382,1.49q0,1.907,1.318,1.907a1.173,1.173,0,0,0,1-.514,2.531,2.531,0,0,0,.374-1.5Zm15.478.114a4.687,4.687,0,0,1-1.375,3.577,6.355,6.355,0,0,1-7.664.031,4.546,4.546,0,0,1-1.367-3.5,4.692,4.692,0,0,1,.642-2.487,4.172,4.172,0,0,1,1.828-1.617,6.311,6.311,0,0,1,2.733-.562,6.113,6.113,0,0,1,2.773.589A4.286,4.286,0,0,1,71.988,12,4.452,4.452,0,0,1,72.617,14.342Zm-3.8.018q0-1.837-1.406-1.837t-1.406,1.925q0,2.03,1.424,2.03Q68.82,16.478,68.82,14.359ZM74.014,19V5.676h3.744V19Zm15.557-4.658A4.687,4.687,0,0,1,88.2,17.919a6.355,6.355,0,0,1-7.664.031,4.546,4.546,0,0,1-1.367-3.5,4.692,4.692,0,0,1,.642-2.487,4.172,4.172,0,0,1,1.828-1.617,6.311,6.311,0,0,1,2.733-.562,6.113,6.113,0,0,1,2.773.589A4.286,4.286,0,0,1,88.942,12,4.452,4.452,0,0,1,89.571,14.342Zm-3.8.018q0-1.837-1.406-1.837t-1.406,1.925q0,2.03,1.424,2.03Q85.774,16.478,85.774,14.359Zm14.95,3.384a5.116,5.116,0,0,1-1.63,4.039,6.962,6.962,0,0,1-4.759,1.446A9.93,9.93,0,0,1,92.7,23.1a4.5,4.5,0,0,1-1.134-.3V19.861a5.656,5.656,0,0,0,2.663.773,3.122,3.122,0,0,0,2.013-.606A1.959,1.959,0,0,0,97,18.42v-.554h-.035a2.909,2.909,0,0,1-1.112.984,3.23,3.23,0,0,1-1.516.369,3.4,3.4,0,0,1-2.751-1.208,5.045,5.045,0,0,1-1.011-3.335A5.964,5.964,0,0,1,91.1,12.1a4.018,4.018,0,0,1,1.468-1.718,3.769,3.769,0,0,1,2.074-.6,2.6,2.6,0,0,1,2.32,1.151H97V10h3.727Zm-3.665-3.5a2.02,2.02,0,0,0-.356-1.257,1.13,1.13,0,0,0-.945-.466,1.163,1.163,0,0,0-1.011.563,2.656,2.656,0,0,0-.378,1.5,2.6,2.6,0,0,0,.316,1.38,1.092,1.092,0,0,0,1,.51,1.161,1.161,0,0,0,1.006-.523,2.408,2.408,0,0,0,.365-1.4ZM102.526,19V10h3.744v9Zm2.338-10.424h-2.646l2.628-2.821h3.146ZM113.064,19V17.629h-.035a2.944,2.944,0,0,1-2.742,1.591,2.625,2.625,0,0,1-2-.756,2.808,2.808,0,0,1-.721-2.021q0-2.654,3.261-3.076l2.232-.29a.851.851,0,0,0-.4-.721,1.8,1.8,0,0,0-1.063-.281,7,7,0,0,0-3.19.861V10.5a8.535,8.535,0,0,1,1.828-.519,10.639,10.639,0,0,1,1.881-.2,4.722,4.722,0,0,1,3.327.98,4.368,4.368,0,0,1,1.033,3.274V19Zm-2.215-3.059a.83.83,0,0,0,.233.606.888.888,0,0,0,.664.237,1.18,1.18,0,0,0,.954-.439,1.7,1.7,0,0,0,.365-1.125v-.343l-1.266.176Q110.849,15.212,110.849,15.941Zm14.634.07a2.749,2.749,0,0,1-1.165,2.369,5.474,5.474,0,0,1-3.248.839,11.291,11.291,0,0,1-1.5-.123,9.257,9.257,0,0,1-1.455-.3V16.17a7.162,7.162,0,0,0,2.777.738q1.1,0,1.1-.571a.451.451,0,0,0-.255-.391,9.009,9.009,0,0,0-1.336-.514,3.773,3.773,0,0,1-1.74-1,2.382,2.382,0,0,1-.545-1.626,2.594,2.594,0,0,1,1.112-2.21,5.216,5.216,0,0,1,3.125-.813,9.931,9.931,0,0,1,2.5.343v2.522a7.549,7.549,0,0,0-1.213-.4,4.9,4.9,0,0,0-1.107-.158,1.205,1.205,0,0,0-.589.123.379.379,0,0,0-.22.343.478.478,0,0,0,.237.413,4.2,4.2,0,0,0,.949.378,4.4,4.4,0,0,1,1.978,1.037A2.272,2.272,0,0,1,125.483,16.012ZM137.875,19V17.954h-.035a3.089,3.089,0,0,1-1.169.927,3.331,3.331,0,0,1-1.424.338,3.663,3.663,0,0,1-2.03-.567,3.443,3.443,0,0,1-1.314-1.586,6.106,6.106,0,0,1-.435-2.408,5.925,5.925,0,0,1,.519-2.54,4.059,4.059,0,0,1,1.459-1.723,3.769,3.769,0,0,1,2.109-.615,3.193,3.193,0,0,1,1.024.158,2.77,2.77,0,0,1,.817.426,1.273,1.273,0,0,1,.444.532h.035V5.676h3.744V19Zm.079-4.772a1.974,1.974,0,0,0-.356-1.257,1.2,1.2,0,0,0-1.951.11,2.593,2.593,0,0,0-.382,1.49q0,1.907,1.318,1.907a1.173,1.173,0,0,0,1-.514,2.531,2.531,0,0,0,.374-1.5Zm8.692,1.336a1.265,1.265,0,0,0,.668.91,3.012,3.012,0,0,0,1.512.33,6.226,6.226,0,0,0,2.479-.5v2.373a8.908,8.908,0,0,1-3.3.545,5.214,5.214,0,0,1-3.665-1.2,4.277,4.277,0,0,1-1.31-3.313,5.467,5.467,0,0,1,.576-2.558,4.142,4.142,0,0,1,1.705-1.736A5.038,5.038,0,0,1,147.8,9.78a4.9,4.9,0,0,1,2.391.545,3.63,3.63,0,0,1,1.507,1.529,4.906,4.906,0,0,1,.514,2.3v1.406Zm2.25-1.96q0-1.556-1.116-1.556a.944.944,0,0,0-.782.426,2.127,2.127,0,0,0-.369,1.129ZM25.775,44H21.328l-3.006-9h3.9l1.1,4.913a11.366,11.366,0,0,1,.29,1.784h.053q.018-.176.048-.36T25.02,35H28.9Zm9.018,0V42.629h-.035a2.944,2.944,0,0,1-2.742,1.591,2.625,2.625,0,0,1-2-.756,2.808,2.808,0,0,1-.721-2.021q0-2.654,3.261-3.076l2.232-.29a.851.851,0,0,0-.4-.721,1.8,1.8,0,0,0-1.063-.281,7,7,0,0,0-3.19.861V35.5a8.535,8.535,0,0,1,1.828-.519,10.639,10.639,0,0,1,1.881-.2,4.722,4.722,0,0,1,3.327.98,4.368,4.368,0,0,1,1.033,3.274V44Zm-2.215-3.059a.83.83,0,0,0,.233.606.888.888,0,0,0,.664.237,1.18,1.18,0,0,0,.954-.439,1.7,1.7,0,0,0,.365-1.125v-.343l-1.266.176Q32.578,40.212,32.578,40.941ZM39.9,44V30.676h3.744V44Zm15.557-4.658a4.687,4.687,0,0,1-1.375,3.577,5.375,5.375,0,0,1-3.845,1.3,5.4,5.4,0,0,1-3.819-1.27,4.546,4.546,0,0,1-1.367-3.5,4.692,4.692,0,0,1,.642-2.487,4.172,4.172,0,0,1,1.828-1.617,6.311,6.311,0,0,1,2.733-.562,6.113,6.113,0,0,1,2.773.589A4.286,4.286,0,0,1,54.828,37,4.452,4.452,0,0,1,55.456,39.342Zm-3.8.018q0-1.837-1.406-1.837t-1.406,1.925q0,2.03,1.424,2.03Q51.659,41.478,51.659,39.359Zm11.962-1.151a3.6,3.6,0,0,0-1.169-.255q-1.854,0-1.854,2.145V44H56.854V35H60.6v1.582h.035a2.81,2.81,0,0,1,.976-1.3,2.506,2.506,0,0,1,1.477-.444,1.269,1.269,0,0,1,.536.105ZM69.694,44V42.629h-.035a2.944,2.944,0,0,1-2.742,1.591,2.625,2.625,0,0,1-2-.756,2.808,2.808,0,0,1-.721-2.021q0-2.654,3.261-3.076l2.232-.29a.851.851,0,0,0-.4-.721,1.8,1.8,0,0,0-1.063-.281,7,7,0,0,0-3.19.861V35.5a8.535,8.535,0,0,1,1.828-.519,10.639,10.639,0,0,1,1.881-.2,4.722,4.722,0,0,1,3.327.98,4.368,4.368,0,0,1,1.033,3.274V44Zm-2.215-3.059a.83.83,0,0,0,.233.606.888.888,0,0,0,.664.237,1.18,1.18,0,0,0,.954-.439,1.7,1.7,0,0,0,.365-1.125v-.343l-1.266.176Q67.479,40.212,67.479,40.941Zm14.739,2.8a3.529,3.529,0,0,1-1.134.343,10.719,10.719,0,0,1-1.784.132,5.488,5.488,0,0,1-2.544-.576,4.2,4.2,0,0,1-1.736-1.613,4.478,4.478,0,0,1-.615-2.329,5.1,5.1,0,0,1,.655-2.65,4.268,4.268,0,0,1,1.868-1.687,6.407,6.407,0,0,1,2.813-.584,9.839,9.839,0,0,1,1.578.114,2.41,2.41,0,0,1,.9.264v2.918a2.6,2.6,0,0,0-.809-.387,3.248,3.248,0,0,0-.976-.167,2.375,2.375,0,0,0-1.666.523,1.9,1.9,0,0,0-.567,1.472,1.868,1.868,0,0,0,.558,1.446,2.177,2.177,0,0,0,1.534.514,3.82,3.82,0,0,0,1.925-.5Zm5.458-11.171a1.608,1.608,0,0,1-.576,1.283,2.252,2.252,0,0,1-1.516.492,2.2,2.2,0,0,1-1.5-.51,1.612,1.612,0,0,1-.584-1.266,1.561,1.561,0,0,1,.567-1.252,2.639,2.639,0,0,1,3.032,0A1.551,1.551,0,0,1,87.677,32.574ZM83.713,44V35h3.744v9ZM99.27,39.342a4.687,4.687,0,0,1-1.375,3.577,6.355,6.355,0,0,1-7.664.031,4.546,4.546,0,0,1-1.367-3.5A4.692,4.692,0,0,1,89.5,36.96a4.172,4.172,0,0,1,1.828-1.617,6.311,6.311,0,0,1,2.733-.562,6.113,6.113,0,0,1,2.773.589A4.286,4.286,0,0,1,98.641,37,4.452,4.452,0,0,1,99.27,39.342Zm-3.8.018q0-1.837-1.406-1.837T92.66,39.447q0,2.03,1.424,2.03Q95.473,41.478,95.473,39.359Zm-.94-5.783H91.887l2.628-2.821h3.146ZM106.5,44V39.087a2.184,2.184,0,0,0-.25-1.2.915.915,0,0,0-.813-.365.88.88,0,0,0-.756.378,1.613,1.613,0,0,0-.272.967V44h-3.744V35h3.744v1.406h.035a3.177,3.177,0,0,1,1.2-1.2,3.29,3.29,0,0,1,1.644-.426q2.953,0,2.953,3.727V44Zm16.444,0V42.954h-.035a3.089,3.089,0,0,1-1.169.927,3.331,3.331,0,0,1-1.424.338,3.663,3.663,0,0,1-2.03-.567,3.443,3.443,0,0,1-1.314-1.586,6.106,6.106,0,0,1-.435-2.408,5.925,5.925,0,0,1,.519-2.54,4.059,4.059,0,0,1,1.459-1.723,3.769,3.769,0,0,1,2.109-.615,3.193,3.193,0,0,1,1.024.158,2.77,2.77,0,0,1,.817.426,1.273,1.273,0,0,1,.444.532h.035V30.676h3.744V44Zm.079-4.772a1.974,1.974,0,0,0-.356-1.257,1.2,1.2,0,0,0-1.951.11,2.593,2.593,0,0,0-.382,1.49q0,1.907,1.318,1.907a1.173,1.173,0,0,0,1-.514,2.531,2.531,0,0,0,.374-1.5Zm8.692,1.336a1.265,1.265,0,0,0,.668.91,3.012,3.012,0,0,0,1.512.33,6.226,6.226,0,0,0,2.479-.5v2.373a8.908,8.908,0,0,1-3.3.545,5.214,5.214,0,0,1-3.665-1.2A4.277,4.277,0,0,1,128.1,39.7a5.467,5.467,0,0,1,.576-2.558,4.142,4.142,0,0,1,1.705-1.736,5.038,5.038,0,0,1,2.492-.628,4.9,4.9,0,0,1,2.391.545,3.63,3.63,0,0,1,1.507,1.529,4.906,4.906,0,0,1,.514,2.3v1.406Zm2.25-1.96q0-1.556-1.116-1.556a.944.944,0,0,0-.782.426A2.127,2.127,0,0,0,131.7,38.6ZM42.448,57.574a1.608,1.608,0,0,1-.576,1.283,2.252,2.252,0,0,1-1.516.492,2.2,2.2,0,0,1-1.5-.51,1.612,1.612,0,0,1-.584-1.266,1.561,1.561,0,0,1,.567-1.252,2.639,2.639,0,0,1,3.032,0A1.551,1.551,0,0,1,42.448,57.574ZM38.484,69V60h3.744v9ZM55.7,69V63.814a1.654,1.654,0,0,0-.233-.971.876.876,0,0,0-.76-.321.949.949,0,0,0-.809.391A1.79,1.79,0,0,0,53.61,64v5H49.866V63.9q0-1.38-.94-1.38a1,1,0,0,0-.861.4,1.933,1.933,0,0,0-.29,1.147V69H44.03V60h3.744v1.424h.035a2.9,2.9,0,0,1,.672-.769,3.946,3.946,0,0,1,1.042-.633,3.235,3.235,0,0,1,1.257-.242,3.181,3.181,0,0,1,1.613.378,2.931,2.931,0,0,1,1.094,1.2,3.207,3.207,0,0,1,1.266-1.165,3.772,3.772,0,0,1,1.758-.409,2.645,2.645,0,0,1,2.171.923,4.109,4.109,0,0,1,.756,2.663V69Zm15.583-4.772a6.4,6.4,0,0,1-.5,2.61A4.046,4.046,0,0,1,69.369,68.6a3.564,3.564,0,0,1-2.057.624,2.755,2.755,0,0,1-2.4-1.151h-.035V73.14H61.134V60h3.744v1.222h.035a3.171,3.171,0,0,1,1.16-1.059,3.364,3.364,0,0,1,1.617-.382,3.215,3.215,0,0,1,2.667,1.16A5.147,5.147,0,0,1,71.285,64.228Zm-3.8.114a2.346,2.346,0,0,0-.33-1.336,1.237,1.237,0,0,0-1.982.026,2.341,2.341,0,0,0-.369,1.4v.176a2.562,2.562,0,0,0,.316,1.362,1.044,1.044,0,0,0,.949.51,1.182,1.182,0,0,0,1.046-.558A2.849,2.849,0,0,0,67.488,64.342ZM77.684,69V67.629h-.035a2.944,2.944,0,0,1-2.742,1.591,2.625,2.625,0,0,1-2-.756,2.808,2.808,0,0,1-.721-2.021q0-2.654,3.261-3.076l2.232-.29a.851.851,0,0,0-.4-.721,1.8,1.8,0,0,0-1.063-.281,7,7,0,0,0-3.19.861V60.5a8.535,8.535,0,0,1,1.828-.519,10.639,10.639,0,0,1,1.881-.2,4.722,4.722,0,0,1,3.327.98A4.368,4.368,0,0,1,81.1,64.034V69Zm-2.215-3.059a.83.83,0,0,0,.233.606.888.888,0,0,0,.664.237,1.18,1.18,0,0,0,.954-.439,1.7,1.7,0,0,0,.365-1.125v-.343l-1.266.176Q75.469,65.212,75.469,65.941Zm14.739,2.8a3.529,3.529,0,0,1-1.134.343,10.719,10.719,0,0,1-1.784.132,5.488,5.488,0,0,1-2.544-.576,4.2,4.2,0,0,1-1.736-1.613,4.478,4.478,0,0,1-.615-2.329,5.1,5.1,0,0,1,.655-2.65,4.268,4.268,0,0,1,1.868-1.687,6.407,6.407,0,0,1,2.813-.584,9.839,9.839,0,0,1,1.578.114,2.41,2.41,0,0,1,.9.264v2.918a2.6,2.6,0,0,0-.809-.387,3.248,3.248,0,0,0-.976-.167,2.375,2.375,0,0,0-1.666.523,1.9,1.9,0,0,0-.567,1.472,1.868,1.868,0,0,0,.558,1.446,2.177,2.177,0,0,0,1.534.514,3.82,3.82,0,0,0,1.925-.5Zm7.831.132a3.648,3.648,0,0,1-.835.233,7.634,7.634,0,0,1-1.4.11,3.357,3.357,0,0,1-2.448-.861,3.269,3.269,0,0,1-.883-2.452V62.593H91.061V60h1.415V58.233l3.691-1.02V60h1.872v2.593H96.167v2.7q0,1.187.94,1.187a2.551,2.551,0,0,0,.932-.193Zm11.18-4.535a4.687,4.687,0,0,1-1.375,3.577,6.355,6.355,0,0,1-7.664.031,4.546,4.546,0,0,1-1.367-3.5,4.692,4.692,0,0,1,.642-2.487,4.172,4.172,0,0,1,1.828-1.617,6.311,6.311,0,0,1,2.733-.562,6.113,6.113,0,0,1,2.773.589A4.286,4.286,0,0,1,108.59,62,4.452,4.452,0,0,1,109.219,64.342Zm-3.8.018q0-1.837-1.406-1.837t-1.406,1.925q0,2.03,1.424,2.03Q105.422,66.478,105.422,64.359Zm12.507,1.652a2.749,2.749,0,0,1-1.165,2.369,5.474,5.474,0,0,1-3.248.839,11.291,11.291,0,0,1-1.5-.123,9.257,9.257,0,0,1-1.455-.3V66.17a7.162,7.162,0,0,0,2.777.738q1.1,0,1.1-.571a.451.451,0,0,0-.255-.391,9.009,9.009,0,0,0-1.336-.514,3.773,3.773,0,0,1-1.74-1,2.382,2.382,0,0,1-.545-1.626,2.594,2.594,0,0,1,1.112-2.21,5.216,5.216,0,0,1,3.125-.813,9.931,9.931,0,0,1,2.5.343v2.522a7.549,7.549,0,0,0-1.213-.4,4.9,4.9,0,0,0-1.107-.158,1.205,1.205,0,0,0-.589.123.379.379,0,0,0-.22.343.478.478,0,0,0,.237.413,4.2,4.2,0,0,0,.949.378,4.4,4.4,0,0,1,1.978,1.037A2.272,2.272,0,0,1,117.929,66.012ZM27.221,94V92.629h-.035a2.944,2.944,0,0,1-2.742,1.591,2.625,2.625,0,0,1-2-.756,2.808,2.808,0,0,1-.721-2.021q0-2.654,3.261-3.076l2.232-.29a.851.851,0,0,0-.4-.721,1.8,1.8,0,0,0-1.063-.281,7,7,0,0,0-3.19.861V85.5a8.535,8.535,0,0,1,1.828-.519,10.639,10.639,0,0,1,1.881-.2,4.722,4.722,0,0,1,3.327.98,4.368,4.368,0,0,1,1.033,3.274V94Zm-2.215-3.059a.83.83,0,0,0,.233.606.888.888,0,0,0,.664.237,1.18,1.18,0,0,0,.954-.439,1.7,1.7,0,0,0,.365-1.125v-.343l-1.266.176Q25.006,90.212,25.006,90.941ZM44,94V88.814a1.654,1.654,0,0,0-.233-.971.876.876,0,0,0-.76-.321.949.949,0,0,0-.809.391A1.79,1.79,0,0,0,41.908,89v5H38.164V88.9q0-1.38-.94-1.38a1,1,0,0,0-.861.4,1.933,1.933,0,0,0-.29,1.147V94H32.328V85h3.744v1.424h.035a2.9,2.9,0,0,1,.672-.769,3.946,3.946,0,0,1,1.042-.633,3.235,3.235,0,0,1,1.257-.242,3.181,3.181,0,0,1,1.613.378,2.931,2.931,0,0,1,1.094,1.2,3.207,3.207,0,0,1,1.266-1.165,3.772,3.772,0,0,1,1.758-.409,2.645,2.645,0,0,1,2.171.923,4.109,4.109,0,0,1,.756,2.663V94Zm15.583-4.772a6.586,6.586,0,0,1-.488,2.615A3.975,3.975,0,0,1,57.71,93.6a3.486,3.486,0,0,1-2.03.62,3.2,3.2,0,0,1-1.49-.321,2.683,2.683,0,0,1-.98-.831h-.035V94H49.431V80.676h3.744v5.546h.035A3.083,3.083,0,0,1,54.4,85.167a3.567,3.567,0,0,1,1.657-.387,3.157,3.157,0,0,1,2.615,1.134A5.2,5.2,0,0,1,59.583,89.228Zm-3.8.114a2.234,2.234,0,0,0-.347-1.362A1.25,1.25,0,0,0,53.487,88a1.933,1.933,0,0,0-.382,1.244v.545a2,2,0,0,0,.343,1.23,1.094,1.094,0,0,0,.923.457,1.182,1.182,0,0,0,1.046-.558A2.849,2.849,0,0,0,55.786,89.342Zm9.167-6.768a1.608,1.608,0,0,1-.576,1.283,2.252,2.252,0,0,1-1.516.492,2.2,2.2,0,0,1-1.5-.51,1.612,1.612,0,0,1-.584-1.266,1.561,1.561,0,0,1,.567-1.252,2.639,2.639,0,0,1,3.032,0A1.551,1.551,0,0,1,64.953,82.574ZM60.989,94V85h3.744v9Zm8.771-3.437a1.265,1.265,0,0,0,.668.91,3.012,3.012,0,0,0,1.512.33,6.226,6.226,0,0,0,2.479-.5v2.373a8.908,8.908,0,0,1-3.3.545,5.214,5.214,0,0,1-3.665-1.2,4.277,4.277,0,0,1-1.31-3.313,5.467,5.467,0,0,1,.576-2.558,4.142,4.142,0,0,1,1.705-1.736,5.038,5.038,0,0,1,2.492-.628,4.9,4.9,0,0,1,2.391.545,3.63,3.63,0,0,1,1.507,1.529,4.906,4.906,0,0,1,.514,2.3v1.406Zm2.25-1.96q0-1.556-1.116-1.556a.944.944,0,0,0-.782.426,2.127,2.127,0,0,0-.369,1.129ZM82.452,94V89.087a2.184,2.184,0,0,0-.25-1.2.915.915,0,0,0-.813-.365.88.88,0,0,0-.756.378,1.613,1.613,0,0,0-.272.967V94H76.616V85H80.36v1.406H80.4a3.177,3.177,0,0,1,1.2-1.2,3.29,3.29,0,0,1,1.644-.426q2.953,0,2.953,3.727V94Zm11.769-.123a3.648,3.648,0,0,1-.835.233,7.634,7.634,0,0,1-1.4.11,3.357,3.357,0,0,1-2.448-.861,3.269,3.269,0,0,1-.883-2.452V87.593H87.242V85h1.415V83.233l3.691-1.02V85H94.22v2.593H92.348v2.7q0,1.187.94,1.187a2.551,2.551,0,0,0,.932-.193Zm6.161.123V92.629h-.035A2.944,2.944,0,0,1,97.6,94.22a2.625,2.625,0,0,1-2-.756,2.808,2.808,0,0,1-.721-2.021q0-2.654,3.261-3.076l2.232-.29a.851.851,0,0,0-.4-.721,1.8,1.8,0,0,0-1.063-.281,7,7,0,0,0-3.19.861V85.5a8.535,8.535,0,0,1,1.828-.519,10.639,10.639,0,0,1,1.881-.2,4.722,4.722,0,0,1,3.327.98,4.368,4.368,0,0,1,1.033,3.274V94Zm-2.215-3.059a.83.83,0,0,0,.233.606.888.888,0,0,0,.664.237,1.18,1.18,0,0,0,.954-.439,1.7,1.7,0,0,0,.365-1.125v-.343l-1.266.176Q98.167,90.212,98.167,90.941ZM105.488,94V80.676h3.744V94Zm8.771-3.437a1.265,1.265,0,0,0,.668.91,3.012,3.012,0,0,0,1.512.33,6.226,6.226,0,0,0,2.479-.5v2.373a8.908,8.908,0,0,1-3.3.545,5.214,5.214,0,0,1-3.665-1.2,4.277,4.277,0,0,1-1.31-3.313,5.467,5.467,0,0,1,.576-2.558,4.142,4.142,0,0,1,1.705-1.736,5.038,5.038,0,0,1,2.492-.628,4.9,4.9,0,0,1,2.391.545,3.63,3.63,0,0,1,1.507,1.529,4.906,4.906,0,0,1,.514,2.3v1.406Zm2.25-1.96q0-1.556-1.116-1.556a.944.944,0,0,0-.782.426,2.127,2.127,0,0,0-.369,1.129Zm11.918,2.408a2.749,2.749,0,0,1-1.165,2.369,5.474,5.474,0,0,1-3.248.839,11.291,11.291,0,0,1-1.5-.123,9.257,9.257,0,0,1-1.455-.3V91.17a7.162,7.162,0,0,0,2.777.738q1.1,0,1.1-.571a.451.451,0,0,0-.255-.391,9.009,9.009,0,0,0-1.336-.514,3.773,3.773,0,0,1-1.74-1,2.382,2.382,0,0,1-.545-1.626,2.594,2.594,0,0,1,1.112-2.21,5.216,5.216,0,0,1,3.125-.813,9.931,9.931,0,0,1,2.5.343v2.522a7.549,7.549,0,0,0-1.213-.4,4.9,4.9,0,0,0-1.107-.158,1.205,1.205,0,0,0-.589.123.379.379,0,0,0-.22.343.478.478,0,0,0,.237.413,4.2,4.2,0,0,0,.949.378,4.4,4.4,0,0,1,1.978,1.037A2.272,2.272,0,0,1,128.427,91.012Zm5.449,1.424a1.634,1.634,0,0,1-.562,1.292,2.283,2.283,0,0,1-1.556.492,2.14,2.14,0,0,1-1.481-.514,1.636,1.636,0,0,1-.576-1.27,1.561,1.561,0,0,1,.567-1.252,2.639,2.639,0,0,1,3.032,0A1.551,1.551,0,0,1,133.876,92.436Z" transform="translate(529 1640)" fill="#12263f"/>
    <path id="Trazado_736977" data-name="Trazado 736977" d="M39.812,19V12.092q0-.976.062-2.145l.026-.58h-.105q-.281,1.485-.431,2.057L37.509,19H33.94L32,11.512q-.079-.281-.413-2.145h-.105q.123,2.953.123,3.691V19H28.271V6.4h5.687l1.731,6.847a8.451,8.451,0,0,1,.163.857q.1.646.127,1h.053q.1-.8.308-1.89L37.957,6.4h5.6V19Zm9.105-3.437a1.265,1.265,0,0,0,.668.91,3.012,3.012,0,0,0,1.512.33,6.226,6.226,0,0,0,2.479-.5v2.373a8.908,8.908,0,0,1-3.3.545,5.214,5.214,0,0,1-3.665-1.2A4.277,4.277,0,0,1,45.3,14.7a5.467,5.467,0,0,1,.576-2.558,4.142,4.142,0,0,1,1.705-1.736,5.038,5.038,0,0,1,2.492-.628,4.9,4.9,0,0,1,2.391.545,3.63,3.63,0,0,1,1.507,1.529,4.906,4.906,0,0,1,.514,2.3v1.406Zm2.25-1.96q0-1.556-1.116-1.556a.944.944,0,0,0-.782.426A2.127,2.127,0,0,0,48.9,13.6ZM61.784,19V17.954h-.035a3.089,3.089,0,0,1-1.169.927,3.331,3.331,0,0,1-1.424.338,3.663,3.663,0,0,1-2.03-.567,3.443,3.443,0,0,1-1.314-1.586,6.106,6.106,0,0,1-.435-2.408,5.925,5.925,0,0,1,.519-2.54A4.059,4.059,0,0,1,57.354,10.4a3.769,3.769,0,0,1,2.109-.615,3.193,3.193,0,0,1,1.024.158,2.77,2.77,0,0,1,.817.426,1.273,1.273,0,0,1,.444.532h.035V5.676h3.744V19Zm.079-4.772a1.974,1.974,0,0,0-.356-1.257,1.2,1.2,0,0,0-1.951.11,2.593,2.593,0,0,0-.382,1.49q0,1.907,1.318,1.907a1.173,1.173,0,0,0,1-.514,2.531,2.531,0,0,0,.374-1.5Zm9.431-6.653a1.608,1.608,0,0,1-.576,1.283A2.252,2.252,0,0,1,69.2,9.35a2.2,2.2,0,0,1-1.5-.51,1.612,1.612,0,0,1-.584-1.266,1.561,1.561,0,0,1,.567-1.252,2.639,2.639,0,0,1,3.032,0A1.551,1.551,0,0,1,71.294,7.574ZM67.33,19V10h3.744v9Zm11.558,0V17.954h-.035a3.089,3.089,0,0,1-1.169.927,3.331,3.331,0,0,1-1.424.338,3.663,3.663,0,0,1-2.03-.567,3.443,3.443,0,0,1-1.314-1.586,6.106,6.106,0,0,1-.435-2.408A5.925,5.925,0,0,1,73,12.118,4.059,4.059,0,0,1,74.458,10.4a3.769,3.769,0,0,1,2.109-.615,3.193,3.193,0,0,1,1.024.158,2.77,2.77,0,0,1,.817.426,1.273,1.273,0,0,1,.444.532h.035V5.676h3.744V19Zm.079-4.772a1.974,1.974,0,0,0-.356-1.257,1.2,1.2,0,0,0-1.951.11,2.593,2.593,0,0,0-.382,1.49q0,1.907,1.318,1.907a1.173,1.173,0,0,0,1-.514,2.531,2.531,0,0,0,.374-1.5ZM89.426,19V17.629h-.035a2.944,2.944,0,0,1-2.742,1.591,2.625,2.625,0,0,1-2-.756,2.808,2.808,0,0,1-.721-2.021q0-2.654,3.261-3.076l2.232-.29a.851.851,0,0,0-.4-.721,1.8,1.8,0,0,0-1.063-.281,7,7,0,0,0-3.19.861V10.5A8.535,8.535,0,0,1,86.6,9.982a10.639,10.639,0,0,1,1.881-.2,4.722,4.722,0,0,1,3.327.98,4.368,4.368,0,0,1,1.033,3.274V19Zm-2.215-3.059a.83.83,0,0,0,.233.606.888.888,0,0,0,.664.237,1.18,1.18,0,0,0,.954-.439,1.7,1.7,0,0,0,.365-1.125v-.343l-1.266.176Q87.211,15.212,87.211,15.941Zm14.634.07a2.749,2.749,0,0,1-1.165,2.369,5.474,5.474,0,0,1-3.248.839,11.291,11.291,0,0,1-1.5-.123,9.257,9.257,0,0,1-1.455-.3V16.17a7.162,7.162,0,0,0,2.777.738q1.1,0,1.1-.571a.451.451,0,0,0-.255-.391,9.009,9.009,0,0,0-1.336-.514,3.773,3.773,0,0,1-1.74-1,2.382,2.382,0,0,1-.545-1.626,2.594,2.594,0,0,1,1.112-2.21,5.216,5.216,0,0,1,3.125-.813,9.931,9.931,0,0,1,2.5.343v2.522a7.549,7.549,0,0,0-1.213-.4,4.9,4.9,0,0,0-1.107-.158,1.205,1.205,0,0,0-.589.123.379.379,0,0,0-.22.343.478.478,0,0,0,.237.413,4.2,4.2,0,0,0,.949.378,4.4,4.4,0,0,1,1.978,1.037A2.272,2.272,0,0,1,101.845,16.012ZM114.237,19V17.954H114.2a3.089,3.089,0,0,1-1.169.927,3.331,3.331,0,0,1-1.424.338,3.663,3.663,0,0,1-2.03-.567,3.443,3.443,0,0,1-1.314-1.586,6.106,6.106,0,0,1-.435-2.408,5.925,5.925,0,0,1,.519-2.54,4.059,4.059,0,0,1,1.459-1.723,3.769,3.769,0,0,1,2.109-.615,3.193,3.193,0,0,1,1.024.158,2.77,2.77,0,0,1,.817.426,1.273,1.273,0,0,1,.444.532h.035V5.676h3.744V19Zm.079-4.772a1.974,1.974,0,0,0-.356-1.257,1.2,1.2,0,0,0-1.951.11,2.593,2.593,0,0,0-.382,1.49q0,1.907,1.318,1.907a1.173,1.173,0,0,0,1-.514,2.531,2.531,0,0,0,.374-1.5Zm8.692,1.336a1.265,1.265,0,0,0,.668.91,3.012,3.012,0,0,0,1.512.33,6.226,6.226,0,0,0,2.479-.5v2.373a8.908,8.908,0,0,1-3.3.545,5.214,5.214,0,0,1-3.665-1.2,4.277,4.277,0,0,1-1.31-3.313,5.467,5.467,0,0,1,.576-2.558,4.142,4.142,0,0,1,1.705-1.736,5.038,5.038,0,0,1,2.492-.628,4.9,4.9,0,0,1,2.391.545,3.63,3.63,0,0,1,1.507,1.529,4.906,4.906,0,0,1,.514,2.3v1.406Zm2.25-1.96q0-1.556-1.116-1.556a.944.944,0,0,0-.782.426,2.127,2.127,0,0,0-.369,1.129ZM57.816,44V38.814a1.654,1.654,0,0,0-.233-.971.876.876,0,0,0-.76-.321.949.949,0,0,0-.809.391A1.79,1.79,0,0,0,55.724,39v5H51.98V38.9q0-1.38-.94-1.38a1,1,0,0,0-.861.4,1.933,1.933,0,0,0-.29,1.147V44H46.144V35h3.744v1.424h.035a2.9,2.9,0,0,1,.672-.769,3.946,3.946,0,0,1,1.042-.633,3.235,3.235,0,0,1,1.257-.242,3.181,3.181,0,0,1,1.613.378,2.931,2.931,0,0,1,1.094,1.2,3.207,3.207,0,0,1,1.266-1.165,3.772,3.772,0,0,1,1.758-.409A2.645,2.645,0,0,1,60.8,35.7a4.109,4.109,0,0,1,.756,2.663V44ZM68.24,44V42.629H68.2a2.944,2.944,0,0,1-2.742,1.591,2.625,2.625,0,0,1-2-.756,2.808,2.808,0,0,1-.721-2.021q0-2.654,3.261-3.076l2.232-.29a.851.851,0,0,0-.4-.721,1.8,1.8,0,0,0-1.063-.281,7,7,0,0,0-3.19.861V35.5a8.535,8.535,0,0,1,1.828-.519,10.639,10.639,0,0,1,1.881-.2,4.722,4.722,0,0,1,3.327.98,4.368,4.368,0,0,1,1.033,3.274V44Zm-2.215-3.059a.83.83,0,0,0,.233.606.888.888,0,0,0,.664.237,1.18,1.18,0,0,0,.954-.439,1.7,1.7,0,0,0,.365-1.125v-.343l-1.266.176Q66.025,40.212,66.025,40.941ZM79.182,44V39.087a2.184,2.184,0,0,0-.25-1.2.915.915,0,0,0-.813-.365.88.88,0,0,0-.756.378,1.613,1.613,0,0,0-.272.967V44H73.346V35H77.09v1.406h.035a3.177,3.177,0,0,1,1.2-1.2,3.29,3.29,0,0,1,1.644-.426q2.953,0,2.953,3.727V44Zm8.657-3.437a1.265,1.265,0,0,0,.668.91,3.012,3.012,0,0,0,1.512.33,6.226,6.226,0,0,0,2.479-.5v2.373a8.908,8.908,0,0,1-3.3.545,5.214,5.214,0,0,1-3.665-1.2,4.277,4.277,0,0,1-1.31-3.313,5.467,5.467,0,0,1,.576-2.558A4.142,4.142,0,0,1,86.5,35.409a5.038,5.038,0,0,1,2.492-.628,4.9,4.9,0,0,1,2.391.545,3.63,3.63,0,0,1,1.507,1.529,4.906,4.906,0,0,1,.514,2.3v1.406Zm2.25-1.96q0-1.556-1.116-1.556a.944.944,0,0,0-.782.426,2.127,2.127,0,0,0-.369,1.129Zm8.569-6.029a1.608,1.608,0,0,1-.576,1.283,2.252,2.252,0,0,1-1.516.492,2.2,2.2,0,0,1-1.5-.51,1.612,1.612,0,0,1-.584-1.266,1.561,1.561,0,0,1,.567-1.252,2.639,2.639,0,0,1,3.032,0A1.551,1.551,0,0,1,98.659,32.574Zm-.22,11.514a4.982,4.982,0,0,1-.466,2.167A3.2,3.2,0,0,1,96.6,47.731a4.413,4.413,0,0,1-2.153.5,4.846,4.846,0,0,1-1.494-.264V45.222a1.883,1.883,0,0,0,.9.272.7.7,0,0,0,.655-.312,1.864,1.864,0,0,0,.189-.945V35h3.744Zm11.813-4.746a4.687,4.687,0,0,1-1.375,3.577,6.355,6.355,0,0,1-7.664.031,4.546,4.546,0,0,1-1.367-3.5,4.692,4.692,0,0,1,.642-2.487,4.172,4.172,0,0,1,1.828-1.617,6.311,6.311,0,0,1,2.733-.562,6.113,6.113,0,0,1,2.773.589,4.286,4.286,0,0,1,1.8,1.635A4.452,4.452,0,0,1,110.251,39.342Zm-3.8.018q0-1.837-1.406-1.837t-1.406,1.925q0,2.03,1.424,2.03Q106.455,41.478,106.455,39.359ZM36.608,69V67.629h-.035a2.944,2.944,0,0,1-2.742,1.591,2.625,2.625,0,0,1-2-.756,2.808,2.808,0,0,1-.721-2.021q0-2.654,3.261-3.076l2.232-.29a.851.851,0,0,0-.4-.721,1.8,1.8,0,0,0-1.063-.281,7,7,0,0,0-3.19.861V60.5a8.535,8.535,0,0,1,1.828-.519,10.639,10.639,0,0,1,1.881-.2,4.722,4.722,0,0,1,3.327.98,4.368,4.368,0,0,1,1.033,3.274V69Zm-2.215-3.059a.83.83,0,0,0,.233.606.888.888,0,0,0,.664.237,1.18,1.18,0,0,0,.954-.439,1.7,1.7,0,0,0,.365-1.125v-.343l-1.266.176Q34.393,65.212,34.393,65.941ZM53.386,69V63.814a1.654,1.654,0,0,0-.233-.971.876.876,0,0,0-.76-.321.949.949,0,0,0-.809.391A1.79,1.79,0,0,0,51.294,64v5H47.55V63.9q0-1.38-.94-1.38a1,1,0,0,0-.861.4,1.933,1.933,0,0,0-.29,1.147V69H41.714V60h3.744v1.424h.035a2.9,2.9,0,0,1,.672-.769,3.946,3.946,0,0,1,1.042-.633,3.235,3.235,0,0,1,1.257-.242,3.181,3.181,0,0,1,1.613.378,2.931,2.931,0,0,1,1.094,1.2,3.207,3.207,0,0,1,1.266-1.165,3.772,3.772,0,0,1,1.758-.409,2.645,2.645,0,0,1,2.171.923,4.109,4.109,0,0,1,.756,2.663V69Zm15.583-4.772a6.586,6.586,0,0,1-.488,2.615A3.975,3.975,0,0,1,67.1,68.6a3.486,3.486,0,0,1-2.03.62,3.2,3.2,0,0,1-1.49-.321,2.683,2.683,0,0,1-.98-.831h-.035V69H58.818V55.676h3.744v5.546H62.6a3.083,3.083,0,0,1,1.191-1.055,3.567,3.567,0,0,1,1.657-.387,3.157,3.157,0,0,1,2.615,1.134A5.2,5.2,0,0,1,68.969,64.228Zm-3.8.114a2.234,2.234,0,0,0-.347-1.362A1.25,1.25,0,0,0,62.874,63a1.933,1.933,0,0,0-.382,1.244v.545a2,2,0,0,0,.343,1.23,1.094,1.094,0,0,0,.923.457,1.182,1.182,0,0,0,1.046-.558A2.849,2.849,0,0,0,65.172,64.342Zm9.167-6.768a1.608,1.608,0,0,1-.576,1.283,2.252,2.252,0,0,1-1.516.492,2.2,2.2,0,0,1-1.5-.51,1.612,1.612,0,0,1-.584-1.266,1.561,1.561,0,0,1,.567-1.252,2.639,2.639,0,0,1,3.032,0A1.551,1.551,0,0,1,74.339,57.574ZM70.375,69V60H74.12v9Zm8.771-3.437a1.265,1.265,0,0,0,.668.91,3.012,3.012,0,0,0,1.512.33,6.226,6.226,0,0,0,2.479-.5v2.373a8.908,8.908,0,0,1-3.3.545,5.214,5.214,0,0,1-3.665-1.2,4.277,4.277,0,0,1-1.31-3.313,5.467,5.467,0,0,1,.576-2.558,4.142,4.142,0,0,1,1.705-1.736A5.038,5.038,0,0,1,80.3,59.78a4.9,4.9,0,0,1,2.391.545A3.63,3.63,0,0,1,84.2,61.854a4.906,4.906,0,0,1,.514,2.3v1.406ZM81.4,63.6q0-1.556-1.116-1.556a.944.944,0,0,0-.782.426,2.127,2.127,0,0,0-.369,1.129ZM91.838,69V64.087a2.184,2.184,0,0,0-.25-1.2.915.915,0,0,0-.813-.365.88.88,0,0,0-.756.378,1.613,1.613,0,0,0-.272.967V69H86V60h3.744v1.406h.035a3.177,3.177,0,0,1,1.2-1.2,3.29,3.29,0,0,1,1.644-.426q2.953,0,2.953,3.727V69Zm11.769-.123a3.648,3.648,0,0,1-.835.233,7.634,7.634,0,0,1-1.4.11,3.357,3.357,0,0,1-2.448-.861,3.269,3.269,0,0,1-.883-2.452V62.593H96.628V60h1.415V58.233l3.691-1.02V60h1.872v2.593h-1.872v2.7q0,1.187.94,1.187a2.551,2.551,0,0,0,.932-.193Zm6.161.123V67.629h-.035a2.944,2.944,0,0,1-2.742,1.591,2.625,2.625,0,0,1-2-.756,2.808,2.808,0,0,1-.721-2.021q0-2.654,3.261-3.076l2.232-.29a.851.851,0,0,0-.4-.721,1.8,1.8,0,0,0-1.063-.281,7,7,0,0,0-3.19.861V60.5a8.535,8.535,0,0,1,1.828-.519,10.639,10.639,0,0,1,1.881-.2,4.722,4.722,0,0,1,3.327.98,4.368,4.368,0,0,1,1.033,3.274V69Zm-2.215-3.059a.83.83,0,0,0,.233.606.888.888,0,0,0,.664.237,1.18,1.18,0,0,0,.954-.439,1.7,1.7,0,0,0,.365-1.125v-.343l-1.266.176Q107.553,65.212,107.553,65.941ZM114.875,69V55.676h3.744V69Zm9.615-1.564a1.634,1.634,0,0,1-.562,1.292,2.283,2.283,0,0,1-1.556.492,2.14,2.14,0,0,1-1.481-.514,1.636,1.636,0,0,1-.576-1.27,1.561,1.561,0,0,1,.567-1.252,2.639,2.639,0,0,1,3.032,0A1.551,1.551,0,0,1,124.49,67.436Z" transform="translate(409 1283)" fill="#12263f"/>
  </g>
</svg>
