<svg id="Grupo_972231" data-name="Grupo 972231" xmlns="http://www.w3.org/2000/svg" xmlns:xlink="http://www.w3.org/1999/xlink" width="168.868" height="247.312" viewBox="0 0 168.868 247.312">
  <defs>
    <clipPath id="clip-path">
      <rect id="Rectángulo_341021" data-name="Rectángulo 341021" width="168.868" height="247.311" fill="none"/>
    </clipPath>
    <clipPath id="clip-path-2">
      <rect id="Rectángulo_341020" data-name="Rectángulo 341020" width="168.868" height="247.312" fill="none"/>
    </clipPath>
    <clipPath id="clip-path-3">
      <rect id="Rectángulo_341017" data-name="Rectángulo 341017" width="8.486" height="12.822" fill="none"/>
    </clipPath>
    <clipPath id="clip-path-4">
      <rect id="Rectángulo_341018" data-name="Rectángulo 341018" width="8.484" height="12.825" fill="none"/>
    </clipPath>
    <clipPath id="clip-path-5">
      <rect id="Rectángulo_341019" data-name="Rectángulo 341019" width="83.753" height="39.529" fill="none"/>
    </clipPath>
  </defs>
  <g id="Grupo_965388" data-name="Grupo 965388" clip-path="url(#clip-path)">
    <g id="Grupo_965387" data-name="Grupo 965387" transform="translate(0 -0.001)">
      <g id="Grupo_965386" data-name="Grupo 965386" clip-path="url(#clip-path-2)">
        <path id="Trazado_729972" data-name="Trazado 729972" d="M768.485,887.94c.192,3.582.652,7.555,1.3,11.754h16.557c-1.341-7.868-2.259-12.732-2.259-12.732,0-5.827-6.687-71.25-10.618-83.835s-26.741-14.97-26.741-14.97-2.753,34.636,2.36,47.151,19.4,52.631,19.4,52.631" transform="translate(-617.474 -652.382)" fill="#f19367"/>
        <path id="Trazado_729973" data-name="Trazado 729973" d="M34.06,899.693c3.8-30.567,7.706-59.927,9.729-69.036,4.718-21.239,2.384-42.5,2.384-42.5s-21.652,1.207-25.98,25.981c-2.074,11.889-3.154,49.038-3.716,85.555Z" transform="translate(-13.639 -652.381)" fill="#f19367"/>
        <path id="Trazado_729974" data-name="Trazado 729974" d="M18.753,1227.862a166.3,166.3,0,0,0,19.586,2.282c.406-3.151.807-6.238,1.2-9.239L19.2,1210.3c-.167,5.647-.318,11.544-.447,17.565" transform="translate(-15.522 -1001.8)" fill="#bd502a"/>
        <path id="Trazado_729975" data-name="Trazado 729975" d="M26.211,956.1c-3.461.431-14.763-2.165-18.617-3.091,6.872,7.971,26.111,7.339,26.111,7.339,2.775-10.688,4.56-32.828,4.56-32.828V889.184c-6.871,16.674-19.289,46.142-17.3,45.035,2.1-1.169,9.7-3.027,9.7-3.027s-4.98,11.533-6.711,13.9,6.451,10.487,2.255,11.01" transform="translate(-6.286 -736.005)" fill="#7a94a1"/>
        <path id="Trazado_729976" data-name="Trazado 729976" d="M833.836,1184.473c4.855.268,11.98.209,17.6-1.712-.6-6.767-1.621-16.927-2.84-27.7l-20.564,13.357c2.2,6.053,4.272,11.795,5.8,16.053" transform="translate(-685.391 -956.08)" fill="#bd502a"/>
        <path id="Trazado_729977" data-name="Trazado 729977" d="M764.2,955.607c-.614-1.573,11.1-23.068,12.414-31.72s-1.574-5.77-1.574-5.77c-4.2,12.846-14.157,23.332-14.157,23.332s3.669-18.09,3.669-21.231-13.107-30.676-13.107-30.676l-3.2,8.336-2.257,31.861,14.372,30.547a29.265,29.265,0,0,0,13.7-1.125c-3.984-1.008-9.468-2.559-9.858-3.553" transform="translate(-617.479 -736.301)" fill="#7a94a1"/>
        <path id="Trazado_729978" data-name="Trazado 729978" d="M277.218,624.194c-.429-1.979-.884-3.189-1.3-3.412-2.884-1.57-35.393-11.01-35.393-11.01-1.836-3.143-1.956-19.4-1.956-19.4L224.74,585.2v-.076l-.1.038-.1-.038v.076L210.7,590.374s-.12,16.256-1.954,19.4c0,0-32.51,9.44-35.394,11.01-.411.222-.837,1.433-1.224,3.412Z" transform="translate(-142.477 -484.326)" fill="#e57a4e"/>
        <path id="Trazado_729979" data-name="Trazado 729979" d="M415.338,607.412a19.551,19.551,0,0,0,8.062-3.976c-.589-5.764-.643-13.061-.643-13.061L408.923,585.2v-.076l-.1.038-.1-.038v.076l-13.836,5.172s-.025,3.548-.24,7.647c4.668,3.3,15.485,10.4,20.693,9.391" transform="translate(-326.66 -484.327)" fill="#bd502a"/>
        <path id="Trazado_729980" data-name="Trazado 729980" d="M27.419,821.7c1.66-6.39,2.963-16.867,3.745-24.264a124.9,124.9,0,0,0,4.295,14.574s1.141,20.135,2.505,32.662H126.6c-.2-8.511-.209-16.133.1-21.649,0,0,3.284-10.86,6.153-23.009l10.036,21.33c14.864,2.379,25.692-7.9,25.692-7.9s-4.5-57.662-9.436-65.822c-6.671-11.032-26.474-14.269-26.552-14.281l-34.981-11.66s-14.575,16.436-30.889,0L30.15,733.139s-.03.138-.076.363C-.65,736.429,2.229,783.635,2.229,783.635L0,812.471c5.244,9.963,27.419,9.233,27.419,9.233" transform="translate(0 -597.363)" fill="#95b1c1"/>
        <path id="Trazado_729981" data-name="Trazado 729981" d="M185.708,1199.7h20.529c.646-1.444,1.021-2.313,1.021-2.313-6.818-9.441-20.464-28.577-20.464-28.577,3.589,1.769,58.217,20.712,61.361,20.45s3.147-1.575,3.147-1.575c-14.245-2.67-59.469-29.144-72.809-37.083a125.983,125.983,0,0,0,4.71,16.436s1.141,20.135,2.505,32.662" transform="translate(-147.744 -952.39)" fill="#7a94a1"/>
        <path id="Trazado_729982" data-name="Trazado 729982" d="M664.043,353.718s3.529-6.2,9.023-6.284c3.263-.05,2.3,13.351-1.063,16.811s-8.255,2.309-9.343-.757Z" transform="translate(-548.503 -287.582)" fill="#f19367"/>
        <g id="Grupo_965379" data-name="Grupo 965379" transform="translate(116.292 62.948)" opacity="0.4">
          <g id="Grupo_965378" data-name="Grupo 965378">
            <g id="Grupo_965377" data-name="Grupo 965377" clip-path="url(#clip-path-3)">
              <path id="Trazado_729983" data-name="Trazado 729983" d="M675.063,377.918s4.1,1.443,5.872-1.976,3.489-7.528,2.118-10.544c0,0-3.783.88-7.281,7.939,0,0,2.564,3.188-.709,4.581" transform="translate(-675.063 -365.398)" fill="#c6442b"/>
            </g>
          </g>
        </g>
        <path id="Trazado_729984" data-name="Trazado 729984" d="M681.7,368.093c-.036-.647-.072-1.292-.143-1.931a8.76,8.76,0,0,0-.362-1.844.894.894,0,0,0-.192-.323c-.083-.036-.032-.048-.169.022l-.429.227-.371.267c-.245.169-.493.355-.739.562s-.5.385-.729.61l-.7.649c-.232.216-.436.461-.656.691s-.445.454-.632.709-.4.492-.6.738a16.79,16.79,0,0,0-1.086,1.552,6.906,6.906,0,0,0-.445.832l-.422.846-.051-.314a5.839,5.839,0,0,1,.786,1.422,3.792,3.792,0,0,1,.215.789,2.362,2.362,0,0,1,.04.412,2.473,2.473,0,0,1-.023.417,2.823,2.823,0,0,1-.1.409l-.178.38-.254.326a2.082,2.082,0,0,1-.3.27,3.347,3.347,0,0,1-.675.412c-.242.1-.495.167-.737.25.229-.121.461-.231.679-.358a3.2,3.2,0,0,0,.587-.465,1.829,1.829,0,0,0,.241-.275l.186-.308a2.4,2.4,0,0,0,.161-.682,2.152,2.152,0,0,0-.008-.352,1.953,1.953,0,0,0-.06-.351,3.406,3.406,0,0,0-.242-.68,5.367,5.367,0,0,0-.793-1.217l-.128-.148.077-.166.421-.9a7.461,7.461,0,0,1,.447-.886,17.422,17.422,0,0,1,1.094-1.649c.2-.258.4-.523.613-.776s.451-.479.674-.721.45-.48.7-.7l.738-.654c.238-.226.514-.411.771-.615a6.017,6.017,0,0,1,.831-.572l.441-.263.444-.194a.647.647,0,0,1,.356-.072.589.589,0,0,1,.361.18,1.311,1.311,0,0,1,.274.518,6.8,6.8,0,0,1,.2,1.979,17.349,17.349,0,0,1-.12,1.945" transform="translate(-556.86 -300.851)" fill="#874237"/>
        <path id="Trazado_729985" data-name="Trazado 729985" d="M695.817,386.022a1.332,1.332,0,0,0-.174-.151c-.1-.1-.276-.192-.453-.321-.1-.049-.215-.092-.321-.15a1.377,1.377,0,0,0-.362-.125,2.855,2.855,0,0,0-.39-.1l-.423-.039a1.064,1.064,0,0,0-.428-.017c-.144.016-.288.01-.428.016a2.578,2.578,0,0,0-.409.016c-.129.025-.255.039-.372.052a5.343,5.343,0,0,1-.819.038,4.439,4.439,0,0,1,.7-.442c.111-.059.233-.122.365-.18a1.569,1.569,0,0,1,.44-.121c.157-.027.321-.066.489-.084a1.418,1.418,0,0,1,.518-.006l.523.08a2.1,2.1,0,0,1,.479.2,2.149,2.149,0,0,1,.713.555,1.954,1.954,0,0,1,.3.558.761.761,0,0,1,.049.226" transform="translate(-572.159 -318.167)" fill="#874237"/>
        <path id="Trazado_729986" data-name="Trazado 729986" d="M320.34,200.375s16.61-7.977,22.33-16.938c4.7-6.288,8.574-38.353,9.114-43.329.018-.167.036-.33.054-.493s.026-.246.026-.246l-.008,0c.09-1.028.147-2.067.147-3.121a34.76,34.76,0,0,0-69.52,0,35.224,35.224,0,0,0,.2,3.695h0s3.987,36.6,9.138,43.49c6.053,10.272,22.329,16.938,22.329,16.938a10.311,10.311,0,0,0,6.2,0" transform="translate(-233.819 -84.008)" fill="#f19367"/>
        <path id="Trazado_729987" data-name="Trazado 729987" d="M242.873,362.216s-3.529-6.194-9.022-6.281c-3.262-.049-2.3,13.349,1.063,16.808s8.257,2.306,9.344-.757Z" transform="translate(-191.902 -294.618)" fill="#f19367"/>
        <g id="Grupo_965382" data-name="Grupo 965382" transform="translate(41.733 64.408)" opacity="0.4">
          <g id="Grupo_965381" data-name="Grupo 965381">
            <g id="Grupo_965380" data-name="Grupo 965380" clip-path="url(#clip-path-4)">
              <path id="Trazado_729988" data-name="Trazado 729988" d="M250.739,386.4s-4.1,1.442-5.87-1.978-3.489-7.528-2.118-10.545c0,0,3.783.881,7.28,7.942,0,0-2.564,3.181.707,4.581" transform="translate(-242.255 -373.881)" fill="#c6442b"/>
            </g>
          </g>
        </g>
        <path id="Trazado_729989" data-name="Trazado 729989" d="M241.314,376.568a17.388,17.388,0,0,1-.12-1.945,6.828,6.828,0,0,1,.2-1.98,1.327,1.327,0,0,1,.275-.518.591.591,0,0,1,.362-.18.644.644,0,0,1,.356.073l.444.194.441.263a6.016,6.016,0,0,1,.831.572c.258.2.533.39.772.616l.738.654c.247.218.463.467.7.7s.472.46.674.721l.613.777a17.557,17.557,0,0,1,1.094,1.65,7.473,7.473,0,0,1,.447.887l.42.9.077.166-.128.148a5.34,5.34,0,0,0-.793,1.216,3.359,3.359,0,0,0-.242.68,1.948,1.948,0,0,0-.06.351,1.986,1.986,0,0,0-.008.352,2.375,2.375,0,0,0,.162.682l.185.308a1.859,1.859,0,0,0,.241.274,3.227,3.227,0,0,0,.587.465c.219.127.451.237.679.358-.242-.083-.495-.151-.736-.25a3.381,3.381,0,0,1-.675-.412,2.111,2.111,0,0,1-.3-.27l-.254-.326-.178-.379a2.734,2.734,0,0,1-.1-.409,2.368,2.368,0,0,1-.023-.417,2.4,2.4,0,0,1,.039-.413,3.8,3.8,0,0,1,.215-.789,5.841,5.841,0,0,1,.786-1.421l-.051.313-.422-.846a6.888,6.888,0,0,0-.444-.833,16.683,16.683,0,0,0-1.086-1.554c-.2-.247-.405-.486-.6-.738s-.423-.472-.633-.71-.422-.475-.655-.691l-.7-.649c-.226-.226-.485-.408-.729-.611s-.5-.393-.74-.562l-.371-.268-.429-.227c-.136-.07-.086-.057-.169-.022a.883.883,0,0,0-.192.323,8.72,8.72,0,0,0-.363,1.845c-.071.639-.107,1.284-.144,1.932" transform="translate(-199.644 -307.865)" fill="#874237"/>
        <path id="Trazado_729990" data-name="Trazado 729990" d="M248.758,394.514a.761.761,0,0,1,.049-.226,1.95,1.95,0,0,1,.3-.557,2.136,2.136,0,0,1,.713-.556,2.108,2.108,0,0,1,.479-.2l.523-.08a1.423,1.423,0,0,1,.518.006c.168.018.332.057.489.084a1.558,1.558,0,0,1,.44.121c.133.058.254.121.366.181a4.412,4.412,0,0,1,.7.441,5.342,5.342,0,0,1-.819-.038c-.117-.013-.243-.027-.372-.052a2.566,2.566,0,0,0-.409-.015c-.14-.006-.284,0-.428-.016a1.069,1.069,0,0,0-.428.017l-.423.039a2.836,2.836,0,0,0-.389.1,1.386,1.386,0,0,0-.362.125c-.107.058-.219.1-.322.151a5.49,5.49,0,0,0-.452.321,1.322,1.322,0,0,0-.174.151" transform="translate(-205.905 -325.196)" fill="#874237"/>
        <path id="Trazado_729991" data-name="Trazado 729991" d="M500.578,482.271s0,6.131-1.252,6.788.066-3.556,1.252-6.788" transform="translate(-412.888 -399.19)" fill="#521b14"/>
        <path id="Trazado_729992" data-name="Trazado 729992" d="M443.944,525.418a45.9,45.9,0,0,1-17.3-3.227.426.426,0,0,0-.562.182c-.242.357-.227,5.263,8.838,7.558,0,0,6.363.987,9.342-4.064,0,0-.005-.572-.315-.449" transform="translate(-352.627 -432.198)" fill="#6f0b17"/>
        <path id="Trazado_729993" data-name="Trazado 729993" d="M427.755,533.6c.646,1.651,2.569,4.056,7.8,5.56-.442-1.92-2.076-6.1-7.8-5.56" transform="translate(-354.066 -441.634)" fill="#e24464"/>
        <path id="Trazado_729994" data-name="Trazado 729994" d="M528.353,360.029s1.551-4.98,5.006-7.778c4.934-4,13.888-2.446,13.417,5.054,0,0-.342,6.914-6.6,7.821-5.061.732-9.947-1.513-11.825-5.1" transform="translate(-437.334 -289.794)" fill="#fff"/>
        <path id="Trazado_729995" data-name="Trazado 729995" d="M528.353,357a10.928,10.928,0,0,1,.3-1.161,17.671,17.671,0,0,1,1.185-2.944,15.928,15.928,0,0,1,1.108-1.836l.711-.946c.251-.319.572-.593.867-.9l.458-.452.528-.4c.171-.124.326-.253.512-.374l.612-.338a10.285,10.285,0,0,1,2.577-.965,12.349,12.349,0,0,1,1.36-.208c.456-.037.914-.024,1.366-.032a9.353,9.353,0,0,1,2.607.533,6.065,6.065,0,0,1,1.162.538,5.2,5.2,0,0,1,1.006.7l.448.384c.134.141.252.293.37.439l.343.431c.1.15.174.313.259.463a6.567,6.567,0,0,1,.654,1.737,11.653,11.653,0,0,1,.108,1.4c-.064.773-.114,1.2-.114,1.2l-.148-1.177c-.054-.367-.218-.8-.334-1.285a7.306,7.306,0,0,0-.807-1.466c-.091-.122-.17-.255-.271-.373l-.345-.333c-.119-.11-.225-.234-.35-.344l-.416-.293a4.272,4.272,0,0,0-.911-.522,6.286,6.286,0,0,0-1.025-.4,8.038,8.038,0,0,0-1.115-.253c-.382-.058-.779-.062-1.171-.108-.4.018-.8.012-1.2.051a11.784,11.784,0,0,0-1.192.2,9.058,9.058,0,0,0-2.248.792l-.51.258c-.173.1-.349.228-.522.34l-.485.321-.432.387c-.282.261-.58.5-.84.764l-.737.818a9.123,9.123,0,0,0-.65.825c-.2.275-.42.525-.587.8-.337.538-.682,1.017-.93,1.475-.266.449-.491.847-.663,1.183-.357.664-.539,1.062-.539,1.062" transform="translate(-437.334 -286.766)" fill="#0e1115"/>
        <path id="Trazado_729996" data-name="Trazado 729996" d="M569.93,368.044c1.024-4.6,4.222-7.792,7.142-7.144,2.2.493,3.609,3.027,3.736,6.208-.346,1.921-1.654,6.186-6.476,6.882a13.347,13.347,0,0,1-4.279-.081,11.57,11.57,0,0,1-.122-5.865" transform="translate(-471.487 -298.658)" fill="#1d4b78"/>
        <path id="Trazado_729997" data-name="Trazado 729997" d="M572.974,368.637c-.275.646.476,1.583,1.678,2.091s2.4.4,2.671-.24-.477-1.586-1.677-2.094-2.4-.4-2.671.243" transform="translate(-474.222 -304.665)" fill="#fff"/>
        <path id="Trazado_729998" data-name="Trazado 729998" d="M329.332,351.3s1.553-4.979,5.006-7.778c4.935-4,13.888-2.441,13.417,5.057,0,0-.341,6.914-6.6,7.821-5.061.728-9.947-1.515-11.825-5.1" transform="translate(-272.598 -282.572)" fill="#fff"/>
        <path id="Trazado_729999" data-name="Trazado 729999" d="M329.332,348.275a11.021,11.021,0,0,1,.3-1.16,17.667,17.667,0,0,1,1.186-2.945,16.02,16.02,0,0,1,1.108-1.836l.711-.946c.251-.319.572-.593.867-.9l.458-.453.528-.4c.17-.123.326-.253.512-.373l.612-.337a10.267,10.267,0,0,1,2.578-.965,12.516,12.516,0,0,1,1.36-.208c.456-.036.914-.023,1.366-.031a9.32,9.32,0,0,1,2.607.534,6.051,6.051,0,0,1,1.162.538,5.2,5.2,0,0,1,1.006.7l.448.384c.133.141.251.294.37.439l.343.432c.1.15.174.313.258.463a6.576,6.576,0,0,1,.654,1.737,11.657,11.657,0,0,1,.108,1.4c-.064.773-.114,1.2-.114,1.2l-.148-1.177c-.054-.368-.218-.8-.334-1.285a7.322,7.322,0,0,0-.807-1.466c-.09-.122-.169-.255-.271-.373l-.345-.333c-.118-.11-.225-.235-.349-.344l-.415-.293a4.287,4.287,0,0,0-.911-.523,6.284,6.284,0,0,0-1.025-.4,8.044,8.044,0,0,0-1.114-.254c-.382-.058-.779-.061-1.171-.108-.4.018-.8.011-1.2.05a11.861,11.861,0,0,0-1.191.2,9.046,9.046,0,0,0-2.248.791l-.509.258c-.174.1-.349.227-.522.339l-.485.322-.432.387c-.282.261-.58.5-.84.764l-.737.818a9.179,9.179,0,0,0-.649.826c-.2.275-.421.526-.588.8-.336.539-.681,1.017-.93,1.475-.267.449-.491.848-.663,1.183-.358.664-.539,1.062-.539,1.062" transform="translate(-272.598 -279.545)" fill="#0e1115"/>
        <path id="Trazado_730000" data-name="Trazado 730000" d="M370.912,359.331c1.026-4.594,4.222-7.791,7.142-7.138,2.2.488,3.611,3.02,3.738,6.208-.347,1.916-1.654,6.181-6.478,6.881a13.479,13.479,0,0,1-4.28-.081,11.628,11.628,0,0,1-.122-5.869" transform="translate(-306.755 -291.451)" fill="#1d4b78"/>
        <path id="Trazado_730001" data-name="Trazado 730001" d="M373.958,359.907c-.276.646.475,1.582,1.678,2.091s2.4.4,2.669-.238-.475-1.584-1.677-2.093-2.4-.4-2.67.24" transform="translate(-309.49 -297.438)" fill="#fff"/>
        <path id="Trazado_730002" data-name="Trazado 730002" d="M355.573,442.328a4.808,4.808,0,0,1,.327-.47c.11-.129.226-.292.373-.444l.457-.478.493-.441c.156-.142.324-.251.456-.357a4.6,4.6,0,0,1,.482-.311,4.7,4.7,0,0,1-.327.471c-.11.129-.225.293-.372.444l-.457.478-.494.44c-.157.141-.324.252-.456.357a4.748,4.748,0,0,1-.481.311" transform="translate(-294.319 -364.058)" fill="#79332d"/>
        <path id="Trazado_730003" data-name="Trazado 730003" d="M361.531,442.871s-.106.318-.305.773c-.107.223-.216.493-.36.765l-.45.857-.5.831c-.157.266-.33.5-.465.707-.283.408-.5.664-.5.664s.105-.318.305-.773c.107-.224.215-.493.36-.766l.45-.856.5-.831c.157-.266.33-.5.465-.706.283-.408.5-.664.5-.664" transform="translate(-297.119 -366.577)" fill="#79332d"/>
        <path id="Trazado_730004" data-name="Trazado 730004" d="M375.445,447.088a3.5,3.5,0,0,1-.146.468c-.058.132-.111.295-.2.453l-.261.5-.306.47c-.1.151-.213.276-.3.391a3.459,3.459,0,0,1-.337.356,3.437,3.437,0,0,1,.145-.468c.058-.132.11-.295.2-.452l.261-.5.306-.471c.1-.15.213-.276.3-.391a3.453,3.453,0,0,1,.337-.356" transform="translate(-309.49 -370.068)" fill="#79332d"/>
        <path id="Trazado_730005" data-name="Trazado 730005" d="M599.987,451.514a4.827,4.827,0,0,1-.482-.31c-.133-.106-.3-.216-.457-.357l-.494-.44-.457-.477c-.147-.152-.263-.315-.373-.444a4.674,4.674,0,0,1-.327-.47,4.665,4.665,0,0,1,.482.31c.133.106.3.216.457.357l.494.44.457.478c.146.152.263.315.373.444a4.773,4.773,0,0,1,.327.47" transform="translate(-494.485 -371.663)" fill="#79332d"/>
        <path id="Trazado_730006" data-name="Trazado 730006" d="M594.1,452.058s.216.256.5.664c.135.207.307.441.465.706l.5.831.45.857c.145.272.253.542.36.765.2.454.305.772.305.772s-.217-.256-.5-.664c-.135-.207-.308-.44-.465-.706l-.5-.831-.45-.856c-.144-.273-.253-.542-.36-.766-.2-.454-.306-.772-.306-.772" transform="translate(-491.754 -374.182)" fill="#79332d"/>
        <path id="Trazado_730007" data-name="Trazado 730007" d="M585.14,456.277a3.521,3.521,0,0,1,.337.355c.086.115.2.241.3.391l.306.47.261.5c.085.158.137.321.2.452a3.4,3.4,0,0,1,.145.467,3.486,3.486,0,0,1-.337-.355c-.086-.115-.2-.24-.3-.391l-.306-.47-.261-.5c-.084-.158-.137-.32-.2-.451a3.5,3.5,0,0,1-.146-.468" transform="translate(-484.339 -377.674)" fill="#79332d"/>
        <path id="Trazado_730008" data-name="Trazado 730008" d="M325.544,282.069s9.754-7.529,15.951-5.927c0,0,2.845,3.821,3,5.27,0,0-7.225-1.583-18.955.657" transform="translate(-269.463 -228.386)" fill="#2a1816"/>
        <path id="Trazado_730009" data-name="Trazado 730009" d="M534.606,288.956s9.754-7.529,15.951-5.931c0,0,2.845,3.82,3,5.271,0,0-7.222-1.584-18.954.66" transform="translate(-442.51 -234.083)" fill="#2a1816"/>
        <path id="Trazado_730010" data-name="Trazado 730010" d="M331.517,499.1a10.386,10.386,0,0,0,5.074.292c-23.281-7.77-33.118-37-33.118-37h0c1.551,8.566,3.529,16.848,5.717,19.774,6.053,10.272,22.329,16.938,22.329,16.938" transform="translate(-251.192 -382.729)" fill="#df7549"/>
        <path id="Trazado_730011" data-name="Trazado 730011" d="M239.788,66.661a153.516,153.516,0,0,0,4.883-17.023c1.319-6.855,2.859-15.111,6.154-16.3s20.77,6.336,26.436,7.462c16.033,3.2,23.359-5.235,23.359-5.235s5.787,9.324,4.844,14.071-.6,12.8,1.073,14.507l3.12-2.829s6.427-19.688,4.691-25.222c0,0-2.225-9.658-5.7-13.086,0,0,4.579-9.064-4.892-12.656A96.308,96.308,0,0,0,275.5.237c-15.929-2.9-35.312,21.634-35.312,21.634s-7.764,3.676-10.678,10.53c-2.019,4.745,2.914,28.915,2.914,28.915s6.372,2.717,7.364,5.345" transform="translate(-189.571 0.002)" fill="#2a1816"/>
        <path id="Trazado_730012" data-name="Trazado 730012" d="M427.253,522.2a.417.417,0,0,0-.5.107c3.6,4.641,14.537,4.788,15.319,4.718.438-.033.755-.862.951-1.589a48.415,48.415,0,0,1-15.773-3.237" transform="translate(-353.239 -432.211)" fill="#fff"/>
        <path id="Trazado_730013" data-name="Trazado 730013" d="M369.882,13.474a9.8,9.8,0,0,0-4.487-3.123A96.31,96.31,0,0,0,337.137.235C323.992-2.16,308.505,14.123,303.49,19.89c13.8-10.526,19.219-13.2,23.571-15.17S357.709,20.735,367.1,17.481c2.715-.94,3.3-2.4,2.78-4.008" transform="translate(-251.208 0.003)" fill="#3d2322"/>
        <g id="Grupo_965385" data-name="Grupo 965385" transform="translate(39.454 27.133)" opacity="0.6">
          <g id="Grupo_965384" data-name="Grupo 965384">
            <g id="Grupo_965383" data-name="Grupo 965383" clip-path="url(#clip-path-5)">
              <path id="Trazado_730014" data-name="Trazado 730014" d="M306.748,182.765c2.572-19.755-4.35-30.667-19.05-22.561s-27.615-2.374-35.579-2.374-5.385,12.826-13.885,23.149c-6.526,7.925-6.455-12.52-6.072-22.449a17.043,17.043,0,0,0-2.652,4.244c-2.019,4.745,2.914,28.915,2.914,28.915s6.372,2.717,7.364,5.345a153.471,153.471,0,0,0,4.883-17.023c1.319-6.855,2.859-15.111,6.154-16.3s20.77,6.336,26.436,7.462c16.033,3.2,23.359-5.235,23.359-5.235s5.787,9.324,4.844,14.071-.6,12.8,1.073,14.507l3.12-2.829s1.7-5.222,3.12-11.042c-4.778,8.849-6.03,2.118-6.03,2.118" transform="translate(-229.025 -157.504)" fill="#170e0d"/>
            </g>
          </g>
        </g>
      </g>
    </g>
  </g>
</svg>
