<svg xmlns="http://www.w3.org/2000/svg" xmlns:xlink="http://www.w3.org/1999/xlink" width="243" height="411" viewBox="0 0 243 411">
  <defs>
    <clipPath id="clip-path">
      <rect id="Rectángulo_342798" data-name="Rectángulo 342798" width="243" height="411" transform="translate(180 13711)" fill="#fff" stroke="#707070" stroke-width="1"/>
    </clipPath>
    <clipPath id="clip-path-2">
      <rect id="Rectángulo_341025" data-name="Rectángulo 341025" width="263.838" height="411" fill="none"/>
    </clipPath>
    <clipPath id="clip-path-3">
      <rect id="Rectángulo_341024" data-name="Rectángulo 341024" width="263.838" height="411.001" fill="none"/>
    </clipPath>
    <clipPath id="clip-path-4">
      <rect id="Rectángulo_341022" data-name="Rectángulo 341022" width="14.807" height="21.276" fill="none"/>
    </clipPath>
    <clipPath id="clip-path-5">
      <rect id="Rectángulo_341023" data-name="Rectángulo 341023" width="14.804" height="21.281" fill="none"/>
    </clipPath>
  </defs>
  <g id="Enmascarar_grupo_927274" data-name="Enmascarar grupo 927274" transform="translate(-180 -13711)" clip-path="url(#clip-path)">
    <g id="Grupo_972230" data-name="Grupo 972230" transform="translate(141.162 13711)">
      <g id="Grupo_965398" data-name="Grupo 965398" clip-path="url(#clip-path-2)">
        <g id="Grupo_965397" data-name="Grupo 965397" transform="translate(0 -0.001)">
          <g id="Grupo_965396" data-name="Grupo 965396" clip-path="url(#clip-path-3)">
            <path id="Trazado_730015" data-name="Trazado 730015" d="M176.137,450.748s30.788,25.933,4.8,36.841c0,0,37.891,22.091,13.829,35.311,0,0,30.174,16.665,8.906,29.388s-78.5-13.039-78.5-13.039V455.815Z" transform="translate(14.511 -320.41)" fill="#140a0a"/>
            <path id="Trazado_730016" data-name="Trazado 730016" d="M129.921,612.466s25.8,21.01,6.826,30.009c-2.75,1.3-4.177,2.614-4.629,3.909,6.162-.038,11.66-1.055,15.792-3.527C169.179,630.133,139,613.468,139,613.468c24.062-13.22-13.83-35.311-13.83-35.311s25.127,27.273,4.746,34.309" transform="translate(70.274 -410.977)" fill="#230d0d"/>
            <path id="Trazado_730017" data-name="Trazado 730017" d="M474.134,432.692s-11.153,32.342,5.588,39.708c0,0-42.108,18.9-14.544,29.992,0,0-14.231,6.2-4.969,10.77,0,0-35.828,33.117.536,40.62s84.521,3.071,84.521,3.071l4.009-69.785-14.755-43.539Z" transform="translate(-420.582 -307.574)" fill="#140a0a"/>
            <path id="Trazado_730018" data-name="Trazado 730018" d="M23.794,1164.617c-.507-3.2-.942-6.3-1.277-9.219,0,0-13.294-46.978-22.517-70.91l33.894-24.314c6.468,54.551,9.212,80.866,12.184,92.831,0,0,.82,3.946,2.275,11.611Z" transform="translate(215.485 -753.616)" fill="#f19367"/>
            <path id="Trazado_730019" data-name="Trazado 730019" d="M733.229,1164.617H708.671c1.452-7.665,2.273-11.611,2.273-11.611,2.972-11.965,5.721-38.281,12.183-92.831l33.893,24.314C747.8,1108.42,734.5,1155.4,734.5,1155.4c-.335,2.925-.767,6.015-1.274,9.219" transform="translate(-708.671 -753.616)" fill="#f19367"/>
            <path id="Trazado_730020" data-name="Trazado 730020" d="M315.922,669.556a12.926,12.926,0,0,0-4.656-6.618C306.23,660.329,251.9,645.63,251.9,645.63c-9.781-13.008-7.707-32.193-7.707-32.193l-19.841-8.583v-.125l-.178.061-.173-.061v.125l-19.83,8.583s-.031,23.7-7.724,32.193c0,0-56.728,15.651-61.759,18.263-.719.371-1.461,2.381-2.135,5.663L229.07,718Z" transform="translate(-92.39 -429.866)" fill="#e57a4e"/>
            <path id="Trazado_730021" data-name="Trazado 730021" d="M765.38,1184.075c-1.06-1.488-1.812-2.381-1.812-2.381l-29.606-6.81c-1.729,14.737-3.117,26.435-4.333,35.688,7.829,1.943,17.264,3.256,26.728,2.126,2.7-8.913,5.874-19.142,9.022-28.624" transform="translate(-723.404 -835.157)" fill="#df7549"/>
            <path id="Trazado_730022" data-name="Trazado 730022" d="M682.144,980.876l21.323-52.528-.217-63.209c-.563-2.715-.97-3.755-1.177-2.567-1.645,9.587-12.764,13.284-28.283,48.468-14.175,32.146-7.255,64.255-5.95,69.566a40.512,40.512,0,0,0,14.3.27" transform="translate(-641.841 -612.806)" fill="#cc740f"/>
            <path id="Trazado_730023" data-name="Trazado 730023" d="M54.135,1162.544,23.069,1175.1c2.815,8.461,5.649,17.523,8.153,25.735,6.875.628,17.058.22,26.878-5.189-1.127-8.959-2.409-19.875-3.965-33.105" transform="translate(198.723 -826.384)" fill="#df7549"/>
            <path id="Trazado_730024" data-name="Trazado 730024" d="M120.322,953.261c.446-19.575-27.552-68.515-27.552-68.515l-8.281,16.715-.145,42.995,21.324,52.528a40.4,40.4,0,0,0,14.638-.337c-.073-4.455-.379-25.932.016-43.385" transform="translate(117.865 -628.914)" fill="#cc740f"/>
            <path id="Trazado_730025" data-name="Trazado 730025" d="M358.671,628.388c9.185,5.9,24.687,14.788,32.664,13.315a32.372,32.372,0,0,0,11.618-4.9c-4.255-11.425-2.972-23.366-2.972-23.366l-19.841-8.583v-.125l-.178.061-.173-.061v.125l-19.829,8.583a105.76,105.76,0,0,1-1.289,14.951" transform="translate(-248.178 -429.866)" fill="#bd502a"/>
            <path id="Trazado_730026" data-name="Trazado 730026" d="M228.743,909.486l-8.289-20.416c-3.028,12.21-5.964,20.925-5.964,20.925-3.6,12.044-5.63,26.488-6.313,42.423H66.922C64.115,929.868,55.5,905.193,55.5,905.193c-1.425-3.725-2.634-7.472-3.689-11.221l-6.3,15.514A38.016,38.016,0,0,1,7.484,893.171s6.942-86.622,15.552-100.16c11.665-18.348,43.5-23.709,43.5-23.709v.035l26.087-7.512c8.905,17.152,35.878,53.876,46.574,53.7,19.164-.328,44.767-53.866,44.767-53.866L207.72,769.3s31.836,5.362,43.5,23.709c8.61,13.538,15.552,100.16,15.552,100.16a38.016,38.016,0,0,1-38.031,16.315" transform="translate(-5.211 -541.416)" fill="#f1951e"/>
            <path id="Trazado_730027" data-name="Trazado 730027" d="M181.849,380.186s6.15-10.271,15.742-10.415c5.694-.084,4.01,22.145-1.857,27.888s-14.4,3.828-16.3-1.254Z" transform="translate(8.18 -262.848)" fill="#f19367"/>
            <g id="Grupo_965392" data-name="Grupo 965392" transform="translate(191.339 112.053)" opacity="0.4">
              <g id="Grupo_965391" data-name="Grupo 965391" transform="translate(0)">
                <g id="Grupo_965390" data-name="Grupo 965390" clip-path="url(#clip-path-4)">
                  <path id="Trazado_730028" data-name="Trazado 730028" d="M189.728,408.282s7.16,2.392,10.249-3.283,6.084-12.488,3.691-17.494c0,0-6.6,1.463-12.7,13.18,0,0,4.472,5.277-1.238,7.6" transform="translate(-189.728 -387.507)" fill="#c6442b"/>
                </g>
              </g>
            </g>
            <path id="Trazado_730029" data-name="Trazado 730029" d="M204.287,393.278a27.585,27.585,0,0,0,.209-3.227,10.8,10.8,0,0,0-.357-3.286,2.146,2.146,0,0,0-.479-.859,1.04,1.04,0,0,0-.633-.3,1.192,1.192,0,0,0-.62.121l-.774.323-.768.435a11.341,11.341,0,0,0-1.455.944c-.452.336-.936.641-1.355,1.014a26.268,26.268,0,0,0-2.5,2.249c-.387.4-.819.767-1.169,1.2l-1.072,1.286a10.065,10.065,0,0,0-1,1.34l-.925,1.391a12.087,12.087,0,0,0-.769,1.478l-.723,1.5-.133.276.223.244a8.832,8.832,0,0,1,1.382,2.019,5.481,5.481,0,0,1,.422,1.129,3.2,3.2,0,0,1,.1.582,3.281,3.281,0,0,1,.013.583,3.8,3.8,0,0,1-.282,1.133l-.323.51a3.148,3.148,0,0,1-.421.456,5.545,5.545,0,0,1-1.024.771c-.381.211-.785.393-1.185.6.422-.137.863-.252,1.285-.415a5.948,5.948,0,0,0,1.177-.685,3.609,3.609,0,0,0,.525-.448l.443-.541.311-.629a4.455,4.455,0,0,0,.169-.678,3.847,3.847,0,0,0,.04-.692,3.785,3.785,0,0,0-.068-.685,6.152,6.152,0,0,0-.376-1.309,9.529,9.529,0,0,0-1.371-2.358l.091.52.745-1.4a11.22,11.22,0,0,1,.784-1.375,29.778,29.778,0,0,1,1.881-2.584l1.04-1.228c.329-.422.743-.778,1.11-1.171.385-.378.741-.783,1.15-1.139l1.214-1.079c.392-.377.841-.681,1.263-1.021a15.785,15.785,0,0,1,1.287-.937l.647-.443.749-.377c.243-.119.151-.1.295-.038a1.45,1.45,0,0,1,.335.536,13.892,13.892,0,0,1,.632,3.061c.125,1.06.187,2.131.251,3.2" transform="translate(1.97 -274.099)" fill="#874237"/>
            <path id="Trazado_730030" data-name="Trazado 730030" d="M204.145,409a1.2,1.2,0,0,0-.087-.375,3.168,3.168,0,0,0-.518-.926,3.729,3.729,0,0,0-1.244-.924,3.829,3.829,0,0,0-.836-.327l-.913-.133a2.631,2.631,0,0,0-.9.009c-.294.03-.579.094-.854.139a2.8,2.8,0,0,0-.769.2c-.231.1-.444.2-.638.3a7.762,7.762,0,0,0-1.229.733,9.829,9.829,0,0,0,1.429-.062c.2-.021.424-.045.649-.086a4.669,4.669,0,0,1,.714-.026c.244-.008.5,0,.748-.026a1.938,1.938,0,0,1,.747.029l.739.063a5.329,5.329,0,0,1,.68.171,2.465,2.465,0,0,1,.631.207c.186.1.383.169.561.25.307.213.618.374.788.532a2.334,2.334,0,0,1,.3.252" transform="translate(0.048 -288.8)" fill="#874237"/>
            <path id="Trazado_730031" data-name="Trazado 730031" d="M293.642,290.71s27.38-13.236,36.887-28.108c7.823-10.433,17.036-63.632,17.979-71.893.027-.276.067-.547.095-.823s.044-.405.044-.405l-.012.008c.157-1.71.252-3.433.252-5.181,0-31.853-27.152-57.674-60.649-57.674s-60.654,25.82-60.654,57.674a55.462,55.462,0,0,0,.346,6.13h-.006s9.452,60.733,18.018,72.163c10.071,17.048,36.887,28.108,36.887,28.108a18.884,18.884,0,0,0,10.813,0" transform="translate(-154.252 -90.016)" fill="#f19367"/>
            <path id="Trazado_730032" data-name="Trazado 730032" d="M621.187,388.584s-6.156-10.279-15.742-10.419c-5.694-.083-4.01,22.149,1.851,27.89s14.41,3.826,16.305-1.257Z" transform="translate(-542.798 -268.814)" fill="#f19367"/>
            <g id="Grupo_965395" data-name="Grupo 965395" transform="translate(62.27 114.479)" opacity="0.4">
              <g id="Grupo_965394" data-name="Grupo 965394" transform="translate(0)">
                <g id="Grupo_965393" data-name="Grupo 965393" clip-path="url(#clip-path-5)">
                  <path id="Trazado_730033" data-name="Trazado 730033" d="M629.009,416.678s-7.154,2.391-10.244-3.285-6.089-12.488-3.691-17.5c0,0,6.6,1.464,12.7,13.18,0,0-4.472,5.282,1.233,7.6" transform="translate(-614.206 -395.897)" fill="#c6442b"/>
                </g>
              </g>
            </g>
            <path id="Trazado_730034" data-name="Trazado 730034" d="M612.119,401.675c.064-1.074.127-2.144.252-3.2a13.868,13.868,0,0,1,.633-3.06,1.489,1.489,0,0,1,.336-.536c.144-.058.059-.079.295.037l.75.376.647.443c.427.281.858.592,1.286.938s.871.644,1.263,1.021l1.214,1.079c.409.355.765.76,1.151,1.138.368.393.781.748,1.112,1.171l1.04,1.227a29.583,29.583,0,0,1,1.881,2.582,11.136,11.136,0,0,1,.785,1.375l.747,1.4.09-.52a9.544,9.544,0,0,0-1.37,2.36,6.155,6.155,0,0,0-.375,1.309,3.726,3.726,0,0,0-.068.685,3.91,3.91,0,0,0,.04.692,4.458,4.458,0,0,0,.168.678l.311.63.443.542a3.661,3.661,0,0,0,.526.449,5.979,5.979,0,0,0,1.176.685c.422.163.864.277,1.286.415-.4-.2-.8-.384-1.185-.6a5.581,5.581,0,0,1-1.026-.772,3.177,3.177,0,0,1-.419-.456l-.324-.511a3.8,3.8,0,0,1-.281-1.132,3.256,3.256,0,0,1,.013-.585,3.086,3.086,0,0,1,.1-.582,5.407,5.407,0,0,1,.422-1.128,8.863,8.863,0,0,1,1.382-2.02l.224-.244-.134-.277-.723-1.5a12.246,12.246,0,0,0-.77-1.477l-.925-1.39a10,10,0,0,0-1-1.34l-1.073-1.285c-.35-.436-.782-.8-1.169-1.2a26.285,26.285,0,0,0-2.5-2.248c-.418-.372-.9-.678-1.354-1.013a11.179,11.179,0,0,0-1.454-.944l-.768-.436-.775-.323a1.183,1.183,0,0,0-.622-.121,1.053,1.053,0,0,0-.63.3,2.157,2.157,0,0,0-.48.859,10.739,10.739,0,0,0-.359,3.285,27.3,27.3,0,0,0,.207,3.227" transform="translate(-549.962 -280.068)" fill="#874237"/>
            <path id="Trazado_730035" data-name="Trazado 730035" d="M630.2,417.4a2.3,2.3,0,0,1,.3-.25,9.421,9.421,0,0,1,.788-.532c.178-.08.375-.154.561-.25a2.487,2.487,0,0,1,.631-.206,5.176,5.176,0,0,1,.679-.169l.738-.064a1.937,1.937,0,0,1,.747-.028c.252.027.5.017.747.027a4.464,4.464,0,0,1,.713.025c.225.041.444.065.649.086a9.916,9.916,0,0,0,1.428.062,7.8,7.8,0,0,0-1.228-.733c-.194-.1-.406-.2-.638-.3a2.786,2.786,0,0,0-.767-.2c-.274-.044-.56-.11-.854-.139a2.605,2.605,0,0,0-.9-.01l-.911.132a3.809,3.809,0,0,0-.836.326,3.717,3.717,0,0,0-1.244.923,3.191,3.191,0,0,0-.518.924,1.2,1.2,0,0,0-.087.375" transform="translate(-565.969 -294.775)" fill="#874237"/>
            <path id="Trazado_730036" data-name="Trazado 730036" d="M400.969,499.537s.078,7.549-2.108,8.644-.9-4.238,2.108-8.644" transform="translate(-258.082 -355.091)" fill="#521b14"/>
            <path id="Trazado_730037" data-name="Trazado 730037" d="M277.639,388.857s2.7-8.262,8.732-12.9c8.611-6.64,24.235-4.055,23.41,8.39,0,0-.6,11.47-11.509,12.977-8.833,1.214-17.36-2.513-20.632-8.463" transform="translate(-130.397 -264.715)" fill="#fff"/>
            <path id="Trazado_730038" data-name="Trazado 730038" d="M277.069,386.286s.316-.66.939-1.762c.3-.556.692-1.217,1.156-1.962.433-.761,1.035-1.555,1.622-2.448.291-.449.675-.865,1.024-1.321a15.2,15.2,0,0,1,1.134-1.369l1.287-1.358c.454-.444.974-.834,1.466-1.267l.754-.642.847-.534c.3-.185.609-.4.911-.563l.889-.427a16.327,16.327,0,0,1,3.922-1.313c.678-.188,1.389-.217,2.08-.337.7-.064,1.4-.054,2.09-.083.684.077,1.376.083,2.043.18a14.6,14.6,0,0,1,1.944.419,11.289,11.289,0,0,1,1.788.661,7.548,7.548,0,0,1,1.589.866l.725.486c.217.182.4.388.61.571l.6.553c.178.2.316.417.473.619a11.993,11.993,0,0,1,1.407,2.433c.2.813.489,1.523.582,2.133.164,1.243.258,1.953.258,1.953s.088-.7.2-1.986a18.232,18.232,0,0,0-.189-2.323,10.568,10.568,0,0,0-1.139-2.882c-.148-.25-.278-.52-.451-.768l-.6-.717c-.206-.242-.413-.5-.645-.729l-.782-.638a9.186,9.186,0,0,0-1.755-1.17,10.845,10.845,0,0,0-2.028-.892,17.006,17.006,0,0,0-4.548-.885c-.788.013-1.588-.007-2.384.053a23.015,23.015,0,0,0-2.372.344,18.589,18.589,0,0,0-4.5,1.6l-1.067.56c-.324.2-.6.415-.893.619l-.921.657-.8.751c-.514.508-1.075.961-1.512,1.49l-1.242,1.571a26.254,26.254,0,0,0-1.933,3.046,28.287,28.287,0,0,0-2.067,4.887,17.326,17.326,0,0,0-.516,1.925" transform="translate(-129.828 -262.144)" fill="#0e1115"/>
            <path id="Trazado_730039" data-name="Trazado 730039" d="M278.97,394.98c1.789-7.626,7.372-12.933,12.463-11.852,3.836.811,6.3,5.016,6.525,10.3-.608,3.182-2.888,10.259-11.3,11.42a24.672,24.672,0,0,1-7.472-.132,18.374,18.374,0,0,1-.212-9.736" transform="translate(-118.78 -272.243)" fill="#34110f"/>
            <path id="Trazado_730040" data-name="Trazado 730040" d="M313.886,391.09c-.474,1.073.836,2.63,2.933,3.478s4.176.666,4.662-.409-.837-2.624-2.933-3.47-4.177-.669-4.662.4" transform="translate(-153.155 -277.336)" fill="#fff"/>
            <path id="Trazado_730041" data-name="Trazado 730041" d="M474.362,380.232s2.71-8.262,8.738-12.907c8.61-6.64,24.229-4.055,23.415,8.391,0,0-.6,11.476-11.521,12.973-8.828,1.214-17.351-2.508-20.633-8.458" transform="translate(-386.95 -258.582)" fill="#fff"/>
            <path id="Trazado_730042" data-name="Trazado 730042" d="M473.8,377.661s.317-.66.94-1.762c.3-.556.692-1.217,1.158-1.962.434-.761,1.036-1.554,1.624-2.449.291-.449.674-.864,1.024-1.321a15.3,15.3,0,0,1,1.134-1.37l1.287-1.358c.454-.445.974-.835,1.466-1.268l.754-.642.847-.534c.3-.185.608-.4.91-.564l.89-.428a16.339,16.339,0,0,1,3.922-1.313c.678-.189,1.388-.217,2.079-.338.7-.064,1.4-.054,2.091-.083.683.078,1.377.083,2.044.18a14.472,14.472,0,0,1,1.944.42,11.275,11.275,0,0,1,1.789.661,7.537,7.537,0,0,1,1.589.867l.726.485c.216.182.4.388.611.571l.6.554c.178.2.316.417.473.619a11.991,11.991,0,0,1,1.41,2.433c.2.813.49,1.523.584,2.133l.259,1.953s.087-.7.2-1.987a18.579,18.579,0,0,0-.19-2.323,10.6,10.6,0,0,0-1.141-2.882c-.147-.249-.278-.52-.451-.769l-.6-.716c-.207-.243-.414-.495-.646-.729l-.782-.637a9.108,9.108,0,0,0-1.755-1.171,10.892,10.892,0,0,0-2.028-.892,17.028,17.028,0,0,0-4.55-.885c-.787.013-1.588-.007-2.383.054a22.632,22.632,0,0,0-2.373.344,18.486,18.486,0,0,0-4.5,1.6l-1.067.56c-.324.2-.6.415-.893.62l-.921.657-.8.752c-.514.508-1.075.961-1.512,1.49l-1.242,1.571a26.229,26.229,0,0,0-1.934,3.047,28.412,28.412,0,0,0-2.07,4.887,17.461,17.461,0,0,0-.517,1.925" transform="translate(-386.384 -256.011)" fill="#0e1115"/>
            <path id="Trazado_730043" data-name="Trazado 730043" d="M475.73,386.361c1.79-7.629,7.367-12.931,12.458-11.852,3.831.809,6.3,5.017,6.519,10.3-.6,3.187-2.883,10.264-11.3,11.417a24.613,24.613,0,0,1-7.467-.13,18.319,18.319,0,0,1-.207-9.733" transform="translate(-375.359 -266.116)" fill="#34110f"/>
            <path id="Trazado_730044" data-name="Trazado 730044" d="M510.634,382.47c-.485,1.07.831,2.625,2.922,3.473s4.188.668,4.662-.4-.831-2.63-2.922-3.473-4.188-.666-4.662.4" transform="translate(-409.722 -271.208)" fill="#fff"/>
            <path id="Trazado_730045" data-name="Trazado 730045" d="M539.42,465.234a8.4,8.4,0,0,0,.839-.517c.232-.175.522-.358.8-.592l.859-.73.8-.794c.256-.251.458-.523.65-.736a7.736,7.736,0,0,0,.57-.782,8.152,8.152,0,0,0-.84.516c-.231.176-.523.358-.8.593l-.859.731-.8.794c-.255.253-.458.523-.649.737a7.855,7.855,0,0,0-.57.78" transform="translate(-444.117 -327.755)" fill="#79332d"/>
            <path id="Trazado_730046" data-name="Trazado 730046" d="M540.63,464.088s-.377.425-.871,1.1c-.236.345-.537.733-.812,1.174l-.865,1.379-.785,1.422c-.253.452-.443.9-.628,1.271-.35.754-.533,1.282-.533,1.282s.378-.425.872-1.1c.235-.344.538-.731.811-1.173l.865-1.38.785-1.421c.252-.453.442-.9.628-1.271.348-.754.533-1.282.533-1.282" transform="translate(-439.818 -329.892)" fill="#79332d"/>
            <path id="Trazado_730047" data-name="Trazado 730047" d="M529.972,468.271a5.993,5.993,0,0,0-.588.59c-.151.191-.353.4-.521.649l-.534.78c-.154.281-.31.561-.455.824s-.238.532-.341.75a5.506,5.506,0,0,0-.253.776,5.93,5.93,0,0,0,.588-.589c.151-.191.354-.4.522-.649l.534-.78c.154-.28.309-.562.454-.824s.239-.533.34-.751a5.585,5.585,0,0,0,.254-.775" transform="translate(-426.466 -332.866)" fill="#79332d"/>
            <path id="Trazado_730048" data-name="Trazado 730048" d="M304.853,474.318a8.008,8.008,0,0,0-.571-.781c-.193-.213-.4-.484-.65-.736l-.8-.793-.861-.73c-.273-.235-.565-.418-.8-.593a8.179,8.179,0,0,0-.841-.515,7.785,7.785,0,0,0,.571.781c.192.213.393.486.65.736l.8.793.862.73c.273.234.564.418.8.593a8.308,8.308,0,0,0,.84.516" transform="translate(-132.339 -334.215)" fill="#79332d"/>
            <path id="Trazado_730049" data-name="Trazado 730049" d="M303.691,473.177s.185.527.532,1.281c.186.37.375.817.628,1.269s.517.937.784,1.421c.293.469.588.938.864,1.379s.575.827.81,1.172c.493.676.871,1.1.871,1.1s-.184-.528-.532-1.281c-.186-.37-.375-.818-.628-1.27s-.517-.937-.785-1.42l-.865-1.378c-.274-.441-.575-.828-.81-1.172-.493-.676-.87-1.1-.87-1.1" transform="translate(-136.687 -336.353)" fill="#79332d"/>
            <path id="Trazado_730050" data-name="Trazado 730050" d="M318.455,477.349a5.576,5.576,0,0,0,.254.776c.1.219.194.488.341.75s.3.544.455.825l.533.781c.168.251.372.458.522.649a5.92,5.92,0,0,0,.589.589,5.538,5.538,0,0,0-.253-.776c-.1-.218-.193-.489-.341-.749l-.456-.824-.534-.78c-.169-.25-.372-.458-.523-.649a5.955,5.955,0,0,0-.587-.59" transform="translate(-154.144 -339.319)" fill="#79332d"/>
            <path id="Trazado_730051" data-name="Trazado 730051" d="M474.758,323.86s14.2-7.757,25.01-5.106c0,0,7.785,1.6,8.063,4.009,0,0-12.6-2.624-33.073,1.1" transform="translate(-388.355 -226.19)" fill="#230d0d"/>
            <path id="Trazado_730052" data-name="Trazado 730052" d="M263.656,330.666s14.37-7.749,25.183-5.1c0,0,7.612,1.606,7.891,4.011,0,0-12.6-2.622-33.074,1.092" transform="translate(-113.063 -231.031)" fill="#230d0d"/>
            <path id="Trazado_730053" data-name="Trazado 730053" d="M563.157,375.51s-5.577-3.807-4.29-13.458c0,0,3.766,5.541,9.689,6.032Z" transform="translate(-474.596 -257.361)" fill="#0e1115"/>
            <path id="Trazado_730054" data-name="Trazado 730054" d="M256.413,371.49s6.006.424,9.519-4.083c0,0,1,8.649-6.407,11.828a56.737,56.737,0,0,0-3.112-7.745" transform="translate(-80.108 -261.167)" fill="#0e1115"/>
            <path id="Trazado_730055" data-name="Trazado 730055" d="M375.291,547.98s-1.2,13.915,13.623,16.41c13.256,2.233,15.742-11.708,15.742-11.708s-7.568,2.508-11.839,2.14-17.6-6.327-17.526-6.841" transform="translate(-254.928 -389.526)" fill="#e23c43"/>
            <path id="Trazado_730056" data-name="Trazado 730056" d="M392.82,547.117s15.2-4.439,19.706,3.611c0,0-7.043.753-19.706-3.611" transform="translate(-268.135 -388.045)" fill="#e23c43"/>
            <path id="Trazado_730057" data-name="Trazado 730057" d="M404.073,549.553s-12.329.69-27.843-4.948a.713.713,0,0,0-.909.287c-.4.541,1.138,9.364,14.226,11.568,0,0,10.243,1.512,15.039-6.223,0,0-.005-.875-.513-.684" transform="translate(-254.857 -387.082)" fill="#fff"/>
            <path id="Trazado_730058" data-name="Trazado 730058" d="M359.279,1220.53s12.538,14.994,19.336,27.922H359.363c-2.807-22.549-11.421-47.224-11.421-47.224a133.637,133.637,0,0,1-6.474-23.116,51.454,51.454,0,0,0,46.49,16.969c32.644-4.571,55.982-15.1,69.7-9.836,0,0-41.171,5.917-52.837,15.707s-33.441,19.578-45.542,19.578" transform="translate(-297.652 -837.451)" fill="#cc740f"/>
            <path id="Trazado_730059" data-name="Trazado 730059" d="M108.426,112.15s5.437,6.955,7.367,7.614,8.261-33.27,8.013-45.015c0,0,40.824,6.525,56.483-15.336,0,0,24.96,32.128,47.761,38.252l.692,18.244s8.476-8.8,14.432-8.991c0,0,22.763-10.112,15.837-25.97,0,0,19.707-2.609,19.623-16.293-.038-6.315-5.486-17.637-23.677-19.6,0,0,21.954-26.859-21.475-19.247,0,0-45.615-32.843-66.71-24.438l-4.808,4.641s-6.29-1.957-11.086-1.3-41.265,1.848-51.2,51.766c0,0-43.367,34.116-16.611,48.707,0,0-19.208,25.291,15.24,25.143,0,0-7.35-24.093,10.121-18.178" transform="translate(-37.403 0.005)" fill="#230d0d"/>
            <path id="Trazado_730060" data-name="Trazado 730060" d="M274.418,1.372l-4.807,4.641s-6.29-1.957-11.086-1.3c-3.29.446-21.4,1.153-35.689,17.553,14.928-9.4,34.089-16.853,48.5-6.571,0,0,2.51-6.851,8.247-6.851,9.853,0,35.973,3.887,61.541,16.966,0,0-45.615-32.843-66.71-24.438" transform="translate(-145.049 0.004)" fill="#341313"/>
            <path id="Trazado_730061" data-name="Trazado 730061" d="M217.555,88.612c1,.509,1.506.373,1.606-.267-.524.084-1.059.169-1.606.267" transform="translate(-21.476 -62.798)" fill="#341313"/>
            <path id="Trazado_730062" data-name="Trazado 730062" d="M676.106,295.506S656.9,320.8,691.346,320.648a37.135,37.135,0,0,1-1.477-11.408c-14.929-6.465-5.526-21.255-5.526-21.255-13.161-.148-13.451-11.1-11.393-20.252-6.533,9.871-9.346,20.952,3.156,27.772" transform="translate(-630.444 -190.315)" fill="#140a0a"/>
            <path id="Trazado_730063" data-name="Trazado 730063" d="M258.956,198.625s8.476-8.8,14.432-8.991c0,0,14.258-6.342,16.763-16.853-40.981,26.059-78.143-56.424-78.143-56.424-8.32,43.719-76.173,28.712-76.173,28.712,4.963,10.145,20.627,12.7,20.788,12.724,9.235,1,40.6,2.872,53.88-15.665,0,0,24.96,32.128,47.761,38.251Z" transform="translate(-67.616 -82.71)" fill="#140a0a"/>
            <path id="Trazado_730064" data-name="Trazado 730064" d="M113.386,175.431c-.039-6.315-5.487-17.637-23.677-19.6,0,0-15.943,1.962-15.346,6.527s51.025,7.382,26.494,27.509c5.644-2.087,12.58-6.308,12.53-14.437" transform="translate(127.845 -110.771)" fill="#341313"/>
          </g>
        </g>
      </g>
    </g>
  </g>
</svg>
