<svg xmlns="http://www.w3.org/2000/svg" xmlns:xlink="http://www.w3.org/1999/xlink" width="190.749" height="279.356" viewBox="0 0 190.749 279.356">
  <defs>
    <clipPath id="clip-path">
      <rect id="Rectángulo_341021" data-name="Rectángulo 341021" width="190.749" height="279.356" fill="none"/>
    </clipPath>
    <clipPath id="clip-path-2">
      <rect id="Rectángulo_341020" data-name="Rectángulo 341020" width="190.749" height="279.357" fill="none"/>
    </clipPath>
    <clipPath id="clip-path-3">
      <rect id="Rectángulo_341017" data-name="Rectángulo 341017" width="9.586" height="14.484" fill="none"/>
    </clipPath>
    <clipPath id="clip-path-4">
      <rect id="Rectángulo_341018" data-name="Rectángulo 341018" width="9.583" height="14.487" fill="none"/>
    </clipPath>
    <clipPath id="clip-path-5">
      <rect id="Rectángulo_341019" data-name="Rectángulo 341019" width="94.605" height="44.651" fill="none"/>
    </clipPath>
  </defs>
  <g id="Grupo_965388" data-name="Grupo 965388" clip-path="url(#clip-path)">
    <g id="Grupo_965387" data-name="Grupo 965387" transform="translate(0 -0.001)">
      <g id="Grupo_965386" data-name="Grupo 965386" clip-path="url(#clip-path-2)">
        <path id="Trazado_729972" data-name="Trazado 729972" d="M771.4,900.869c.217,4.047.737,8.534,1.468,13.277h18.7c-1.515-8.888-2.551-14.381-2.551-14.381,0-6.582-7.553-80.482-11.994-94.7s-30.206-16.909-30.206-16.909-3.11,39.123,2.666,53.261,21.915,59.45,21.915,59.45" transform="translate(-600.823 -634.789)" fill="#f19367"/>
        <path id="Trazado_729973" data-name="Trazado 729973" d="M36.338,914.146c4.293-34.527,8.7-67.692,10.99-77.981,5.329-23.992,2.693-48.008,2.693-48.008S25.563,789.52,20.674,817.5c-2.343,13.429-3.563,55.392-4.2,96.641Z" transform="translate(-13.271 -634.788)" fill="#f19367"/>
        <path id="Trazado_729974" data-name="Trazado 729974" d="M18.753,1230.138a187.827,187.827,0,0,0,22.123,2.578c.458-3.559.911-7.046,1.356-10.436L19.258,1210.3c-.189,6.379-.359,13.04-.5,19.841" transform="translate(-15.104 -974.784)" fill="#bd502a"/>
        <path id="Trazado_729975" data-name="Trazado 729975" d="M28.623,964.768c-3.909.487-16.675-2.446-21.029-3.492,7.763,9,29.494,8.29,29.494,8.29,3.135-12.073,5.151-37.081,5.151-37.081v-43.3C34.477,908.019,20.451,941.3,22.7,940.054c2.369-1.32,10.955-3.419,10.955-3.419s-5.626,13.027-7.581,15.7,7.287,11.846,2.547,12.436" transform="translate(-6.116 -716.156)" fill="#7a94a1"/>
        <path id="Trazado_729976" data-name="Trazado 729976" d="M834.588,1188.283c5.484.3,13.533.236,19.885-1.934-.675-7.644-1.831-19.12-3.208-31.287l-23.228,15.088c2.49,6.838,4.825,13.323,6.552,18.133" transform="translate(-666.908 -930.297)" fill="#bd502a"/>
        <path id="Trazado_729977" data-name="Trazado 729977" d="M766.563,964.168c-.694-1.777,12.542-26.057,14.023-35.83s-1.778-6.518-1.778-6.518c-4.739,14.511-15.991,26.355-15.991,26.355s4.145-20.434,4.145-23.982-14.806-34.651-14.806-34.651l-3.617,9.416-2.549,35.989,16.234,34.5a33.058,33.058,0,0,0,15.475-1.27c-4.5-1.139-10.694-2.891-11.135-4.013" transform="translate(-600.827 -716.445)" fill="#7a94a1"/>
        <path id="Trazado_729978" data-name="Trazado 729978" d="M290.835,629.257c-.485-2.236-1-3.6-1.463-3.854-3.257-1.774-39.979-12.437-39.979-12.437-2.073-3.55-2.209-21.912-2.209-21.912l-15.627-5.842v-.086l-.116.043-.112-.043v.086L215.7,591.054s-.135,18.362-2.207,21.912c0,0-36.723,10.663-39.981,12.437-.464.251-.946,1.618-1.383,3.854Z" transform="translate(-138.635 -471.265)" fill="#e57a4e"/>
        <path id="Trazado_729979" data-name="Trazado 729979" d="M418.019,610.3a22.086,22.086,0,0,0,9.107-4.491c-.666-6.51-.726-14.754-.726-14.754l-15.627-5.842v-.086l-.116.043-.112-.043v.086l-15.629,5.842s-.028,4.007-.271,8.637c5.273,3.725,17.491,11.75,23.374,10.607" transform="translate(-317.851 -471.266)" fill="#bd502a"/>
        <path id="Trazado_729980" data-name="Trazado 729980" d="M30.972,834.663c1.875-7.217,3.347-19.052,4.23-27.408a141.085,141.085,0,0,0,4.851,16.462s1.288,22.744,2.83,36.894H143c-.225-9.614-.236-18.223.111-24.454,0,0,3.709-12.267,6.95-25.99L161.4,834.26c16.79,2.687,29.021-8.918,29.021-8.918s-5.084-65.134-10.659-74.351c-7.535-12.461-29.9-16.118-29.992-16.132l-39.513-13.171s-16.464,18.565-34.892,0l-41.3,12.934s-.034.156-.086.41c-34.706,3.306-31.453,56.63-31.453,56.63L0,824.234c5.924,11.254,30.972,10.429,30.972,10.429" transform="translate(0 -581.254)" fill="#95b1c1"/>
        <path id="Trazado_729981" data-name="Trazado 729981" d="M186.643,1206.064h23.189c.73-1.631,1.153-2.612,1.153-2.612-7.7-10.665-23.115-32.28-23.115-32.28,4.054,2,65.76,23.4,69.312,23.1s3.554-1.779,3.554-1.779c-16.09-3.016-67.175-32.921-82.243-41.888a142.306,142.306,0,0,0,5.32,18.566s1.289,22.744,2.83,36.894" transform="translate(-143.76 -926.707)" fill="#7a94a1"/>
        <path id="Trazado_729982" data-name="Trazado 729982" d="M664.222,354.532s3.986-7,10.192-7.1c3.686-.057,2.6,15.081-1.2,18.989s-9.325,2.609-10.554-.855Z" transform="translate(-533.712 -279.826)" fill="#f19367"/>
        <g id="Grupo_965379" data-name="Grupo 965379" transform="translate(131.361 71.104)" opacity="0.4">
          <g id="Grupo_965378" data-name="Grupo 965378">
            <g id="Grupo_965377" data-name="Grupo 965377" clip-path="url(#clip-path-3)">
              <path id="Trazado_729983" data-name="Trazado 729983" d="M675.063,379.54s4.634,1.63,6.633-2.232,3.941-8.5,2.393-11.91c0,0-4.273.994-8.224,8.968,0,0,2.9,3.6-.8,5.175" transform="translate(-675.063 -365.398)" fill="#c6442b"/>
            </g>
          </g>
        </g>
        <path id="Trazado_729984" data-name="Trazado 729984" d="M682.858,368.693c-.041-.731-.082-1.459-.162-2.181a9.892,9.892,0,0,0-.409-2.083,1.01,1.01,0,0,0-.217-.365c-.093-.04-.036-.055-.191.025l-.484.256-.419.3c-.276.191-.557.4-.835.635s-.568.435-.823.689l-.788.733c-.262.244-.492.521-.74.78s-.5.513-.714.8-.451.555-.676.833a18.956,18.956,0,0,0-1.227,1.753,7.788,7.788,0,0,0-.5.94l-.477.956-.058-.355a6.594,6.594,0,0,1,.888,1.606,4.284,4.284,0,0,1,.243.891,2.669,2.669,0,0,1,.045.466,2.8,2.8,0,0,1-.026.471,3.178,3.178,0,0,1-.109.461l-.2.429-.287.368a2.352,2.352,0,0,1-.34.305,3.778,3.778,0,0,1-.762.466c-.273.111-.559.188-.832.282.259-.137.521-.261.767-.4a3.617,3.617,0,0,0,.664-.525,2.073,2.073,0,0,0,.272-.31l.21-.348a2.7,2.7,0,0,0,.182-.77,2.431,2.431,0,0,0-.009-.4,2.208,2.208,0,0,0-.068-.4,3.848,3.848,0,0,0-.273-.768,6.064,6.064,0,0,0-.9-1.375l-.145-.167.087-.187.475-1.017a8.427,8.427,0,0,1,.5-1,19.661,19.661,0,0,1,1.236-1.863c.231-.291.453-.591.692-.876s.509-.541.761-.814.508-.543.787-.788l.834-.738c.269-.255.58-.465.871-.695a6.8,6.8,0,0,1,.939-.647l.5-.3.5-.219a.731.731,0,0,1,.4-.082.665.665,0,0,1,.408.2,1.481,1.481,0,0,1,.31.585,7.674,7.674,0,0,1,.231,2.235,19.586,19.586,0,0,1-.135,2.2" transform="translate(-541.843 -292.738)" fill="#874237"/>
        <path id="Trazado_729985" data-name="Trazado 729985" d="M696.411,386.234a1.506,1.506,0,0,0-.2-.171,6.252,6.252,0,0,0-.511-.362c-.116-.055-.243-.1-.363-.17a1.556,1.556,0,0,0-.409-.141,3.224,3.224,0,0,0-.441-.115l-.477-.044a1.2,1.2,0,0,0-.484-.019c-.163.018-.326.012-.484.018a2.908,2.908,0,0,0-.462.018c-.146.028-.288.044-.42.058a6.033,6.033,0,0,1-.925.043,5.014,5.014,0,0,1,.8-.5c.125-.067.263-.138.413-.2a1.773,1.773,0,0,1,.5-.137c.178-.03.362-.075.553-.095a1.6,1.6,0,0,1,.585-.007l.591.09a2.371,2.371,0,0,1,.541.223,2.426,2.426,0,0,1,.806.627,2.2,2.2,0,0,1,.336.63.859.859,0,0,1,.056.255" transform="translate(-556.73 -309.587)" fill="#874237"/>
        <path id="Trazado_729986" data-name="Trazado 729986" d="M325.246,213.188s18.762-9.01,25.223-19.133c5.31-7.1,9.685-43.323,10.295-48.943.02-.189.041-.373.061-.557s.029-.278.029-.278l-.009.005c.1-1.162.166-2.335.166-3.526a39.264,39.264,0,0,0-78.528,0,39.792,39.792,0,0,0,.223,4.174h0s4.5,41.345,10.322,49.125c6.837,11.6,25.222,19.133,25.222,19.133a11.647,11.647,0,0,0,7,0" transform="translate(-227.514 -81.743)" fill="#f19367"/>
        <path id="Trazado_729987" data-name="Trazado 729987" d="M244.3,363.03s-3.986-7-10.191-7.094c-3.685-.055-2.6,15.079,1.2,18.986s9.327,2.605,10.554-.855Z" transform="translate(-186.727 -286.673)" fill="#f19367"/>
        <g id="Grupo_965382" data-name="Grupo 965382" transform="translate(47.141 72.754)" opacity="0.4">
          <g id="Grupo_965381" data-name="Grupo 965381">
            <g id="Grupo_965380" data-name="Grupo 965380" clip-path="url(#clip-path-4)">
              <path id="Trazado_729988" data-name="Trazado 729988" d="M251.839,388.027s-4.634,1.629-6.63-2.234-3.942-8.5-2.392-11.912c0,0,4.273,1,8.224,8.971,0,0-2.9,3.593.8,5.175" transform="translate(-242.255 -373.881)" fill="#c6442b"/>
            </g>
          </g>
        </g>
        <path id="Trazado_729989" data-name="Trazado 729989" d="M241.33,377.168a19.645,19.645,0,0,1-.135-2.2,7.714,7.714,0,0,1,.231-2.236,1.5,1.5,0,0,1,.311-.586.668.668,0,0,1,.409-.2.728.728,0,0,1,.4.083l.5.219.5.3a6.8,6.8,0,0,1,.939.647c.291.23.6.44.872.7l.834.738c.279.247.523.527.787.789s.533.52.761.814l.692.878a19.839,19.839,0,0,1,1.235,1.864,8.437,8.437,0,0,1,.5,1l.474,1.018.087.187-.145.167a6.031,6.031,0,0,0-.9,1.374,3.794,3.794,0,0,0-.273.768,2.2,2.2,0,0,0-.068.4,2.242,2.242,0,0,0-.009.4,2.682,2.682,0,0,0,.183.77l.209.348a2.1,2.1,0,0,0,.272.31,3.646,3.646,0,0,0,.663.525c.247.143.509.267.767.4-.273-.094-.559-.17-.832-.283a3.818,3.818,0,0,1-.762-.465,2.384,2.384,0,0,1-.339-.3l-.287-.368-.2-.428a3.09,3.09,0,0,1-.109-.462,2.676,2.676,0,0,1-.026-.471,2.7,2.7,0,0,1,.044-.466,4.286,4.286,0,0,1,.243-.891,6.6,6.6,0,0,1,.888-1.6l-.058.354-.476-.956a7.782,7.782,0,0,0-.5-.94,18.845,18.845,0,0,0-1.227-1.755c-.225-.278-.458-.549-.676-.833s-.478-.533-.715-.8-.477-.537-.74-.781l-.788-.733c-.255-.255-.548-.461-.823-.69s-.559-.444-.836-.635l-.42-.3-.485-.257c-.154-.08-.1-.065-.19-.025a1,1,0,0,0-.217.365,9.849,9.849,0,0,0-.41,2.084c-.081.722-.121,1.451-.162,2.182" transform="translate(-194.26 -299.563)" fill="#874237"/>
        <path id="Trazado_729990" data-name="Trazado 729990" d="M248.758,394.726a.859.859,0,0,1,.056-.255,2.2,2.2,0,0,1,.336-.629,2.413,2.413,0,0,1,.806-.628,2.379,2.379,0,0,1,.541-.223l.591-.09a1.607,1.607,0,0,1,.585.007c.19.02.375.064.553.095a1.76,1.76,0,0,1,.5.137c.15.065.287.136.413.2a4.983,4.983,0,0,1,.795.5A6.033,6.033,0,0,1,253,393.8c-.132-.014-.275-.03-.421-.059a2.9,2.9,0,0,0-.462-.017c-.158-.006-.321,0-.484-.018a1.207,1.207,0,0,0-.483.019l-.478.044a3.205,3.205,0,0,0-.44.115,1.568,1.568,0,0,0-.409.141c-.12.066-.248.115-.364.17a6.2,6.2,0,0,0-.51.362,1.491,1.491,0,0,0-.2.171" transform="translate(-200.352 -316.426)" fill="#874237"/>
        <path id="Trazado_729991" data-name="Trazado 729991" d="M500.806,482.271s0,6.925-1.415,7.667.075-4.017,1.415-7.667" transform="translate(-401.753 -388.425)" fill="#521b14"/>
        <path id="Trazado_729992" data-name="Trazado 729992" d="M446.267,525.842a51.851,51.851,0,0,1-19.545-3.645.482.482,0,0,0-.635.205c-.273.4-.257,5.945,9.983,8.538,0,0,7.187,1.115,10.553-4.591,0,0-.006-.646-.356-.507" transform="translate(-343.118 -420.542)" fill="#6f0b17"/>
        <path id="Trazado_729993" data-name="Trazado 729993" d="M427.755,533.6c.73,1.864,2.9,4.582,8.815,6.281-.5-2.169-2.344-6.887-8.815-6.281" transform="translate(-344.518 -429.724)" fill="#e24464"/>
        <path id="Trazado_729994" data-name="Trazado 729994" d="M528.353,361.314s1.752-5.626,5.655-8.786c5.574-4.52,15.687-2.763,15.156,5.709,0,0-.386,7.81-7.453,8.834-5.717.827-11.236-1.709-13.357-5.758" transform="translate(-425.541 -281.979)" fill="#fff"/>
        <path id="Trazado_729995" data-name="Trazado 729995" d="M528.353,358.367a12.363,12.363,0,0,1,.334-1.311,19.959,19.959,0,0,1,1.339-3.326,18,18,0,0,1,1.252-2.074l.8-1.069c.283-.36.647-.669.979-1.014l.518-.511.6-.448c.193-.14.369-.286.578-.422l.691-.381a11.616,11.616,0,0,1,2.91-1.09,13.95,13.95,0,0,1,1.536-.235c.515-.042,1.033-.027,1.543-.036a10.565,10.565,0,0,1,2.945.6,6.852,6.852,0,0,1,1.312.608,5.871,5.871,0,0,1,1.137.8l.506.434c.151.159.284.331.418.5l.388.487c.112.17.2.354.292.523a7.421,7.421,0,0,1,.738,1.962,13.163,13.163,0,0,1,.122,1.581c-.073.873-.129,1.353-.129,1.353L549,353.962c-.061-.415-.247-.9-.377-1.451a8.253,8.253,0,0,0-.912-1.656c-.1-.138-.192-.288-.306-.422l-.39-.377c-.134-.124-.254-.265-.395-.388l-.47-.33a4.825,4.825,0,0,0-1.029-.59,7.1,7.1,0,0,0-1.157-.449,9.085,9.085,0,0,0-1.259-.285c-.431-.066-.88-.07-1.322-.122-.448.02-.9.013-1.353.057a13.334,13.334,0,0,0-1.346.23,10.232,10.232,0,0,0-2.539.894l-.576.291c-.2.111-.394.258-.59.384l-.548.363-.488.437c-.319.295-.656.56-.949.863l-.833.924a10.3,10.3,0,0,0-.734.932c-.227.311-.475.594-.663.9-.381.608-.77,1.149-1.051,1.667-.3.507-.555.957-.749,1.336-.4.75-.608,1.2-.608,1.2" transform="translate(-425.541 -279.033)" fill="#0e1115"/>
        <path id="Trazado_729996" data-name="Trazado 729996" d="M569.971,368.981c1.157-5.193,4.77-8.8,8.067-8.07,2.482.557,4.076,3.419,4.22,7.012-.391,2.17-1.869,6.987-7.316,7.774a15.077,15.077,0,0,1-4.834-.091,13.069,13.069,0,0,1-.137-6.625" transform="translate(-458.772 -290.604)" fill="#1d4b78"/>
        <path id="Trazado_729997" data-name="Trazado 729997" d="M572.982,368.71c-.311.73.537,1.788,1.9,2.362s2.707.457,3.017-.271-.538-1.791-1.895-2.365-2.707-.453-3.017.274" transform="translate(-461.433 -296.449)" fill="#fff"/>
        <path id="Trazado_729998" data-name="Trazado 729998" d="M329.332,352.587s1.754-5.624,5.654-8.786c5.574-4.521,15.688-2.757,15.156,5.713,0,0-.386,7.81-7.453,8.834-5.717.823-11.236-1.711-13.357-5.761" transform="translate(-265.247 -274.951)" fill="#fff"/>
        <path id="Trazado_729999" data-name="Trazado 729999" d="M329.332,349.642a12.448,12.448,0,0,1,.335-1.311,19.96,19.96,0,0,1,1.339-3.326,18.093,18.093,0,0,1,1.252-2.074l.8-1.069c.284-.36.646-.669.979-1.014l.518-.512.6-.448c.192-.139.368-.286.578-.422l.691-.381a11.594,11.594,0,0,1,2.911-1.09,14.133,14.133,0,0,1,1.536-.235c.515-.041,1.033-.026,1.543-.035a10.528,10.528,0,0,1,2.945.6,6.835,6.835,0,0,1,1.312.608,5.879,5.879,0,0,1,1.137.8q.256.22.506.434c.15.159.284.332.418.5l.387.488c.113.169.2.354.292.523a7.428,7.428,0,0,1,.739,1.962,13.173,13.173,0,0,1,.122,1.581c-.072.873-.129,1.353-.129,1.353l-.167-1.329c-.061-.415-.246-.9-.377-1.452a8.27,8.27,0,0,0-.912-1.656c-.1-.137-.191-.288-.306-.422l-.39-.376c-.134-.124-.254-.265-.395-.389l-.469-.331a4.84,4.84,0,0,0-1.029-.591,7.1,7.1,0,0,0-1.157-.45,9.089,9.089,0,0,0-1.259-.286c-.431-.066-.88-.069-1.323-.122-.448.02-.9.012-1.353.056a13.4,13.4,0,0,0-1.346.229,10.218,10.218,0,0,0-2.539.894l-.575.292c-.2.11-.394.257-.59.383l-.548.363-.488.437c-.319.295-.655.56-.949.863l-.833.924a10.383,10.383,0,0,0-.734.933c-.227.31-.475.594-.664.9-.38.609-.77,1.149-1.05,1.667-.3.507-.555.958-.749,1.336-.4.75-.609,1.2-.609,1.2" transform="translate(-265.247 -272.006)" fill="#0e1115"/>
        <path id="Trazado_730000" data-name="Trazado 730000" d="M370.953,360.267c1.159-5.189,4.77-8.8,8.067-8.063,2.482.551,4.079,3.411,4.222,7.012-.392,2.164-1.868,6.982-7.317,7.772a15.227,15.227,0,0,1-4.834-.091,13.135,13.135,0,0,1-.137-6.63" transform="translate(-298.483 -283.591)" fill="#1d4b78"/>
        <path id="Trazado_730001" data-name="Trazado 730001" d="M373.966,359.98c-.312.73.537,1.788,1.9,2.362s2.707.457,3.015-.269-.537-1.789-1.895-2.364-2.707-.457-3.016.271" transform="translate(-301.144 -289.417)" fill="#fff"/>
        <path id="Trazado_730002" data-name="Trazado 730002" d="M355.573,442.652a5.434,5.434,0,0,1,.37-.531c.124-.146.255-.329.421-.5l.516-.54.557-.5c.176-.16.365-.284.515-.4a5.193,5.193,0,0,1,.544-.351,5.319,5.319,0,0,1-.369.532c-.125.146-.255.33-.421.5l-.516.54-.557.5c-.177.159-.365.284-.515.4a5.366,5.366,0,0,1-.544.351" transform="translate(-286.382 -354.24)" fill="#79332d"/>
        <path id="Trazado_730003" data-name="Trazado 730003" d="M361.864,442.871s-.119.359-.345.873c-.12.252-.244.556-.406.864l-.508.968-.559.939c-.177.3-.373.564-.525.8-.32.461-.564.75-.564.75s.119-.359.345-.873c.12-.253.243-.557.407-.865l.508-.967.56-.939c.178-.3.373-.564.525-.8.32-.461.564-.75.564-.75" transform="translate(-289.107 -356.692)" fill="#79332d"/>
        <path id="Trazado_730004" data-name="Trazado 730004" d="M375.645,447.088a3.942,3.942,0,0,1-.164.528c-.066.149-.126.333-.22.511l-.294.562-.346.531c-.108.171-.24.312-.337.442a3.907,3.907,0,0,1-.381.4,3.883,3.883,0,0,1,.164-.528c.066-.149.125-.333.22-.511l.295-.561.346-.532c.11-.17.241-.312.338-.442a3.9,3.9,0,0,1,.38-.4" transform="translate(-301.143 -360.088)" fill="#79332d"/>
        <path id="Trazado_730005" data-name="Trazado 730005" d="M600.323,451.838a5.45,5.45,0,0,1-.544-.351c-.15-.12-.338-.244-.516-.4l-.558-.5-.517-.539c-.166-.171-.3-.356-.421-.5a5.288,5.288,0,0,1-.37-.531,5.267,5.267,0,0,1,.544.35c.15.12.34.244.516.4l.558.5.516.54c.165.171.3.355.421.5a5.387,5.387,0,0,1,.37.531" transform="translate(-481.15 -361.64)" fill="#79332d"/>
        <path id="Trazado_730006" data-name="Trazado 730006" d="M594.1,452.058s.244.29.564.75c.152.234.347.5.525.8l.56.939.508.968c.164.308.286.612.407.865.226.513.345.872.345.872s-.245-.289-.564-.75c-.152-.234-.348-.5-.525-.8l-.56-.939-.508-.967c-.163-.308-.286-.613-.406-.865-.226-.513-.345-.872-.345-.872" transform="translate(-478.493 -364.091)" fill="#79332d"/>
        <path id="Trazado_730007" data-name="Trazado 730007" d="M585.14,456.277a3.981,3.981,0,0,1,.38.4c.1.13.228.272.338.442l.346.531.295.56c.1.178.155.362.22.511a3.841,3.841,0,0,1,.164.528,3.942,3.942,0,0,1-.381-.4c-.1-.13-.23-.272-.338-.442l-.346-.531-.294-.561c-.095-.178-.155-.362-.22-.51a3.951,3.951,0,0,1-.164-.528" transform="translate(-471.277 -367.489)" fill="#79332d"/>
        <path id="Trazado_730008" data-name="Trazado 730008" d="M325.544,282.866s11.018-8.5,18.017-6.695c0,0,3.214,4.316,3.394,5.952,0,0-8.161-1.788-21.411.742" transform="translate(-262.196 -222.227)" fill="#2a1816"/>
        <path id="Trazado_730009" data-name="Trazado 730009" d="M534.606,289.753s11.018-8.5,18.018-6.7c0,0,3.213,4.315,3.392,5.954,0,0-8.158-1.789-21.41.746" transform="translate(-430.577 -227.771)" fill="#2a1816"/>
        <path id="Trazado_730010" data-name="Trazado 730010" d="M335.151,503.852a11.732,11.732,0,0,0,5.731.33c-26.3-8.777-37.409-41.8-37.409-41.8h0c1.753,9.676,3.987,19.031,6.458,22.336,6.837,11.6,25.222,19.133,25.222,19.133" transform="translate(-244.418 -372.408)" fill="#df7549"/>
        <path id="Trazado_730011" data-name="Trazado 730011" d="M241.183,75.3s4.027-11.489,5.516-19.229S249.928,39,253.65,37.659s23.462,7.157,29.862,8.429C301.622,49.7,309.9,40.175,309.9,40.175s6.537,10.532,5.472,15.895-.681,14.462,1.212,16.387l3.524-3.2s7.26-22.24,5.3-28.49c0,0-2.514-10.909-6.438-14.781,0,0,5.173-10.238-5.526-14.3A108.787,108.787,0,0,0,281.522.268C263.529-3.009,241.634,24.7,241.634,24.7s-8.77,4.153-12.061,11.894c-2.281,5.36,3.292,32.662,3.292,32.662s7.2,3.069,8.318,6.038" transform="translate(-184.459 0.002)" fill="#2a1816"/>
        <path id="Trazado_730012" data-name="Trazado 730012" d="M427.318,522.209a.471.471,0,0,0-.562.121c4.07,5.242,16.421,5.408,17.3,5.329.494-.037.853-.974,1.074-1.795a54.689,54.689,0,0,1-17.816-3.656" transform="translate(-343.713 -420.555)" fill="#fff"/>
        <path id="Trazado_730013" data-name="Trazado 730013" d="M378.485,15.22a11.073,11.073,0,0,0-5.069-3.527A108.789,108.789,0,0,0,341.5.266c-14.849-2.705-32.342,15.688-38.007,22.2,15.586-11.89,21.71-14.906,26.625-17.136s34.619,18.091,45.23,14.415c3.067-1.062,3.732-2.716,3.14-4.527" transform="translate(-244.434 0.003)" fill="#3d2322"/>
        <g id="Grupo_965385" data-name="Grupo 965385" transform="translate(44.566 30.649)" opacity="0.6">
          <g id="Grupo_965384" data-name="Grupo 965384">
            <g id="Grupo_965383" data-name="Grupo 965383" clip-path="url(#clip-path-5)">
              <path id="Trazado_730014" data-name="Trazado 730014" d="M316.819,186.038c2.9-22.314-4.914-34.64-21.518-25.485s-31.193-2.682-40.19-2.682-6.082,14.488-15.684,26.149c-7.372,8.952-7.292-14.142-6.858-25.358a19.253,19.253,0,0,0-3,4.794c-2.281,5.36,3.292,32.662,3.292,32.662s7.2,3.069,8.318,6.038c0,0,4.027-11.489,5.516-19.229s3.229-17.069,6.951-18.41,23.462,7.157,29.862,8.429c18.111,3.615,26.386-5.913,26.386-5.913s6.537,10.532,5.472,15.895-.681,14.462,1.212,16.387l3.524-3.2s1.923-5.9,3.524-12.473c-5.4,10-6.811,2.393-6.811,2.393" transform="translate(-229.025 -157.503)" fill="#170e0d"/>
            </g>
          </g>
        </g>
      </g>
    </g>
  </g>
</svg>
