<svg xmlns="http://www.w3.org/2000/svg" width="62.487" height="82.035" viewBox="0 0 62.487 82.035">
  <g id="google-drive" transform="translate(-61)">
    <g id="File_5_" transform="translate(61)">
      <g id="Grupo_971051" data-name="Grupo 971051" transform="translate(0)">
        <path id="Trazado_735248" data-name="Trazado 735248" d="M123.487,16.824V79.631a2.38,2.38,0,0,1-2.4,2.4H63.4a2.38,2.38,0,0,1-2.4-2.4V2.4A2.38,2.38,0,0,1,63.4,0h38.454l4.807,8.412,4.807,3.605Z" transform="translate(-61)" fill="#e3f2ff"/>
      </g>
    </g>
    <path id="Trazado_735249" data-name="Trazado 735249" d="M270.42,8.412,265.613,0H256V82.035h28.84a2.38,2.38,0,0,0,2.4-2.4V16.824l-12.017-4.807Z" transform="translate(-163.756)" fill="#c7e9ff"/>
    <path id="Trazado_735250" data-name="Trazado 735250" d="M336.669,14.9,317.442.481A2.59,2.59,0,0,0,316,0V14.42a2.4,2.4,0,0,0,2.4,2.4H337.63A2.305,2.305,0,0,0,336.669,14.9Z" transform="translate(-214.143 0)" fill="#84d0ff"/>
    <path id="Trazado_735251" data-name="Trazado 735251" d="M235.372,205.117l-6,4.807-7.455-4.807-8.652-15-8.154-.98,1.425-10.652a2.231,2.231,0,0,1,1.106-.288h11.247a2.423,2.423,0,0,1,2.067,1.2l14.084,24.418A2.38,2.38,0,0,1,235.372,205.117Z" transform="translate(-121.018 -149.648)" fill="#fed843"/>
    <path id="Trazado_735252" data-name="Trazado 735252" d="M263.691,179.4a2.423,2.423,0,0,0-2.067-1.2H256V190.12l8.652,15,7.455,4.807,6-4.807a2.38,2.38,0,0,0-.336-1.3Z" transform="translate(-163.756 -149.648)" fill="#fabe2c"/>
    <g id="File_2_" transform="translate(70.145 28.84)">
      <g id="Grupo_971052" data-name="Grupo 971052" transform="translate(0)">
        <path id="Trazado_735253" data-name="Trazado 735253" d="M189.351,346.2a1.972,1.972,0,0,1-.336,1.105l-5.624,9.71a2.325,2.325,0,0,1-2.067,1.2H153.156a2.413,2.413,0,0,1-1.3-.385L150.3,347.4l8.282-1.2h30.763Z" transform="translate(-145.141 -319.569)" fill="#6aa9ff"/>
        <path id="Trazado_735254" data-name="Trazado 735254" d="M140.174,191.632l-8.652,15-6.729,11.632a2.506,2.506,0,0,1-.769-.817l-5.624-9.71a2.388,2.388,0,0,1,0-2.4l14.084-24.418a2.5,2.5,0,0,1,.961-.913Z" transform="translate(-118.076 -180)" fill="#65d6a9"/>
      </g>
    </g>
    <g id="Grupo_971054" data-name="Grupo 971054" transform="translate(92.244 55.469)">
      <g id="Grupo_971053" data-name="Grupo 971053">
        <path id="Trazado_735255" data-name="Trazado 735255" d="M256,358.216h14.083a2.325,2.325,0,0,0,2.067-1.2l5.624-9.71a1.972,1.972,0,0,0,.336-1.105H256Z" transform="translate(-256 -346.199)" fill="#2682ff"/>
      </g>
    </g>
  </g>
</svg>
