<svg xmlns="http://www.w3.org/2000/svg" width="91" height="88" viewBox="0 0 91 88">
  <g id="Grupo_972247" data-name="Grupo 972247" transform="translate(-534 -12124)">
    <circle id="Elipse_5932" data-name="Elipse 5932" cx="35" cy="35" r="35" transform="translate(534 12133)" fill="#adc46c"/>
    <g id="legislacion" transform="translate(547.769 12150)">
      <g id="Grupo_971453" data-name="Grupo 971453" transform="translate(0 24.995)">
        <g id="Grupo_971437" data-name="Grupo 971437" transform="translate(0.404 0.404)">
          <path id="Trazado_736221" data-name="Trazado 736221" d="M26.91,59.874a.951.951,0,0,1-.953.953H10.25a4.462,4.462,0,0,1-4.5-4.453,4.314,4.314,0,0,1,4.318-4.184H25.952a.951.951,0,0,1,.953.953v6.731Z" transform="translate(-5.747 -52.19)" fill="#c0694e"/>
        </g>
        <g id="Grupo_971438" data-name="Grupo 971438" transform="translate(0.404 0.404)">
          <path id="Trazado_736222" data-name="Trazado 736222" d="M26.91,59.874a.951.951,0,0,1-.953.953H10.25a4.462,4.462,0,0,1-4.5-4.453,4.314,4.314,0,0,1,4.318-4.184H25.952a.951.951,0,0,1,.953.953v6.731Z" transform="translate(-5.747 -52.19)" fill="#c0694e"/>
        </g>
        <g id="Grupo_971439" data-name="Grupo 971439" transform="translate(9.175 0.409)">
          <path id="Trazado_736223" data-name="Trazado 736223" d="M34.423,53.153v6.725a.951.951,0,0,1-.953.953H26.54a4.457,4.457,0,0,1-4.5-4.448A4.3,4.3,0,0,1,26.357,52.2h7.118a.947.947,0,0,1,.948.953Z" transform="translate(-22.036 -52.2)" fill="#aa553d"/>
        </g>
        <g id="Grupo_971440" data-name="Grupo 971440">
          <path id="Trazado_736224" data-name="Trazado 736224" d="M25.611,60.885H9.9a5.018,5.018,0,0,1-3.575-1.518A4.609,4.609,0,0,1,5,56.017,4.719,4.719,0,0,1,9.721,51.44H25.606A1.358,1.358,0,0,1,26.963,52.8v6.731A1.35,1.35,0,0,1,25.611,60.885ZM9.721,52.253A3.919,3.919,0,0,0,5.8,56.044a3.776,3.776,0,0,0,1.1,2.762A4.191,4.191,0,0,0,9.9,60.082H25.6a.552.552,0,0,0,.549-.549V52.8a.552.552,0,0,0-.549-.549Z" transform="translate(-4.997 -51.44)"/>
        </g>
        <g id="Grupo_971452" data-name="Grupo 971452" transform="translate(15.383)">
          <g id="Grupo_971441" data-name="Grupo 971441" transform="translate(0.41 0.404)">
            <path id="Trazado_736225" data-name="Trazado 736225" d="M36.283,57.015a2.464,2.464,0,0,0,2.439,1.906H51.645a.953.953,0,1,1,0,1.906H38.83a4.462,4.462,0,0,1-4.5-4.453,4.314,4.314,0,0,1,4.318-4.184h13a.953.953,0,0,1,0,1.906h-13a2.416,2.416,0,0,0-2.358,2.918Z" transform="translate(-34.327 -52.19)" fill="#c0694e"/>
          </g>
          <g id="Grupo_971442" data-name="Grupo 971442" transform="translate(0.41 0.409)">
            <path id="Trazado_736226" data-name="Trazado 736226" d="M38.582,58.915a2.449,2.449,0,0,1-2.3-1.9,2.411,2.411,0,0,1,2.3-2.913V52.2a4.306,4.306,0,0,0-4.254,4.178,4.444,4.444,0,0,0,4.259,4.437v-1.9Z" transform="translate(-34.327 -52.2)" fill="#aa553d"/>
          </g>
          <g id="Grupo_971443" data-name="Grupo 971443" transform="translate(10.001 0.409)">
            <path id="Trazado_736227" data-name="Trazado 736227" d="M52.14,54.106h7.722a.953.953,0,0,0,0-1.906H52.14Z" transform="translate(-52.14 -52.2)" fill="#aa553d"/>
          </g>
          <g id="Grupo_971444" data-name="Grupo 971444" transform="translate(10.001 7.135)">
            <path id="Trazado_736228" data-name="Trazado 736228" d="M59.862,64.69H52.14V66.6h7.722a.953.953,0,0,0,0-1.906Z" transform="translate(-52.14 -64.69)" fill="#aa553d"/>
          </g>
          <g id="Grupo_971445" data-name="Grupo 971445">
            <path id="Trazado_736229" data-name="Trazado 736229" d="M51.289,60.885H38.474A5.018,5.018,0,0,1,34.9,59.366a4.587,4.587,0,0,1-1.33-3.349,4.719,4.719,0,0,1,4.722-4.577h13a1.357,1.357,0,0,1,0,2.714h-13a2.005,2.005,0,0,0-1.562.743,1.975,1.975,0,0,0-.4,1.685,2.052,2.052,0,0,0,2.041,1.583H51.289a1.36,1.36,0,0,1,0,2.719Zm-13-8.632a3.919,3.919,0,0,0-3.92,3.791,3.776,3.776,0,0,0,1.1,2.762,4.191,4.191,0,0,0,2.994,1.276H51.284a.549.549,0,0,0,0-1.1H38.361a2.864,2.864,0,0,1-2.832-2.229,2.824,2.824,0,0,1,2.757-3.4h13a.549.549,0,0,0,0-1.1Z" transform="translate(-33.566 -51.44)"/>
          </g>
          <g id="Grupo_971446" data-name="Grupo 971446" transform="translate(2.309 2.315)">
            <path id="Trazado_736230" data-name="Trazado 736230" d="M53.268,55.74v4.825H40.345a2.469,2.469,0,0,1-2.439-1.906A2.42,2.42,0,0,1,40.27,55.74Z" transform="translate(-37.854 -55.74)" fill="#5f6c75"/>
          </g>
          <g id="Grupo_971447" data-name="Grupo 971447" transform="translate(10.001 2.315)">
            <path id="Trazado_736231" data-name="Trazado 736231" d="M52.14,55.74h7.722v4.825H52.14Z" transform="translate(-52.14 -55.74)" fill="#414f56"/>
          </g>
          <g id="Grupo_971448" data-name="Grupo 971448" transform="translate(1.903 1.906)">
            <path id="Trazado_736232" data-name="Trazado 736232" d="M52.92,60.612H40a2.874,2.874,0,0,1-2.838-2.229,2.837,2.837,0,0,1,.571-2.364,2.8,2.8,0,0,1,2.186-1.039h13a.407.407,0,0,1,.4.4v4.825A.4.4,0,0,1,52.92,60.612Zm-13-4.819a2.016,2.016,0,0,0-1.971,2.434A2.059,2.059,0,0,0,40,59.81H52.516V55.793Z" transform="translate(-37.101 -54.98)"/>
          </g>
          <g id="Grupo_971449" data-name="Grupo 971449" transform="translate(6.275 4.318)">
            <path id="Trazado_736233" data-name="Trazado 736233" d="M56.668,60.268H45.624a.4.4,0,1,1,0-.808H56.668a.4.4,0,0,1,0,.808Z" transform="translate(-45.22 -59.46)"/>
          </g>
          <g id="Grupo_971450" data-name="Grupo 971450" transform="translate(4.261 6.72)">
            <path id="Trazado_736234" data-name="Trazado 736234" d="M41.884,66.634a.407.407,0,0,1-.4-.4V64.324a.4.4,0,1,1,.808,0V66.23A.407.407,0,0,1,41.884,66.634Z" transform="translate(-41.48 -63.92)"/>
          </g>
          <g id="Grupo_971451" data-name="Grupo 971451" transform="translate(4.261 0.005)">
            <path id="Trazado_736235" data-name="Trazado 736235" d="M41.884,54.164a.407.407,0,0,1-.4-.4V51.854a.4.4,0,1,1,.808,0V53.76A.4.4,0,0,1,41.884,54.164Z" transform="translate(-41.48 -51.45)"/>
          </g>
        </g>
      </g>
      <g id="Grupo_971475" data-name="Grupo 971475" transform="translate(4.717 0)">
        <g id="Grupo_971454" data-name="Grupo 971454" transform="translate(11.352 5.207)">
          <path id="Trazado_736236" data-name="Trazado 736236" d="M34.84,14.69h2.326V32.578H34.84Z" transform="translate(-34.84 -14.69)" fill="#5f6c75"/>
        </g>
        <g id="Grupo_971455" data-name="Grupo 971455" transform="translate(10.948 4.803)">
          <path id="Trazado_736237" data-name="Trazado 736237" d="M36.82,32.641H34.494a.407.407,0,0,1-.4-.4V14.344a.407.407,0,0,1,.4-.4H36.82a.407.407,0,0,1,.4.4V32.232A.408.408,0,0,1,36.82,32.641ZM34.9,31.833h1.518V14.748H34.9Z" transform="translate(-34.09 -13.94)"/>
        </g>
        <g id="Grupo_971466" data-name="Grupo 971466" transform="translate(0 5.945)">
          <g id="Grupo_971460" data-name="Grupo 971460" transform="translate(16.019)">
            <g id="Grupo_971456" data-name="Grupo 971456">
              <path id="Trazado_736238" data-name="Trazado 736238" d="M52.113,26.108h-8.2a.412.412,0,0,1-.339-.183.4.4,0,0,1-.032-.382l4.1-9.24a.408.408,0,0,1,.372-.242.4.4,0,0,1,.372.242l4.1,9.24a.4.4,0,0,1-.032.382A.412.412,0,0,1,52.113,26.108ZM44.532,25.3h6.957L48.01,17.46Z" transform="translate(-43.508 -16.06)"/>
            </g>
            <g id="Grupo_971457" data-name="Grupo 971457" transform="translate(0.405 9.644)">
              <path id="Trazado_736239" data-name="Trazado 736239" d="M52.461,33.97a4.1,4.1,0,1,1-8.2,0Z" transform="translate(-44.26 -33.97)" fill="#feb52d"/>
            </g>
            <g id="Grupo_971458" data-name="Grupo 971458" transform="translate(4.406 9.644)">
              <path id="Trazado_736240" data-name="Trazado 736240" d="M51.69,33.97v4.286a4.026,4.026,0,0,0,4.2-4.286Z" transform="translate(-51.69 -33.97)" fill="#e89c23"/>
            </g>
            <g id="Grupo_971459" data-name="Grupo 971459" transform="translate(0.001 9.24)">
              <path id="Trazado_736241" data-name="Trazado 736241" d="M48.012,38.314a4.684,4.684,0,0,1-2.321-.608,4.481,4.481,0,0,1-2.181-4.082.407.407,0,0,1,.4-.4h8.2a.407.407,0,0,1,.4.4,4.481,4.481,0,0,1-2.181,4.082A4.719,4.719,0,0,1,48.012,38.314Zm-3.683-4.286a3.608,3.608,0,0,0,1.761,2.978,3.892,3.892,0,0,0,3.834,0,3.6,3.6,0,0,0,1.761-2.978Z" transform="translate(-43.51 -33.22)"/>
            </g>
          </g>
          <g id="Grupo_971465" data-name="Grupo 971465">
            <g id="Grupo_971461" data-name="Grupo 971461">
              <path id="Trazado_736242" data-name="Trazado 736242" d="M22.363,26.108h-8.2a.412.412,0,0,1-.339-.183.4.4,0,0,1-.032-.382l4.1-9.24a.408.408,0,0,1,.372-.242.4.4,0,0,1,.372.242l4.1,9.24a.4.4,0,0,1-.372.565ZM14.787,25.3h6.957l-3.478-7.84Z" transform="translate(-13.758 -16.06)"/>
            </g>
            <g id="Grupo_971462" data-name="Grupo 971462" transform="translate(0.405 9.644)">
              <path id="Trazado_736243" data-name="Trazado 736243" d="M22.711,33.97a4.1,4.1,0,1,1-8.2,0Z" transform="translate(-14.51 -33.97)" fill="#feb52d"/>
            </g>
            <g id="Grupo_971463" data-name="Grupo 971463" transform="translate(4.411 9.644)">
              <path id="Trazado_736244" data-name="Trazado 736244" d="M21.95,33.97v4.286a4.026,4.026,0,0,0,4.2-4.286Z" transform="translate(-21.95 -33.97)" fill="#e89c23"/>
            </g>
            <g id="Grupo_971464" data-name="Grupo 971464" transform="translate(0.001 9.24)">
              <path id="Trazado_736245" data-name="Trazado 736245" d="M18.267,38.314a4.452,4.452,0,0,1-4.507-4.69.4.4,0,0,1,.4-.4h8.2a.407.407,0,0,1,.4.4A4.445,4.445,0,0,1,18.267,38.314Zm-3.683-4.286a3.59,3.59,0,0,0,3.683,3.478,3.594,3.594,0,0,0,3.683-3.478Z" transform="translate(-13.76 -33.22)"/>
            </g>
          </g>
        </g>
        <g id="Grupo_971470" data-name="Grupo 971470" transform="translate(6.246 21.172)">
          <g id="Grupo_971467" data-name="Grupo 971467" transform="translate(0.4 0.404)">
            <path id="Trazado_736246" data-name="Trazado 736246" d="M37.833,48.918a6.409,6.409,0,0,0-11.733,0Z" transform="translate(-26.1 -45.09)" fill="#feb52d"/>
          </g>
          <g id="Grupo_971468" data-name="Grupo 971468" transform="translate(6.641 0.431)">
            <path id="Trazado_736247" data-name="Trazado 736247" d="M37.69,48.942h5.492a6.4,6.4,0,0,0-5.492-3.8Z" transform="translate(-37.69 -45.14)" fill="#e89c23"/>
          </g>
          <g id="Grupo_971469" data-name="Grupo 971469">
            <path id="Trazado_736248" data-name="Trazado 736248" d="M37.49,48.976H25.763a.412.412,0,0,1-.339-.183.4.4,0,0,1-.032-.382,6.811,6.811,0,0,1,12.471,0,.4.4,0,0,1-.372.565Zm-11.076-.808H36.833a6,6,0,0,0-10.419,0Z" transform="translate(-25.358 -44.34)"/>
          </g>
        </g>
        <g id="Grupo_971471" data-name="Grupo 971471" transform="translate(2.381 4.087)">
          <path id="Trazado_736249" data-name="Trazado 736249" d="M18.18,12.61H38.442v2.326H18.18Z" transform="translate(-18.18 -12.61)" fill="#5f6c75"/>
        </g>
        <g id="Grupo_971472" data-name="Grupo 971472" transform="translate(1.978 3.683)">
          <path id="Trazado_736250" data-name="Trazado 736250" d="M38.1,14.994H17.834a.407.407,0,0,1-.4-.4V12.264a.407.407,0,0,1,.4-.4H38.1a.407.407,0,0,1,.4.4V14.59A.4.4,0,0,1,38.1,14.994Zm-19.864-.808H37.692V12.668H18.238Z" transform="translate(-17.43 -11.86)"/>
        </g>
        <g id="Grupo_971473" data-name="Grupo 971473" transform="translate(10.668 0.404)">
          <path id="Trazado_736251" data-name="Trazado 736251" d="M37.264,7.606A1.847,1.847,0,1,1,35.417,5.77,1.85,1.85,0,0,1,37.264,7.606Z" transform="translate(-33.57 -5.77)" fill="#5f6c75"/>
        </g>
        <g id="Grupo_971474" data-name="Grupo 971474" transform="translate(10.264)">
          <path id="Trazado_736252" data-name="Trazado 736252" d="M35.071,9.511A2.245,2.245,0,1,1,37.322,7.26,2.253,2.253,0,0,1,35.071,9.511Zm0-3.683A1.438,1.438,0,1,0,36.514,7.26,1.441,1.441,0,0,0,35.071,5.828Z" transform="translate(-32.82 -5.02)"/>
        </g>
      </g>
    </g>
    <rect id="Rectángulo_342430" data-name="Rectángulo 342430" width="7" height="88" transform="translate(618 12124)" fill="#adc46c"/>
  </g>
</svg>
