<svg xmlns="http://www.w3.org/2000/svg" xmlns:xlink="http://www.w3.org/1999/xlink" width="190" height="190" viewBox="0 0 190 190">
  <defs>
    <clipPath id="clip-path">
      <circle id="Elipse_5890" data-name="Elipse 5890" cx="95" cy="95" r="95" fill="none" stroke="#adc46c" stroke-width="9"/>
    </clipPath>
    <clipPath id="clip-path-2">
      <rect id="Rectángulo_341021" data-name="Rectángulo 341021" width="123.047" height="180.206" fill="none"/>
    </clipPath>
    <clipPath id="clip-path-4">
      <rect id="Rectángulo_341017" data-name="Rectángulo 341017" width="6.184" height="9.343" fill="none"/>
    </clipPath>
    <clipPath id="clip-path-5">
      <rect id="Rectángulo_341018" data-name="Rectángulo 341018" width="6.182" height="9.345" fill="none"/>
    </clipPath>
    <clipPath id="clip-path-6">
      <rect id="Rectángulo_341019" data-name="Rectángulo 341019" width="61.027" height="28.803" fill="none"/>
    </clipPath>
  </defs>
  <g id="Grupo_971282" data-name="Grupo 971282" transform="translate(-725 -1005)">
    <g id="Enmascarar_grupo_927258" data-name="Enmascarar grupo 927258" transform="translate(725 1005)" clip-path="url(#clip-path)">
      <g id="Grupo_970515" data-name="Grupo 970515" transform="translate(33.476 25.313)">
        <g id="Grupo_965388" data-name="Grupo 965388" transform="translate(0 0)" clip-path="url(#clip-path-2)">
          <g id="Grupo_965387" data-name="Grupo 965387" transform="translate(0 0)">
            <g id="Grupo_965386" data-name="Grupo 965386" clip-path="url(#clip-path-2)">
              <path id="Trazado_729972" data-name="Trazado 729972" d="M762.38,860.865c.14,2.61.475,5.505.947,8.565h12.065c-.977-5.733-1.646-9.277-1.646-9.277,0-4.246-4.872-51.917-7.737-61.087s-19.486-10.908-19.486-10.908-2.006,25.238,1.72,34.357,14.137,38.35,14.137,38.35" transform="translate(-652.344 -689.224)" fill="#f19367"/>
              <path id="Trazado_729973" data-name="Trazado 729973" d="M29.289,869.429c2.769-22.273,5.615-43.667,7.089-50.3a107.739,107.739,0,0,0,1.737-30.969s-15.777.879-18.93,18.931c-1.511,8.663-2.3,35.732-2.707,62.341Z" transform="translate(-14.409 -689.223)" fill="#f19367"/>
              <path id="Trazado_729974" data-name="Trazado 729974" d="M18.753,1223.1a121.2,121.2,0,0,0,14.271,1.663c.3-2.3.588-4.545.875-6.732l-14.82-7.73c-.122,4.115-.231,8.411-.326,12.8" transform="translate(-16.399 -1058.374)" fill="#bd502a"/>
              <path id="Trazado_729975" data-name="Trazado 729975" d="M21.159,937.941c-2.522.314-10.757-1.578-13.565-2.252,5.008,5.808,19.026,5.348,19.026,5.348,2.022-7.788,3.323-23.92,3.323-23.92V889.184c-5.007,12.15-14.055,33.622-12.6,32.815,1.528-.852,7.067-2.206,7.067-2.206s-3.629,8.4-4.89,10.126,4.7,7.641,1.643,8.022" transform="translate(-6.641 -777.568)" fill="#7a94a1"/>
              <path id="Trazado_729976" data-name="Trazado 729976" d="M832.263,1176.492c3.537.2,8.73.152,12.827-1.248-.435-4.931-1.181-12.334-2.07-20.183l-14.984,9.733c1.606,4.411,3.113,8.594,4.227,11.7" transform="translate(-724.096 -1010.072)" fill="#bd502a"/>
              <path id="Trazado_729977" data-name="Trazado 729977" d="M759.261,937.681c-.448-1.146,8.09-16.809,9.046-23.113s-1.147-4.2-1.147-4.2c-3.057,9.36-10.316,17-10.316,17s2.674-13.181,2.674-15.47-9.551-22.352-9.551-22.352l-2.333,6.074-1.645,23.216,10.472,22.258a21.324,21.324,0,0,0,9.982-.82c-2.9-.734-6.9-1.865-7.183-2.589" transform="translate(-652.349 -777.881)" fill="#7a94a1"/>
              <path id="Trazado_729978" data-name="Trazado 729978" d="M248.7,613.594c-.313-1.442-.644-2.324-.944-2.486-2.1-1.144-25.789-8.023-25.789-8.023-1.337-2.29-1.425-14.135-1.425-14.135l-10.08-3.769v-.055l-.075.028-.072-.028v.055l-10.082,3.769s-.087,11.845-1.424,14.135c0,0-23.689,6.878-25.79,8.023-.3.162-.61,1.044-.892,2.486Z" transform="translate(-150.523 -511.677)" fill="#e57a4e"/>
              <path id="Trazado_729979" data-name="Trazado 729979" d="M409.723,601.365a14.248,14.248,0,0,0,5.875-2.9c-.429-4.2-.468-9.517-.468-9.517l-10.08-3.768v-.055l-.075.028-.072-.028v.055l-10.082,3.768s-.018,2.585-.175,5.572c3.4,2.4,11.283,7.579,15.078,6.843" transform="translate(-345.107 -511.678)" fill="#bd502a"/>
              <path id="Trazado_729980" data-name="Trazado 729980" d="M19.979,794.565a143.313,143.313,0,0,0,2.729-17.68A91.006,91.006,0,0,0,25.838,787.5s.831,14.672,1.825,23.8H92.246c-.145-6.2-.152-11.755.071-15.774,0,0,2.393-7.913,4.483-16.766l7.312,15.542c10.831,1.733,18.721-5.753,18.721-5.753s-3.279-42.016-6.876-47.962c-4.861-8.038-19.291-10.4-19.347-10.406l-25.489-8.5s-10.62,11.976-22.508,0l-26.644,8.344s-.022.1-.055.264c-22.388,2.133-20.29,36.531-20.29,36.531L0,787.838c3.821,7.26,19.979,6.727,19.979,6.727" transform="translate(0 -631.097)" fill="#95b1c1"/>
              <path id="Trazado_729981" data-name="Trazado 729981" d="M183.751,1186.38h14.958c.471-1.052.744-1.685.744-1.685-4.968-6.88-14.911-20.823-14.911-20.823,2.615,1.289,42.42,15.092,44.712,14.9s2.293-1.148,2.293-1.148c-10.38-1.945-43.333-21.236-53.053-27.021a91.794,91.794,0,0,0,3.432,11.976s.831,14.672,1.826,23.8" transform="translate(-156.088 -1006.174)" fill="#7a94a1"/>
              <path id="Trazado_729982" data-name="Trazado 729982" d="M663.667,352.013s2.571-4.514,6.575-4.579c2.378-.037,1.674,9.728-.775,12.249s-6.015,1.683-6.808-.552Z" transform="translate(-579.479 -303.822)" fill="#f19367"/>
              <g id="Grupo_965379" data-name="Grupo 965379" transform="translate(84.738 45.867)" opacity="0.4">
                <g id="Grupo_965378" data-name="Grupo 965378">
                  <g id="Grupo_965377" data-name="Grupo 965377" clip-path="url(#clip-path-4)">
                    <path id="Trazado_729983" data-name="Trazado 729983" d="M675.063,374.521s2.989,1.052,4.279-1.44,2.542-5.486,1.543-7.683c0,0-2.757.641-5.3,5.785,0,0,1.868,2.323-.517,3.338" transform="translate(-675.063 -365.398)" fill="#c6442b"/>
                  </g>
                </g>
              </g>
              <path id="Trazado_729984" data-name="Trazado 729984" d="M679.272,366.838c-.026-.471-.053-.941-.1-1.407a6.376,6.376,0,0,0-.264-1.344.65.65,0,0,0-.14-.236c-.06-.026-.023-.035-.123.016l-.312.165-.27.195c-.178.123-.359.258-.539.409s-.366.28-.531.445l-.508.473c-.169.157-.317.336-.478.5s-.324.331-.461.517-.291.358-.436.538a12.218,12.218,0,0,0-.792,1.131,5.006,5.006,0,0,0-.324.606l-.308.616-.037-.229a4.254,4.254,0,0,1,.573,1.036,2.764,2.764,0,0,1,.157.575,1.729,1.729,0,0,1,.029.3,1.812,1.812,0,0,1-.017.3,2.053,2.053,0,0,1-.07.3l-.13.277-.185.238a1.516,1.516,0,0,1-.219.2,2.434,2.434,0,0,1-.492.3c-.176.072-.361.122-.537.182.167-.088.336-.168.5-.261a2.337,2.337,0,0,0,.428-.339,1.335,1.335,0,0,0,.175-.2l.135-.224a1.745,1.745,0,0,0,.117-.5,1.577,1.577,0,0,0-.006-.257,1.426,1.426,0,0,0-.044-.256,2.487,2.487,0,0,0-.176-.5,3.911,3.911,0,0,0-.578-.887l-.094-.108.056-.121.306-.656A5.451,5.451,0,0,1,673.9,368a12.676,12.676,0,0,1,.8-1.2c.149-.188.292-.381.447-.565s.328-.349.491-.525.328-.35.507-.509l.538-.476c.174-.164.374-.3.562-.448a4.389,4.389,0,0,1,.605-.417l.321-.191.323-.141a.471.471,0,0,1,.26-.053.429.429,0,0,1,.263.131.956.956,0,0,1,.2.377,4.947,4.947,0,0,1,.149,1.442,12.629,12.629,0,0,1-.087,1.417" transform="translate(-588.306 -317.841)" fill="#874237"/>
              <path id="Trazado_729985" data-name="Trazado 729985" d="M694.575,385.578a.969.969,0,0,0-.127-.11,4.033,4.033,0,0,0-.33-.234c-.075-.035-.157-.067-.234-.109a1,1,0,0,0-.264-.091,2.075,2.075,0,0,0-.284-.074l-.308-.028a.776.776,0,0,0-.312-.012c-.105.012-.21.008-.312.011a1.877,1.877,0,0,0-.3.011c-.094.018-.186.028-.271.038a3.891,3.891,0,0,1-.6.028,3.237,3.237,0,0,1,.513-.322c.081-.043.17-.089.266-.131a1.143,1.143,0,0,1,.321-.088c.115-.02.234-.048.357-.061a1.033,1.033,0,0,1,.377,0l.381.058a1.53,1.53,0,0,1,.349.144,1.564,1.564,0,0,1,.52.4,1.42,1.42,0,0,1,.217.406.554.554,0,0,1,.036.164" transform="translate(-604.47 -336.135)" fill="#874237"/>
              <path id="Trazado_729986" data-name="Trazado 729986" d="M310.068,173.544s12.1-5.812,16.271-12.342c3.425-4.582,6.247-27.946,6.641-31.572.013-.122.027-.241.039-.359s.019-.18.019-.18l-.006,0c.065-.749.107-1.506.107-2.274a25.328,25.328,0,0,0-50.657,0,25.666,25.666,0,0,0,.144,2.692h0s2.9,26.671,6.658,31.689c4.411,7.485,16.27,12.342,16.27,12.342a7.513,7.513,0,0,0,4.515,0" transform="translate(-247.023 -88.753)" fill="#f19367"/>
              <path id="Trazado_729987" data-name="Trazado 729987" d="M239.88,360.512s-2.571-4.513-6.574-4.576c-2.377-.036-1.674,9.727.775,12.248s6.016,1.681,6.808-.551Z" transform="translate(-202.739 -311.256)" fill="#f19367"/>
              <g id="Grupo_965382" data-name="Grupo 965382" transform="translate(30.409 46.932)" opacity="0.4">
                <g id="Grupo_965381" data-name="Grupo 965381">
                  <g id="Grupo_965380" data-name="Grupo 965380" clip-path="url(#clip-path-5)">
                    <path id="Trazado_729988" data-name="Trazado 729988" d="M248.437,383.006s-2.989,1.051-4.277-1.441-2.543-5.486-1.543-7.684c0,0,2.756.642,5.3,5.787,0,0-1.868,2.318.516,3.338" transform="translate(-242.255 -373.881)" fill="#c6442b"/>
                  </g>
                </g>
              </g>
              <path id="Trazado_729989" data-name="Trazado 729989" d="M241.282,375.312a12.673,12.673,0,0,1-.087-1.418,4.977,4.977,0,0,1,.149-1.443.967.967,0,0,1,.2-.378.43.43,0,0,1,.264-.131.469.469,0,0,1,.26.053l.323.142.321.192a4.381,4.381,0,0,1,.605.417c.188.149.389.284.562.449l.538.476c.18.159.338.34.508.509s.344.335.491.525l.447.566a12.8,12.8,0,0,1,.8,1.2,5.448,5.448,0,0,1,.325.646l.306.657.056.121-.094.108a3.89,3.89,0,0,0-.578.886,2.448,2.448,0,0,0-.176.5,1.422,1.422,0,0,0-.044.256,1.443,1.443,0,0,0-.006.256,1.729,1.729,0,0,0,.118.5l.135.224a1.356,1.356,0,0,0,.176.2,2.352,2.352,0,0,0,.427.339c.159.092.328.172.5.261-.176-.06-.361-.11-.537-.182a2.464,2.464,0,0,1-.492-.3,1.538,1.538,0,0,1-.219-.2l-.185-.238-.13-.276a2,2,0,0,1-.071-.3,1.725,1.725,0,0,1-.017-.3,1.745,1.745,0,0,1,.028-.3,2.762,2.762,0,0,1,.157-.575,4.256,4.256,0,0,1,.573-1.035l-.037.228-.307-.617a5.019,5.019,0,0,0-.324-.607,12.157,12.157,0,0,0-.791-1.132c-.145-.18-.3-.354-.436-.538s-.308-.344-.461-.518-.308-.346-.478-.5l-.508-.473c-.164-.164-.353-.3-.531-.445s-.361-.286-.539-.41l-.271-.2-.313-.166c-.1-.051-.063-.042-.123-.016a.643.643,0,0,0-.14.236,6.352,6.352,0,0,0-.264,1.344c-.052.466-.078.936-.1,1.408" transform="translate(-210.918 -325.251)" fill="#874237"/>
              <path id="Trazado_729990" data-name="Trazado 729990" d="M248.758,394.07a.554.554,0,0,1,.036-.165,1.42,1.42,0,0,1,.217-.406,1.556,1.556,0,0,1,.52-.4,1.532,1.532,0,0,1,.349-.144l.381-.058a1.036,1.036,0,0,1,.377,0c.123.013.242.042.357.061a1.136,1.136,0,0,1,.32.088c.1.042.185.088.266.132a3.216,3.216,0,0,1,.513.322,3.887,3.887,0,0,1-.6-.028c-.085-.009-.177-.02-.271-.038a1.866,1.866,0,0,0-.3-.011c-.1,0-.207,0-.312-.012a.779.779,0,0,0-.312.012l-.308.028a2.064,2.064,0,0,0-.284.074,1.012,1.012,0,0,0-.264.091c-.078.043-.16.074-.235.11a4,4,0,0,0-.329.234.962.962,0,0,0-.127.11" transform="translate(-217.533 -343.561)" fill="#874237"/>
              <path id="Trazado_729991" data-name="Trazado 729991" d="M500.1,482.271s0,4.467-.913,4.946.048-2.591.913-4.946" transform="translate(-436.204 -421.733)" fill="#521b14"/>
              <path id="Trazado_729992" data-name="Trazado 729992" d="M439.079,524.531a33.448,33.448,0,0,1-12.608-2.352.311.311,0,0,0-.41.132c-.176.26-.166,3.835,6.44,5.507,0,0,4.636.719,6.807-2.962,0,0,0-.417-.229-.327" transform="translate(-372.54 -456.605)" fill="#6f0b17"/>
              <path id="Trazado_729993" data-name="Trazado 729993" d="M427.755,533.583c.471,1.2,1.872,2.956,5.686,4.051a4.932,4.932,0,0,0-5.686-4.051" transform="translate(-374.061 -466.574)" fill="#e24464"/>
              <path id="Trazado_729994" data-name="Trazado 729994" d="M528.353,357.337A13.429,13.429,0,0,1,532,351.669c3.6-2.916,10.119-1.782,9.777,3.683,0,0-.249,5.038-4.808,5.7-3.688.533-7.248-1.1-8.616-3.714" transform="translate(-462.031 -306.16)" fill="#fff"/>
              <path id="Trazado_729995" data-name="Trazado 729995" d="M528.353,354.137a7.95,7.95,0,0,1,.216-.846,12.866,12.866,0,0,1,.864-2.145,11.611,11.611,0,0,1,.807-1.338l.518-.689c.183-.232.417-.432.632-.654l.334-.33.385-.289c.124-.09.238-.185.373-.273l.446-.246a7.5,7.5,0,0,1,1.878-.7,9.005,9.005,0,0,1,.991-.152c.332-.027.666-.018,1-.023a6.814,6.814,0,0,1,1.9.388,4.423,4.423,0,0,1,.846.392,3.785,3.785,0,0,1,.733.513l.326.28c.1.1.184.214.27.32l.25.314c.073.11.127.228.188.338a4.786,4.786,0,0,1,.476,1.266,8.486,8.486,0,0,1,.079,1.02c-.047.563-.083.873-.083.873l-.108-.857c-.039-.268-.159-.58-.243-.936a5.318,5.318,0,0,0-.588-1.068c-.066-.089-.124-.186-.2-.272l-.251-.243c-.087-.08-.164-.171-.255-.25l-.3-.213a3.11,3.11,0,0,0-.664-.381,4.576,4.576,0,0,0-.747-.29,5.849,5.849,0,0,0-.812-.184c-.278-.043-.567-.045-.853-.079-.289.013-.582.009-.873.037a8.613,8.613,0,0,0-.868.148,6.6,6.6,0,0,0-1.638.577l-.371.188c-.126.072-.254.166-.38.248l-.353.234-.315.282c-.205.19-.423.361-.612.557l-.537.6a6.63,6.63,0,0,0-.474.6c-.146.2-.306.383-.428.58-.245.392-.5.741-.678,1.075s-.358.617-.483.862c-.26.484-.392.774-.392.774" transform="translate(-462.031 -302.96)" fill="#0e1115"/>
              <path id="Trazado_729996" data-name="Trazado 729996" d="M569.844,366.083c.746-3.35,3.077-5.678,5.2-5.206,1.6.359,2.63,2.205,2.722,4.523-.252,1.4-1.205,4.507-4.719,5.015a9.728,9.728,0,0,1-3.118-.059,8.43,8.43,0,0,1-.089-4.274" transform="translate(-498.113 -315.524)" fill="#1d4b78"/>
              <path id="Trazado_729997" data-name="Trazado 729997" d="M572.959,368.484c-.2.471.346,1.153,1.223,1.524s1.746.295,1.946-.175-.347-1.155-1.222-1.526-1.746-.292-1.946.177" transform="translate(-501.002 -321.87)" fill="#fff"/>
              <path id="Trazado_729998" data-name="Trazado 729998" d="M329.332,348.61a13.447,13.447,0,0,1,3.647-5.667c3.6-2.917,10.12-1.779,9.777,3.685,0,0-.249,5.038-4.808,5.7-3.688.531-7.248-1.1-8.616-3.717" transform="translate(-287.992 -298.529)" fill="#fff"/>
              <path id="Trazado_729999" data-name="Trazado 729999" d="M329.332,345.412a8.031,8.031,0,0,1,.216-.846,12.871,12.871,0,0,1,.864-2.146,11.669,11.669,0,0,1,.808-1.338l.518-.69c.183-.232.417-.432.632-.654l.334-.33.385-.289c.124-.09.237-.184.373-.272l.446-.246a7.48,7.48,0,0,1,1.878-.7,9.1,9.1,0,0,1,.991-.152c.332-.026.666-.017,1-.023a6.791,6.791,0,0,1,1.9.389,4.411,4.411,0,0,1,.846.392,3.792,3.792,0,0,1,.733.514l.327.28c.1.1.183.214.269.32l.25.315c.073.109.127.228.188.338a4.791,4.791,0,0,1,.477,1.265,8.5,8.5,0,0,1,.079,1.02c-.047.563-.083.873-.083.873l-.108-.857c-.039-.268-.159-.58-.243-.937a5.338,5.338,0,0,0-.588-1.068c-.066-.089-.123-.186-.2-.272l-.251-.243c-.086-.08-.164-.171-.255-.251l-.3-.213a3.123,3.123,0,0,0-.664-.381,4.579,4.579,0,0,0-.747-.29,5.854,5.854,0,0,0-.812-.185c-.278-.042-.568-.045-.853-.079-.289.013-.582.008-.873.036a8.643,8.643,0,0,0-.868.148,6.594,6.594,0,0,0-1.638.577l-.371.188c-.127.071-.254.166-.38.247l-.353.234-.315.282c-.205.19-.423.361-.612.557l-.537.6a6.69,6.69,0,0,0-.473.6c-.146.2-.306.383-.428.58-.245.393-.5.741-.678,1.075s-.358.618-.483.862c-.261.484-.393.774-.393.774" transform="translate(-287.992 -295.332)" fill="#0e1115"/>
              <path id="Trazado_730000" data-name="Trazado 730000" d="M370.827,357.371c.747-3.347,3.077-5.677,5.2-5.2,1.6.355,2.631,2.2,2.723,4.523-.253,1.4-1.205,4.5-4.72,5.014a9.823,9.823,0,0,1-3.118-.059,8.473,8.473,0,0,1-.089-4.277" transform="translate(-324.078 -307.91)" fill="#1d4b78"/>
              <path id="Trazado_730001" data-name="Trazado 730001" d="M373.943,359.753c-.2.471.346,1.153,1.223,1.524s1.746.295,1.945-.174-.346-1.154-1.222-1.525-1.746-.295-1.945.175" transform="translate(-326.967 -314.235)" fill="#fff"/>
              <path id="Trazado_730002" data-name="Trazado 730002" d="M355.573,441.649a3.5,3.5,0,0,1,.238-.343c.08-.094.164-.212.272-.323l.333-.348.359-.321c.114-.1.236-.183.332-.26a3.352,3.352,0,0,1,.351-.227,3.438,3.438,0,0,1-.238.343c-.08.094-.164.213-.271.323l-.333.348-.36.321c-.114.1-.236.183-.332.26a3.458,3.458,0,0,1-.351.227" transform="translate(-310.94 -384.617)" fill="#79332d"/>
              <path id="Trazado_730003" data-name="Trazado 730003" d="M360.832,442.871s-.077.232-.223.563c-.078.163-.157.359-.262.558l-.328.624-.361.605c-.114.194-.241.364-.339.515-.206.3-.364.484-.364.484s.077-.232.222-.563c.078-.163.157-.359.262-.558l.328-.624.361-.606c.115-.194.241-.364.339-.515.206-.3.364-.484.364-.484" transform="translate(-313.898 -387.279)" fill="#79332d"/>
              <path id="Trazado_730004" data-name="Trazado 730004" d="M375.026,447.088a2.536,2.536,0,0,1-.106.341c-.043.1-.081.215-.142.33l-.19.362-.223.343c-.07.11-.155.2-.218.285a2.52,2.52,0,0,1-.246.259,2.5,2.5,0,0,1,.106-.341c.043-.1.08-.215.142-.33l.19-.362.223-.343c.071-.109.155-.2.218-.285a2.52,2.52,0,0,1,.245-.259" transform="translate(-326.967 -390.967)" fill="#79332d"/>
              <path id="Trazado_730005" data-name="Trazado 730005" d="M599.285,450.836a3.516,3.516,0,0,1-.351-.226c-.1-.077-.218-.157-.333-.26l-.36-.321-.333-.348c-.107-.11-.191-.23-.271-.323a3.425,3.425,0,0,1-.239-.343,3.388,3.388,0,0,1,.351.226c.1.077.219.157.333.26l.36.321.333.348c.107.111.191.229.272.323a3.456,3.456,0,0,1,.238.342" transform="translate(-522.409 -392.652)" fill="#79332d"/>
              <path id="Trazado_730006" data-name="Trazado 730006" d="M594.1,452.058s.157.187.364.484c.1.151.224.321.339.514l.361.606.328.624c.106.2.185.395.262.558.146.331.222.563.222.563s-.158-.187-.364-.484c-.1-.151-.225-.321-.339-.515l-.361-.606-.328-.624c-.1-.2-.184-.4-.262-.558-.146-.331-.223-.563-.223-.563" transform="translate(-519.524 -395.313)" fill="#79332d"/>
              <path id="Trazado_730007" data-name="Trazado 730007" d="M585.14,456.277a2.578,2.578,0,0,1,.245.259c.063.084.147.175.218.285l.223.342.19.362c.062.115.1.234.142.329a2.488,2.488,0,0,1,.106.341,2.544,2.544,0,0,1-.246-.258c-.063-.084-.148-.175-.218-.285l-.223-.342-.19-.362c-.061-.115-.1-.233-.142-.329a2.546,2.546,0,0,1-.106-.341" transform="translate(-511.69 -399.002)" fill="#79332d"/>
              <path id="Trazado_730008" data-name="Trazado 730008" d="M325.544,280.4s7.107-5.486,11.623-4.319c0,0,2.073,2.784,2.189,3.84,0,0-5.265-1.153-13.812.479" transform="translate(-284.68 -241.284)" fill="#2a1816"/>
              <path id="Trazado_730009" data-name="Trazado 730009" d="M534.606,287.286s7.108-5.486,11.623-4.322c0,0,2.073,2.783,2.188,3.841,0,0-5.263-1.154-13.811.481" transform="translate(-467.499 -247.303)" fill="#2a1816"/>
              <path id="Trazado_730010" data-name="Trazado 730010" d="M323.907,489.134a7.567,7.567,0,0,0,3.7.213c-16.964-5.662-24.132-26.963-24.132-26.963h0c1.13,6.242,2.572,12.276,4.166,14.408,4.41,7.485,16.27,12.342,16.27,12.342" transform="translate(-265.378 -404.343)" fill="#df7549"/>
              <path id="Trazado_730011" data-name="Trazado 730011" d="M236.868,48.573a111.855,111.855,0,0,0,3.558-12.4c.961-5,2.083-11.011,4.484-11.876s15.134,4.617,19.263,5.437c11.683,2.332,17.021-3.815,17.021-3.815s4.217,6.794,3.53,10.253-.44,9.329.782,10.571l2.273-2.061S292.462,30.332,291.2,26.3c0,0-1.622-7.037-4.153-9.535,0,0,3.337-6.6-3.565-9.222A70.175,70.175,0,0,0,262.889.172c-11.607-2.114-25.731,15.764-25.731,15.764s-5.657,2.679-7.781,7.673c-1.471,3.458,2.123,21.069,2.123,21.069s4.643,1.98,5.366,3.895" transform="translate(-200.276 0.002)" fill="#2a1816"/>
              <path id="Trazado_730012" data-name="Trazado 730012" d="M427.118,522.193a.3.3,0,0,0-.362.078c2.625,3.382,10.593,3.489,11.162,3.438.319-.024.55-.628.693-1.158a35.277,35.277,0,0,1-11.493-2.358" transform="translate(-373.187 -456.618)" fill="#fff"/>
              <path id="Trazado_730013" data-name="Trazado 730013" d="M351.868,9.817a7.143,7.143,0,0,0-3.27-2.275A70.177,70.177,0,0,0,328.007.171c-9.579-1.745-20.863,10.12-24.517,14.322,10.054-7.67,14-9.615,17.175-11.054s22.332,11.67,29.177,9.3c1.978-.685,2.408-1.752,2.025-2.92" transform="translate(-265.394 0.003)" fill="#3d2322"/>
              <g id="Grupo_965385" data-name="Grupo 965385" transform="translate(28.748 19.771)" opacity="0.6">
                <g id="Grupo_965384" data-name="Grupo 965384">
                  <g id="Grupo_965383" data-name="Grupo 965383" clip-path="url(#clip-path-6)">
                    <path id="Trazado_730014" data-name="Trazado 730014" d="M285.658,175.91c1.874-14.395-3.17-22.346-13.881-16.44s-20.122-1.73-25.925-1.73-3.924,9.346-10.117,16.868c-4.756,5.775-4.7-9.123-4.424-16.358a12.419,12.419,0,0,0-1.932,3.093c-1.471,3.458,2.123,21.069,2.123,21.069s4.643,1.98,5.366,3.895a111.833,111.833,0,0,0,3.558-12.4c.961-5,2.083-11.011,4.484-11.876s15.134,4.617,19.263,5.437c11.683,2.332,17.021-3.815,17.021-3.815s4.217,6.794,3.53,10.253-.44,9.329.782,10.571l2.273-2.061s1.241-3.805,2.273-8.046c-3.482,6.448-4.393,1.544-4.393,1.544" transform="translate(-229.025 -157.504)" fill="#170e0d"/>
                  </g>
                </g>
              </g>
            </g>
          </g>
        </g>
      </g>
    </g>
    <g id="Elipse_5889" data-name="Elipse 5889" transform="translate(725 1005)" fill="none" stroke="#adc46c" stroke-width="9">
      <circle cx="95" cy="95" r="95" stroke="none"/>
      <circle cx="95" cy="95" r="90.5" fill="none"/>
    </g>
  </g>
</svg>
