<svg xmlns="http://www.w3.org/2000/svg" xmlns:xlink="http://www.w3.org/1999/xlink" width="190" height="295.978" viewBox="0 0 190 295.978">
  <defs>
    <clipPath id="clip-path">
      <rect id="Rectángulo_341025" data-name="Rectángulo 341025" width="190" height="295.978" fill="none"/>
    </clipPath>
    <clipPath id="clip-path-2">
      <rect id="Rectángulo_341024" data-name="Rectángulo 341024" width="190" height="295.979" fill="none"/>
    </clipPath>
    <clipPath id="clip-path-3">
      <rect id="Rectángulo_341022" data-name="Rectángulo 341022" width="10.663" height="15.321" fill="none"/>
    </clipPath>
    <clipPath id="clip-path-4">
      <rect id="Rectángulo_341023" data-name="Rectángulo 341023" width="10.661" height="15.325" fill="none"/>
    </clipPath>
  </defs>
  <g id="Grupo_965398" data-name="Grupo 965398" clip-path="url(#clip-path)">
    <g id="Grupo_965397" data-name="Grupo 965397" transform="translate(0 -0.001)">
      <g id="Grupo_965396" data-name="Grupo 965396" clip-path="url(#clip-path-2)">
        <path id="Trazado_730015" data-name="Trazado 730015" d="M161.875,450.748s22.172,18.675,3.458,26.531c0,0,27.287,15.909,9.959,25.429,0,0,21.729,12,6.414,21.164s-56.531-9.39-56.531-9.39V454.4Z" transform="translate(-24.582 -356.886)" fill="#140a0a"/>
        <path id="Trazado_730016" data-name="Trazado 730016" d="M128.593,602.864s18.577,15.13,4.916,21.61c-1.98.938-3.008,1.883-3.333,2.815,4.438-.027,8.4-.76,11.373-2.54,15.316-9.163-6.413-21.164-6.413-21.164,17.328-9.52-9.959-25.429-9.959-25.429s18.1,19.64,3.418,24.707" transform="translate(15.575 -457.764)" fill="#230d0d"/>
        <path id="Trazado_730017" data-name="Trazado 730017" d="M465.825,432.692s-8.031,23.291,4.024,28.6c0,0-30.323,13.614-10.473,21.6,0,0-10.248,4.464-3.578,7.756,0,0-25.8,23.849.386,29.252s60.867,2.211,60.867,2.211l2.887-50.255L509.312,440.5Z" transform="translate(-427.26 -342.59)" fill="#140a0a"/>
        <path id="Trazado_730018" data-name="Trazado 730018" d="M17.135,1135.388c-.365-2.307-.679-4.534-.92-6.639,0,0-9.574-33.831-16.216-51.065l24.408-17.509c4.658,39.284,6.634,58.235,8.774,66.852,0,0,.59,2.842,1.639,8.362Z" transform="translate(155.179 -839.409)" fill="#f19367"/>
        <path id="Trazado_730019" data-name="Trazado 730019" d="M726.356,1135.388H708.671c1.046-5.52,1.637-8.362,1.637-8.362,2.14-8.616,4.12-27.568,8.774-66.852l24.408,17.509c-6.638,17.234-16.215,51.065-16.215,51.065-.241,2.106-.553,4.332-.917,6.639" transform="translate(-708.671 -839.409)" fill="#f19367"/>
        <path id="Trazado_730020" data-name="Trazado 730020" d="M264.6,651.414a9.308,9.308,0,0,0-3.353-4.766c-3.626-1.879-42.751-12.465-42.751-12.465-7.044-9.368-5.55-23.184-5.55-23.184l-14.289-6.181v-.09l-.128.044-.124-.044v.09L184.128,611s-.022,17.069-5.562,23.184c0,0-40.852,11.271-44.475,13.152-.517.267-1.052,1.715-1.537,4.078l69.5,34.885Z" transform="translate(-103.63 -478.803)" fill="#e57a4e"/>
        <path id="Trazado_730021" data-name="Trazado 730021" d="M755.375,1181.5c-.763-1.071-1.3-1.714-1.3-1.714l-21.32-4.9c-1.245,10.612-2.245,19.037-3.12,25.7a54.4,54.4,0,0,0,19.248,1.531c1.943-6.419,4.23-13.785,6.5-20.613" transform="translate(-725.147 -930.233)" fill="#df7549"/>
        <path id="Trazado_730022" data-name="Trazado 730022" d="M677.348,947.631,692.7,909.8l-.156-45.519c-.405-1.956-.7-2.7-.848-1.849-1.185,6.9-9.192,9.566-20.368,34.9-10.208,23.15-5.224,46.272-4.285,50.1a29.175,29.175,0,0,0,10.3.195" transform="translate(-648.324 -682.569)" fill="#cc740f"/>
        <path id="Trazado_730023" data-name="Trazado 730023" d="M45.441,1162.544l-22.372,9.045c2.028,6.093,4.068,12.619,5.871,18.533a33.833,33.833,0,0,0,19.356-3.737c-.811-6.452-1.735-14.312-2.855-23.84" transform="translate(136.652 -920.462)" fill="#df7549"/>
        <path id="Trazado_730024" data-name="Trazado 730024" d="M110.253,934.087c.321-14.1-19.841-49.341-19.841-49.341l-5.964,12.037-.1,30.962L99.7,965.573a29.09,29.09,0,0,0,10.542-.242c-.052-3.208-.273-18.675.012-31.244" transform="translate(61.275 -700.511)" fill="#cc740f"/>
        <path id="Trazado_730025" data-name="Trazado 730025" d="M358.671,621.767c6.615,4.248,17.778,10.649,23.523,9.589a23.313,23.313,0,0,0,8.367-3.529A41.572,41.572,0,0,1,388.42,611l-14.288-6.181v-.09l-.128.044-.124-.044v.09L359.6,611a76.158,76.158,0,0,1-.928,10.767" transform="translate(-279.101 -478.803)" fill="#bd502a"/>
        <path id="Trazado_730026" data-name="Trazado 730026" d="M166.821,868.114l-5.969-14.7c-2.181,8.793-4.3,15.069-4.3,15.069-2.594,8.673-4.054,19.075-4.546,30.551H50.288c-2.022-16.239-8.225-34.008-8.225-34.008-1.026-2.683-1.9-5.381-2.657-8.081l-4.535,11.172A27.377,27.377,0,0,1,7.484,856.365s5-62.38,11.2-72.129c8.4-13.213,31.326-17.074,31.326-17.074v.025l18.787-5.41c6.413,12.352,25.837,38.8,33.539,38.669,13.8-.236,32.239-38.791,32.239-38.791l17.107,5.506s22.926,3.861,31.327,17.074c6.2,9.749,11.2,72.129,11.2,72.129a27.377,27.377,0,0,1-27.387,11.749" transform="translate(-5.847 -603.052)" fill="#f1951e"/>
        <path id="Trazado_730027" data-name="Trazado 730027" d="M181.172,377.271s4.429-7.4,11.337-7.5c4.1-.061,2.887,15.947-1.337,20.083s-10.372,2.757-11.742-.9Z" transform="translate(-44.324 -292.771)" fill="#f19367"/>
        <g id="Grupo_965392" data-name="Grupo 965392" transform="translate(137.791 80.694)" opacity="0.4">
          <g id="Grupo_965391" data-name="Grupo 965391">
            <g id="Grupo_965390" data-name="Grupo 965390" clip-path="url(#clip-path-3)">
              <path id="Trazado_730028" data-name="Trazado 730028" d="M189.728,402.468s5.156,1.723,7.381-2.364,4.381-8.993,2.658-12.6c0,0-4.754,1.054-9.147,9.491,0,0,3.22,3.8-.892,5.471" transform="translate(-189.728 -387.507)" fill="#c6442b"/>
            </g>
          </g>
        </g>
        <path id="Trazado_730029" data-name="Trazado 730029" d="M199.919,391.129a19.86,19.86,0,0,0,.15-2.324,7.777,7.777,0,0,0-.257-2.366,1.545,1.545,0,0,0-.345-.619.749.749,0,0,0-.456-.215.859.859,0,0,0-.447.087l-.557.232-.553.313a8.167,8.167,0,0,0-1.048.68c-.325.242-.674.462-.976.73a18.915,18.915,0,0,0-1.8,1.619c-.279.29-.589.552-.842.866l-.772.926a7.252,7.252,0,0,0-.718.965l-.666,1a8.707,8.707,0,0,0-.554,1.064l-.52,1.08-.1.2.161.176a6.36,6.36,0,0,1,1,1.454,3.948,3.948,0,0,1,.3.813,2.307,2.307,0,0,1,.075.419,2.367,2.367,0,0,1,.01.42,2.737,2.737,0,0,1-.2.816l-.233.367a2.268,2.268,0,0,1-.3.328,3.992,3.992,0,0,1-.737.556c-.274.152-.566.283-.854.429.3-.1.622-.181.926-.3a4.284,4.284,0,0,0,.847-.493,2.6,2.6,0,0,0,.378-.323l.319-.39.224-.453a3.2,3.2,0,0,0,.122-.488,2.771,2.771,0,0,0,.029-.5,2.726,2.726,0,0,0-.049-.493,4.43,4.43,0,0,0-.27-.943,6.862,6.862,0,0,0-.988-1.7l.065.374.536-1.008a8.079,8.079,0,0,1,.565-.99,21.441,21.441,0,0,1,1.354-1.861l.749-.885c.237-.3.535-.56.8-.843s.534-.564.828-.82l.874-.777c.282-.271.605-.491.909-.735a11.366,11.366,0,0,1,.927-.675l.466-.319.539-.271c.175-.085.109-.069.212-.028a1.044,1.044,0,0,1,.241.386,10,10,0,0,1,.455,2.2c.09.763.134,1.534.18,2.308" transform="translate(-51.385 -305.304)" fill="#874237"/>
        <path id="Trazado_730030" data-name="Trazado 730030" d="M201.908,408.238a.865.865,0,0,0-.062-.27,2.281,2.281,0,0,0-.373-.667,2.686,2.686,0,0,0-.9-.665,2.757,2.757,0,0,0-.6-.235l-.657-.1a1.894,1.894,0,0,0-.651.007c-.212.021-.417.068-.615.1a2.014,2.014,0,0,0-.554.144c-.166.069-.32.144-.459.215a5.587,5.587,0,0,0-.885.528,7.084,7.084,0,0,0,1.029-.045c.147-.015.305-.033.467-.062a3.362,3.362,0,0,1,.514-.018c.176-.006.357,0,.539-.019a1.4,1.4,0,0,1,.538.021l.532.046a3.845,3.845,0,0,1,.49.123,1.776,1.776,0,0,1,.454.149c.134.069.276.122.4.18.221.154.445.269.568.383a1.684,1.684,0,0,1,.219.181" transform="translate(-54.861 -321.678)" fill="#874237"/>
        <path id="Trazado_730031" data-name="Trazado 730031" d="M275.155,244.792s19.717-9.532,26.564-20.241c5.634-7.513,12.268-45.824,12.947-51.773.02-.2.048-.394.068-.593s.032-.292.032-.292l-.009.006c.113-1.232.181-2.472.181-3.731,0-22.939-19.553-41.533-43.676-41.533s-43.68,18.594-43.68,41.533a39.938,39.938,0,0,0,.249,4.415h0s6.807,43.736,12.975,51.968c7.252,12.277,26.564,20.241,26.564,20.241a13.6,13.6,0,0,0,7.787,0" transform="translate(-174.775 -100.264)" fill="#f19367"/>
        <path id="Trazado_730032" data-name="Trazado 730032" d="M615.8,385.668s-4.433-7.4-11.337-7.5c-4.1-.06-2.887,15.95,1.333,20.085s10.377,2.755,11.742-.9Z" transform="translate(-559.349 -299.417)" fill="#f19367"/>
        <g id="Grupo_965395" data-name="Grupo 965395" transform="translate(44.843 82.441)" opacity="0.4">
          <g id="Grupo_965394" data-name="Grupo 965394">
            <g id="Grupo_965393" data-name="Grupo 965393" clip-path="url(#clip-path-4)">
              <path id="Trazado_730033" data-name="Trazado 730033" d="M624.866,410.862s-5.152,1.722-7.377-2.366-4.385-8.993-2.658-12.6c0,0,4.754,1.054,9.147,9.491,0,0-3.22,3.8.888,5.475" transform="translate(-614.206 -395.897)" fill="#c6442b"/>
            </g>
          </g>
        </g>
        <path id="Trazado_730034" data-name="Trazado 730034" d="M612.061,399.526c.046-.774.091-1.544.181-2.308a9.991,9.991,0,0,1,.456-2.2,1.069,1.069,0,0,1,.242-.386c.1-.042.042-.057.212.026l.54.271.466.319c.308.2.618.426.926.675s.627.464.91.735l.874.777c.294.256.551.548.829.82s.563.539.8.843l.749.884a21.3,21.3,0,0,1,1.355,1.86,8.018,8.018,0,0,1,.565.99l.538,1.007.065-.374a6.875,6.875,0,0,0-.987,1.7,4.435,4.435,0,0,0-.27.943,2.682,2.682,0,0,0-.049.493,2.808,2.808,0,0,0,.029.5,3.217,3.217,0,0,0,.121.489l.224.454.319.39a2.636,2.636,0,0,0,.379.323,4.306,4.306,0,0,0,.847.493c.3.118.622.2.926.3-.288-.146-.579-.277-.853-.429a4.017,4.017,0,0,1-.739-.556,2.286,2.286,0,0,1-.3-.329l-.233-.368a2.738,2.738,0,0,1-.2-.815,2.355,2.355,0,0,1,.01-.421,2.227,2.227,0,0,1,.075-.419,3.89,3.89,0,0,1,.3-.813,6.382,6.382,0,0,1,1-1.455l.161-.176-.1-.2-.521-1.079a8.834,8.834,0,0,0-.554-1.064l-.666-1a7.2,7.2,0,0,0-.719-.965l-.773-.925c-.252-.314-.563-.576-.842-.865a18.928,18.928,0,0,0-1.8-1.619c-.3-.268-.65-.488-.975-.729a8.038,8.038,0,0,0-1.047-.68l-.553-.314-.558-.232a.852.852,0,0,0-.448-.087.759.759,0,0,0-.454.216,1.553,1.553,0,0,0-.345.618,7.734,7.734,0,0,0-.258,2.365,19.645,19.645,0,0,0,.149,2.324" transform="translate(-567.299 -311.952)" fill="#874237"/>
        <path id="Trazado_730035" data-name="Trazado 730035" d="M630.2,416.64a1.651,1.651,0,0,1,.219-.18,6.775,6.775,0,0,1,.567-.383c.128-.058.27-.111.4-.18a1.791,1.791,0,0,1,.454-.148,3.73,3.73,0,0,1,.489-.122l.531-.046a1.4,1.4,0,0,1,.538-.02c.181.019.362.012.538.019a3.214,3.214,0,0,1,.514.018c.162.029.32.047.467.062a7.146,7.146,0,0,0,1.029.045,5.613,5.613,0,0,0-.884-.528c-.14-.071-.293-.146-.459-.216a2.008,2.008,0,0,0-.552-.144c-.2-.031-.4-.079-.615-.1a1.877,1.877,0,0,0-.651-.007l-.656.1a2.742,2.742,0,0,0-.6.235,2.675,2.675,0,0,0-.9.664,2.3,2.3,0,0,0-.373.666.863.863,0,0,0-.062.27" transform="translate(-583.944 -328.333)" fill="#874237"/>
        <path id="Trazado_730036" data-name="Trazado 730036" d="M400.073,499.537s.056,5.436-1.518,6.225-.646-3.052,1.518-6.225" transform="translate(-297.175 -395.515)" fill="#521b14"/>
        <path id="Trazado_730037" data-name="Trazado 730037" d="M277.639,384.25s1.947-5.95,6.288-9.292c6.2-4.782,17.453-2.92,16.859,6.042,0,0-.43,8.26-8.288,9.345-6.361.875-12.5-1.81-14.858-6.095" transform="translate(-171.604 -294.851)" fill="#fff"/>
        <path id="Trazado_730038" data-name="Trazado 730038" d="M277.069,381.387s.228-.475.676-1.269c.217-.4.5-.876.833-1.413.312-.548.745-1.12,1.168-1.763.21-.324.486-.623.738-.952A10.944,10.944,0,0,1,281.3,375l.927-.978c.327-.32.7-.6,1.056-.913l.543-.462.61-.385c.217-.133.438-.289.656-.405l.64-.308a11.757,11.757,0,0,1,2.824-.946c.489-.135,1-.156,1.5-.243.5-.046,1.006-.039,1.505-.06.492.056.991.06,1.471.13a10.512,10.512,0,0,1,1.4.3,8.128,8.128,0,0,1,1.288.476,5.435,5.435,0,0,1,1.145.624l.522.35c.156.131.29.28.439.411l.433.4c.128.141.227.3.34.445a8.637,8.637,0,0,1,1.013,1.752c.146.585.352,1.1.419,1.536.118.895.185,1.406.185,1.406s.063-.507.144-1.43a13.135,13.135,0,0,0-.136-1.673,7.611,7.611,0,0,0-.82-2.076c-.107-.18-.2-.374-.325-.553l-.431-.516c-.148-.174-.3-.357-.464-.525l-.563-.459a6.614,6.614,0,0,0-1.264-.843,7.808,7.808,0,0,0-1.461-.642,12.248,12.248,0,0,0-3.275-.638c-.568.009-1.144-.005-1.717.038a16.567,16.567,0,0,0-1.708.248,13.386,13.386,0,0,0-3.239,1.153l-.768.4c-.234.144-.429.3-.643.446l-.664.473-.576.541c-.37.366-.775.692-1.089,1.073l-.894,1.131a18.906,18.906,0,0,0-1.392,2.193A20.371,20.371,0,0,0,277.441,380a12.471,12.471,0,0,0-.372,1.386" transform="translate(-171.035 -291.987)" fill="#0e1115"/>
        <path id="Trazado_730039" data-name="Trazado 730039" d="M278.817,391.624c1.289-5.492,5.309-9.314,8.975-8.535,2.763.584,4.538,3.612,4.7,7.418-.438,2.291-2.08,7.388-8.14,8.224a17.769,17.769,0,0,1-5.381-.1,13.232,13.232,0,0,1-.153-7.011" transform="translate(-163.458 -303.236)" fill="#34110f"/>
        <path id="Trazado_730040" data-name="Trazado 730040" d="M313.859,390.828c-.341.773.6,1.894,2.112,2.5s3.007.479,3.357-.294-.6-1.89-2.112-2.5-3.008-.482-3.358.289" transform="translate(-198.11 -308.909)" fill="#fff"/>
        <path id="Trazado_730041" data-name="Trazado 730041" d="M474.362,375.625s1.951-5.95,6.292-9.295c6.2-4.781,17.448-2.92,16.862,6.043,0,0-.429,8.264-8.3,9.343-6.357.875-12.495-1.806-14.858-6.091" transform="translate(-411.413 -288.02)" fill="#fff"/>
        <path id="Trazado_730042" data-name="Trazado 730042" d="M473.8,372.761s.228-.475.677-1.269c.217-.4.5-.876.834-1.413.313-.548.746-1.119,1.169-1.763.21-.323.485-.622.738-.951a11,11,0,0,1,.817-.986l.927-.978c.327-.32.7-.6,1.056-.913l.543-.462.61-.384c.217-.133.438-.289.656-.406l.641-.308a11.768,11.768,0,0,1,2.824-.946c.488-.136,1-.156,1.5-.243.5-.046,1.007-.039,1.505-.06.492.056.992.06,1.472.13a10.435,10.435,0,0,1,1.4.3,8.124,8.124,0,0,1,1.288.476,5.43,5.43,0,0,1,1.144.624l.523.349c.156.131.29.279.44.411l.433.4c.128.141.227.3.34.445a8.629,8.629,0,0,1,1.015,1.752c.146.585.353,1.1.42,1.536l.187,1.406s.062-.507.143-1.431a13.37,13.37,0,0,0-.137-1.673,7.633,7.633,0,0,0-.822-2.075c-.106-.179-.2-.374-.325-.553l-.431-.516c-.149-.175-.3-.356-.465-.525l-.563-.459a6.559,6.559,0,0,0-1.264-.843,7.841,7.841,0,0,0-1.46-.643,12.262,12.262,0,0,0-3.276-.638c-.567.01-1.144-.005-1.716.039a16.3,16.3,0,0,0-1.709.248,13.312,13.312,0,0,0-3.239,1.154l-.769.4c-.234.144-.429.3-.643.446l-.664.473-.576.541c-.37.366-.774.692-1.089,1.073l-.894,1.131a18.887,18.887,0,0,0-1.393,2.194,20.456,20.456,0,0,0-1.49,3.519,12.585,12.585,0,0,0-.372,1.386" transform="translate(-410.847 -285.156)" fill="#0e1115"/>
        <path id="Trazado_730043" data-name="Trazado 730043" d="M475.576,383c1.289-5.494,5.305-9.312,8.971-8.535,2.759.582,4.538,3.613,4.695,7.416-.434,2.295-2.076,7.391-8.14,8.222a17.724,17.724,0,0,1-5.377-.093,13.193,13.193,0,0,1-.149-7.009" transform="translate(-403.294 -296.412)" fill="#34110f"/>
        <path id="Trazado_730044" data-name="Trazado 730044" d="M510.606,382.208c-.349.771.6,1.89,2.1,2.5s3.016.481,3.358-.29-.6-1.894-2.1-2.5-3.016-.479-3.357.291" transform="translate(-437.935 -302.084)" fill="#fff"/>
        <path id="Trazado_730045" data-name="Trazado 730045" d="M539.42,464.072a6.053,6.053,0,0,0,.6-.372c.167-.126.376-.258.573-.427l.619-.526.574-.572c.185-.181.33-.377.468-.53a5.573,5.573,0,0,0,.41-.563,5.87,5.87,0,0,0-.6.371c-.166.127-.377.258-.573.427l-.619.527-.574.572c-.184.182-.33.377-.467.531a5.65,5.65,0,0,0-.411.562" transform="translate(-470.788 -365.068)" fill="#79332d"/>
        <path id="Trazado_730046" data-name="Trazado 730046" d="M539.373,464.088s-.272.306-.627.793c-.17.248-.387.528-.585.845l-.623.993-.565,1.024c-.182.326-.319.648-.452.915-.252.543-.384.923-.384.923s.272-.306.628-.793c.169-.248.388-.526.584-.845l.623-.994.565-1.024c.182-.327.319-.648.452-.915.251-.543.384-.923.384-.923" transform="translate(-466.774 -367.448)" fill="#79332d"/>
        <path id="Trazado_730047" data-name="Trazado 730047" d="M529.218,468.271a4.312,4.312,0,0,0-.423.425c-.108.138-.254.288-.376.468l-.385.562c-.111.2-.223.4-.328.593s-.172.383-.245.54a3.97,3.97,0,0,0-.182.559,4.268,4.268,0,0,0,.423-.424c.109-.138.255-.287.376-.468l.385-.562.327-.594c.105-.189.172-.384.245-.541a4.027,4.027,0,0,0,.183-.558" transform="translate(-454.68 -370.76)" fill="#79332d"/>
        <path id="Trazado_730048" data-name="Trazado 730048" d="M303.589,473.157a5.764,5.764,0,0,0-.411-.562c-.139-.154-.285-.349-.468-.53l-.574-.571-.62-.526c-.2-.169-.407-.3-.574-.427a5.894,5.894,0,0,0-.605-.371,5.606,5.606,0,0,0,.411.562c.138.154.283.35.468.53l.574.571.621.526c.2.169.406.3.574.427a5.976,5.976,0,0,0,.6.372" transform="translate(-179.355 -372.263)" fill="#79332d"/>
        <path id="Trazado_730049" data-name="Trazado 730049" d="M303.691,473.177s.133.38.383.923c.134.267.27.588.452.914l.565,1.023.622.993c.2.318.414.6.583.844.355.486.627.792.627.792s-.132-.38-.383-.923c-.134-.266-.27-.589-.452-.915l-.565-1.023-.623-.992c-.2-.318-.414-.6-.584-.844-.355-.487-.627-.793-.627-.793" transform="translate(-183.425 -374.644)" fill="#79332d"/>
        <path id="Trazado_730050" data-name="Trazado 730050" d="M318.455,477.349a4.017,4.017,0,0,0,.183.558c.073.158.14.352.245.54s.216.392.328.594l.384.562c.121.181.268.33.376.468a4.261,4.261,0,0,0,.424.424,3.989,3.989,0,0,0-.182-.559c-.073-.157-.139-.352-.245-.54l-.328-.593-.384-.562c-.122-.18-.268-.33-.376-.467a4.292,4.292,0,0,0-.423-.425" transform="translate(-200.128 -377.948)" fill="#79332d"/>
        <path id="Trazado_730051" data-name="Trazado 730051" d="M474.758,322.276s10.224-5.586,18.011-3.677c0,0,5.606,1.155,5.806,2.887,0,0-9.075-1.89-23.817.79" transform="translate(-412.536 -251.94)" fill="#230d0d"/>
        <path id="Trazado_730052" data-name="Trazado 730052" d="M263.656,329.084S274,323.5,281.791,325.408c0,0,5.482,1.157,5.683,2.889,0,0-9.076-1.889-23.818.787" transform="translate(-155.208 -257.332)" fill="#230d0d"/>
        <path id="Trazado_730053" data-name="Trazado 730053" d="M561.9,371.744s-4.016-2.742-3.09-9.692c0,0,2.712,3.991,6.977,4.344Z" transform="translate(-498.126 -286.66)" fill="#0e1115"/>
        <path id="Trazado_730054" data-name="Trazado 730054" d="M256.413,370.347s4.325.305,6.855-2.941c0,0,.719,6.228-4.614,8.518a40.856,40.856,0,0,0-2.241-5.577" transform="translate(-129.449 -290.899)" fill="#0e1115"/>
        <path id="Trazado_730055" data-name="Trazado 730055" d="M375.285,547.98S374.417,558,385.1,559.8c9.546,1.608,11.337-8.432,11.337-8.432s-5.45,1.806-8.526,1.541-12.673-4.556-12.621-4.927" transform="translate(-288.606 -433.871)" fill="#e23c43"/>
        <path id="Trazado_730056" data-name="Trazado 730056" d="M392.82,546.775s10.943-3.2,14.191,2.6c0,0-5.072.542-14.191-2.6" transform="translate(-303.029 -432.221)" fill="#e23c43"/>
        <path id="Trazado_730057" data-name="Trazado 730057" d="M396.011,548.15a55.651,55.651,0,0,1-20.051-3.563.513.513,0,0,0-.655.207c-.286.39.819,6.744,10.244,8.33,0,0,7.376,1.089,10.83-4.481,0,0,0-.63-.37-.493" transform="translate(-288.556 -431.148)" fill="#fff"/>
        <path id="Trazado_730058" data-name="Trazado 730058" d="M354.294,1208.66s9.029,10.8,13.925,20.108H354.355c-2.022-16.239-8.224-34.008-8.224-34.008a96.24,96.24,0,0,1-4.662-16.646,37.054,37.054,0,0,0,33.479,12.22c23.508-3.292,40.315-10.876,50.194-7.083,0,0-29.649,4.261-38.05,11.311s-24.082,14.1-32.8,14.1" transform="translate(-309.914 -932.789)" fill="#cc740f"/>
        <path id="Trazado_730059" data-name="Trazado 730059" d="M98.889,80.763s3.916,5.008,5.305,5.483,5.949-23.959,5.77-32.417c0,0,29.4,4.7,40.676-11.044,0,0,17.974,23.137,34.395,27.547l.5,13.139s6.1-6.337,10.393-6.475c0,0,16.392-7.282,11.4-18.7,0,0,14.192-1.879,14.131-11.733-.028-4.548-3.951-12.7-17.051-14.114,0,0,15.81-19.342-15.465-13.86,0,0-32.849-23.652-48.04-17.6l-3.462,3.342s-4.53-1.409-7.983-.936S99.744,4.723,92.588,40.671c0,0-31.23,24.569-11.962,35.076,0,0-13.833,18.213,10.975,18.106,0,0-5.293-17.351,7.289-13.09" transform="translate(-47.742 0.005)" fill="#230d0d"/>
        <path id="Trazado_730060" data-name="Trazado 730060" d="M259.982.987,256.52,4.329s-4.53-1.409-7.983-.936a37.6,37.6,0,0,0-25.7,12.641C233.586,9.267,247.385,3.9,257.765,11.3c0,0,1.807-4.933,5.939-4.933,7.1,0,25.906,2.8,44.318,12.218,0,0-32.849-23.652-48.04-17.6" transform="translate(-166.818 0.004)" fill="#341313"/>
        <path id="Trazado_730061" data-name="Trazado 730061" d="M217.555,88.538c.718.366,1.085.269,1.156-.193-.377.061-.763.122-1.156.193" transform="translate(-76.351 -69.948)" fill="#341313"/>
        <path id="Trazado_730062" data-name="Trazado 730062" d="M673.667,287.733s-13.833,18.213,10.975,18.106a26.743,26.743,0,0,1-1.064-8.216c-10.751-4.656-3.98-15.306-3.98-15.306-9.478-.107-9.686-7.993-8.2-14.584-4.7,7.109-6.73,15.088,2.273,20" transform="translate(-640.783 -211.982)" fill="#140a0a"/>
        <path id="Trazado_730063" data-name="Trazado 730063" d="M224.5,175.6s6.1-6.337,10.393-6.475c0,0,10.268-4.567,12.072-12.136-29.512,18.766-56.274-40.633-56.274-40.633-5.991,31.484-54.855,20.677-54.855,20.677,3.574,7.306,14.854,9.142,14.97,9.163,6.65.72,29.239,2.068,38.8-11.281,0,0,17.975,23.137,34.395,27.546Z" transform="translate(-86.708 -92.127)" fill="#140a0a"/>
        <path id="Trazado_730064" data-name="Trazado 730064" d="M102.46,169.946c-.028-4.548-3.951-12.7-17.051-14.114,0,0-11.481,1.413-11.051,4.7s36.745,5.316,19.079,19.81c4.064-1.5,9.059-4.543,9.023-10.4" transform="translate(71.26 -123.382)" fill="#341313"/>
      </g>
    </g>
  </g>
</svg>
