<svg xmlns="http://www.w3.org/2000/svg" xmlns:xlink="http://www.w3.org/1999/xlink" width="623" height="279" viewBox="0 0 623 279">
  <defs>
    <filter id="Rectángulo_342445" x="109" y="0" width="123" height="78" filterUnits="userSpaceOnUse">
      <feOffset dy="3" input="SourceAlpha"/>
      <feGaussianBlur stdDeviation="3" result="blur"/>
      <feFlood flood-opacity="0.161"/>
      <feComposite operator="in" in2="blur"/>
      <feComposite in="SourceGraphic"/>
    </filter>
    <filter id="Rectángulo_342446" x="162" y="50" width="123" height="78" filterUnits="userSpaceOnUse">
      <feOffset dy="3" input="SourceAlpha"/>
      <feGaussianBlur stdDeviation="3" result="blur-2"/>
      <feFlood flood-opacity="0.161"/>
      <feComposite operator="in" in2="blur-2"/>
      <feComposite in="SourceGraphic"/>
    </filter>
    <filter id="Rectángulo_342447" x="231" y="101" width="123" height="78" filterUnits="userSpaceOnUse">
      <feOffset dy="3" input="SourceAlpha"/>
      <feGaussianBlur stdDeviation="3" result="blur-3"/>
      <feFlood flood-opacity="0.161"/>
      <feComposite operator="in" in2="blur-3"/>
      <feComposite in="SourceGraphic"/>
    </filter>
    <filter id="Rectángulo_342448" x="299" y="152" width="123" height="78" filterUnits="userSpaceOnUse">
      <feOffset dy="3" input="SourceAlpha"/>
      <feGaussianBlur stdDeviation="3" result="blur-4"/>
      <feFlood flood-opacity="0.161"/>
      <feComposite operator="in" in2="blur-4"/>
      <feComposite in="SourceGraphic"/>
    </filter>
    <filter id="Rectángulo_342449" x="369" y="201" width="123" height="78" filterUnits="userSpaceOnUse">
      <feOffset dy="3" input="SourceAlpha"/>
      <feGaussianBlur stdDeviation="3" result="blur-5"/>
      <feFlood flood-opacity="0.161"/>
      <feComposite operator="in" in2="blur-5"/>
      <feComposite in="SourceGraphic"/>
    </filter>
  </defs>
  <g id="Grupo_971661" data-name="Grupo 971661" transform="translate(-482 -3519)">
    <g transform="matrix(1, 0, 0, 1, 482, 3519)" filter="url(#Rectángulo_342445)">
      <rect id="Rectángulo_342445-2" data-name="Rectángulo 342445" width="105" height="60" transform="translate(118 6)" fill="#dee4f0"/>
    </g>
    <g transform="matrix(1, 0, 0, 1, 482, 3519)" filter="url(#Rectángulo_342446)">
      <rect id="Rectángulo_342446-2" data-name="Rectángulo 342446" width="105" height="60" transform="translate(171 56)" fill="#a7bce6"/>
    </g>
    <g transform="matrix(1, 0, 0, 1, 482, 3519)" filter="url(#Rectángulo_342447)">
      <rect id="Rectángulo_342447-2" data-name="Rectángulo 342447" width="105" height="60" transform="translate(240 107)" fill="#dee4f0"/>
    </g>
    <path id="Trazado_736981" data-name="Trazado 736981" d="M7.281,0H1.469V-11.2H2.781V-1.187h4.5Zm7.977-3.68H9.609a2.992,2.992,0,0,0,.719,2.063,2.478,2.478,0,0,0,1.891.727A3.931,3.931,0,0,0,14.7-1.781v1.2a4.643,4.643,0,0,1-2.789.766A3.381,3.381,0,0,1,9.25-.9a4.461,4.461,0,0,1-.969-3.066A4.375,4.375,0,0,1,9.34-7.012a3.394,3.394,0,0,1,2.629-1.176A3.008,3.008,0,0,1,14.4-7.172a4.234,4.234,0,0,1,.859,2.82ZM13.945-4.766a2.607,2.607,0,0,0-.535-1.727,1.823,1.823,0,0,0-1.465-.617,2.07,2.07,0,0,0-1.539.648,2.943,2.943,0,0,0-.781,1.7ZM20.539.188A3.711,3.711,0,0,1,17.707-.934a4.153,4.153,0,0,1-1.059-2.973,4.326,4.326,0,0,1,1.1-3.148,3.96,3.96,0,0,1,2.977-1.133,3.588,3.588,0,0,1,2.793,1.1,4.368,4.368,0,0,1,1,3.055A4.3,4.3,0,0,1,23.441-.965,3.791,3.791,0,0,1,20.539.188Zm.094-7.3a2.437,2.437,0,0,0-1.953.84,3.449,3.449,0,0,0-.719,2.316,3.262,3.262,0,0,0,.727,2.242,2.469,2.469,0,0,0,1.945.82,2.342,2.342,0,0,0,1.91-.8,3.492,3.492,0,0,0,.668-2.289A3.552,3.552,0,0,0,22.543-6.3,2.332,2.332,0,0,0,20.633-7.109Zm7.25,5.953h-.031V3.68H26.57V-8h1.281v1.406h.031a3.03,3.03,0,0,1,2.766-1.594,2.93,2.93,0,0,1,2.414,1.074,4.449,4.449,0,0,1,.867,2.879,4.959,4.959,0,0,1-.977,3.215A3.251,3.251,0,0,1,30.281.188,2.676,2.676,0,0,1,27.883-1.156Zm-.031-3.227v1.117A2.379,2.379,0,0,0,28.5-1.582a2.14,2.14,0,0,0,1.637.691,2.145,2.145,0,0,0,1.824-.891,4.086,4.086,0,0,0,.66-2.477A3.225,3.225,0,0,0,32-6.352a2.043,2.043,0,0,0-1.672-.758,2.27,2.27,0,0,0-1.8.777A2.854,2.854,0,0,0,27.852-4.383ZM39.32.188A3.711,3.711,0,0,1,36.488-.934,4.153,4.153,0,0,1,35.43-3.906a4.326,4.326,0,0,1,1.1-3.148,3.96,3.96,0,0,1,2.977-1.133,3.588,3.588,0,0,1,2.793,1.1,4.368,4.368,0,0,1,1,3.055A4.3,4.3,0,0,1,42.223-.965,3.791,3.791,0,0,1,39.32.188Zm.094-7.3a2.437,2.437,0,0,0-1.953.84,3.449,3.449,0,0,0-.719,2.316,3.262,3.262,0,0,0,.727,2.242,2.469,2.469,0,0,0,1.945.82,2.342,2.342,0,0,0,1.91-.8,3.492,3.492,0,0,0,.668-2.289A3.552,3.552,0,0,0,41.324-6.3,2.332,2.332,0,0,0,39.414-7.109ZM46.633,0H45.352V-11.844h1.281Zm9.422,0H54.773V-1.359h-.031A2.958,2.958,0,0,1,51.992.188a2.988,2.988,0,0,1-2.41-1.074,4.407,4.407,0,0,1-.9-2.926,4.794,4.794,0,0,1,1-3.18,3.3,3.3,0,0,1,2.664-1.2,2.564,2.564,0,0,1,2.4,1.3h.031v-4.953h1.281ZM54.773-3.617V-4.8a2.289,2.289,0,0,0-.641-1.641,2.149,2.149,0,0,0-1.625-.672,2.212,2.212,0,0,0-1.844.859,3.766,3.766,0,0,0-.672,2.375,3.387,3.387,0,0,0,.645,2.184,2.107,2.107,0,0,0,1.73.8,2.188,2.188,0,0,0,1.738-.773A2.882,2.882,0,0,0,54.773-3.617Z" transform="translate(624 3561)" fill="#12263f"/>
    <path id="Trazado_736982" data-name="Trazado 736982" d="M9.094-.469A6.571,6.571,0,0,1,6,.188,4.989,4.989,0,0,1,2.172-1.352,5.679,5.679,0,0,1,.734-5.391,5.952,5.952,0,0,1,2.352-9.734a5.489,5.489,0,0,1,4.1-1.656,6.576,6.576,0,0,1,2.641.461v1.4A5.355,5.355,0,0,0,6.438-10.2,4.076,4.076,0,0,0,3.309-8.914a4.856,4.856,0,0,0-1.2,3.445A4.621,4.621,0,0,0,3.23-2.207,3.815,3.815,0,0,0,6.172-.992a5.518,5.518,0,0,0,2.922-.75Zm5.453.656A3.711,3.711,0,0,1,11.715-.934a4.153,4.153,0,0,1-1.059-2.973,4.326,4.326,0,0,1,1.1-3.148,3.96,3.96,0,0,1,2.977-1.133,3.588,3.588,0,0,1,2.793,1.1,4.368,4.368,0,0,1,1,3.055A4.3,4.3,0,0,1,17.449-.965,3.791,3.791,0,0,1,14.547.188Zm.094-7.3a2.437,2.437,0,0,0-1.953.84,3.449,3.449,0,0,0-.719,2.316A3.262,3.262,0,0,0,12.7-1.711a2.469,2.469,0,0,0,1.945.82,2.342,2.342,0,0,0,1.91-.8,3.492,3.492,0,0,0,.668-2.289A3.552,3.552,0,0,0,16.551-6.3,2.332,2.332,0,0,0,14.641-7.109ZM27.219,0H25.938V-4.562q0-2.547-1.859-2.547a2.017,2.017,0,0,0-1.59.723,2.679,2.679,0,0,0-.629,1.824V0H20.578V-8h1.281v1.328h.031a2.887,2.887,0,0,1,2.625-1.516,2.448,2.448,0,0,1,2.008.848,3.776,3.776,0,0,1,.7,2.449Zm8.844-3.68H30.414a2.992,2.992,0,0,0,.719,2.063,2.478,2.478,0,0,0,1.891.727,3.931,3.931,0,0,0,2.484-.891v1.2a4.643,4.643,0,0,1-2.789.766A3.381,3.381,0,0,1,30.055-.9a4.461,4.461,0,0,1-.969-3.066,4.375,4.375,0,0,1,1.059-3.043,3.394,3.394,0,0,1,2.629-1.176A3.008,3.008,0,0,1,35.2-7.172a4.234,4.234,0,0,1,.859,2.82ZM34.75-4.766a2.607,2.607,0,0,0-.535-1.727,1.823,1.823,0,0,0-1.465-.617,2.07,2.07,0,0,0-1.539.648,2.943,2.943,0,0,0-.781,1.7ZM37.516-.289V-1.664a3.792,3.792,0,0,0,2.3.773q1.688,0,1.688-1.125a.976.976,0,0,0-.145-.543,1.44,1.44,0,0,0-.391-.395,3.007,3.007,0,0,0-.578-.309q-.332-.137-.715-.285a9.207,9.207,0,0,1-.934-.426,2.82,2.82,0,0,1-.672-.484,1.8,1.8,0,0,1-.406-.613,2.17,2.17,0,0,1-.137-.8,1.912,1.912,0,0,1,.258-1,2.286,2.286,0,0,1,.688-.727,3.206,3.206,0,0,1,.98-.441,4.349,4.349,0,0,1,1.137-.148,4.59,4.59,0,0,1,1.859.359v1.3a3.624,3.624,0,0,0-2.031-.578,2.374,2.374,0,0,0-.648.082,1.587,1.587,0,0,0-.5.23,1.065,1.065,0,0,0-.32.355.936.936,0,0,0-.113.457,1.1,1.1,0,0,0,.113.523,1.152,1.152,0,0,0,.332.375,2.538,2.538,0,0,0,.531.3q.312.133.711.289a9.894,9.894,0,0,1,.953.418A3.269,3.269,0,0,1,42.2-3.6a1.893,1.893,0,0,1,.457.621,2,2,0,0,1,.16.836,1.971,1.971,0,0,1-.262,1.031,2.243,2.243,0,0,1-.7.727,3.2,3.2,0,0,1-1.008.43,4.976,4.976,0,0,1-1.2.141A4.539,4.539,0,0,1,37.516-.289Zm13,.289H49.234V-1.25H49.2A2.682,2.682,0,0,1,46.742.188a2.63,2.63,0,0,1-1.871-.633,2.192,2.192,0,0,1-.676-1.68q0-2.242,2.641-2.609l2.4-.336q0-2.039-1.648-2.039a3.938,3.938,0,0,0-2.609.984V-7.437a4.958,4.958,0,0,1,2.719-.75q2.82,0,2.82,2.984ZM49.234-4.047l-1.93.266a3.133,3.133,0,0,0-1.344.441,1.273,1.273,0,0,0-.453,1.121,1.221,1.221,0,0,0,.418.957,1.615,1.615,0,0,0,1.113.371,2.056,2.056,0,0,0,1.574-.668,2.387,2.387,0,0,0,.621-1.691Z" transform="translate(679 3611)" fill="#12263f"/>
    <path id="Trazado_736983" data-name="Trazado 736983" d="M11.4,17V5.8H14.59a3.484,3.484,0,0,1,2.3.711,2.3,2.3,0,0,1,.852,1.852,2.724,2.724,0,0,1-.516,1.656,2.78,2.78,0,0,1-1.422,1v.031a2.85,2.85,0,0,1,1.813.855,2.631,2.631,0,0,1,.68,1.879,2.929,2.929,0,0,1-1.031,2.328,3.838,3.838,0,0,1-2.6.891ZM12.715,6.984V10.6h1.344a2.552,2.552,0,0,0,1.7-.52,1.809,1.809,0,0,0,.617-1.465q0-1.633-2.148-1.633Zm0,4.8v4.031H14.5a2.669,2.669,0,0,0,1.793-.547,1.873,1.873,0,0,0,.637-1.5q0-1.984-2.7-1.984ZM26.129,17H24.848V15.75h-.031a2.682,2.682,0,0,1-2.461,1.438,2.63,2.63,0,0,1-1.871-.633,2.192,2.192,0,0,1-.676-1.68q0-2.242,2.641-2.609l2.4-.336q0-2.039-1.648-2.039a3.938,3.938,0,0,0-2.609.984V9.563a4.958,4.958,0,0,1,2.719-.75q2.82,0,2.82,2.984Zm-1.281-4.047-1.93.266a3.133,3.133,0,0,0-1.344.441,1.273,1.273,0,0,0-.453,1.121,1.221,1.221,0,0,0,.418.957,1.615,1.615,0,0,0,1.113.371,2.056,2.056,0,0,0,1.574-.668,2.387,2.387,0,0,0,.621-1.691ZM35.184,17H33.9V12.438q0-2.547-1.859-2.547a2.017,2.017,0,0,0-1.59.723,2.679,2.679,0,0,0-.629,1.824V17H28.543V9h1.281v1.328h.031A2.887,2.887,0,0,1,32.48,8.813a2.448,2.448,0,0,1,2.008.848,3.776,3.776,0,0,1,.7,2.449Zm7.867-.367a4.163,4.163,0,0,1-2.187.555A3.622,3.622,0,0,1,38.1,16.074a4.035,4.035,0,0,1-1.051-2.887,4.435,4.435,0,0,1,1.133-3.176,3.963,3.963,0,0,1,3.023-1.2,4.209,4.209,0,0,1,1.859.391v1.313a3.258,3.258,0,0,0-1.906-.625,2.576,2.576,0,0,0-2.012.879,3.335,3.335,0,0,0-.785,2.309A3.176,3.176,0,0,0,39.1,15.3a2.545,2.545,0,0,0,1.98.813,3.211,3.211,0,0,0,1.969-.7Zm5.281.555A3.711,3.711,0,0,1,45.5,16.066a4.153,4.153,0,0,1-1.059-2.973,4.326,4.326,0,0,1,1.1-3.148A3.96,3.96,0,0,1,48.52,8.813a3.588,3.588,0,0,1,2.793,1.1,4.368,4.368,0,0,1,1,3.055,4.3,4.3,0,0,1-1.082,3.066A3.791,3.791,0,0,1,48.332,17.188Zm.094-7.3a2.437,2.437,0,0,0-1.953.84,3.449,3.449,0,0,0-.719,2.316,3.262,3.262,0,0,0,.727,2.242,2.469,2.469,0,0,0,1.945.82,2.342,2.342,0,0,0,1.91-.8A3.492,3.492,0,0,0,51,13.016a3.552,3.552,0,0,0-.668-2.312A2.332,2.332,0,0,0,48.426,9.891Z" transform="translate(743 3637)" fill="#12263f"/>
    <path id="Unión_1" data-name="Unión 1" d="M0,192.1H43.957V0H96.475V192.1h43.191L71.166,261Z" transform="translate(482 3525.001)" fill="#80cab6"/>
    <path id="Unión_2" data-name="Unión 2" d="M0,195.4H42.384V0H93.022V195.4h41.645L68.618,265.482Z" transform="translate(970.333 3525.001)" fill="#80cab6"/>
    <path id="Trazado_736980" data-name="Trazado 736980" d="M-88.185,0l-.554-2.32H-92.5L-93.1,0h-4.1l4.342-12.6h4.711L-84.063,0Zm-2.391-9.861h-.088a6.123,6.123,0,0,1-.123.694q-.105.483-1.063,4.148h2.408l-.879-3.428A10.84,10.84,0,0,1-90.576-9.861ZM-77.093,0V-4.913a2.184,2.184,0,0,0-.25-1.2.915.915,0,0,0-.813-.365.88.88,0,0,0-.756.378,1.613,1.613,0,0,0-.272.967V0h-3.744V-9h3.744v1.406h.035a3.177,3.177,0,0,1,1.2-1.2A3.29,3.29,0,0,1-76.3-9.22q2.953,0,2.953,3.727V0Zm10.424,0V-1.371H-66.7A2.944,2.944,0,0,1-69.447.22a2.625,2.625,0,0,1-2-.756,2.808,2.808,0,0,1-.721-2.021q0-2.654,3.261-3.076l2.232-.29a.851.851,0,0,0-.4-.721,1.8,1.8,0,0,0-1.063-.281,7,7,0,0,0-3.19.861V-8.5a8.535,8.535,0,0,1,1.828-.519,10.639,10.639,0,0,1,1.881-.2,4.722,4.722,0,0,1,3.327.98A4.368,4.368,0,0,1-63.25-4.966V0Zm-2.215-3.059a.83.83,0,0,0,.233.606.888.888,0,0,0,.664.237,1.18,1.18,0,0,0,.954-.439,1.7,1.7,0,0,0,.365-1.125v-.343l-1.266.176Q-68.884-3.788-68.884-3.059Zm1.661-7.365h-2.646l2.628-2.821h3.146ZM-61.563,0V-13.324h3.744V0Zm9.51-11.426a1.608,1.608,0,0,1-.576,1.283,2.252,2.252,0,0,1-1.516.492,2.2,2.2,0,0,1-1.5-.51,1.612,1.612,0,0,1-.584-1.266,1.561,1.561,0,0,1,.567-1.252,2.272,2.272,0,0,1,1.516-.479,2.293,2.293,0,0,1,1.516.479A1.551,1.551,0,0,1-52.053-11.426ZM-56.017,0V-9h3.744V0Zm12.858-2.988A2.749,2.749,0,0,1-44.323-.62,5.474,5.474,0,0,1-47.571.22,11.291,11.291,0,0,1-49.069.1a9.257,9.257,0,0,1-1.455-.3V-2.83a7.162,7.162,0,0,0,2.777.738q1.1,0,1.1-.571a.451.451,0,0,0-.255-.391,9.009,9.009,0,0,0-1.336-.514,3.773,3.773,0,0,1-1.74-1A2.382,2.382,0,0,1-50.524-6.2a2.594,2.594,0,0,1,1.112-2.21,5.216,5.216,0,0,1,3.125-.813,9.931,9.931,0,0,1,2.5.343v2.522A7.549,7.549,0,0,0-45-6.75a4.9,4.9,0,0,0-1.107-.158,1.205,1.205,0,0,0-.589.123.379.379,0,0,0-.22.343.478.478,0,0,0,.237.413,4.2,4.2,0,0,0,.949.378,4.4,4.4,0,0,1,1.978,1.037A2.272,2.272,0,0,1-43.159-2.988Zm5.344-8.437a1.608,1.608,0,0,1-.576,1.283,2.252,2.252,0,0,1-1.516.492,2.2,2.2,0,0,1-1.5-.51,1.612,1.612,0,0,1-.584-1.266,1.561,1.561,0,0,1,.567-1.252,2.272,2.272,0,0,1,1.516-.479,2.293,2.293,0,0,1,1.516.479A1.551,1.551,0,0,1-37.815-11.426ZM-41.779,0V-9h3.744V0ZM-28.92-2.988A2.749,2.749,0,0,1-30.085-.62,5.474,5.474,0,0,1-33.333.22,11.291,11.291,0,0,1-34.831.1a9.257,9.257,0,0,1-1.455-.3V-2.83a7.162,7.162,0,0,0,2.777.738q1.1,0,1.1-.571a.451.451,0,0,0-.255-.391A9.009,9.009,0,0,0-34-3.568a3.773,3.773,0,0,1-1.74-1A2.382,2.382,0,0,1-36.286-6.2a2.594,2.594,0,0,1,1.112-2.21,5.216,5.216,0,0,1,3.125-.813,9.931,9.931,0,0,1,2.5.343v2.522a7.549,7.549,0,0,0-1.213-.4,4.9,4.9,0,0,0-1.107-.158,1.205,1.205,0,0,0-.589.123.379.379,0,0,0-.22.343.478.478,0,0,0,.237.413,4.2,4.2,0,0,0,.949.378,4.4,4.4,0,0,1,1.978,1.037A2.272,2.272,0,0,1-28.92-2.988Zm13.8,2.733a3.529,3.529,0,0,1-1.134.343A10.719,10.719,0,0,1-18.04.22a5.488,5.488,0,0,1-2.544-.576A4.2,4.2,0,0,1-22.32-1.969,4.478,4.478,0,0,1-22.935-4.3a5.1,5.1,0,0,1,.655-2.65,4.268,4.268,0,0,1,1.868-1.687A6.407,6.407,0,0,1-17.6-9.22a9.839,9.839,0,0,1,1.578.114,2.411,2.411,0,0,1,.9.264v2.918a2.6,2.6,0,0,0-.809-.387,3.248,3.248,0,0,0-.976-.167,2.375,2.375,0,0,0-1.666.523,1.9,1.9,0,0,0-.567,1.472,1.868,1.868,0,0,0,.558,1.446,2.177,2.177,0,0,0,1.534.514,3.82,3.82,0,0,0,1.925-.5Zm11.5-4.4A4.687,4.687,0,0,1-4.992-1.081,5.375,5.375,0,0,1-8.837.22a5.4,5.4,0,0,1-3.819-1.27,4.546,4.546,0,0,1-1.367-3.5,4.692,4.692,0,0,1,.642-2.487,4.172,4.172,0,0,1,1.828-1.617A6.311,6.311,0,0,1-8.82-9.22a6.113,6.113,0,0,1,2.773.589A4.286,4.286,0,0,1-4.245-7,4.452,4.452,0,0,1-3.617-4.658Zm-3.8.018q0-1.837-1.406-1.837t-1.406,1.925q0,2.03,1.424,2.03Q-7.414-2.522-7.414-4.641ZM9.453,0V-5.186a1.654,1.654,0,0,0-.233-.971.876.876,0,0,0-.76-.321.949.949,0,0,0-.809.391A1.79,1.79,0,0,0,7.361-5V0H3.617V-5.1q0-1.38-.94-1.38a1,1,0,0,0-.861.4,1.933,1.933,0,0,0-.29,1.147V0H-2.219V-9H1.525v1.424H1.56a2.9,2.9,0,0,1,.672-.769,3.946,3.946,0,0,1,1.042-.633A3.235,3.235,0,0,1,4.531-9.22a3.181,3.181,0,0,1,1.613.378,2.931,2.931,0,0,1,1.094,1.2A3.207,3.207,0,0,1,8.5-8.811a3.772,3.772,0,0,1,1.758-.409,2.645,2.645,0,0,1,2.171.923,4.109,4.109,0,0,1,.756,2.663V0ZM25.036-4.772a6.4,6.4,0,0,1-.5,2.61A4.046,4.046,0,0,1,23.12-.4,3.564,3.564,0,0,1,21.063.22a2.755,2.755,0,0,1-2.4-1.151h-.035V4.14H14.884V-9h3.744v1.222h.035a3.171,3.171,0,0,1,1.16-1.059,3.364,3.364,0,0,1,1.617-.382,3.215,3.215,0,0,1,2.667,1.16A5.147,5.147,0,0,1,25.036-4.772Zm-3.8.114a2.346,2.346,0,0,0-.33-1.336,1.144,1.144,0,0,0-1.015-.483,1.141,1.141,0,0,0-.967.51,2.341,2.341,0,0,0-.369,1.4v.176a2.562,2.562,0,0,0,.316,1.362,1.044,1.044,0,0,0,.949.51,1.182,1.182,0,0,0,1.046-.558A2.849,2.849,0,0,0,21.239-4.658ZM31.434,0V-1.371H31.4A2.944,2.944,0,0,1,28.657.22a2.625,2.625,0,0,1-2-.756,2.808,2.808,0,0,1-.721-2.021q0-2.654,3.261-3.076l2.232-.29a.851.851,0,0,0-.4-.721,1.8,1.8,0,0,0-1.063-.281,7,7,0,0,0-3.19.861V-8.5a8.535,8.535,0,0,1,1.828-.519,10.639,10.639,0,0,1,1.881-.2,4.722,4.722,0,0,1,3.327.98,4.368,4.368,0,0,1,1.033,3.274V0ZM29.219-3.059a.83.83,0,0,0,.233.606.888.888,0,0,0,.664.237,1.18,1.18,0,0,0,.954-.439,1.7,1.7,0,0,0,.365-1.125v-.343l-1.266.176Q29.219-3.788,29.219-3.059ZM43.308-5.792a2.91,2.91,0,0,0-.571-.176,2.891,2.891,0,0,0-.6-.079q-1.854,0-1.854,2.145V0H36.541V-9h3.744v1.582h.035a2.81,2.81,0,0,1,.976-1.3,2.506,2.506,0,0,1,1.477-.444,1.269,1.269,0,0,1,.536.105ZM49.381,0V-1.371h-.035A2.944,2.944,0,0,1,46.6.22a2.625,2.625,0,0,1-2-.756,2.808,2.808,0,0,1-.721-2.021q0-2.654,3.261-3.076l2.232-.29a.851.851,0,0,0-.4-.721,1.8,1.8,0,0,0-1.063-.281,7,7,0,0,0-3.19.861V-8.5a8.535,8.535,0,0,1,1.828-.519,10.639,10.639,0,0,1,1.881-.2,4.722,4.722,0,0,1,3.327.98A4.368,4.368,0,0,1,52.8-4.966V0ZM47.167-3.059a.83.83,0,0,0,.233.606.888.888,0,0,0,.664.237,1.18,1.18,0,0,0,.954-.439,1.7,1.7,0,0,0,.365-1.125v-.343l-1.266.176Q47.167-3.788,47.167-3.059ZM60.825-.123A3.648,3.648,0,0,1,59.99.11a7.634,7.634,0,0,1-1.4.11,3.357,3.357,0,0,1-2.448-.861,3.269,3.269,0,0,1-.883-2.452V-6.407H53.846V-9h1.415v-1.767l3.691-1.02V-9h1.872v2.593H58.953v2.7q0,1.187.94,1.187a2.551,2.551,0,0,0,.932-.193Zm5.133-11.3a1.608,1.608,0,0,1-.576,1.283,2.252,2.252,0,0,1-1.516.492,2.2,2.2,0,0,1-1.5-.51,1.612,1.612,0,0,1-.584-1.266,1.561,1.561,0,0,1,.567-1.252,2.272,2.272,0,0,1,1.516-.479,2.293,2.293,0,0,1,1.516.479A1.551,1.551,0,0,1,65.958-11.426ZM61.994,0V-9h3.744V0ZM74.1,0H69.649L66.643-9h3.9l1.1,4.913a11.366,11.366,0,0,1,.29,1.784h.053q.018-.176.048-.36T73.34-9h3.885ZM88.132-4.658a4.687,4.687,0,0,1-1.375,3.577A5.375,5.375,0,0,1,82.912.22a5.4,5.4,0,0,1-3.819-1.27,4.546,4.546,0,0,1-1.367-3.5,4.692,4.692,0,0,1,.642-2.487A4.172,4.172,0,0,1,80.2-8.657a6.311,6.311,0,0,1,2.733-.562,6.113,6.113,0,0,1,2.773.589A4.286,4.286,0,0,1,87.5-7,4.452,4.452,0,0,1,88.132-4.658Zm-3.8.018q0-1.837-1.406-1.837T81.523-4.553q0,2.03,1.424,2.03Q84.335-2.522,84.335-4.641ZM96.842-2.988A2.749,2.749,0,0,1,95.678-.62,5.474,5.474,0,0,1,92.43.22,11.291,11.291,0,0,1,90.932.1a9.257,9.257,0,0,1-1.455-.3V-2.83a7.162,7.162,0,0,0,2.777.738q1.1,0,1.1-.571a.451.451,0,0,0-.255-.391,9.009,9.009,0,0,0-1.336-.514,3.773,3.773,0,0,1-1.74-1A2.382,2.382,0,0,1,89.477-6.2a2.594,2.594,0,0,1,1.112-2.21,5.216,5.216,0,0,1,3.125-.813,9.931,9.931,0,0,1,2.5.343v2.522A7.549,7.549,0,0,0,95-6.75a4.9,4.9,0,0,0-1.107-.158,1.205,1.205,0,0,0-.589.123.379.379,0,0,0-.22.343.478.478,0,0,0,.237.413,4.2,4.2,0,0,0,.949.378,4.4,4.4,0,0,1,1.978,1.037A2.272,2.272,0,0,1,96.842-2.988Z" transform="translate(558 3656) rotate(-90)" fill="#12263f"/>
    <path id="Trazado_736986" data-name="Trazado 736986" d="M-100.191-.343A10.653,10.653,0,0,1-103.8.22a7.351,7.351,0,0,1-3.472-.769A5.265,5.265,0,0,1-109.5-2.738a6.765,6.765,0,0,1-.769-3.274,7.207,7.207,0,0,1,.861-3.551,5.957,5.957,0,0,1,2.435-2.4,7.512,7.512,0,0,1,3.621-.848,12.586,12.586,0,0,1,3.164.4v3.507a4.465,4.465,0,0,0-1.257-.492,6.282,6.282,0,0,0-1.477-.176,3.305,3.305,0,0,0-2.439.888,3.245,3.245,0,0,0-.892,2.408,3.189,3.189,0,0,0,.892,2.386,3.261,3.261,0,0,0,2.386.875,6.191,6.191,0,0,0,2.786-.7Zm8.385-5.449a2.91,2.91,0,0,0-.571-.176,2.891,2.891,0,0,0-.6-.079q-1.854,0-1.854,2.145V0h-3.744V-9h3.744v1.582h.035a2.81,2.81,0,0,1,.976-1.3,2.506,2.506,0,0,1,1.477-.444,1.269,1.269,0,0,1,.536.105Zm5.045-5.634a1.608,1.608,0,0,1-.576,1.283,2.252,2.252,0,0,1-1.516.492,2.2,2.2,0,0,1-1.5-.51,1.612,1.612,0,0,1-.584-1.266,1.561,1.561,0,0,1,.567-1.252,2.272,2.272,0,0,1,1.516-.479,2.293,2.293,0,0,1,1.516.479A1.551,1.551,0,0,1-86.761-11.426ZM-90.725,0V-9h3.744V0Zm11.883-.123a3.648,3.648,0,0,1-.835.233,7.634,7.634,0,0,1-1.4.11,3.357,3.357,0,0,1-2.448-.861,3.269,3.269,0,0,1-.883-2.452V-6.407h-1.415V-9h1.415v-1.767l3.691-1.02V-9h1.872v2.593h-1.872v2.7q0,1.187.94,1.187a2.551,2.551,0,0,0,.932-.193Zm4.395-3.313a1.265,1.265,0,0,0,.668.91,3.012,3.012,0,0,0,1.512.33,6.226,6.226,0,0,0,2.479-.5V-.325a8.908,8.908,0,0,1-3.3.545,5.214,5.214,0,0,1-3.665-1.2A4.277,4.277,0,0,1-78.069-4.3a5.467,5.467,0,0,1,.576-2.558,4.142,4.142,0,0,1,1.705-1.736A5.038,5.038,0,0,1-73.3-9.22a4.9,4.9,0,0,1,2.391.545A3.63,3.63,0,0,1-69.4-7.146a4.906,4.906,0,0,1,.514,2.3v1.406ZM-72.2-5.4q0-1.556-1.116-1.556a.944.944,0,0,0-.782.426A2.127,2.127,0,0,0-74.465-5.4Zm11.373-.4a2.91,2.91,0,0,0-.571-.176,2.891,2.891,0,0,0-.6-.079q-1.854,0-1.854,2.145V0h-3.744V-9h3.744v1.582h.035a2.81,2.81,0,0,1,.976-1.3,2.506,2.506,0,0,1,1.477-.444,1.269,1.269,0,0,1,.536.105Zm5.045-5.634a1.608,1.608,0,0,1-.576,1.283,2.252,2.252,0,0,1-1.516.492,2.2,2.2,0,0,1-1.5-.51,1.612,1.612,0,0,1-.584-1.266,1.561,1.561,0,0,1,.567-1.252,2.272,2.272,0,0,1,1.516-.479,2.293,2.293,0,0,1,1.516.479A1.551,1.551,0,0,1-55.78-11.426ZM-59.744,0V-9H-56V0Zm15.557-4.658a4.687,4.687,0,0,1-1.375,3.577A5.375,5.375,0,0,1-49.408.22a5.4,5.4,0,0,1-3.819-1.27,4.546,4.546,0,0,1-1.367-3.5,4.692,4.692,0,0,1,.642-2.487,4.172,4.172,0,0,1,1.828-1.617A6.311,6.311,0,0,1-49.39-9.22a6.113,6.113,0,0,1,2.773.589A4.286,4.286,0,0,1-44.815-7,4.452,4.452,0,0,1-44.187-4.658Zm-3.8.018q0-1.837-1.406-1.837T-50.8-4.553q0,2.03,1.424,2.03Q-47.984-2.522-47.984-4.641Zm12.507,1.652A2.749,2.749,0,0,1-36.642-.62,5.474,5.474,0,0,1-39.889.22,11.291,11.291,0,0,1-41.388.1a9.257,9.257,0,0,1-1.455-.3V-2.83a7.162,7.162,0,0,0,2.777.738q1.1,0,1.1-.571a.451.451,0,0,0-.255-.391,9.009,9.009,0,0,0-1.336-.514,3.773,3.773,0,0,1-1.74-1A2.382,2.382,0,0,1-42.842-6.2a2.594,2.594,0,0,1,1.112-2.21,5.216,5.216,0,0,1,3.125-.813,9.931,9.931,0,0,1,2.5.343v2.522a7.549,7.549,0,0,0-1.213-.4,4.9,4.9,0,0,0-1.107-.158,1.205,1.205,0,0,0-.589.123.379.379,0,0,0-.22.343A.478.478,0,0,0-39-6.029a4.2,4.2,0,0,0,.949.378,4.4,4.4,0,0,1,1.978,1.037A2.272,2.272,0,0,1-35.477-2.988ZM-23.084,0V-1.046h-.035a3.089,3.089,0,0,1-1.169.927A3.331,3.331,0,0,1-25.712.22a3.663,3.663,0,0,1-2.03-.567,3.443,3.443,0,0,1-1.314-1.586,6.106,6.106,0,0,1-.435-2.408,5.925,5.925,0,0,1,.519-2.54A4.059,4.059,0,0,1-27.514-8.6,3.769,3.769,0,0,1-25.4-9.22a3.193,3.193,0,0,1,1.024.158,2.77,2.77,0,0,1,.817.426,1.273,1.273,0,0,1,.444.532h.035v-5.221h3.744V0Zm.079-4.772a1.974,1.974,0,0,0-.356-1.257,1.164,1.164,0,0,0-.962-.448,1.155,1.155,0,0,0-.989.558,2.593,2.593,0,0,0-.382,1.49q0,1.907,1.318,1.907a1.173,1.173,0,0,0,1-.514,2.531,2.531,0,0,0,.374-1.5Zm8.692,1.336a1.265,1.265,0,0,0,.668.91,3.012,3.012,0,0,0,1.512.33,6.226,6.226,0,0,0,2.479-.5V-.325a8.908,8.908,0,0,1-3.3.545,5.214,5.214,0,0,1-3.665-1.2A4.277,4.277,0,0,1-17.934-4.3a5.467,5.467,0,0,1,.576-2.558,4.142,4.142,0,0,1,1.705-1.736,5.038,5.038,0,0,1,2.492-.628,4.9,4.9,0,0,1,2.391.545A3.63,3.63,0,0,1-9.264-7.146a4.906,4.906,0,0,1,.514,2.3v1.406Zm2.25-1.96q0-1.556-1.116-1.556a.944.944,0,0,0-.782.426A2.127,2.127,0,0,0-14.331-5.4ZM4.961-.255A3.529,3.529,0,0,1,3.828.088,10.719,10.719,0,0,1,2.043.22,5.488,5.488,0,0,1-.5-.356,4.2,4.2,0,0,1-2.237-1.969,4.478,4.478,0,0,1-2.852-4.3,5.1,5.1,0,0,1-2.2-6.948,4.268,4.268,0,0,1-.33-8.635,6.407,6.407,0,0,1,2.483-9.22a9.839,9.839,0,0,1,1.578.114,2.411,2.411,0,0,1,.9.264v2.918a2.6,2.6,0,0,0-.809-.387,3.248,3.248,0,0,0-.976-.167,2.375,2.375,0,0,0-1.666.523A1.9,1.9,0,0,0,.945-4.482,1.868,1.868,0,0,0,1.5-3.037a2.177,2.177,0,0,0,1.534.514,3.82,3.82,0,0,0,1.925-.5Zm11.5-4.4a4.687,4.687,0,0,1-1.375,3.577A5.375,5.375,0,0,1,11.246.22,5.4,5.4,0,0,1,7.427-1.05a4.546,4.546,0,0,1-1.367-3.5A4.692,4.692,0,0,1,6.7-7.04,4.172,4.172,0,0,1,8.53-8.657a6.311,6.311,0,0,1,2.733-.562,6.113,6.113,0,0,1,2.773.589A4.286,4.286,0,0,1,15.838-7,4.452,4.452,0,0,1,16.466-4.658Zm-3.8.018q0-1.837-1.406-1.837T9.857-4.553q0,2.03,1.424,2.03Q12.669-2.522,12.669-4.641ZM29.536,0V-5.186a1.654,1.654,0,0,0-.233-.971.876.876,0,0,0-.76-.321.949.949,0,0,0-.809.391A1.79,1.79,0,0,0,27.444-5V0H23.7V-5.1q0-1.38-.94-1.38a1,1,0,0,0-.861.4,1.933,1.933,0,0,0-.29,1.147V0H17.864V-9h3.744v1.424h.035a2.9,2.9,0,0,1,.672-.769,3.946,3.946,0,0,1,1.042-.633,3.235,3.235,0,0,1,1.257-.242,3.181,3.181,0,0,1,1.613.378,2.931,2.931,0,0,1,1.094,1.2,3.207,3.207,0,0,1,1.266-1.165,3.772,3.772,0,0,1,1.758-.409,2.645,2.645,0,0,1,2.171.923,4.109,4.109,0,0,1,.756,2.663V0ZM45.119-4.772a6.4,6.4,0,0,1-.5,2.61A4.046,4.046,0,0,1,43.2-.4,3.564,3.564,0,0,1,41.146.22a2.755,2.755,0,0,1-2.4-1.151h-.035V4.14H34.967V-9h3.744v1.222h.035a3.171,3.171,0,0,1,1.16-1.059,3.364,3.364,0,0,1,1.617-.382,3.215,3.215,0,0,1,2.667,1.16A5.147,5.147,0,0,1,45.119-4.772Zm-3.8.114a2.346,2.346,0,0,0-.33-1.336,1.144,1.144,0,0,0-1.015-.483,1.141,1.141,0,0,0-.967.51,2.341,2.341,0,0,0-.369,1.4v.176a2.562,2.562,0,0,0,.316,1.362,1.044,1.044,0,0,0,.949.51,1.182,1.182,0,0,0,1.046-.558A2.849,2.849,0,0,0,41.322-4.658ZM51.517,0V-1.371h-.035A2.944,2.944,0,0,1,48.74.22a2.625,2.625,0,0,1-2-.756,2.808,2.808,0,0,1-.721-2.021q0-2.654,3.261-3.076l2.232-.29a.851.851,0,0,0-.4-.721,1.8,1.8,0,0,0-1.063-.281,7,7,0,0,0-3.19.861V-8.5A8.535,8.535,0,0,1,48.7-9.018a10.639,10.639,0,0,1,1.881-.2,4.722,4.722,0,0,1,3.327.98,4.368,4.368,0,0,1,1.033,3.274V0ZM49.3-3.059a.83.83,0,0,0,.233.606.888.888,0,0,0,.664.237,1.18,1.18,0,0,0,.954-.439,1.7,1.7,0,0,0,.365-1.125v-.343l-1.266.176Q49.3-3.788,49.3-3.059ZM63.391-5.792a2.91,2.91,0,0,0-.571-.176,2.891,2.891,0,0,0-.6-.079q-1.854,0-1.854,2.145V0H56.624V-9h3.744v1.582H60.4a2.81,2.81,0,0,1,.976-1.3,2.506,2.506,0,0,1,1.477-.444,1.269,1.269,0,0,1,.536.105ZM69.464,0V-1.371h-.035A2.944,2.944,0,0,1,66.687.22a2.625,2.625,0,0,1-2-.756,2.808,2.808,0,0,1-.721-2.021q0-2.654,3.261-3.076l2.232-.29a.851.851,0,0,0-.4-.721,1.8,1.8,0,0,0-1.063-.281,7,7,0,0,0-3.19.861V-8.5a8.535,8.535,0,0,1,1.828-.519,10.639,10.639,0,0,1,1.881-.2,4.722,4.722,0,0,1,3.327.98,4.368,4.368,0,0,1,1.033,3.274V0ZM67.25-3.059a.83.83,0,0,0,.233.606.888.888,0,0,0,.664.237,1.18,1.18,0,0,0,.954-.439,1.7,1.7,0,0,0,.365-1.125v-.343L68.2-3.946Q67.25-3.788,67.25-3.059Zm14.739,2.8a3.529,3.529,0,0,1-1.134.343A10.719,10.719,0,0,1,79.071.22a5.488,5.488,0,0,1-2.544-.576,4.2,4.2,0,0,1-1.736-1.613A4.478,4.478,0,0,1,74.175-4.3a5.1,5.1,0,0,1,.655-2.65A4.268,4.268,0,0,1,76.7-8.635,6.407,6.407,0,0,1,79.51-9.22a9.839,9.839,0,0,1,1.578.114,2.411,2.411,0,0,1,.9.264v2.918a2.6,2.6,0,0,0-.809-.387,3.248,3.248,0,0,0-.976-.167,2.375,2.375,0,0,0-1.666.523,1.9,1.9,0,0,0-.567,1.472,1.868,1.868,0,0,0,.558,1.446,2.177,2.177,0,0,0,1.534.514,3.82,3.82,0,0,0,1.925-.5Zm5.458-11.171a1.608,1.608,0,0,1-.576,1.283,2.252,2.252,0,0,1-1.516.492,2.2,2.2,0,0,1-1.5-.51,1.612,1.612,0,0,1-.584-1.266,1.561,1.561,0,0,1,.567-1.252,2.272,2.272,0,0,1,1.516-.479,2.293,2.293,0,0,1,1.516.479A1.551,1.551,0,0,1,87.447-11.426ZM83.483,0V-9h3.744V0ZM99.04-4.658a4.687,4.687,0,0,1-1.375,3.577A5.375,5.375,0,0,1,93.819.22,5.4,5.4,0,0,1,90-1.05a4.546,4.546,0,0,1-1.367-3.5,4.692,4.692,0,0,1,.642-2.487A4.172,4.172,0,0,1,91.1-8.657a6.311,6.311,0,0,1,2.733-.562,6.113,6.113,0,0,1,2.773.589A4.286,4.286,0,0,1,98.411-7,4.452,4.452,0,0,1,99.04-4.658Zm-3.8.018q0-1.837-1.406-1.837T92.43-4.553q0,2.03,1.424,2.03Q95.243-2.522,95.243-4.641Zm-.94-5.783H91.657l2.628-2.821h3.146ZM106.273,0V-4.913a2.184,2.184,0,0,0-.25-1.2.915.915,0,0,0-.813-.365.88.88,0,0,0-.756.378,1.613,1.613,0,0,0-.272.967V0h-3.744V-9h3.744v1.406h.035a3.177,3.177,0,0,1,1.2-1.2,3.29,3.29,0,0,1,1.644-.426q2.953,0,2.953,3.727V0Z" transform="translate(1044.333 3661) rotate(-90)" fill="#12263f"/>
    <g transform="matrix(1, 0, 0, 1, 482, 3519)" filter="url(#Rectángulo_342448)">
      <rect id="Rectángulo_342448-2" data-name="Rectángulo 342448" width="105" height="60" transform="translate(308 158)" fill="#a7bce6"/>
    </g>
    <path id="Trazado_736984" data-name="Trazado 736984" d="M10.141,0H8.688L7.5-3.141H2.75L1.633,0H.172l4.3-11.2H5.828ZM7.07-4.32,5.313-9.094a4.571,4.571,0,0,1-.172-.75H5.109a4.185,4.185,0,0,1-.18.75L3.188-4.32ZM15.789-6.7a1.567,1.567,0,0,0-.969-.258,1.635,1.635,0,0,0-1.371.773A3.576,3.576,0,0,0,12.9-4.078V0H11.617V-8H12.9v1.648h.031a2.793,2.793,0,0,1,.836-1.316,1.906,1.906,0,0,1,1.258-.473,2.092,2.092,0,0,1,.766.109Zm2.7,5.547h-.031V0H17.18V-11.844h1.281v5.25h.031a3.03,3.03,0,0,1,2.766-1.594,2.932,2.932,0,0,1,2.41,1.074,4.436,4.436,0,0,1,.871,2.879,4.959,4.959,0,0,1-.977,3.215A3.251,3.251,0,0,1,20.891.188,2.631,2.631,0,0,1,18.492-1.156Zm-.031-3.227v1.117a2.379,2.379,0,0,0,.645,1.684,2.14,2.14,0,0,0,1.637.691,2.145,2.145,0,0,0,1.824-.891,4.086,4.086,0,0,0,.66-2.477,3.225,3.225,0,0,0-.617-2.094,2.043,2.043,0,0,0-1.672-.758,2.27,2.27,0,0,0-1.8.777A2.854,2.854,0,0,0,18.461-4.383ZM29.93.188A3.711,3.711,0,0,1,27.1-.934a4.153,4.153,0,0,1-1.059-2.973,4.326,4.326,0,0,1,1.1-3.148,3.96,3.96,0,0,1,2.977-1.133,3.588,3.588,0,0,1,2.793,1.1,4.368,4.368,0,0,1,1,3.055A4.3,4.3,0,0,1,32.832-.965,3.791,3.791,0,0,1,29.93.188Zm.094-7.3a2.437,2.437,0,0,0-1.953.84,3.449,3.449,0,0,0-.719,2.316,3.262,3.262,0,0,0,.727,2.242,2.469,2.469,0,0,0,1.945.82,2.342,2.342,0,0,0,1.91-.8A3.492,3.492,0,0,0,32.6-3.984,3.552,3.552,0,0,0,31.934-6.3,2.332,2.332,0,0,0,30.023-7.109ZM37.242,0H35.961V-11.844h1.281Zm9.023-3.68H40.617a2.992,2.992,0,0,0,.719,2.063,2.478,2.478,0,0,0,1.891.727,3.931,3.931,0,0,0,2.484-.891v1.2a4.643,4.643,0,0,1-2.789.766A3.381,3.381,0,0,1,40.258-.9a4.461,4.461,0,0,1-.969-3.066,4.375,4.375,0,0,1,1.059-3.043,3.394,3.394,0,0,1,2.629-1.176,3.008,3.008,0,0,1,2.43,1.016,4.234,4.234,0,0,1,.859,2.82ZM44.953-4.766a2.607,2.607,0,0,0-.535-1.727,1.823,1.823,0,0,0-1.465-.617,2.07,2.07,0,0,0-1.539.648,2.943,2.943,0,0,0-.781,1.7ZM55.031,0H53.75V-1.359h-.031A2.958,2.958,0,0,1,50.969.188a2.988,2.988,0,0,1-2.41-1.074,4.407,4.407,0,0,1-.9-2.926,4.794,4.794,0,0,1,1-3.18,3.3,3.3,0,0,1,2.664-1.2,2.564,2.564,0,0,1,2.4,1.3h.031v-4.953h1.281ZM53.75-3.617V-4.8a2.289,2.289,0,0,0-.641-1.641,2.149,2.149,0,0,0-1.625-.672,2.212,2.212,0,0,0-1.844.859,3.766,3.766,0,0,0-.672,2.375,3.387,3.387,0,0,0,.645,2.184,2.107,2.107,0,0,0,1.73.8,2.188,2.188,0,0,0,1.738-.773A2.882,2.882,0,0,0,53.75-3.617ZM63.352,0H62.07V-1.25h-.031A2.682,2.682,0,0,1,59.578.188a2.63,2.63,0,0,1-1.871-.633,2.192,2.192,0,0,1-.676-1.68q0-2.242,2.641-2.609l2.4-.336q0-2.039-1.648-2.039a3.938,3.938,0,0,0-2.609.984V-7.437a4.958,4.958,0,0,1,2.719-.75q2.82,0,2.82,2.984ZM62.07-4.047l-1.93.266A3.133,3.133,0,0,0,58.8-3.34a1.273,1.273,0,0,0-.453,1.121,1.221,1.221,0,0,0,.418.957,1.615,1.615,0,0,0,1.113.371,2.056,2.056,0,0,0,1.574-.668A2.387,2.387,0,0,0,62.07-3.25Z" transform="translate(811 3713)" fill="#12263f"/>
    <g transform="matrix(1, 0, 0, 1, 482, 3519)" filter="url(#Rectángulo_342449)">
      <rect id="Rectángulo_342449-2" data-name="Rectángulo 342449" width="105" height="60" transform="translate(378 207)" fill="#dee4f0"/>
    </g>
    <path id="Trazado_736985" data-name="Trazado 736985" d="M10.141,0H8.688L7.5-3.141H2.75L1.633,0H.172l4.3-11.2H5.828ZM7.07-4.32,5.313-9.094a4.571,4.571,0,0,1-.172-.75H5.109a4.185,4.185,0,0,1-.18.75L3.188-4.32ZM18.445,0H17.164V-1.359h-.031A2.958,2.958,0,0,1,14.383.188a2.988,2.988,0,0,1-2.41-1.074,4.407,4.407,0,0,1-.9-2.926,4.794,4.794,0,0,1,1-3.18,3.3,3.3,0,0,1,2.664-1.2,2.564,2.564,0,0,1,2.4,1.3h.031v-4.953h1.281ZM17.164-3.617V-4.8a2.289,2.289,0,0,0-.641-1.641A2.149,2.149,0,0,0,14.9-7.109a2.212,2.212,0,0,0-1.844.859,3.766,3.766,0,0,0-.672,2.375,3.387,3.387,0,0,0,.645,2.184,2.107,2.107,0,0,0,1.73.8A2.188,2.188,0,0,0,16.5-1.664,2.882,2.882,0,0,0,17.164-3.617ZM29.633,0H28.32V-5.109h-5.8V0H21.211V-11.2h1.313v4.914h5.8V-11.2h1.313Zm6.109.188A3.711,3.711,0,0,1,32.91-.934a4.153,4.153,0,0,1-1.059-2.973,4.326,4.326,0,0,1,1.1-3.148A3.96,3.96,0,0,1,35.93-8.187a3.588,3.588,0,0,1,2.793,1.1,4.368,4.368,0,0,1,1,3.055A4.3,4.3,0,0,1,38.645-.965,3.791,3.791,0,0,1,35.742.188Zm.094-7.3a2.437,2.437,0,0,0-1.953.84,3.449,3.449,0,0,0-.719,2.316,3.262,3.262,0,0,0,.727,2.242,2.469,2.469,0,0,0,1.945.82,2.342,2.342,0,0,0,1.91-.8,3.492,3.492,0,0,0,.668-2.289A3.552,3.552,0,0,0,37.746-6.3,2.332,2.332,0,0,0,35.836-7.109ZM47.227-.367a4.163,4.163,0,0,1-2.187.555A3.622,3.622,0,0,1,42.277-.926a4.035,4.035,0,0,1-1.051-2.887,4.435,4.435,0,0,1,1.133-3.176,3.963,3.963,0,0,1,3.023-1.2,4.209,4.209,0,0,1,1.859.391v1.313a3.258,3.258,0,0,0-1.906-.625,2.576,2.576,0,0,0-2.012.879,3.335,3.335,0,0,0-.785,2.309A3.176,3.176,0,0,0,43.277-1.7a2.545,2.545,0,0,0,1.98.813,3.211,3.211,0,0,0,1.969-.7Z" transform="translate(889 3762)" fill="#12263f"/>
  </g>
</svg>
