<svg xmlns="http://www.w3.org/2000/svg" xmlns:xlink="http://www.w3.org/1999/xlink" width="124.276" height="124.275" viewBox="0 0 124.276 124.275">
  <defs>
    <clipPath id="clip-path">
      <path id="path4029" d="M0-682.665H124.276v124.276H0Z" transform="translate(0 682.665)"/>
    </clipPath>
  </defs>
  <g id="g4023" transform="translate(0 682.665)">
    <g id="g4025" transform="translate(0 -682.665)">
      <g id="g4027" clip-path="url(#clip-path)">
        <g id="g4033" transform="translate(12 32.04)">
          <path id="path4035" d="M-361.122-181.04a40.239,40.239,0,0,1-40.186,40.292,40.239,40.239,0,0,1-40.186-40.292,40.239,40.239,0,0,1,40.186-40.292,40.239,40.239,0,0,1,40.186,40.292" transform="translate(441.494 221.333)" fill="#97c9e8"/>
        </g>
        <g id="g4037" transform="translate(46.118 32.04)">
          <path id="path4039" d="M-27.265,0a40.4,40.4,0,0,0-6.068.457A40.269,40.269,0,0,1,.784,40.292,40.269,40.269,0,0,1-33.333,80.128a40.4,40.4,0,0,0,6.068.457A40.239,40.239,0,0,0,12.921,40.292,40.239,40.239,0,0,0-27.265,0" transform="translate(33.333 0)" fill="#60b6ff"/>
        </g>
        <g id="g4041" transform="translate(38.417 32.121)">
          <path id="path4043" d="M-38.4-69.995c-6.19,3.879-10.833,10.086-7.351,17.069s11.22,4.267,18.378,3.3,1.741,21.142,6,26.573,16.25-5.431,15.089-12.414C-8-45.808-8.6-49.435,5.324-56.805l.038-.014A40.23,40.23,0,0,0-30.656-85.573l0,.061S-32.205-73.874-38.4-69.995" transform="translate(46.941 85.573)" fill="#baeb6c"/>
        </g>
        <g id="g4045" transform="translate(54.703 32.121)">
          <path id="path4047" d="M0,0Z" fill="#baeb6c"/>
        </g>
        <g id="g4049" transform="translate(77.364 40.931)">
          <path id="path4051" d="M0,0,.008.006,0,0" fill="#baeb6c"/>
        </g>
        <g id="g4053" transform="translate(82.278 45.631)">
          <path id="path4055" d="M0,0,0,0,0,0" fill="#baeb6c"/>
        </g>
        <g id="g4057" transform="translate(12 58.292)">
          <path id="path4059" d="M-60.61-145.007c-1.859-2.836,3.289-9.5,4.449-14.547s-5.8-4.655-7.932-6.4-5.03-9.31-7.157-11.056l-.341-.268a40.3,40.3,0,0,0-2.509,14.04,40.266,40.266,0,0,0,16.378,32.461l.013-.844a18.549,18.549,0,0,0-2.9-13.384" transform="translate(74.1 177.28)" fill="#baeb6c"/>
        </g>
        <g id="g4061" transform="translate(75.712 82.074)">
          <path id="path4063" d="M-15.114-.677l-.025-.151a40.082,40.082,0,0,1-3.338,8.844c2.286-2.7,3.814-5.987,3.364-8.693" transform="translate(18.477 0.828)" fill="#baeb6c"/>
        </g>
        <g id="g4065" transform="translate(54.239 32.121)">
          <path id="path4067" d="M-2.084,0l0,.061s-.129.971-.462,2.445a40.308,40.308,0,0,1,25.829,34c1.776-2.428,5.024-4.784,10.615-7.742l.038-.014A40.23,40.23,0,0,0-2.084,0" transform="translate(2.548)" fill="#96d629"/>
        </g>
        <g id="g4069" transform="translate(9.591 1.896)">
          <path id="path4071" d="M-141.483-197.574c-19.433-3.3-31.489-27.764-31.489-27.764s19.452-19.122,38.885-15.826S-102.6-213.4-102.6-213.4s-19.452,19.122-38.885,15.826" transform="translate(172.972 241.546)" fill="#49cb5c"/>
        </g>
        <g id="g4073" transform="translate(37.479 1.896)">
          <path id="path4075" d="M-49.413-1.714a30.164,30.164,0,0,0-11,.276C-41.79,2.744-30.3,26.05-30.3,26.05S-43.037,38.566-58.191,41.6c.457.1.916.2,1.381.276,19.433,3.3,38.885-15.825,38.885-15.825S-29.98,1.583-49.413-1.714" transform="translate(60.411 2.095)" fill="#07b128"/>
        </g>
        <g id="g4077" transform="translate(91.633 5.629)">
          <path id="path4079" d="M-6.963-74.088C-1.75-86.424,16.313-90.577,16.313-90.577s9.611,15.847,4.4,28.183S-2.565-45.905-2.565-45.905s-9.611-15.847-4.4-28.183" transform="translate(8.513 90.577)" fill="#49cb5c"/>
        </g>
        <g id="g4081" transform="translate(95.871 5.629)">
          <path id="path4083" d="M-92.5,0a48.3,48.3,0,0,0-8.971,3.271c2.495,5.285,6.449,16.011,2.688,24.911-2.727,6.453-8.97,10.666-14.305,13.218.963,2.041,1.709,3.271,1.709,3.271s18.063-4.153,23.276-16.489S-92.5,0-92.5,0" transform="translate(113.09)" fill="#07b128"/>
        </g>
        <g id="g4085" transform="translate(0.044 0.01)">
          <path id="path4087" d="M-397.713-271.186c-6.563,3.5-9.777,6.243-11.3,9.593-1.637,3.6-1.037,7.459-.206,12.8.49,3.151-3.255,9.019-8.163,11.121-1.815.777-3.109.685-3.845-.274-1.446-1.883-1.407-7.58-1.376-12.158.043-6.334.081-11.8-2.532-14.128a4.292,4.292,0,0,0-3.478-1.025c-1.145.142-2.306.327-3.428.506-6.691,1.068-10.9,1.494-13.085-2.991-3.534-7.265,3.62-12.645,6.861-14.621a11.611,11.611,0,0,0,1.841-1.4c7.831-.935,15.231-4.3,21.825-8.5a38.639,38.639,0,0,1,16.887,21.08m-49.4-35.55,15.1,2.943-19.378,14.2a37.684,37.684,0,0,1-9.821-6.811Zm1.133-3.488-10.709-14.607a40.95,40.95,0,0,1,10.175-2.816l14.815,20.206Zm-14.1-13.074,8.833,12.048-21.248-4.142a71.664,71.664,0,0,1,12.416-7.906m-3.729,24.288a70.863,70.863,0,0,1-9.281-12.788l21.112,4.115Zm18.414,11.391c-.644-.126-1.278-.28-1.9-.455l20.149-14.77,16.589,3.234c-6.043,4.761-20.751,14.75-34.834,11.991m65.644,1.037a48.479,48.479,0,0,1-5.571,2.358l5.484-13.112,13.961-5.761a17.62,17.62,0,0,1-1.217,4.6c-2.467,5.837-8.244,9.7-12.657,11.914m-11.663-22.19a17.287,17.287,0,0,1,2.033-3.534l5.89,14.271-5.286,12.637a48.607,48.607,0,0,1-2.359-5.995c-1.488-4.707-2.744-11.543-.278-17.379m21.766-12.924a48.588,48.588,0,0,1,2.277,5.821,34.744,34.744,0,0,1,1.649,8.776l-12.124,5Zm-11.861,18.921-5.174-12.537a34.076,34.076,0,0,1,7.926-5.375A48.553,48.553,0,0,1-373-323.11ZM-469.587-267c1.355,2.569,2.635,5,3.967,6.109a10.431,10.431,0,0,0,3.644,1.619c3.558,1.094,3.972,1.63,3.631,3.038a31.81,31.81,0,0,1-2.406,5.794c-1.88,3.846-3.656,7.479-1.973,10.1a17.318,17.318,0,0,1,2.755,9.66,38.8,38.8,0,0,1-11.22-39.257c.535.917,1.1,1.984,1.6,2.937m105.662-50.057a50.058,50.058,0,0,0-4.332-9.858,1.857,1.857,0,0,0-1.964-.83,50.063,50.063,0,0,0-10.089,3.764c-7.155,3.573-12.154,8.341-14.456,13.79-1.917,4.536-2.192,10.084-.832,16.212a51.641,51.641,0,0,0-9.706-8.448,75.259,75.259,0,0,0-8.436-12.931,1.821,1.821,0,0,0-2.825,2.3,72.793,72.793,0,0,1,6.717,9.88l-16.582-3.232-15.757-21.491a25.791,25.791,0,0,1,4.593.469,31.441,31.441,0,0,1,14.221,7.329,1.822,1.822,0,0,0,2.362-2.771,35.016,35.016,0,0,0-15.883-8.132c-8.341-1.633-18.07.51-28.136,6.2a72.684,72.684,0,0,0-12.73,9.093,1.927,1.927,0,0,0-.216,2.5,74.315,74.315,0,0,0,8.165,12.817,56.911,56.911,0,0,0,8.606,8.846q-1.272,1.065-2.472,2.235a41.972,41.972,0,0,0-9.676,14.475,42.052,42.052,0,0,0-2.972,15.141,41.828,41.828,0,0,0,7.225,24.043,42.026,42.026,0,0,0,19.039,15.42,1.822,1.822,0,0,0,1.369-3.374,38.417,38.417,0,0,1-7.875-4.331,20.508,20.508,0,0,0-3.091-14.359c-.577-.9,1.149-4.428,2.179-6.537a34.182,34.182,0,0,0,2.673-6.535,4.981,4.981,0,0,0-1.771-5.457,13.423,13.423,0,0,0-4.328-1.918,9.266,9.266,0,0,1-2.378-.931c-.781-.654-2.057-3.072-3.083-5.015a31.118,31.118,0,0,0-3.326-5.469A38.72,38.72,0,0,1-458.2-289.311a31.833,31.833,0,0,0,15.34,5.7c-6.434,4.985-8.515,11.351-5.54,17.467,3.473,7.14,10.623,6,16.932,4.994,1.092-.174,2.22-.354,3.3-.488.406-.051.528.059.609.132,1.38,1.228,1.34,7.1,1.311,11.383-.041,5.927-.079,11.526,2.13,14.4a5.556,5.556,0,0,0,4.572,2.214,9.187,9.187,0,0,0,3.594-.812c5.491-2.352,11.2-9.429,10.328-15.027-.761-4.9-1.264-8.13-.078-10.736,1.1-2.413,3.751-4.647,8.976-7.5a38.391,38.391,0,0,1,.909,8.757,38.179,38.179,0,0,1-11.553,27.053,38.657,38.657,0,0,1-31.13,10.729,1.822,1.822,0,0,0-.4,3.619,42.319,42.319,0,0,0,34.074-11.745,41.8,41.8,0,0,0,12.648-29.615A42.081,42.081,0,0,0-411.3-294.495c2.405-1.715,4.2-3.2,5.19-4.059a48.4,48.4,0,0,1,11.14,11.164,48,48,0,0,1,8.4,36.018,48.376,48.376,0,0,1-55.553,39.8A48.009,48.009,0,0,1-473.532-231.1a48,48,0,0,1-8.4-36.018c.378-2.291-3.212-2.892-3.592-.593a51.619,51.619,0,0,0,9.03,38.731,51.626,51.626,0,0,0,33.774,21,52.623,52.623,0,0,0,8.578.707,51.587,51.587,0,0,0,30.156-9.735,51.621,51.621,0,0,0,21-33.772,51.6,51.6,0,0,0-3.609-29.205,52.5,52.5,0,0,0,8.394-3.306c7.155-3.573,12.154-8.341,14.457-13.79s2.238-12.357-.186-19.978" transform="translate(486.228 331.542)"/>
        </g>
      </g>
    </g>
  </g>
</svg>
