<svg xmlns="http://www.w3.org/2000/svg" width="114.332" height="109.918" viewBox="0 0 114.332 109.918">
  <g id="Layer_1" transform="translate(-3.27 -8.09)">
    <g id="Grupo_971647" data-name="Grupo 971647" transform="translate(3.27 8.09)">
      <path id="Trazado_736438" data-name="Trazado 736438" d="M11.933,112.056V13.669a3.08,3.08,0,1,0-6.16,0V115.136a3.08,3.08,0,0,0,3.08,3.08H114.735a3.08,3.08,0,1,0,0-6.16Z" transform="translate(-4.626 -9.444)" fill="#f0c020"/>
      <circle id="Elipse_5947" data-name="Elipse 5947" cx="5.958" cy="5.958" r="5.958" transform="translate(52.175 34.009)" fill="#ffb69f"/>
      <path id="Trazado_736439" data-name="Trazado 736439" d="M106.589,16.851l-4.868,12.37L100.2,25.71,90.2,30.055a2.968,2.968,0,0,0-5.418,1.678v.674L56.448,44.726a2.971,2.971,0,0,0-5.885.578v1.98L19.217,60.91V50.877L96.524,17.272l-2.3-5.289Z" transform="translate(-11.908 -10.199)" fill="#fc5d3d"/>
      <path id="Trazado_736440" data-name="Trazado 736440" d="M126.183,161.657V187.2a4.2,4.2,0,0,1-4.2,4.2h0a4.2,4.2,0,0,1-4.2-4.2V166.855a1.375,1.375,0,0,0-1.375-1.375H101.126l-3.721,10.9a4.584,4.584,0,0,1-1.579,2.179L80.8,190.449a4.2,4.2,0,1,1-5.058-6.711l12.512-9.989a4.574,4.574,0,0,0,1.682-2.535l2.255-8.864v-5.275H121.6A4.584,4.584,0,0,1,126.183,161.657Z" transform="translate(-41.618 -88.789)" fill="#7d7b79"/>
      <path id="Trazado_736441" data-name="Trazado 736441" d="M93.547,81.173v5.491l-5.94,2.58V81.173a2.971,2.971,0,0,1,5.885-.578A3.009,3.009,0,0,1,93.547,81.173Z" transform="translate(-48.952 -46.068)" fill="#ffb69f"/>
      <path id="Trazado_736442" data-name="Trazado 736442" d="M168.217,51.563v4.185l-5.94,2.58V51.563a2.968,2.968,0,0,1,5.418-1.678,2.935,2.935,0,0,1,.522,1.678Z" transform="translate(-89.399 -30.029)" fill="#ffb69f"/>
      <path id="Trazado_736443" data-name="Trazado 736443" d="M127.771,64.2V79.585a4.58,4.58,0,0,1-2.755,4.2L119,86.4v20.369H99.524V94.87l-5.5,2.4a4.584,4.584,0,0,1-6.412-4.2v-11.4l5.94-2.58V90.832l28.284-12.3V66.783Z" transform="translate(-48.952 -38.484)" fill="#72c2e9"/>
      <g id="Grupo_971638" data-name="Grupo 971638" transform="translate(30.359 25.999)">
        <path id="Trazado_736444" data-name="Trazado 736444" d="M78.328,150.853c-1.688-.558-3.432-1.045-4.411-5.262-.9,3.883-2.346,4.58-4.411,5.262,3.367,1.113,3.875,2.955,4.411,5.262C74.84,152.138,76.366,151.5,78.328,150.853Z" transform="translate(-69.507 -108.569)" fill="#f0c020"/>
        <path id="Trazado_736445" data-name="Trazado 736445" d="M202.994,70.078c-1.688-.558-3.432-1.045-4.411-5.262-.9,3.883-2.346,4.58-4.411,5.262,3.367,1.113,3.875,2.955,4.411,5.262.923-3.977,2.449-4.614,4.411-5.262Z" transform="translate(-137.034 -64.816)" fill="#f0c020"/>
        <path id="Trazado_736446" data-name="Trazado 736446" d="M191.877,115.964c-1.688-.558-3.432-1.045-4.411-5.262-.9,3.883-2.346,4.58-4.411,5.262,3.367,1.113,3.875,2.955,4.411,5.262C188.39,117.249,189.916,116.612,191.877,115.964Z" transform="translate(-131.013 -89.671)" fill="#f0c020"/>
      </g>
      <path id="Trazado_736447" data-name="Trazado 736447" d="M106.589,16.851l-4.868,12.37L100.2,25.71,90.2,30.055a2.968,2.968,0,0,0-5.418,1.678v.674L56.448,44.726a2.971,2.971,0,0,0-5.885.578v1.98L19.217,60.91V50.877L96.524,17.272l-2.3-5.289Z" transform="translate(-11.908 -10.199)" fill="#fc5d3d"/>
      <path id="Trazado_736448" data-name="Trazado 736448" d="M71.476,155.035c-.489-2.108-.812-3.5-3.662-4.442a1.135,1.135,0,0,1,0-2.153c1.716-.567,2.849-.941,3.662-4.442a1.135,1.135,0,0,1,2.208,0c.831,3.58,2.073,3.918,3.662,4.442a1.135,1.135,0,0,1,0,2.153c-1.654.546-2.85.941-3.662,4.442A1.134,1.134,0,0,1,71.476,155.035Zm-.648-5.492a5.888,5.888,0,0,1,1.775,1.876,5.609,5.609,0,0,1,1.677-1.892,5.781,5.781,0,0,1-1.7-1.961,5.621,5.621,0,0,1-1.756,1.977Z" transform="translate(-37.811 -81.234)"/>
      <path id="Trazado_736449" data-name="Trazado 736449" d="M196.143,74.259c-.489-2.108-.812-3.5-3.662-4.442a1.135,1.135,0,0,1,0-2.153c1.716-.567,2.849-.941,3.662-4.442a1.135,1.135,0,0,1,2.208,0c.831,3.58,2.073,3.918,3.662,4.442a1.135,1.135,0,0,1,0,2.153c-1.654.546-2.85.941-3.662,4.442A1.134,1.134,0,0,1,196.143,74.259Zm-.648-5.492a5.888,5.888,0,0,1,1.775,1.876,5.609,5.609,0,0,1,1.677-1.892,5.786,5.786,0,0,1-1.7-1.961,5.622,5.622,0,0,1-1.756,1.977Z" transform="translate(-105.339 -37.48)"/>
      <path id="Trazado_736450" data-name="Trazado 736450" d="M185.026,120.146c-.489-2.108-.812-3.5-3.662-4.442a1.135,1.135,0,0,1,0-2.153c1.716-.567,2.849-.941,3.662-4.442a1.135,1.135,0,0,1,2.208,0c.831,3.58,2.073,3.918,3.662,4.442a1.135,1.135,0,0,1,0,2.153c-1.654.546-2.85.941-3.662,4.442A1.134,1.134,0,0,1,185.026,120.146Zm-.648-5.492a5.888,5.888,0,0,1,1.775,1.876,5.609,5.609,0,0,1,1.677-1.892,5.786,5.786,0,0,1-1.7-1.961,5.616,5.616,0,0,1-1.756,1.977Z" transform="translate(-99.317 -62.336)"/>
      <g id="Grupo_971646" data-name="Grupo 971646" transform="translate(0 0)">
        <g id="Grupo_971639" data-name="Grupo 971639" transform="translate(64.627 49.196)">
          <path id="Trazado_736451" data-name="Trazado 736451" d="M145.419,131.4a1.146,1.146,0,0,1-1.146-1.146v-1.3a1.146,1.146,0,1,1,2.292,0v1.3A1.146,1.146,0,0,1,145.419,131.4Zm0-5.888a1.146,1.146,0,0,1-1.146-1.146v-7.792a1.146,1.146,0,0,1,2.292,0v7.792A1.146,1.146,0,0,1,145.419,125.51Z" transform="translate(-144.273 -115.427)" fill="#c5e5fe"/>
        </g>
        <g id="Grupo_971640" data-name="Grupo 971640" transform="translate(10.13 10.047)">
          <path id="Trazado_736452" data-name="Trazado 736452" d="M25.465,62.316a1.146,1.146,0,0,1,.6-1.5l1.851-.792a1.146,1.146,0,1,1,.9,2.107l-1.851.792A1.146,1.146,0,0,1,25.465,62.316Zm6.065-2.594a1.146,1.146,0,0,1,.6-1.5L97.873,30.1a1.146,1.146,0,0,1,.9,2.107L33.034,60.325A1.145,1.145,0,0,1,31.53,59.722Z" transform="translate(-25.372 -30.011)" fill="#ffcbc3"/>
        </g>
        <g id="Grupo_971641" data-name="Grupo 971641" transform="translate(72.675 71.189)">
          <path id="Trazado_736453" data-name="Trazado 736453" d="M169.75,190.949A1.146,1.146,0,0,1,168.6,189.8v-2.75a1.146,1.146,0,1,1,2.292,0v2.75A1.146,1.146,0,0,1,169.75,190.949Zm0-7.333a1.146,1.146,0,0,1-1.146-1.146V165.7h-5.625a1.146,1.146,0,1,1,0-2.292h5.854a2.065,2.065,0,0,1,2.062,2.063v17A1.146,1.146,0,0,1,169.75,183.616Z" transform="translate(-161.833 -163.411)" fill="#efefef"/>
        </g>
        <g id="Grupo_971645" data-name="Grupo 971645" transform="translate(10.13 10.047)">
          <g id="Grupo_971642" data-name="Grupo 971642" transform="translate(54.496 39.149)">
            <path id="Trazado_736454" data-name="Trazado 736454" d="M145.419,131.4a1.146,1.146,0,0,1-1.146-1.146v-1.3a1.146,1.146,0,1,1,2.292,0v1.3A1.146,1.146,0,0,1,145.419,131.4Zm0-5.888a1.146,1.146,0,0,1-1.146-1.146v-7.792a1.146,1.146,0,0,1,2.292,0v7.792A1.146,1.146,0,0,1,145.419,125.51Z" transform="translate(-144.273 -115.427)" fill="#c5e5fe"/>
          </g>
          <g id="Grupo_971643" data-name="Grupo 971643">
            <path id="Trazado_736455" data-name="Trazado 736455" d="M25.465,62.316a1.146,1.146,0,0,1,.6-1.5l1.851-.792a1.146,1.146,0,1,1,.9,2.107l-1.851.792A1.146,1.146,0,0,1,25.465,62.316Zm6.065-2.594a1.146,1.146,0,0,1,.6-1.5L97.873,30.1a1.146,1.146,0,0,1,.9,2.107L33.034,60.325A1.145,1.145,0,0,1,31.53,59.722Z" transform="translate(-25.372 -30.011)" fill="#ffcbc3"/>
          </g>
          <g id="Grupo_971644" data-name="Grupo 971644" transform="translate(62.545 61.142)">
            <path id="Trazado_736456" data-name="Trazado 736456" d="M169.75,190.949A1.146,1.146,0,0,1,168.6,189.8v-2.75a1.146,1.146,0,1,1,2.292,0v2.75A1.146,1.146,0,0,1,169.75,190.949Zm0-7.333a1.146,1.146,0,0,1-1.146-1.146V165.7h-5.625a1.146,1.146,0,1,1,0-2.292h5.854a2.065,2.065,0,0,1,2.062,2.063v17A1.146,1.146,0,0,1,169.75,183.616Z" transform="translate(-161.833 -163.411)" fill="#efefef"/>
          </g>
        </g>
        <path id="Trazado_736457" data-name="Trazado 736457" d="M113.38,109.556h-7.75v-2.163a1.144,1.144,0,1,0-2.287,0v2.163H88.016a5.324,5.324,0,0,0,.967-3.053V80.956a5.745,5.745,0,0,0-5.734-5.729H74.467l0-18.471,5.326-2.31a5.722,5.722,0,0,0,3.447-5.257V29.623a4.086,4.086,0,0,0-.154-1.085l7.881-3.43,1.068,2.461a1.148,1.148,0,0,0,2.118-.037l4.868-12.37a1.142,1.142,0,0,0-.646-1.485L86,8.81a1.148,1.148,0,0,0-1.472,1.521l1.847,4.24L49.438,30.626a1.147,1.147,0,0,0,.917,2.1,0,0,0,0,1,0,0l37.982-16.51a1.146,1.146,0,0,0,.6-1.507l-1.2-2.755,8.727,3.433L93.03,24.117l-.422-.972a1.168,1.168,0,0,0-1.508-.6l-9.229,4.014a4.112,4.112,0,0,0-6.864,2.98L48.434,41.1a4.114,4.114,0,0,0-7.655,2.1v1.229L11.726,57.054V49.519L41.949,36.383a1.149,1.149,0,0,0,.591-1.507,1.173,1.173,0,0,0-1.508-.6L11.722,47.022V12.316a4.226,4.226,0,1,0-8.452,0V113.782A4.233,4.233,0,0,0,7.5,118.008H95.624a1.146,1.146,0,1,0,0-2.292H7.5a1.944,1.944,0,0,1-1.934-1.935V12.316a1.934,1.934,0,1,1,3.868,0V110.7a1.147,1.147,0,0,0,1.146,1.146h102.8a1.934,1.934,0,0,1,0,3.869h-8.589a1.146,1.146,0,0,0,0,2.292h8.589a4.226,4.226,0,0,0,0-8.452Zm-34.5-57.214-6.013,2.613A1.14,1.14,0,0,0,72.176,56V75.226H54.988V64.474a1.148,1.148,0,0,0-1.6-1.05l-5.5,2.4a3.44,3.44,0,0,1-4.808-3.153V52.018c1.034-.45.307-.135,3.648-1.583v10a1.148,1.148,0,0,0,1.6,1.054L76.6,49.193a1.143,1.143,0,0,0,.688-1.054v-11l3.648-1.585.005,13.63a3.429,3.429,0,0,1-2.067,3.154ZM75,47.388l-6.9,3a7.1,7.1,0,1,0-9.573,4.163l-9.522,4.141V43.346L75,32.042c0,8.778,0-7.181,0,15.346ZM61.4,52.869a4.813,4.813,0,1,1,4.813-4.813A4.83,4.83,0,0,1,61.4,52.869ZM77.3,29.622a1.824,1.824,0,0,1,3.648,0v3.433L77.3,34.641V29.622ZM43.072,43.194A1.832,1.832,0,0,1,44.9,41.37h.009a1.835,1.835,0,0,1,1.815,1.824v4.739l-3.648,1.586ZM11.722,59.55,40.78,46.919v15.75a5.732,5.732,0,0,0,8.012,5.257l3.905-1.7V81.5L51,88.184a1.146,1.146,0,0,0,.83,1.393,1.161,1.161,0,0,0,1.393-.825l1.733-6.825.032-.279v-4.13H83.249a3.459,3.459,0,0,1,3.443,3.438V106.5a3.057,3.057,0,0,1-6.115,0V86.154a2.528,2.528,0,0,0-2.521-2.521H62.78a1.15,1.15,0,0,0-1.086.774l-3.722,10.9a3.435,3.435,0,0,1-1.183,1.636L41.761,108.836a3.056,3.056,0,0,1-3.68-4.881l9.446-7.544A1.144,1.144,0,0,0,47.71,94.8a1.176,1.176,0,0,0-1.613-.179l-9.405,7.508a5.342,5.342,0,0,0-1.082,7.425H30.27v-2.163a1.146,1.146,0,1,0-2.292,0v2.163H11.722Zm42.524,46.7a1.152,1.152,0,0,0-1.146,1.146v2.163H44.543l13.627-10.78a5.763,5.763,0,0,0,1.975-2.723L63.6,85.924H78.056a.232.232,0,0,1,.229.229V106.5a5.311,5.311,0,0,0,.963,3.053H55.392v-2.163a1.149,1.149,0,0,0-1.146-1.145Z" transform="translate(-3.27 -8.09)"/>
        <circle id="Elipse_5948" data-name="Elipse 5948" cx="1.146" cy="1.146" r="1.146" transform="translate(95.792 107.626)"/>
        <path id="Trazado_736458" data-name="Trazado 736458" d="M94.019,61.143a1.145,1.145,0,1,0,1.508.591A1.168,1.168,0,0,0,94.019,61.143Z" transform="translate(-52.054 -36.778)"/>
        <path id="Trazado_736459" data-name="Trazado 736459" d="M105.5,192.028a1.149,1.149,0,0,0,0-1.623,1.168,1.168,0,0,0-1.613,0s0,0,0,0a1.144,1.144,0,0,0,1.613,1.623Z" transform="translate(-57.59 -106.668)"/>
      </g>
    </g>
  </g>
</svg>
