<svg xmlns="http://www.w3.org/2000/svg" width="121.663" height="121.663" viewBox="0 0 121.663 121.663">
  <g id="paisaje" transform="translate(-1 -1)">
    <g id="Grupo_971654" data-name="Grupo 971654" transform="translate(2.962 2.962)">
      <g id="Grupo_971648" data-name="Grupo 971648" transform="translate(11.774)">
        <path id="Trazado_736460" data-name="Trazado 736460" d="M49.208,55.1l.589.1a26.455,26.455,0,0,0-.589,5.671H8a9.476,9.476,0,0,1,2.767-6.691l9.007-9.007H8a9.476,9.476,0,0,1,2.767-6.691l9.007-9.007H8V27.49a3.8,3.8,0,0,1,1.629-3.1,53.515,53.515,0,0,0,17.19-20.6,3.036,3.036,0,0,1,5.534,0,53.515,53.515,0,0,0,17.19,20.6,3.8,3.8,0,0,1,1.629,3.1v1.982H39.4L48.4,38.479a9.476,9.476,0,0,1,2.767,6.691H39.4L48.4,54.178a9.34,9.34,0,0,1,.8.922Z" transform="translate(-8 -2)" fill="#8cc152"/>
      </g>
      <g id="Grupo_971649" data-name="Grupo 971649" transform="translate(76.53 19.623)">
        <path id="Trazado_736461" data-name="Trazado 736461" d="M58.661,57.133a7.852,7.852,0,0,1-15.169,2.845,26.456,26.456,0,0,0,1.432-8.732A24.4,24.4,0,0,0,41,37.51V35.548a7.773,7.773,0,0,1,2.943-6.083,7.763,7.763,0,0,1-.981-3.728,7.847,7.847,0,0,1,7.849-7.849c.1,0,.177.02.275.02a7.81,7.81,0,0,1,15.149,0c.1,0,.177-.02.275-.02a7.847,7.847,0,0,1,7.849,7.849,7.763,7.763,0,0,1-.981,3.728,7.752,7.752,0,0,1,1.06,11.146,7.788,7.788,0,0,1-.608,13.756,7.627,7.627,0,0,1,.53,2.767,7.849,7.849,0,0,1-15.7,0Z" transform="translate(-41 -12)" fill="#b4dd7f"/>
      </g>
      <g id="Grupo_971650" data-name="Grupo 971650" transform="translate(52.982 39.246)">
        <path id="Trazado_736462" data-name="Trazado 736462" d="M52.548,27.887a24.4,24.4,0,0,1,3.925,13.736,26.456,26.456,0,0,1-1.432,8.732c-2.257,6.456-6.907,10.891-12.3,10.891C35.142,61.246,29,52.455,29,41.623a26.455,26.455,0,0,1,.589-5.671C31.3,27.887,36.535,22,42.736,22,46.582,22,50.056,24.257,52.548,27.887Z" transform="translate(-29 -22)" fill="#a0d468"/>
      </g>
      <g id="Grupo_971651" data-name="Grupo 971651" transform="translate(70.643 80.455)">
        <path id="Trazado_736463" data-name="Trazado 736463" d="M61.312,51.281c.118-.039.216-.078.334-.118a5.8,5.8,0,0,1,1.864-.314A5.879,5.879,0,0,1,69.4,56.736H38A5.877,5.877,0,0,1,41.964,51.2c0-.118-.039-.235-.039-.353a7.821,7.821,0,0,1,14.658-3.827A5.814,5.814,0,0,1,61.312,51.281Z" transform="translate(-38 -43)" fill="#a0d468"/>
      </g>
      <g id="Grupo_971652" data-name="Grupo 971652" transform="translate(17.661 70.643)">
        <path id="Trazado_736464" data-name="Trazado 736464" d="M42.4,45.849a7.854,7.854,0,0,1,5.2,13.736l-1.491,1.962H15.474l-1.825-1.962a7.83,7.83,0,0,1,3.257-13.461c0-.1-.02-.177-.02-.275A7.847,7.847,0,0,1,24.736,38a7.176,7.176,0,0,1,1.962.255,7.757,7.757,0,0,1,4.847,3.768,9.315,9.315,0,0,1,1.04-.1,7.818,7.818,0,0,1,7.045,4.454A7.627,7.627,0,0,1,42.4,45.849Z" transform="translate(-11 -38)" fill="#b4dd7f"/>
      </g>
      <g id="Grupo_971653" data-name="Grupo 971653" transform="translate(0 94.191)">
        <path id="Trazado_736465" data-name="Trazado 736465" d="M92.266,65.7h5.887a3.953,3.953,0,0,1,3.925,3.925,3.936,3.936,0,0,1-3.925,3.925H21.623A3.953,3.953,0,0,1,17.7,69.623,3.936,3.936,0,0,1,21.623,65.7H5.925A3.936,3.936,0,0,1,2,61.774a3.837,3.837,0,0,1,1.158-2.767,3.837,3.837,0,0,1,2.767-1.158h5.887a3.936,3.936,0,0,0,3.925-3.925A3.953,3.953,0,0,1,19.661,50h96.153a3.936,3.936,0,0,1,3.925,3.925,3.953,3.953,0,0,1-3.925,3.925H92.266a3.936,3.936,0,0,0-3.925,3.925A3.953,3.953,0,0,0,92.266,65.7Z" transform="translate(-2 -50)" fill="#69d6f4"/>
      </g>
    </g>
    <g id="Grupo_971655" data-name="Grupo 971655" transform="translate(1 1)">
      <path id="Trazado_736466" data-name="Trazado 736466" d="M116.776,95.191h-10.09A7.839,7.839,0,0,0,99.115,89.3V75.517A9.71,9.71,0,0,0,105,77.53a9.823,9.823,0,0,0,9.812-9.812,9.282,9.282,0,0,0-.188-1.85,9.752,9.752,0,0,0,.969-15.127,9.642,9.642,0,0,0-1.366-11.154,9.452,9.452,0,0,0,.585-3.265,9.825,9.825,0,0,0-8.666-9.745,9.772,9.772,0,0,0-17.99,0,9.825,9.825,0,0,0-8.666,9.745,9.452,9.452,0,0,0,.585,3.265,9.721,9.721,0,0,0-2.141,3.919,12.671,12.671,0,0,0-8.255-3.259,13.3,13.3,0,0,0-9.865,4.817,11.523,11.523,0,0,0-3.3-7.017L50.87,32.4h9V28.445a5.809,5.809,0,0,0-2.451-4.7A51.586,51.586,0,0,1,40.864,3.912a5,5,0,0,0-9.085,0A51.525,51.525,0,0,1,15.223,23.749a5.812,5.812,0,0,0-2.449,4.7V32.4h9l-5.649,5.649a11.515,11.515,0,0,0-3.35,8.087V48.1h9l-5.649,5.649a11.515,11.515,0,0,0-3.35,8.087v1.962H34.359v7.849a9.825,9.825,0,0,0-9.745,8.666,9.793,9.793,0,0,0-4,14.882,5.894,5.894,0,0,0-5.881,5.887,1.963,1.963,0,0,1-1.962,1.962H6.887a5.887,5.887,0,0,0,0,11.774H17.06a5.821,5.821,0,0,0-.361,1.962,5.894,5.894,0,0,0,5.887,5.887h76.53a5.887,5.887,0,0,0,0-11.774H93.228a1.962,1.962,0,1,1,0-3.925h23.548a5.887,5.887,0,0,0,0-11.774Zm-14.305,0H76.147a3.908,3.908,0,0,1,2.064-1.723l1.362-.475-.047-1.442a1.186,1.186,0,0,0-.033-.285A5.862,5.862,0,0,1,90.481,88.4l.465.826.938.147a3.9,3.9,0,0,1,3.15,2.838l.577,2.131,2.049-.824a3.943,3.943,0,0,1,4.812,1.674ZM71.643,83.231c4.376-.755,8.189-3.993,10.683-8.66A9.846,9.846,0,0,0,89.3,77.53a9.71,9.71,0,0,0,5.887-2.013V86.49a7.739,7.739,0,0,0-1.774-.789,9.782,9.782,0,0,0-17.808,4.655A7.866,7.866,0,0,0,71.9,95.191h-.257ZM83.67,41.579l1.274-1.028-.783-1.436a5.835,5.835,0,0,1,5.016-8.685l1.905.1.392-1.542a5.854,5.854,0,0,1,11.36,0l.392,1.542,1.593-.067c.1,0,.208-.016.182-.026a5.894,5.894,0,0,1,5.887,5.887,5.813,5.813,0,0,1-.744,2.79l-.783,1.436,1.274,1.028a5.768,5.768,0,0,1,.791,8.34l-1.5,1.768,1.994,1.185a5.835,5.835,0,0,1-.449,10.316l-1.615.781.634,1.678a5.878,5.878,0,1,1-11.374,2.074v-5.2l7.419-9.276-3.067-2.453-4.352,5.441V36.322H95.191V48.386l-4.354-5.441L87.769,45.4l7.421,9.276V67.718A5.878,5.878,0,0,1,84.08,70.4a28.48,28.48,0,0,0,1.3-8.573A26.527,26.527,0,0,0,81.455,47.6v-1.47a5.844,5.844,0,0,1,2.215-4.555ZM69.681,44.171c6.493,0,11.774,7.922,11.774,17.661,0,8.734-4.252,15.987-9.812,17.4V64.485l7.419-9.276L76,52.756,71.643,58.2V52.02H67.718v15.1l-4.254-6.381L60.2,62.919,67.718,74.2v5.027c-5.559-1.407-9.812-8.662-9.812-17.4,0-9.739,5.281-17.661,11.774-17.661ZM57.581,48.1a23.907,23.907,0,0,0-2.1,4.606L50.87,48.1ZM18.9,56.52,27.322,48.1h3.112V44.171H16.963a7.575,7.575,0,0,1,1.935-3.35L27.322,32.4h3.112V28.472H16.7v-.027a1.856,1.856,0,0,1,.81-1.507A55.468,55.468,0,0,0,35.327,5.59a1.11,1.11,0,0,1,1.99,0A55.5,55.5,0,0,0,55.132,26.938a1.856,1.856,0,0,1,.812,1.507l-13.736.027V32.4h3.112l8.424,8.424a7.538,7.538,0,0,1,1.935,3.35H42.208V48.1h3.112l8.424,8.424a7.494,7.494,0,0,1,.608.693c-.137.867-.239,1.752-.3,2.657H16.963A7.557,7.557,0,0,1,18.9,56.52Zm19.386,7.274H54.055c.665,10.09,6.4,18.183,13.664,19.437v11.96H59.838a9.78,9.78,0,0,0-7.818-15.7,9.268,9.268,0,0,0-1.85.188,9.7,9.7,0,0,0-7.961-4.113h-.041a9.835,9.835,0,0,0-3.883-3.073ZM27.022,83.623l1.542-.392L28.5,81.637a.6.6,0,0,0-.024-.188.007.007,0,0,0,0,0,5.862,5.862,0,0,1,10.993-2.861l.826,1.146,1.328-.186a4.786,4.786,0,0,1,.589-.059,5.831,5.831,0,0,1,5.279,3.342l.781,1.621,1.682-.64a5.874,5.874,0,0,1,5.961,9.9l-1.136,1.472H25.955l-1.376-1.472a5.866,5.866,0,0,1,2.443-10.1Zm89.754,19.417H93.228a5.894,5.894,0,0,0-5.887,5.887,5.821,5.821,0,0,0,.361,1.962H83.417v3.925h15.7a1.962,1.962,0,1,1,0,3.925H22.585a1.962,1.962,0,1,1,0-3.925H34.359v-3.925H6.887a1.962,1.962,0,1,1,0-3.925h5.887a5.894,5.894,0,0,0,5.887-5.887,1.963,1.963,0,0,1,1.962-1.962h96.153a1.962,1.962,0,1,1,0,3.925Z" transform="translate(-1 -1)"/>
      <path id="Trazado_736467" data-name="Trazado 736467" d="M29.774,57.906A4.91,4.91,0,0,0,24.868,53H18v3.925h6.868a.984.984,0,0,1,.981.981,4.91,4.91,0,0,0,4.906,4.906h6.868V58.887H30.755A.984.984,0,0,1,29.774,57.906Z" transform="translate(15.359 49.04)"/>
    </g>
  </g>
</svg>
