<svg id="Layer_19" xmlns="http://www.w3.org/2000/svg" width="121.664" height="119.422" viewBox="0 0 121.664 119.422">
  <g id="Grupo_971637" data-name="Grupo 971637">
    <g id="Grupo_971484" data-name="Grupo 971484" transform="translate(92.99 72.242)">
      <g id="Grupo_971483" data-name="Grupo 971483" transform="translate(0 0)">
        <circle id="Elipse_5936" data-name="Elipse 5936" cx="10.969" cy="10.969" r="10.969" transform="translate(0 8.402) rotate(-22.514)" fill="#5290db"/>
      </g>
    </g>
    <g id="Grupo_971486" data-name="Grupo 971486" transform="translate(35.147 1.166)">
      <g id="Grupo_971485" data-name="Grupo 971485">
        <circle id="Elipse_5937" data-name="Elipse 5937" cx="9.096" cy="9.096" r="9.096" fill="#5290db"/>
      </g>
    </g>
    <g id="Grupo_971488" data-name="Grupo 971488" transform="translate(43.183 98.409)">
      <g id="Grupo_971487" data-name="Grupo 971487">
        <circle id="Elipse_5938" data-name="Elipse 5938" cx="9.923" cy="9.923" r="9.923" fill="#5290db"/>
      </g>
    </g>
    <g id="Grupo_971490" data-name="Grupo 971490" transform="translate(83.574 6.883)">
      <g id="Grupo_971489" data-name="Grupo 971489">
        <circle id="Elipse_5939" data-name="Elipse 5939" cx="13.389" cy="13.389" r="13.389" fill="#5290db"/>
      </g>
    </g>
    <g id="Grupo_971492" data-name="Grupo 971492" transform="translate(1.166 46.068)">
      <g id="Grupo_971491" data-name="Grupo 971491">
        <circle id="Elipse_5940" data-name="Elipse 5940" cx="13.389" cy="13.389" r="13.389" fill="#5290db"/>
      </g>
    </g>
    <g id="Grupo_971494" data-name="Grupo 971494" transform="translate(37.086 33.354)">
      <g id="Grupo_971493" data-name="Grupo 971493">
        <circle id="Elipse_5941" data-name="Elipse 5941" cx="26.823" cy="26.823" r="26.823" fill="#f5c84c"/>
      </g>
    </g>
    <g id="Grupo_971496" data-name="Grupo 971496" transform="translate(99.85 89.07)">
      <g id="Grupo_971495" data-name="Grupo 971495">
        <path id="Trazado_736385" data-name="Trazado 736385" d="M223.759,191.127a11.865,11.865,0,0,0-4.239,0,6.868,6.868,0,0,0-5.476,5.4,10.963,10.963,0,0,0,15.13-.245A6.856,6.856,0,0,0,223.759,191.127Z" transform="translate(-214.044 -190.936)" fill="#fc657e"/>
      </g>
    </g>
    <g id="Grupo_971498" data-name="Grupo 971498" transform="translate(103.154 80.747)">
      <g id="Grupo_971497" data-name="Grupo 971497">
        <path id="Trazado_736386" data-name="Trazado 736386" d="M225.259,173.093a4.133,4.133,0,1,0,4.134,4.133A4.133,4.133,0,0,0,225.259,173.093Z" transform="translate(-221.126 -173.093)" fill="#f9d0b4"/>
      </g>
    </g>
    <g id="Grupo_971500" data-name="Grupo 971500" transform="translate(38.077 12.309)">
      <g id="Grupo_971499" data-name="Grupo 971499">
        <path id="Trazado_736387" data-name="Trazado 736387" d="M89.679,26.544a9.843,9.843,0,0,0-3.515,0,5.694,5.694,0,0,0-4.541,4.481,9.091,9.091,0,0,0,12.546-.2,5.687,5.687,0,0,0-4.491-4.277Z" transform="translate(-81.624 -26.386)" fill="#f5c84c"/>
      </g>
    </g>
    <g id="Grupo_971502" data-name="Grupo 971502" transform="translate(39.391 3.992)">
      <g id="Grupo_971501" data-name="Grupo 971501">
        <circle id="Elipse_5942" data-name="Elipse 5942" cx="3.427" cy="3.427" r="3.427" transform="translate(0 4.846) rotate(-45)" fill="#f9d0b4"/>
      </g>
    </g>
    <g id="Grupo_971504" data-name="Grupo 971504" transform="translate(46.379 110.565)">
      <g id="Grupo_971503" data-name="Grupo 971503">
        <path id="Trazado_736388" data-name="Trazado 736388" d="M108.209,237.187a10.735,10.735,0,0,0-3.835,0,6.213,6.213,0,0,0-4.954,4.888,9.917,9.917,0,0,0,13.687-.223A6.2,6.2,0,0,0,108.209,237.187Z" transform="translate(-99.421 -237.014)" fill="#b2e26d"/>
      </g>
    </g>
    <g id="Grupo_971506" data-name="Grupo 971506" transform="translate(49.367 103.036)">
      <g id="Grupo_971505" data-name="Grupo 971505">
        <circle id="Elipse_5943" data-name="Elipse 5943" cx="3.739" cy="3.739" r="3.739" fill="#f9d0b4"/>
      </g>
    </g>
    <g id="Grupo_971508" data-name="Grupo 971508" transform="translate(87.888 23.285)">
      <g id="Grupo_971507" data-name="Grupo 971507">
        <path id="Trazado_736389" data-name="Trazado 736389" d="M200.258,50.147a14.488,14.488,0,0,0-5.173,0,8.382,8.382,0,0,0-6.684,6.6,13.383,13.383,0,0,0,18.468-.3,8.373,8.373,0,0,0-6.611-6.3Z" transform="translate(-188.401 -49.914)" fill="#70d6f9"/>
      </g>
    </g>
    <g id="Grupo_971510" data-name="Grupo 971510" transform="translate(91.919 13.125)">
      <g id="Grupo_971509" data-name="Grupo 971509">
        <circle id="Elipse_5944" data-name="Elipse 5944" cx="5.045" cy="5.045" r="5.045" fill="#f9d0b4"/>
      </g>
    </g>
    <g id="Grupo_971512" data-name="Grupo 971512" transform="translate(5.479 62.47)">
      <g id="Grupo_971511" data-name="Grupo 971511">
        <path id="Trazado_736390" data-name="Trazado 736390" d="M23.6,134.147a14.488,14.488,0,0,0-5.173,0,8.382,8.382,0,0,0-6.684,6.6,13.383,13.383,0,0,0,18.468-.3A8.373,8.373,0,0,0,23.6,134.147Z" transform="translate(-11.746 -133.914)" fill="#b598f9"/>
      </g>
    </g>
    <g id="Grupo_971514" data-name="Grupo 971514" transform="translate(7.414 50.218)">
      <g id="Grupo_971513" data-name="Grupo 971513" transform="translate(0 0)">
        <circle id="Elipse_5945" data-name="Elipse 5945" cx="5.045" cy="5.045" r="5.045" transform="translate(0 7.134) rotate(-45)" fill="#f9d0b4"/>
      </g>
    </g>
    <g id="Grupo_971516" data-name="Grupo 971516" transform="translate(45 69.749)">
      <g id="Grupo_971515" data-name="Grupo 971515">
        <path id="Trazado_736391" data-name="Trazado 736391" d="M132.027,157.366l-5.29-1.331a23.51,23.51,0,0,1-4.98-1.9,3.375,3.375,0,0,1-1.883-3.027v-1.59a9.694,9.694,0,0,1-9,0v1.59a3.375,3.375,0,0,1-1.883,3.027,22.972,22.972,0,0,1-4.98,1.9l-5.29,1.331a3.841,3.841,0,0,0-2.255,1.6,26.818,26.818,0,0,0,37.818,0A3.841,3.841,0,0,0,132.027,157.366Z" transform="translate(-96.465 -149.517)" fill="#70d6f9"/>
      </g>
    </g>
    <g id="Grupo_971518" data-name="Grupo 971518" transform="translate(54.14 48.848)">
      <g id="Grupo_971517" data-name="Grupo 971517">
        <path id="Trazado_736392" data-name="Trazado 736392" d="M134.2,105.266a1.79,1.79,0,0,0-2.406-.16,9.813,9.813,0,0,1-11.938-.007,1.789,1.789,0,0,0-2.4.163l0,0a5.05,5.05,0,0,0-1.4,3.486v8.2a9.77,9.77,0,0,0,19.54,0v-8.2a5.055,5.055,0,0,0-1.4-3.487Z" transform="translate(-116.057 -104.713)" fill="#f9d0b4"/>
      </g>
    </g>
    <g id="Grupo_971520" data-name="Grupo 971520" transform="translate(73.655 53.641)">
      <g id="Grupo_971519" data-name="Grupo 971519">
        <path id="Trazado_736393" data-name="Trazado 736393" d="M158.543,114.987a4.078,4.078,0,0,0-.627.05v7.4c0,.22-.01.439-.025.655a4.077,4.077,0,1,0,.652-8.1Z" transform="translate(-157.891 -114.987)" fill="#f9d0b4"/>
      </g>
    </g>
    <g id="Grupo_971522" data-name="Grupo 971522" transform="translate(49.433 53.641)">
      <g id="Grupo_971521" data-name="Grupo 971521">
        <path id="Trazado_736394" data-name="Trazado 736394" d="M110.674,122.433v-7.4a4.081,4.081,0,1,0,.025,8.051C110.684,122.872,110.674,122.653,110.674,122.433Z" transform="translate(-105.968 -114.987)" fill="#f9d0b4"/>
      </g>
    </g>
    <g id="Grupo_971524" data-name="Grupo 971524" transform="translate(51.459 38.952)">
      <g id="Grupo_971523" data-name="Grupo 971523">
        <path id="Trazado_736395" data-name="Trazado 736395" d="M132.495,89.854a.6.6,0,0,1-.615-.579c-.075-5.444-6.292-6.467-12.483-5.4a10.946,10.946,0,0,0-9.085,10.785v4.085a4.034,4.034,0,0,1,2.68-.508v-.8a5.05,5.05,0,0,1,1.4-3.486l0,0a1.79,1.79,0,0,1,2.4-.163,9.813,9.813,0,0,0,11.938.007,1.79,1.79,0,0,1,2.406.16,5.05,5.05,0,0,1,1.4,3.486v.8a4.033,4.033,0,0,1,2.7.522V95.406C135.233,90.532,133.473,89.854,132.495,89.854Z" transform="translate(-110.311 -83.5)" fill="#5b5d60"/>
      </g>
    </g>
    <g id="Grupo_971526" data-name="Grupo 971526" transform="translate(65.531 73.949)">
      <g id="Grupo_971525" data-name="Grupo 971525">
        <path id="Trazado_736396" data-name="Trazado 736396" d="M145.237,158.938a3.332,3.332,0,0,1-.634-.416l-3.92,4.488a.846.846,0,0,0,.081,1.194l2.551,2.228a.846.846,0,0,0,1.194-.081l4.987-5.71A23.512,23.512,0,0,1,145.237,158.938Z" transform="translate(-140.475 -158.522)" fill="#9be5f9"/>
      </g>
    </g>
    <g id="Grupo_971528" data-name="Grupo 971528" transform="translate(53.269 73.949)">
      <g id="Grupo_971527" data-name="Grupo 971527">
        <path id="Trazado_736397" data-name="Trazado 736397" d="M123,163.01l-3.92-4.488a3.361,3.361,0,0,1-.633.416,23.647,23.647,0,0,1-4.257,1.707l4.985,5.707a.846.846,0,0,0,1.194.081l2.551-2.228A.847.847,0,0,0,123,163.01Z" transform="translate(-114.19 -158.522)" fill="#9be5f9"/>
      </g>
    </g>
    <g id="Grupo_971530" data-name="Grupo 971530" transform="translate(58.159 69.748)">
      <g id="Grupo_971529" data-name="Grupo 971529">
        <path id="Trazado_736398" data-name="Trazado 736398" d="M134.925,151.106v-1.59a9.694,9.694,0,0,1-9,0v1.59a3.368,3.368,0,0,1-1.249,2.611l3.92,4.488a.841.841,0,0,1,.2.458h3.255a.843.843,0,0,1,.2-.458l3.92-4.488a3.369,3.369,0,0,1-1.248-2.611Z" transform="translate(-124.674 -149.516)" fill="#f9d0b4"/>
      </g>
    </g>
    <g id="Grupo_971534" data-name="Grupo 971534" transform="translate(95.151 74.467)">
      <g id="Grupo_971533" data-name="Grupo 971533">
        <g id="Grupo_971532" data-name="Grupo 971532">
          <g id="Grupo_971531" data-name="Grupo 971531">
            <path id="Trazado_736399" data-name="Trazado 736399" d="M216.106,159.631a12.136,12.136,0,1,0,12.136,12.136A12.149,12.149,0,0,0,216.106,159.631Zm0,21.939a9.8,9.8,0,1,1,9.8-9.8A9.814,9.814,0,0,1,216.106,181.57Z" transform="translate(-203.971 -159.631)"/>
          </g>
        </g>
      </g>
    </g>
    <g id="Grupo_971538" data-name="Grupo 971538" transform="translate(33.981)">
      <g id="Grupo_971537" data-name="Grupo 971537">
        <g id="Grupo_971536" data-name="Grupo 971536">
          <g id="Grupo_971535" data-name="Grupo 971535">
            <path id="Trazado_736400" data-name="Trazado 736400" d="M83.105,0A10.262,10.262,0,1,0,93.368,10.262,10.274,10.274,0,0,0,83.105,0Zm0,18.192a7.93,7.93,0,1,1,7.93-7.93A7.939,7.939,0,0,1,83.105,18.192Z" transform="translate(-72.843)"/>
          </g>
        </g>
      </g>
    </g>
    <g id="Grupo_971542" data-name="Grupo 971542" transform="translate(42.017 97.244)">
      <g id="Grupo_971541" data-name="Grupo 971541">
        <g id="Grupo_971540" data-name="Grupo 971540">
          <g id="Grupo_971539" data-name="Grupo 971539">
            <path id="Trazado_736401" data-name="Trazado 736401" d="M101.16,208.457a11.089,11.089,0,1,0,11.089,11.089A11.1,11.1,0,0,0,101.16,208.457Zm0,19.846a8.757,8.757,0,1,1,8.757-8.757A8.766,8.766,0,0,1,101.16,228.3Z" transform="translate(-90.071 -208.457)"/>
          </g>
        </g>
      </g>
    </g>
    <g id="Grupo_971546" data-name="Grupo 971546" transform="translate(82.408 5.717)">
      <g id="Grupo_971545" data-name="Grupo 971545">
        <g id="Grupo_971544" data-name="Grupo 971544">
          <g id="Grupo_971543" data-name="Grupo 971543">
            <path id="Trazado_736402" data-name="Trazado 736402" d="M191.21,12.255A14.555,14.555,0,1,0,205.766,26.81,14.572,14.572,0,0,0,191.21,12.255Zm0,26.779A12.223,12.223,0,1,1,203.434,26.81,12.237,12.237,0,0,1,191.21,39.034Z" transform="translate(-176.655 -12.255)"/>
          </g>
        </g>
      </g>
    </g>
    <g id="Grupo_971550" data-name="Grupo 971550" transform="translate(0 44.902)">
      <g id="Grupo_971549" data-name="Grupo 971549">
        <g id="Grupo_971548" data-name="Grupo 971548">
          <g id="Grupo_971547" data-name="Grupo 971547">
            <path id="Trazado_736403" data-name="Trazado 736403" d="M14.555,96.255A14.555,14.555,0,1,0,29.111,110.81,14.572,14.572,0,0,0,14.555,96.255Zm0,26.779A12.223,12.223,0,1,1,26.779,110.81,12.237,12.237,0,0,1,14.555,123.034Z" transform="translate(0 -96.255)"/>
          </g>
        </g>
      </g>
    </g>
    <g id="Grupo_971552" data-name="Grupo 971552" transform="translate(92.179 104.308)">
      <g id="Grupo_971551" data-name="Grupo 971551">
        <path id="Trazado_736404" data-name="Trazado 736404" d="M204.274,226.166h-1.12v-1.073a1.474,1.474,0,0,0-1.493-1.493,1.494,1.494,0,0,0-1.493,1.446v1.12H199.1a1.474,1.474,0,0,0-1.493,1.493,1.445,1.445,0,0,0,1.493,1.493h1.073v1.073a1.474,1.474,0,0,0,1.493,1.493,1.494,1.494,0,0,0,1.493-1.446v-1.12h1.073a1.474,1.474,0,0,0,1.493-1.493A1.494,1.494,0,0,0,204.274,226.166Z" transform="translate(-197.601 -223.6)" fill="#70d6f9"/>
      </g>
    </g>
    <g id="Grupo_971554" data-name="Grupo 971554" transform="translate(78.28 116.25)">
      <g id="Grupo_971553" data-name="Grupo 971553">
        <circle id="Elipse_5946" data-name="Elipse 5946" cx="1.586" cy="1.586" r="1.586" fill="#f5c84c"/>
      </g>
    </g>
    <g id="Grupo_971556" data-name="Grupo 971556" transform="translate(19.768 93.765)">
      <g id="Grupo_971555" data-name="Grupo 971555">
        <path id="Trazado_736405" data-name="Trazado 736405" d="M48.334,203.881a3.637,3.637,0,0,1-2.892-2.846c0-.047-.14-.047-.14,0a3.637,3.637,0,0,1-2.892,2.846c-.047,0-.047.093,0,.14a3.637,3.637,0,0,1,2.892,2.846c0,.047.14.047.14,0a3.637,3.637,0,0,1,2.892-2.846C48.381,203.974,48.381,203.881,48.334,203.881Z" transform="translate(-42.375 -201)" fill="#fc657e"/>
      </g>
    </g>
    <g id="Grupo_971558" data-name="Grupo 971558" transform="translate(26.576)">
      <g id="Grupo_971557" data-name="Grupo 971557">
        <path id="Trazado_736406" data-name="Trazado 736406" d="M58.555,0a1.586,1.586,0,1,0,1.586,1.586A1.586,1.586,0,0,0,58.555,0Z" transform="translate(-56.969)" fill="#87d147"/>
      </g>
    </g>
    <g id="Grupo_971560" data-name="Grupo 971560" transform="translate(12.036 10.893)">
      <g id="Grupo_971559" data-name="Grupo 971559">
        <path id="Trazado_736407" data-name="Trazado 736407" d="M34.36,27.478a5.177,5.177,0,0,1-4.152-4.058c0-.093-.187-.093-.187,0a5.177,5.177,0,0,1-4.152,4.058c-.093,0-.093.14,0,.187a5.177,5.177,0,0,1,4.152,4.058c0,.093.187.093.187,0a5.177,5.177,0,0,1,4.152-4.058C34.453,27.618,34.453,27.478,34.36,27.478Z" transform="translate(-25.8 -23.35)" fill="#f5c84c"/>
      </g>
    </g>
    <g id="Grupo_971564" data-name="Grupo 971564" transform="translate(35.92 32.188)">
      <g id="Grupo_971563" data-name="Grupo 971563">
        <g id="Grupo_971562" data-name="Grupo 971562">
          <g id="Grupo_971561" data-name="Grupo 971561">
            <path id="Trazado_736408" data-name="Trazado 736408" d="M104.99,69a27.99,27.99,0,1,0,27.99,27.99A28.021,28.021,0,0,0,104.99,69Zm0,53.647A25.657,25.657,0,1,1,130.647,96.99,25.686,25.686,0,0,1,104.99,122.647Z" transform="translate(-77 -69)"/>
          </g>
        </g>
      </g>
    </g>
    <g id="Grupo_971566" data-name="Grupo 971566" transform="translate(98.724 87.905)">
      <g id="Grupo_971565" data-name="Grupo 971565">
        <path id="Trazado_736409" data-name="Trazado 736409" d="M228.931,194.341a7.976,7.976,0,0,0-6.251-5.695,13.1,13.1,0,0,0-4.657,0,8.028,8.028,0,0,0-6.363,6.1,1.166,1.166,0,1,0,2.271.528,5.7,5.7,0,0,1,4.51-4.338,10.768,10.768,0,0,1,3.82,0,5.658,5.658,0,0,1,4.428,4.046,1.166,1.166,0,0,0,2.242-.645Z" transform="translate(-211.63 -188.438)"/>
      </g>
    </g>
    <g id="Grupo_971570" data-name="Grupo 971570" transform="translate(101.987 79.58)">
      <g id="Grupo_971569" data-name="Grupo 971569">
        <g id="Grupo_971568" data-name="Grupo 971568">
          <g id="Grupo_971567" data-name="Grupo 971567">
            <path id="Trazado_736410" data-name="Trazado 736410" d="M223.924,170.593a5.3,5.3,0,1,0,5.3,5.3A5.306,5.306,0,0,0,223.924,170.593Zm0,8.267a2.967,2.967,0,1,1,2.967-2.967A2.97,2.97,0,0,1,223.924,178.86Z" transform="translate(-218.625 -170.593)"/>
          </g>
        </g>
      </g>
    </g>
    <g id="Grupo_971572" data-name="Grupo 971572" transform="translate(36.957 11.143)">
      <g id="Grupo_971571" data-name="Grupo 971571">
        <path id="Trazado_736411" data-name="Trazado 736411" d="M93.942,28.911a6.812,6.812,0,0,0-5.334-4.847,11.075,11.075,0,0,0-3.933,0A6.866,6.866,0,0,0,79.258,29.2a1.166,1.166,0,1,0,2.266.553,4.531,4.531,0,0,1,3.569-3.4,8.72,8.72,0,0,1,3.1,0,4.494,4.494,0,0,1,3.513,3.2,1.166,1.166,0,1,0,2.24-.65Z" transform="translate(-79.224 -23.888)"/>
      </g>
    </g>
    <g id="Grupo_971576" data-name="Grupo 971576" transform="translate(39.649 4.24)">
      <g id="Grupo_971575" data-name="Grupo 971575">
        <g id="Grupo_971574" data-name="Grupo 971574">
          <g id="Grupo_971573" data-name="Grupo 971573">
            <path id="Trazado_736412" data-name="Trazado 736412" d="M89.588,9.09a4.594,4.594,0,1,0,4.594,4.594A4.6,4.6,0,0,0,89.588,9.09Zm0,6.855a2.261,2.261,0,1,1,2.262-2.261A2.264,2.264,0,0,1,89.588,15.945Z" transform="translate(-84.994 -9.09)"/>
          </g>
        </g>
      </g>
    </g>
    <g id="Grupo_971578" data-name="Grupo 971578" transform="translate(45.259 109.4)">
      <g id="Grupo_971577" data-name="Grupo 971577">
        <path id="Trazado_736413" data-name="Trazado 736413" d="M112.908,240.043a7.407,7.407,0,0,0-5.771-5.337,11.973,11.973,0,0,0-4.253,0,7.381,7.381,0,0,0-5.833,5.559,1.167,1.167,0,0,0,2.269.543A5.046,5.046,0,0,1,103.3,237a9.628,9.628,0,0,1,3.416,0,5.064,5.064,0,0,1,3.939,3.654,1.166,1.166,0,0,0,2.25-.612Z" transform="translate(-97.019 -234.516)"/>
      </g>
    </g>
    <g id="Grupo_971582" data-name="Grupo 971582" transform="translate(48.201 101.87)">
      <g id="Grupo_971581" data-name="Grupo 971581">
        <g id="Grupo_971580" data-name="Grupo 971580">
          <g id="Grupo_971579" data-name="Grupo 971579">
            <path id="Trazado_736414" data-name="Trazado 736414" d="M108.232,218.374a4.905,4.905,0,1,0,4.906,4.905A4.911,4.911,0,0,0,108.232,218.374Zm0,7.478a2.573,2.573,0,1,1,2.573-2.573A2.576,2.576,0,0,1,108.232,225.852Z" transform="translate(-103.326 -218.374)"/>
          </g>
        </g>
      </g>
    </g>
    <g id="Grupo_971584" data-name="Grupo 971584" transform="translate(86.784 22.12)">
      <g id="Grupo_971583" data-name="Grupo 971583">
        <path id="Trazado_736415" data-name="Trazado 736415" d="M206.613,54.367a9.489,9.489,0,0,0-7.409-6.7,15.728,15.728,0,0,0-5.592,0,9.553,9.553,0,0,0-7.545,7.183,1.166,1.166,0,0,0,2.268.546,7.218,7.218,0,0,1,5.7-5.434,13.406,13.406,0,0,1,4.755,0,7.166,7.166,0,0,1,5.59,5.067,1.166,1.166,0,0,0,2.237-.662Z" transform="translate(-186.035 -47.417)"/>
      </g>
    </g>
    <g id="Grupo_971588" data-name="Grupo 971588" transform="translate(90.752 11.959)">
      <g id="Grupo_971587" data-name="Grupo 971587">
        <g id="Grupo_971586" data-name="Grupo 971586">
          <g id="Grupo_971585" data-name="Grupo 971585">
            <path id="Trazado_736416" data-name="Trazado 736416" d="M200.753,25.635a6.211,6.211,0,1,0,6.211,6.211,6.218,6.218,0,0,0-6.211-6.211Zm0,10.091a3.879,3.879,0,1,1,3.879-3.879A3.883,3.883,0,0,1,200.753,35.726Z" transform="translate(-194.542 -25.635)"/>
          </g>
        </g>
      </g>
    </g>
    <g id="Grupo_971590" data-name="Grupo 971590" transform="translate(4.348 61.305)">
      <g id="Grupo_971589" data-name="Grupo 971589">
        <path id="Trazado_736417" data-name="Trazado 736417" d="M29.992,138.6a9.582,9.582,0,0,0-7.474-6.93,15.74,15.74,0,0,0-5.592,0,9.534,9.534,0,0,0-7.577,7.318,1.166,1.166,0,1,0,2.276.514,7.205,7.205,0,0,1,5.72-5.537,13.381,13.381,0,0,1,4.755,0,7.237,7.237,0,0,1,5.64,5.242,1.166,1.166,0,1,0,2.252-.607Z" transform="translate(-9.321 -131.417)"/>
      </g>
    </g>
    <g id="Grupo_971594" data-name="Grupo 971594" transform="translate(8.344 51.144)">
      <g id="Grupo_971593" data-name="Grupo 971593">
        <g id="Grupo_971592" data-name="Grupo 971592">
          <g id="Grupo_971591" data-name="Grupo 971591">
            <path id="Trazado_736418" data-name="Trazado 736418" d="M24.1,109.635a6.211,6.211,0,1,0,6.211,6.211A6.218,6.218,0,0,0,24.1,109.635Zm0,10.091a3.879,3.879,0,1,1,3.879-3.879A3.883,3.883,0,0,1,24.1,119.726Z" transform="translate(-17.887 -109.635)"/>
          </g>
        </g>
      </g>
    </g>
    <g id="Grupo_971596" data-name="Grupo 971596" transform="translate(20.619 17.12)">
      <g id="Grupo_971595" data-name="Grupo 971595">
        <path id="Trazado_736419" data-name="Trazado 736419" d="M63.4,36.86a1.167,1.167,0,0,0-1.6.413L44.362,66.888a1.166,1.166,0,1,0,2.01,1.183L63.809,38.456A1.167,1.167,0,0,0,63.4,36.86Z" transform="translate(-44.201 -36.698)"/>
      </g>
    </g>
    <g id="Grupo_971598" data-name="Grupo 971598" transform="translate(21.693 69.205)">
      <g id="Grupo_971597" data-name="Grupo 971597">
        <path id="Trazado_736420" data-name="Trazado 736420" d="M72.187,178.939l-23.6-30.14a1.167,1.167,0,0,0-1.837,1.438l23.6,30.14a1.167,1.167,0,0,0,1.837-1.438Z" transform="translate(-46.502 -148.353)"/>
      </g>
    </g>
    <g id="Grupo_971600" data-name="Grupo 971600" transform="translate(61.863 90.194)">
      <g id="Grupo_971599" data-name="Grupo 971599">
        <path id="Trazado_736421" data-name="Trazado 736421" d="M168.818,194.066a1.166,1.166,0,0,0-1.524-.632l-33.962,14.053a1.166,1.166,0,0,0,.892,2.155l33.962-14.053A1.167,1.167,0,0,0,168.818,194.066Z" transform="translate(-132.612 -193.345)"/>
      </g>
    </g>
    <g id="Grupo_971602" data-name="Grupo 971602" transform="translate(98.08 32.762)">
      <g id="Grupo_971601" data-name="Grupo 971601">
        <path id="Trazado_736422" data-name="Trazado 736422" d="M219.038,112.683l-6.47-41.466a1.166,1.166,0,1,0-2.3.359l6.47,41.466a1.166,1.166,0,0,0,1.151.987,1.2,1.2,0,0,0,.181-.014,1.165,1.165,0,0,0,.972-1.332Z" transform="translate(-210.25 -70.23)"/>
      </g>
    </g>
    <g id="Grupo_971604" data-name="Grupo 971604" transform="translate(52.604 10.902)">
      <g id="Grupo_971603" data-name="Grupo 971603">
        <path id="Trazado_736423" data-name="Trazado 736423" d="M143.7,29.613,114.17,23.4a1.166,1.166,0,1,0-.48,2.282l29.53,6.217a1.166,1.166,0,1,0,.48-2.282Z" transform="translate(-112.764 -23.371)"/>
      </g>
    </g>
    <g id="Grupo_971606" data-name="Grupo 971606" transform="translate(27.25 58.571)">
      <g id="Grupo_971605" data-name="Grupo 971605">
        <path id="Trazado_736424" data-name="Trazado 736424" d="M67.836,125.711l-8.232-.155a1.166,1.166,0,1,0-.044,2.332l8.232.155h.022a1.166,1.166,0,0,0,.021-2.332Z" transform="translate(-58.416 -125.555)"/>
      </g>
    </g>
    <g id="Grupo_971608" data-name="Grupo 971608" transform="translate(46.916 17.787)">
      <g id="Grupo_971607" data-name="Grupo 971607">
        <path id="Trazado_736425" data-name="Trazado 736425" d="M108.908,54.574l-6.082-15.7a1.166,1.166,0,1,0-2.175.842l6.082,15.7a1.166,1.166,0,1,0,2.175-.842Z" transform="translate(-100.572 -38.13)"/>
      </g>
    </g>
    <g id="Grupo_971610" data-name="Grupo 971610" transform="translate(85.936 73.527)">
      <g id="Grupo_971609" data-name="Grupo 971609">
        <path id="Trazado_736426" data-name="Trazado 736426" d="M196.312,163.911l-10.333-6.131a1.166,1.166,0,1,0-1.19,2.006l10.333,6.131a1.166,1.166,0,0,0,1.19-2.006Z" transform="translate(-184.217 -157.616)"/>
      </g>
    </g>
    <g id="Grupo_971612" data-name="Grupo 971612" transform="translate(79.207 28.888)">
      <g id="Grupo_971611" data-name="Grupo 971611">
        <path id="Trazado_736427" data-name="Trazado 736427" d="M178.489,62.18a1.167,1.167,0,0,0-1.639.187l-6.8,8.552a1.166,1.166,0,1,0,1.825,1.452l6.8-8.552A1.166,1.166,0,0,0,178.489,62.18Z" transform="translate(-169.793 -61.927)"/>
      </g>
    </g>
    <g id="Grupo_971614" data-name="Grupo 971614" transform="translate(54.181 85.52)">
      <g id="Grupo_971613" data-name="Grupo 971613">
        <path id="Trazado_736428" data-name="Trazado 736428" d="M120.275,183.357a1.167,1.167,0,0,0-1.4.87l-2.7,11.522a1.166,1.166,0,1,0,2.271.531l2.7-11.522a1.166,1.166,0,0,0-.87-1.4Z" transform="translate(-116.145 -183.326)"/>
      </g>
    </g>
    <g id="Grupo_971616" data-name="Grupo 971616" transform="translate(67.244 68.944)">
      <g id="Grupo_971615" data-name="Grupo 971615">
        <path id="Trazado_736429" data-name="Trazado 736429" d="M160.562,157.215a5.022,5.022,0,0,0-2.81-1.9l-5.29-1.331a22.66,22.66,0,0,1-4.692-1.785l-.057-.03a2.195,2.195,0,0,1-1.232-1.981v-1.228a1.166,1.166,0,0,0-2.332,0v1.228a4.512,4.512,0,0,0,2.464,4.038,12.846,12.846,0,0,0,1.568.748,25.026,25.026,0,0,0,3.712,1.273l5.29,1.331a2.687,2.687,0,0,1,1.5,1.019,1.166,1.166,0,1,0,1.88-1.381Z" transform="translate(-144.148 -147.792)"/>
      </g>
    </g>
    <g id="Grupo_971618" data-name="Grupo 971618" transform="translate(44.042 68.866)">
      <g id="Grupo_971617" data-name="Grupo 971617">
        <path id="Trazado_736430" data-name="Trazado 736430" d="M109.777,147.625a1.166,1.166,0,0,0-1.166,1.166V150.1a2.195,2.195,0,0,1-1.232,1.981,21.984,21.984,0,0,1-4.749,1.816l-5.29,1.331a4.961,4.961,0,0,0-2.673,1.721,1.166,1.166,0,0,0,1.817,1.462,2.65,2.65,0,0,1,1.425-.921l5.29-1.331a24.036,24.036,0,0,0,5.211-1.985,4.513,4.513,0,0,0,2.534-4.073v-1.306a1.166,1.166,0,0,0-1.166-1.166Z" transform="translate(-94.41 -147.625)"/>
      </g>
    </g>
    <g id="Grupo_971622" data-name="Grupo 971622" transform="translate(52.973 47.679)">
      <g id="Grupo_971621" data-name="Grupo 971621">
        <g id="Grupo_971620" data-name="Grupo 971620">
          <g id="Grupo_971619" data-name="Grupo 971619">
            <path id="Trazado_736431" data-name="Trazado 736431" d="M133.711,103.125a2.949,2.949,0,0,0-3.97-.273,8.646,8.646,0,0,1-10.5-.007,2.95,2.95,0,0,0-3.968.28,6.192,6.192,0,0,0-1.718,4.291v8.2a10.936,10.936,0,1,0,21.872,0v-8.2A6.19,6.19,0,0,0,133.711,103.125Zm-.615,12.49a8.6,8.6,0,0,1-17.207,0v-8.2a3.87,3.87,0,0,1,1.077-2.685.607.607,0,0,1,.441-.188.644.644,0,0,1,.4.139,10.979,10.979,0,0,0,13.377.005.625.625,0,0,1,.842.048,3.87,3.87,0,0,1,1.073,2.681v8.2Z" transform="translate(-113.556 -102.208)"/>
          </g>
        </g>
      </g>
    </g>
    <g id="Grupo_971624" data-name="Grupo 971624" transform="translate(73.14 52.474)">
      <g id="Grupo_971623" data-name="Grupo 971623">
        <path id="Trazado_736432" data-name="Trazado 736432" d="M157.954,112.487a1.166,1.166,0,1,0,0,2.332,2.913,2.913,0,0,1,0,5.826,1.166,1.166,0,1,0,0,2.332,5.245,5.245,0,0,0,0-10.49Z" transform="translate(-156.788 -112.487)"/>
      </g>
    </g>
    <g id="Grupo_971626" data-name="Grupo 971626" transform="translate(48.268 52.475)">
      <g id="Grupo_971625" data-name="Grupo 971625">
        <path id="Trazado_736433" data-name="Trazado 736433" d="M108.714,120.646a2.913,2.913,0,1,1,0-5.826,1.166,1.166,0,0,0,0-2.332,5.245,5.245,0,1,0,0,10.49,1.166,1.166,0,1,0,0-2.332Z" transform="translate(-103.469 -112.488)"/>
      </g>
    </g>
    <g id="Grupo_971630" data-name="Grupo 971630" transform="translate(50.293 37.784)">
      <g id="Grupo_971629" data-name="Grupo 971629">
        <g id="Grupo_971628" data-name="Grupo 971628">
          <g id="Grupo_971627" data-name="Grupo 971627">
            <path id="Trazado_736434" data-name="Trazado 736434" d="M131.687,87.4a6.115,6.115,0,0,0-2.189-4.329c-3.2-2.653-8.661-2.188-11.633-1.675a12.088,12.088,0,0,0-10.053,11.934v3.853a1.166,1.166,0,1,0,2.332,0V93.326a9.759,9.759,0,0,1,8.118-9.636c4.323-.746,7.964-.308,9.746,1.171a3.843,3.843,0,0,1,1.372,3.092,1.774,1.774,0,0,0,1.781,1.731c.97,0,1.572,1.681,1.572,4.385v3.157a1.166,1.166,0,1,0,2.332,0V94.07c0-5.277-2.068-6.457-3.378-6.675Z" transform="translate(-107.811 -80.995)"/>
          </g>
        </g>
      </g>
    </g>
    <g id="Grupo_971632" data-name="Grupo 971632" transform="translate(64.366 73.111)">
      <g id="Grupo_971631" data-name="Grupo 971631">
        <path id="Trazado_736435" data-name="Trazado 736435" d="M148.539,159.255a1.166,1.166,0,0,0-1.645.111l-4.384,5.019-2.069-1.808,3.423-3.919a1.166,1.166,0,1,0-1.756-1.534l-3.634,4.16a2.014,2.014,0,0,0,.192,2.84l2.552,2.229a2.015,2.015,0,0,0,2.84-.193l4.594-5.26a1.166,1.166,0,0,0-.112-1.645Z" transform="translate(-137.978 -156.724)"/>
      </g>
    </g>
    <g id="Grupo_971634" data-name="Grupo 971634" transform="translate(52.4 73.04)">
      <g id="Grupo_971633" data-name="Grupo 971633">
        <path id="Trazado_736436" data-name="Trazado 736436" d="M122.885,161.2l-3.7-4.232a1.166,1.166,0,0,0-1.756,1.534l3.486,3.991-2.069,1.807-4.478-5.126a1.166,1.166,0,1,0-1.756,1.534l4.687,5.367a2,2,0,0,0,1.381.685c.047,0,.092,0,.139,0a2,2,0,0,0,1.321-.5l2.551-2.228a2.011,2.011,0,0,0,.191-2.84Z" transform="translate(-112.327 -156.572)"/>
      </g>
    </g>
    <g id="Grupo_971636" data-name="Grupo 971636" transform="translate(61.315 77.729)">
      <g id="Grupo_971635" data-name="Grupo 971635">
        <path id="Trazado_736437" data-name="Trazado 736437" d="M135.243,166.625h-2.638a1.166,1.166,0,0,0,0,2.332h2.638a1.166,1.166,0,0,0,0-2.332Z" transform="translate(-131.439 -166.625)"/>
      </g>
    </g>
  </g>
</svg>
