<svg id="Layer_2" data-name="Layer 2" xmlns="http://www.w3.org/2000/svg" width="76" height="76" viewBox="0 0 76 76">
  <g id="_02.youtube" data-name="02.youtube">
    <rect id="background" width="76" height="76" rx="16.33" fill="#eb0000"/>
    <path id="icon" d="M79.181,53.712c-.946-2.91-4.075-4.673-6.955-5.077a147.516,147.516,0,0,0-31.166,0c-2.88.4-6.018,2.149-6.955,5.077a59.074,59.074,0,0,0,0,22.754c.946,2.906,4.075,4.673,6.955,5.077a147.517,147.517,0,0,0,31.166,0c2.88-.4,6.018-2.149,6.955-5.077A59.074,59.074,0,0,0,79.181,53.712Zm-28.2,20.436V56.025l14.753,9.062C60.765,68.143,55.937,71.105,50.985,74.149Z" transform="translate(-18.813 -27.257)" fill="#fff"/>
  </g>
</svg>
